<svg width="1365" height="380" viewBox="0 0 1365 380" fill="none" xmlns="http://www.w3.org/2000/svg">
<path d="M961.846 380H874.446C769.628 380 684.445 294.817 684.445 190C684.445 85.1833 769.628 0 874.446 0C979.266 0 1064.45 85.1833 1064.45 190V376.2H988.446V190C988.446 126.983 937.466 76 874.446 76C811.428 76 760.445 126.983 760.445 190C760.445 253.017 811.428 304 874.446 304H961.846V380Z" fill="white"/>
<path d="M532.453 376.2H456.453V190C456.453 85.1833 541.636 0 646.453 0V75.9999C583.436 75.9999 532.453 126.983 532.453 190V376.2Z" fill="white"/>
<path d="M190.445 380C85.6283 380 0.445312 294.817 0.445312 190C0.445312 85.1833 85.6283 0 190.445 0C295.261 0 380.445 85.1833 380.445 190V228H161.945V152H297.795C281.961 107.667 239.845 76 190.445 76C127.428 76 76.4453 126.983 76.4453 190C76.4453 253.017 127.428 304 190.445 304C228.445 304 263.911 285 285.128 253.333L348.145 295.767C312.995 348.333 254.095 380 190.445 380Z" fill="white"/>
<path d="M1364.02 75.9961H1178.45V376.196H1364.02V75.9961Z" fill="white"/>
</svg>
