<svg width="100" height="100" viewBox="0 0 100 100" fill="none" xmlns="http://www.w3.org/2000/svg">
<circle opacity="0.1" cx="50" cy="50" r="50" fill="#4E529A"/>
<rect x="22.7641" y="19.5122" width="53.6585" height="60.9756" rx="3" fill="#4F4F97"/>
<path d="M31.301 59.3496H46.7482C47.4213 59.3496 47.9677 58.8032 47.9677 58.13C47.9677 57.4569 47.4213 56.9105 46.7482 56.9105H31.301C30.6278 56.9105 30.0815 57.4569 30.0815 58.13C30.0815 58.8032 30.6278 59.3496 31.301 59.3496Z" fill="#8B8CF7"/>
<path d="M31.301 64.2276H46.7482C47.4213 64.2276 47.9677 63.6813 47.9677 63.0081C47.9677 62.3349 47.4213 61.7886 46.7482 61.7886H31.301C30.6278 61.7886 30.0815 62.3349 30.0815 63.0081C30.0815 63.6813 30.6278 64.2276 31.301 64.2276Z" fill="#8B8CF7"/>
<path d="M31.301 69.1057H46.7482C47.4213 69.1057 47.9677 68.5593 47.9677 67.8861C47.9677 67.213 47.4213 66.6666 46.7482 66.6666H31.301C30.6278 66.6666 30.0815 67.213 30.0815 67.8861C30.0815 68.5593 30.6278 69.1057 31.301 69.1057Z" fill="#8B8CF7"/>
<path d="M67.8863 56.9105H52.4391C51.766 56.9105 51.2196 57.4569 51.2196 58.13C51.2196 58.8032 51.766 59.3496 52.4391 59.3496H67.8863C68.5595 59.3496 69.1058 58.8032 69.1058 58.13C69.1058 57.4569 68.5595 56.9105 67.8863 56.9105Z" fill="#8B8CF7"/>
<path d="M67.8863 61.7886H52.4391C51.766 61.7886 51.2196 62.3349 51.2196 63.0081C51.2196 63.6813 51.766 64.2276 52.4391 64.2276H67.8863C68.5595 64.2276 69.1058 63.6813 69.1058 63.0081C69.1058 62.3349 68.5595 61.7886 67.8863 61.7886Z" fill="#8B8CF7"/>
<path d="M67.8863 66.6666H52.4391C51.766 66.6666 51.2196 67.213 51.2196 67.8861C51.2196 68.5593 51.766 69.1057 52.4391 69.1057H67.8863C68.5595 69.1057 69.1058 68.5593 69.1058 67.8861C69.1058 67.213 68.5595 66.6666 67.8863 66.6666Z" fill="white"/>
<path d="M66.2603 30.0813H32.9269C31.3659 30.0813 30.0814 31.3658 30.0814 32.9268V51.626C30.0814 53.187 31.3659 54.4715 32.9269 54.4715H66.2603C67.8212 54.4715 69.1058 53.187 69.1058 51.626V32.9268C69.1058 31.3658 67.8212 30.0813 66.2603 30.0813ZM32.5204 32.9268C32.5204 32.6992 32.6993 32.5203 32.9269 32.5203H66.2603C66.4879 32.5203 66.6668 32.6992 66.6668 32.9268V40.6341L62.9269 37.3008C61.8212 36.3089 60.1139 36.3577 59.0245 37.4146L49.9188 46.5365L49.3985 46.6341C49.3659 46.6179 49.3334 46.6016 49.3009 46.5691L43.431 40.6992C42.3416 39.6097 40.6017 39.5772 39.4798 40.6179L32.5204 47.0569V32.9268Z" fill="#8B8CF7"/>
<circle opacity="0.3" cx="28.0487" cy="24.7968" r="1.21951" fill="white"/>
<circle opacity="0.3" cx="32.1139" cy="24.7967" r="1.21951" fill="#8B8CF7"/>
<circle opacity="0.3" cx="36.1789" cy="24.7967" r="1.21951" fill="#8B8CF7"/>
</svg>
