<svg width="100" height="100" viewBox="0 0 100 100" fill="none" xmlns="http://www.w3.org/2000/svg">
<circle opacity="0.1" cx="50" cy="50" r="50" fill="#4E529A"/>
<path d="M79.8001 25.0117L37.829 13.0198C36.4186 12.6168 34.9486 13.4335 34.5456 14.8439L19.5121 74.7967C19.1056 77.2357 20.3251 78.4332 23.1706 78.4332L64.5366 78.4332C65.947 78.8361 67.4171 78.0194 67.8201 76.609L81.6242 28.2951C82.0272 26.8847 81.2105 25.4147 79.8001 25.0117Z" fill="#4F4F97"/>
<path d="M65.3308 62.7875C62.1414 62.7875 59.5468 60.1929 59.5468 57.0035C59.5468 53.8142 62.1414 51.2195 65.3308 51.2195C68.5201 51.2195 71.1147 53.8142 71.1147 57.0035C71.1147 60.1929 68.5201 62.7875 65.3308 62.7875Z" fill="#8B8CF7"/>
<path d="M34.9523 62.7875C31.763 62.7875 29.1684 60.1929 29.1684 57.0035C29.1684 53.8142 31.763 51.2195 34.9523 51.2195C38.1417 51.2195 40.7363 53.8142 40.7363 57.0035C40.7363 60.1929 38.1417 62.7875 34.9523 62.7875Z" fill="#8B8CF7"/>
<path d="M71.5011 63.2736C69.9114 64.8381 67.7321 65.8051 65.3308 65.8051C62.9257 65.8051 60.7432 64.8351 59.1529 63.2661C58.3088 63.8742 57.5575 64.6036 56.9263 65.4312L57.7553 66.1573C60.2683 68.3584 61.7096 71.5297 61.7096 74.8583V78.3789H74.384C75.2173 78.3789 75.8929 77.7034 75.8929 76.8701V71.8405C75.8929 68.3182 74.1594 65.1936 71.5011 63.2736Z" fill="#8B8CF7"/>
<path d="M28.7821 63.2736C26.1238 65.1936 24.3904 68.3183 24.3904 71.8406V76.8701C24.3904 77.7034 25.0659 78.379 25.8992 78.379H38.5737V74.8583C38.5737 71.5297 40.0149 68.3584 42.5279 66.1574L43.357 65.4312C42.7258 64.6037 41.9744 63.8743 41.1303 63.2661C39.54 64.8351 37.3575 65.8051 34.9524 65.8051C32.5511 65.8051 30.3718 64.8381 28.7821 63.2736Z" fill="#8B8CF7"/>
<path d="M55.7671 68.4275C54.3472 69.9092 52.3511 70.8347 50.1417 70.8347C47.9323 70.8347 45.9362 69.9092 44.5162 68.4275C42.7255 69.996 41.5915 72.2965 41.5915 74.8583V78.379H58.6919V74.8583C58.6919 72.2965 57.5578 69.996 55.7671 68.4275Z" fill="#8B8CF7"/>
<path d="M50.1417 67.817C47.507 67.817 45.3636 65.6737 45.3636 63.039C45.3636 60.4043 47.507 58.2609 50.1417 58.2609C52.7764 58.2609 54.9198 60.4043 54.9198 63.039C54.9198 65.6737 52.7764 67.817 50.1417 67.817Z" fill="#8B8CF7"/>
<rect x="39.2993" y="23.3842" width="34.1463" height="3.25203" rx="1.62602" transform="rotate(15.9456 39.2993 23.3842)" fill="white"/>
<rect x="37.1927" y="29.2683" width="34.1463" height="3.25203" rx="1.62602" transform="rotate(15.9456 37.1927 29.2683)" fill="#B2B6F5"/>
<rect x="35.0397" y="35.7724" width="34.1463" height="3.25203" rx="1.62602" transform="rotate(15.9456 35.0397 35.7724)" fill="#8B8CF7"/>
</svg>
