<svg width="100" height="100" viewBox="0 0 100 100" fill="none" xmlns="http://www.w3.org/2000/svg">
<circle opacity="0.1" cx="50" cy="50" r="50" fill="#4E529A"/>
<rect x="26" y="24" width="44" height="52" rx="22" fill="#4F4F97"/>
<path d="M53.0661 30.8984H44.5823C41.9412 33.9088 38.6257 36.2278 34.8984 37.6773V48.79C34.8984 58.1881 40.3392 66.6162 48.8242 70.4743C57.3093 66.6162 62.75 58.1881 62.75 48.79V37.6785C59.0215 36.229 55.7072 33.91 53.0661 30.8984ZM58.5856 46.5232L47.2827 57.825C46.9279 58.1798 46.4629 58.3577 45.9991 58.3577C45.5341 58.3577 45.0691 58.1796 44.7143 57.825L39.0629 52.1747C38.3545 51.4651 38.3545 50.3147 39.0629 49.6051C39.7725 48.8967 40.9229 48.8967 41.6325 49.6051L45.9991 53.9718L56.0172 43.9549C56.7256 43.2453 57.876 43.2453 58.5856 43.9549C59.294 44.6644 59.294 45.8136 58.5856 46.5232ZM71.8211 28.4766C66.585 28.4766 61.8164 25.5994 59.3727 20.9688C59.0589 20.373 58.4403 20 57.7669 20H39.8813C39.208 20 38.5893 20.373 38.2744 20.9688C35.8321 25.5994 31.0634 28.4766 25.8164 28.4766C24.8138 28.4766 24 29.2903 24 30.293V48.79C24 56.2264 26.3238 63.3273 30.7195 69.3251C35.1152 75.3229 41.1856 79.6761 48.2769 81.9152C48.4549 81.9721 48.6402 82 48.8242 82C49.0083 82 49.1936 81.9721 49.3716 81.9152C56.4629 79.6762 62.5332 75.323 66.9289 69.3251C71.3246 63.3272 73.6484 56.2264 73.6484 48.79V30.293C73.6484 29.2903 72.8238 28.4766 71.8211 28.4766ZM66.3828 48.7077C66.3828 59.8314 59.765 69.7792 49.5229 74.0502C49.2989 74.1436 49.0616 74.1895 48.8242 74.1895C48.5869 74.1895 48.3483 74.1434 48.1255 74.0502C37.8834 69.7792 31.2656 59.8312 31.2656 48.7077V36.3174C31.2656 35.5327 31.7694 34.8364 32.5153 34.5918C36.3697 33.3239 39.7652 30.9929 42.3336 27.8505C42.6787 27.4279 43.1958 27.1833 43.7407 27.1833H53.9077C54.4648 27.1833 55.1211 27.6144 55.3147 27.8505C57.8831 30.9929 61.2786 33.3239 65.133 34.5918C65.6647 34.7662 66.0715 35.1694 66.2628 35.672C66.2654 35.6768 66.2664 35.6829 66.2689 35.6877C66.315 35.8124 66.3476 35.9432 66.3659 36.0776C66.3671 36.0909 66.3694 36.1055 66.3707 36.1188C66.378 36.1842 66.3828 36.2496 66.3828 36.3174V48.7077Z" fill="#8B8CF7"/>
</svg>
