<?xml version="1.0" encoding="utf-8"?>
<!-- Generator: Adobe Illustrator 27.5.0, SVG Export Plug-In . SVG Version: 6.00 Build 0)  -->
<svg version="1.1" id="Layer_1" xmlns="http://www.w3.org/2000/svg" xmlns:xlink="http://www.w3.org/1999/xlink" x="0px" y="0px"
	 viewBox="0 0 2196 433" style="enable-background:new 0 0 2196 433;" xml:space="preserve">
<style type="text/css">
	.st0{fill-rule:evenodd;clip-rule:evenodd;fill:#FFFFFF;fill-opacity:0.9;}
	.st1{fill:#FFFFFF;fill-opacity:0.9;}
</style>
<path class="st0" d="M757.6,216L542.7,0.1v158.2L329.3,316.6l213.4,0.1V432L757.6,216z"/>
<path class="st0" d="M0,216l214.9,216V275.4L426.8,117L215,116.9V0L0,216z"/>
<path class="st1" d="M1088.5,343.2H923.6v-47.6l94.4-105.9h-92v-46.8h160.8v45.2L989.6,296h98.9V343.2z"/>
<path class="st1" d="M1313.5,142.9l-79.8,84.3l81.4,116h-66l-52.7-76.5l-22.3,23.6v52.9h-53.9V48.5h53.9v169L1243,143h70.5V142.9z"
	/>
<path class="st1" d="M1547.9,123.4l-50.2,15.5c-1.9-10.3-7-19.7-15.4-28.1s-20.7-12.6-36.9-12.6c-13.2,0-24,3.7-32.4,11
	c-8.4,7.1-12.6,15.6-12.6,25.6c0,17.6,10.4,28.5,31.2,32.6l40.1,7.7c25.4,4.9,45.1,15.1,59.2,30.5c14.1,15.5,21.1,33.7,21.1,54.6
	c0,23.9-9.4,44.8-28.4,62.7c-18.6,17.6-43.8,26.5-75.4,26.5c-18.1,0-34.4-2.7-49-8.1s-26.3-12.6-35.2-21.6
	c-8.9-9.2-15.9-18.9-21.1-28.9c-4.9-10.3-7.8-20.9-8.9-31.8l51.9-13.8c1.3,15.5,7.3,28.4,17.8,38.7c10.8,10.3,25.8,15.5,45,15.5
	c14.6,0,25.9-3.3,34-9.8c8.4-6.5,12.6-15.1,12.6-25.6c0-8.4-3.1-15.6-9.3-21.6c-5.9-6.2-14.5-10.4-25.5-12.6l-40.1-8.1
	c-23.2-4.9-41.6-14.5-55.1-28.9s-20.2-32.3-20.2-53.7c0-25.5,9.7-47,29.2-64.3c19.7-17.4,43.3-26.1,70.9-26.1
	c16.5,0,31.2,2.3,44.2,6.9s23.4,10.9,31.2,18.7c7.8,7.6,13.9,15.5,18.2,23.6C1542.9,105.9,1546,114.4,1547.9,123.4z"/>
<path class="st1" d="M1642.7,422.2h-57.1l47-104.2l-84.7-175.1h60.4l53.1,117.2l49-117.2h57.5L1642.7,422.2z"/>
<path class="st1" d="M1842.3,228v115.2h-53.9V142.9h52.3v24.8c5.7-9.8,13.8-17.2,24.3-22.4s21.6-7.7,33.2-7.7
	c23.5,0,41.3,7.5,53.5,22.4c12.4,14.7,18.6,33.7,18.6,57v126.2h-53.9V226.4c0-11.9-3.1-21.6-9.3-28.9c-5.9-7.3-15.1-11-27.6-11
	c-11.3,0-20.4,3.9-27.1,11.8S1842.3,216.1,1842.3,228z"/>
<path class="st1" d="M2102.4,186.9c-14.3,0-26.3,5-36.1,15.1c-9.7,10-14.6,23.7-14.6,41.1s4.9,31.2,14.6,41.5
	c10,10,22.1,15.1,36.5,15.1c12.7,0,22.8-3.3,30.4-9.8c7.6-6.8,12.7-14.8,15.4-24l47.4,15.9c-4.9,18.5-15.4,34.3-31.6,47.6
	c-16.2,13.3-36.7,19.9-61.6,19.9c-29.7,0-54.7-10-75-30.1c-20-20.4-30-45.7-30-76.1c0-30.7,9.9-56,29.6-76.1
	c20-20.1,44.6-30.1,73.7-30.1c25.4,0,46.2,6.6,62.4,19.9c16.2,13,26.6,28.9,31.2,47.6l-48.2,16.3
	C2140.1,198.1,2125.4,186.9,2102.4,186.9z"/>
</svg>
