<svg width="102" height="20" viewBox="0 0 102 20" fill="none" xmlns="http://www.w3.org/2000/svg">
<path fill-rule="evenodd" clip-rule="evenodd" d="M35.0757 10.0016L25.1256 0.00341797V7.32571L15.2461 14.6569L25.1256 14.6637V19.9998L35.0757 10.0016Z" fill="#4E529A"/>
<path fill-rule="evenodd" clip-rule="evenodd" d="M6.00515e-05 9.99841L9.95019 19.9966L9.95019 12.7519L19.7573 5.41586L9.95019 5.40906L9.95019 0.000237607L6.00515e-05 9.99841Z" fill="#8C8DFC"/>
<path d="M50.3926 15.8896H42.7583V13.6844L47.1288 8.78392H42.8708V6.6164H50.3176V8.70853L45.8158 13.7033H50.3926V15.8896Z" fill="black" fill-opacity="0.9"/>
<path d="M60.8113 6.6164L57.1161 10.5179L60.8864 15.8896H57.8289L55.3904 12.3462L54.3588 13.4394V15.8896H51.864V2.24365H54.3588V10.0656L57.5475 6.6164H60.8113Z" fill="black" fill-opacity="0.9"/>
<path d="M71.6619 5.71169L69.3359 6.42792C69.2484 5.95043 69.0108 5.51693 68.6232 5.1274C68.2355 4.73788 67.6665 4.54311 66.9162 4.54311C66.3035 4.54311 65.8033 4.71274 65.4156 5.05201C65.028 5.37871 64.8341 5.77452 64.8341 6.23944C64.8341 7.05619 65.3156 7.5588 66.2785 7.74728L68.1355 8.10539C69.3109 8.33157 70.2238 8.80277 70.8741 9.51899C71.5243 10.2352 71.8494 11.0771 71.8494 12.0446C71.8494 13.1504 71.4118 14.1179 70.5364 14.9472C69.6736 15.764 68.5106 16.1724 67.0475 16.1724C66.2097 16.1724 65.4531 16.0467 64.7779 15.7954C64.1026 15.5441 63.5586 15.2111 63.146 14.7964C62.7333 14.3692 62.4082 13.9232 62.1706 13.4582C61.9455 12.9808 61.8079 12.4907 61.7579 11.9881L64.1589 11.3473C64.2214 12.0635 64.4965 12.6603 64.9842 13.1378C65.4844 13.6153 66.1784 13.854 67.0663 13.854C67.7416 13.854 68.2668 13.7033 68.6419 13.4017C69.0296 13.1001 69.2234 12.7043 69.2234 12.2143C69.2234 11.8247 69.0796 11.4918 68.792 11.2153C68.5169 10.9263 68.123 10.7316 67.6103 10.631L65.7533 10.2541C64.6778 10.0279 63.8275 9.58182 63.2022 8.91586C62.577 8.24989 62.2644 7.42058 62.2644 6.42792C62.2644 5.24677 62.7146 4.25411 63.6149 3.44993C64.5278 2.64574 65.622 2.24365 66.8975 2.24365C67.6603 2.24365 68.3418 2.35046 68.942 2.56407C69.5423 2.77768 70.0237 3.06668 70.3864 3.43108C70.749 3.78291 71.0304 4.1473 71.2304 4.52426C71.4305 4.90123 71.5743 5.29703 71.6619 5.71169Z" fill="black" fill-opacity="0.9"/>
<path d="M76.0521 19.5462H73.4073L75.5832 14.7211L71.6629 6.6164H74.4577L76.915 12.0446L79.1846 6.6164H81.8482L76.0521 19.5462Z" fill="black" fill-opacity="0.9"/>
<path d="M85.2915 10.5556V15.8896H82.7968V6.6164H85.2165V7.76613C85.4791 7.31377 85.8542 6.96823 86.3419 6.72949C86.8296 6.49074 87.3423 6.37137 87.88 6.37137C88.968 6.37137 89.7933 6.71692 90.356 7.40801C90.9312 8.08654 91.2189 8.96612 91.2189 10.0467V15.8896H88.7241V10.4802C88.7241 9.92737 88.5803 9.4813 88.2927 9.14203C88.0176 8.80277 87.5924 8.63314 87.0172 8.63314C86.492 8.63314 86.0731 8.81533 85.7604 9.17973C85.4478 9.54413 85.2915 10.0028 85.2915 10.5556Z" fill="black" fill-opacity="0.9"/>
<path d="M97.3335 8.65199C96.6707 8.65199 96.1143 8.88444 95.6641 9.34936C95.2139 9.81428 94.9888 10.4488 94.9888 11.253C94.9888 12.0572 95.2139 12.698 95.6641 13.1755C96.1268 13.6404 96.6895 13.8729 97.3522 13.8729C97.94 13.8729 98.4089 13.7221 98.7591 13.4205C99.1092 13.1064 99.3468 12.7357 99.4718 12.3085L101.666 13.0436C101.441 13.898 100.954 14.6331 100.203 15.2488C99.4531 15.8645 98.5027 16.1724 97.3522 16.1724C95.9767 16.1724 94.82 15.7074 93.8821 14.7776C92.9567 13.8352 92.4941 12.6603 92.4941 11.253C92.4941 9.83313 92.9505 8.65827 93.8634 7.72843C94.7887 6.7986 95.9267 6.33368 97.2772 6.33368C98.4527 6.33368 99.4156 6.64153 100.166 7.25723C100.916 7.86037 101.398 8.59544 101.61 9.46245L99.3781 10.2164C99.0779 9.17345 98.3964 8.65199 97.3335 8.65199Z" fill="black" fill-opacity="0.9"/>
</svg>
