<svg width="84" height="21" viewBox="0 0 84 21" fill="none" xmlns="http://www.w3.org/2000/svg">
<path d="M61.0575 21H56.2275C50.435 21 45.7275 16.2925 45.7275 10.5C45.7275 4.7075 50.435 0 56.2275 0C62.02 0 66.7275 4.7075 66.7275 10.5V20.79H62.5275V10.5C62.5275 7.0175 59.71 4.2 56.2275 4.2C52.745 4.2 49.9275 7.0175 49.9275 10.5C49.9275 13.9825 52.745 16.8 56.2275 16.8H61.0575V21Z" fill="#2C3E50"/>
<path d="M37.3276 20.79H33.1276V10.5C33.1276 4.7075 37.8351 0 43.6276 0V4.2C40.1451 4.2 37.3276 7.0175 37.3276 10.5V20.79Z" fill="#2C3E50"/>
<path d="M18.4275 21C12.635 21 7.92749 16.2925 7.92749 10.5C7.92749 4.7075 12.635 0 18.4275 0C24.22 0 28.9275 4.7075 28.9275 10.5V12.6H16.8525V8.4H24.36C23.485 5.95 21.1575 4.2 18.4275 4.2C14.945 4.2 12.1275 7.0175 12.1275 10.5C12.1275 13.9825 14.945 16.8 18.4275 16.8C20.5275 16.8 22.4875 15.75 23.66 14L27.1425 16.345C25.2 19.25 21.945 21 18.4275 21Z" fill="#2C3E50"/>
<path d="M3.09757 19.8975V18.7425H3.72757V20.79H3.27257L1.75007 19.6875V20.7375H1.13757V18.795H1.57507L3.09757 19.8975Z" fill="#2C3E50"/>
<path d="M3.72752 15.855V16.6425L2.53752 17.5875H3.72752V18.2525H0.0875244V17.5875H2.27502L1.12002 16.695V15.89L2.39752 16.94L3.72752 15.855Z" fill="#2C3E50"/>
<path d="M3.7975 14.21C3.7975 14.5775 3.71 14.875 3.5525 15.12C3.395 15.365 3.1675 15.54 2.8875 15.645L2.52 15.0325C2.8875 14.8925 3.08 14.6125 3.08 14.1925C3.08 14 3.045 13.8425 2.975 13.755C2.905 13.6675 2.8175 13.615 2.695 13.615C2.5725 13.615 2.4675 13.6675 2.3975 13.79C2.3275 13.9125 2.2575 14.105 2.17 14.4025C2.1175 14.56 2.065 14.7 2.03 14.8225C1.9775 14.9275 1.925 15.05 1.8375 15.155C1.75 15.26 1.645 15.3475 1.5225 15.4175C1.4 15.47 1.26 15.505 1.085 15.505C0.7525 15.505 0.49 15.3825 0.2975 15.155C0.105 14.9275 0 14.6475 0 14.315C0 14.0175 0.07 13.755 0.21 13.545C0.35 13.3175 0.56 13.1425 0.805 13.02L1.155 13.615C0.84 13.755 0.6825 14 0.6825 14.315C0.6825 14.4725 0.7175 14.5775 0.7875 14.665C0.8575 14.7525 0.945 14.7875 1.05 14.7875C1.1725 14.7875 1.26 14.735 1.33 14.6475C1.4 14.56 1.47 14.3675 1.5575 14.105C1.5925 14 1.6275 13.9125 1.645 13.86C1.6625 13.8075 1.6975 13.72 1.7325 13.6325C1.7675 13.5275 1.8025 13.4575 1.8375 13.405C1.8725 13.3525 1.925 13.2825 1.9775 13.2125C2.03 13.1425 2.1 13.09 2.1525 13.055C2.2225 13.02 2.2925 12.985 2.38 12.9675C2.4675 12.95 2.5725 12.9325 2.6775 12.9325C3.01 12.9325 3.2725 13.055 3.4825 13.3C3.71 13.51 3.7975 13.825 3.7975 14.21Z" fill="#2C3E50"/>
<path d="M1.13757 10.7275V10.01L3.74507 10.955C4.11257 11.095 4.39257 11.27 4.55007 11.4975C4.72507 11.725 4.79507 12.005 4.77757 12.3375H4.14757C4.14757 12.1625 4.11257 12.0225 4.02507 11.9C3.93757 11.795 3.81507 11.7075 3.64007 11.655L1.13757 12.705V11.97L2.88757 11.2875L1.13757 10.7275Z" fill="#2C3E50"/>
<path d="M1.05005 8.20754C1.05005 7.92754 1.13755 7.68254 1.33005 7.50754C1.52255 7.31504 1.78505 7.22754 2.11755 7.22754H3.71005V7.89254H2.18755C2.01255 7.89254 1.89005 7.94504 1.78505 8.03254C1.69755 8.12004 1.64505 8.24254 1.64505 8.40004C1.64505 8.57504 1.69755 8.71504 1.80255 8.82004C1.90755 8.92504 2.06505 8.97754 2.29255 8.97754H3.69255V9.64254H1.13755V8.97754H1.43505C1.17255 8.82004 1.05005 8.55754 1.05005 8.20754Z" fill="#2C3E50"/>
<path d="M3.79755 5.3725C3.79755 5.7575 3.65755 6.09 3.39505 6.35249C3.13255 6.615 2.80005 6.7375 2.41505 6.7375C2.03005 6.7375 1.69755 6.615 1.43505 6.35249C1.19005 6.09 1.05005 5.775 1.05005 5.3725C1.05005 5.1275 1.10255 4.8825 1.22505 4.6725C1.34755 4.4625 1.50505 4.305 1.71505 4.2L2.04755 4.7775C1.94255 4.83 1.85505 4.9 1.78505 5.0225C1.71505 5.1275 1.69755 5.25 1.69755 5.3725C1.69755 5.565 1.76755 5.73999 1.89005 5.87999C2.03005 6.01999 2.18755 6.0725 2.39755 6.0725C2.60755 6.0725 2.76505 6.00249 2.90505 5.87999C3.04505 5.73999 3.09755 5.5825 3.09755 5.3725C3.09755 5.2325 3.06255 5.11 3.01005 5.005C2.95755 4.9 2.87005 4.8125 2.76505 4.76L3.09755 4.1825C3.30755 4.305 3.46505 4.4625 3.58755 4.6725C3.74505 4.9 3.79755 5.1275 3.79755 5.3725Z" fill="#2C3E50"/>
<path d="M83.2825 4.20001H73.0275V20.79H83.2825V4.20001Z" fill="#2C3E50"/>
</svg>