<?xml version="1.0" encoding="UTF-8"?><svg id="Layer_2" xmlns="http://www.w3.org/2000/svg" viewBox="0 0 729.32 137.91"><defs><style>.cls-1{fill:#fff;}</style></defs><g id="Layer_1-2"><g><path class="cls-1" d="m583.35,137.91h-31.72c-38.03,0-68.95-30.92-68.95-68.95S513.6,0,551.64,0s68.95,30.92,68.95,68.95v67.58h-27.58v-67.58c0-22.86-18.51-41.37-41.37-41.37s-41.37,18.51-41.37,41.37,18.51,41.37,41.37,41.37h31.72v27.58Z"/><path class="cls-1" d="m427.52,136.53h-27.58v-67.58c0-38.03,30.92-68.95,68.95-68.95v27.58c-22.86,0-41.37,18.51-41.37,41.37v67.58Z"/><path class="cls-1" d="m303.4,137.91c-38.03,0-68.95-30.92-68.95-68.95S265.37,0,303.4,0s68.95,30.92,68.95,68.95v13.79h-79.3v-27.58h49.32c-5.73-16.08-21.01-27.58-38.94-27.58-22.86,0-41.37,18.51-41.37,41.37s18.51,41.37,41.37,41.37c13.79,0,26.67-6.9,34.37-18.4l22.86,15.39c-12.77,19.09-34.15,30.59-57.27,30.59Z"/><path class="cls-1" d="m729.32,27.58h-67.36v108.95h67.36V27.58Z"/><polygon class="cls-1" points="137.91 124.12 193.07 68.95 137.91 13.79 137.91 55.16 82.75 96.54 137.91 96.54 137.91 124.12"/><polygon class="cls-1" points="55.16 13.79 0 68.95 55.16 124.12 55.16 82.75 110.33 41.37 55.16 41.37 55.16 13.79"/></g></g></svg>