<?xml version="1.0" encoding="utf-8"?>
<!-- Generator: Adobe Illustrator 27.2.0, SVG Export Plug-In . SVG Version: 6.00 Build 0)  -->
<svg version="1.1" id="Layer_1" xmlns="http://www.w3.org/2000/svg" xmlns:xlink="http://www.w3.org/1999/xlink" x="0px" y="0px"
	 viewBox="0 0 2995.4 540.4" style="enable-background:new 0 0 2995.4 540.4;" xml:space="preserve">
<style type="text/css">
	.st0{fill:#FFFFFF;}
</style>
<g>
	<g>
		<path class="st0" d="M155.2,403h94.2v51.4H82.4v-37.1l90-124.2H86.7v-50h158.5v35.7L155.2,403z"/>
		<path class="st0" d="M485.1,454.4h-64.3l-77.1-97.1v97.1h-54.3v-297h54.3v178.5l72.8-94.2h65.7l-85.7,104.2L485.1,454.4z"/>
		<path class="st0" d="M619.4,460.2c-30,0-54.3-7.1-74.3-20c-20-12.9-34.3-31.4-42.8-54.3l50-30c11.4,30,34.3,45.7,68.5,45.7
			c15.7,0,28.6-2.9,35.7-8.6c7.1-5.7,11.4-12.9,11.4-22.8c0-10-4.3-18.6-14.3-24.3c-10-5.7-25.7-11.4-50-18.6
			c-12.9-4.3-24.3-8.6-34.3-11.4c-8.6-4.3-18.6-8.6-27.1-15.7c-8.6-7.1-15.7-15.7-21.4-25.7c-4.3-10-7.1-21.4-7.1-35.7
			c0-27.1,10-48.6,28.6-64.3c18.6-15.7,41.4-24.3,68.5-24.3c24.3,0,45.7,5.7,62.8,17.1c18.6,11.4,32.8,28.6,42.8,48.6l-48.6,28.6
			c-11.4-25.7-31.4-38.6-57.1-38.6c-12.9,0-21.4,2.9-28.6,8.6c-7.1,5.7-10,12.9-10,21.4c0,10,4.3,17.1,11.4,22.8
			c7.1,5.7,22.9,11.4,44.3,18.6c8.6,2.9,15.7,5.7,20,7.1c4.3,1.4,11.4,4.3,18.6,7.1c8.6,2.9,14.3,5.7,18.6,8.6
			c4.3,2.9,10,7.1,15.7,11.4c5.7,4.3,10,10,12.9,14.3c2.9,5.7,5.7,11.4,7.1,18.6c1.4,7.1,2.9,15.7,2.9,24.3c0,27.1-10,48.6-30,65.7
			C676.5,453,650.8,460.2,619.4,460.2z"/>
		<path class="st0" d="M903.6,243.1h58.5L885,455.9c-11.4,30-25.7,52.8-44.3,65.7c-18.6,14.3-41.4,20-68.5,18.6v-51.4
			c14.3,0,25.7-2.9,35.7-10c8.6-7.1,15.7-17.1,20-31.4l-85.7-204.2h60l55.7,142.8L903.6,243.1z"/>
		<path class="st0" d="M1109.2,236c22.8,0,42.8,7.1,57.1,22.8c15.7,15.7,22.8,37.1,22.8,64.3v130h-54.3V328.8
			c0-14.3-4.3-24.3-11.4-32.8c-7.1-7.1-17.1-11.4-30-11.4c-14.3,0-25.7,4.3-34.3,12.9c-8.6,8.6-12.9,21.4-12.9,40v114.2h-54.3V243.1
			h54.3v24.3C1059.2,246,1080.6,236,1109.2,236z"/>
		<path class="st0" d="M1340.5,460.2c-31.4,0-58.5-11.4-80-32.8c-21.4-21.4-31.4-48.6-31.4-80s10-58.5,31.4-80
			c21.4-20,47.1-31.4,80-31.4c20,0,40,4.3,57.1,14.3c17.1,10,30,22.8,38.6,40l-47.1,27.1c-4.3-8.6-10-15.7-20-21.4
			c-8.6-5.7-18.6-7.1-28.6-7.1c-15.7,0-30,5.7-41.4,15.7c-11.4,11.4-15.7,24.3-15.7,41.4c0,17.1,5.7,30,15.7,41.4
			c11.4,11.4,24.3,15.7,41.4,15.7c11.4,0,21.4-2.9,30-7.1c8.6-4.3,15.7-11.4,20-20l47.1,27.1c-10,17.1-22.8,30-40,40
			C1379.1,455.9,1360.5,460.2,1340.5,460.2z"/>
	</g>
	<path class="st0" d="M2513,460.2h-87.4c-104.8,0-190-85.2-190-190c0-104.8,85.2-190,190-190c104.8,0,190,85.2,190,190v186.2h-76
		V270.2c0-63-51-114-114-114c-63,0-114,51-114,114s51,114,114,114h87.4V460.2z"/>
	<path class="st0" d="M2083.6,456.4h-76V270.2c0-104.8,85.2-190,190-190v76c-63,0-114,51-114,114V456.4z"/>
	<path class="st0" d="M1741.6,460.2c-104.8,0-190-85.2-190-190c0-104.8,85.2-190,190-190c104.8,0,190,85.2,190,190v38h-218.5v-76
		H1849c-15.8-44.3-57.9-76-107.3-76c-63,0-114,51-114,114s51,114,114,114c38,0,73.5-19,94.7-50.7l63,42.4
		C1864.2,428.5,1805.3,460.2,1741.6,460.2z"/>
	<path class="st0" d="M2915.2,156.2h-185.6v300.2h185.6V156.2z"/>
</g>
</svg>
