<svg width="1508" height="380" viewBox="0 0 1508 380" fill="none" xmlns="http://www.w3.org/2000/svg">
<path d="M1104.85 380H1017.45C912.632 380 827.449 294.817 827.449 190C827.449 85.1833 912.632 0 1017.45 0C1122.27 0 1207.45 85.1833 1207.45 190V376.2H1131.45V190C1131.45 126.983 1080.47 76 1017.45 76C954.432 76 903.449 126.983 903.449 190C903.449 253.017 954.432 304 1017.45 304H1104.85V380Z" fill="black"/>
<path d="M675.451 376.2H599.451V190C599.451 85.1833 684.634 0 789.451 0V75.9999C726.434 75.9999 675.451 126.983 675.451 190V376.2Z" fill="black"/>
<path d="M333.448 380C228.631 380 143.448 294.817 143.448 190C143.448 85.1833 228.631 0 333.448 0C438.264 0 523.448 85.1833 523.448 190V228H304.948V152H440.798C424.964 107.667 382.848 76 333.448 76C270.431 76 219.448 126.983 219.448 190C219.448 253.017 270.431 304 333.448 304C371.448 304 406.914 285 428.131 253.333L491.148 295.767C455.998 348.333 397.098 380 333.448 380Z" fill="black"/>
<path d="M56.0502 360.053V339.153H67.4501V376.203H59.2168L31.6668 356.253V375.253H20.5835V340.103H28.5002L56.0502 360.053Z" fill="black"/>
<path d="M67.4481 286.895V301.145L45.9148 318.245H67.4481V330.279H1.58154V318.245H41.1648L20.2649 302.095V287.529L43.3815 306.529L67.4481 286.895Z" fill="black"/>
<path d="M68.7166 257.128C68.7166 263.778 67.1333 269.162 64.2833 273.595C61.4333 278.028 57.3166 281.195 52.25 283.095L45.6 272.012C52.25 269.478 55.7333 264.412 55.7333 256.812C55.7333 253.328 55.1 250.478 53.8333 248.895C52.5666 247.312 50.9833 246.362 48.7666 246.362C46.55 246.362 44.65 247.312 43.3833 249.528C42.1166 251.745 40.85 255.228 39.2666 260.612C38.3166 263.462 37.3666 265.995 36.7333 268.212C35.7833 270.112 34.8333 272.328 33.25 274.228C31.6666 276.128 29.7666 277.712 27.55 278.978C25.3333 279.928 22.8 280.562 19.6333 280.562C13.6167 280.562 8.86666 278.345 5.38333 274.228C1.9 270.112 0 265.045 0 259.028C0 253.645 1.26667 248.895 3.8 245.095C6.33333 240.979 10.1333 237.812 14.5667 235.595L20.9 246.362C15.2 248.895 12.35 253.328 12.35 259.028C12.35 261.878 12.9833 263.778 14.25 265.362C15.5167 266.945 17.1 267.578 19 267.578C21.2166 267.578 22.8 266.628 24.0666 265.045C25.3333 263.462 26.6 259.978 28.1833 255.228C28.8166 253.328 29.45 251.745 29.7666 250.795C30.0833 249.845 30.7166 248.262 31.35 246.678C31.9833 244.778 32.6166 243.512 33.25 242.562C33.8833 241.612 34.8333 240.345 35.7833 239.078C36.7333 237.812 38 236.862 38.95 236.228C40.2166 235.595 41.4833 234.962 43.0666 234.645C44.65 234.328 46.55 234.012 48.45 234.012C54.4666 234.012 59.2166 236.229 63.0166 240.662C67.1333 244.462 68.7166 250.162 68.7166 257.128Z" fill="black"/>
<path d="M20.5835 194.112V181.129L67.7668 198.229C74.4168 200.762 79.4835 203.929 82.3335 208.045C85.5001 212.162 86.7668 217.229 86.4501 223.245H75.0502C75.0502 220.079 74.4168 217.545 72.8335 215.329C71.2501 213.429 69.0335 211.845 65.8668 210.895L20.5835 229.895V216.595L52.2502 204.245L20.5835 194.112Z" fill="black"/>
<path d="M19.0017 148.519C19.0017 143.453 20.585 139.019 24.0684 135.853C27.5517 132.369 32.3017 130.786 38.3184 130.786H67.1351V142.819H39.585C36.4184 142.819 34.2017 143.769 32.3017 145.353C30.7184 146.936 29.7684 149.153 29.7684 152.003C29.7684 155.169 30.7184 157.703 32.6184 159.603C34.5184 161.503 37.3684 162.453 41.485 162.453H66.8184V174.486H20.585V162.453H25.9684C21.2184 159.603 19.0017 154.853 19.0017 148.519Z" fill="black"/>
<path d="M68.7183 97.2189C68.7183 104.186 66.185 110.202 61.435 114.952C56.685 119.702 50.6684 121.919 43.7017 121.919C36.735 121.919 30.7184 119.702 25.9684 114.952C21.535 110.202 19.0017 104.502 19.0017 97.2189C19.0017 92.7855 19.9517 88.3522 22.1684 84.5522C24.385 80.7522 27.235 77.9022 31.035 76.0022L37.0517 86.4522C35.1517 87.4022 33.5684 88.6689 32.3017 90.8855C31.035 92.7855 30.7184 95.0022 30.7184 97.2189C30.7184 100.702 31.985 103.869 34.2017 106.402C36.735 108.936 39.585 109.886 43.385 109.886C47.185 109.886 50.035 108.619 52.5684 106.402C55.1017 103.869 56.0517 101.019 56.0517 97.2189C56.0517 94.6855 55.4184 92.4689 54.4684 90.5689C53.5184 88.6689 51.935 87.0855 50.035 86.1355L56.0517 75.6855C59.8517 77.9022 62.7017 80.7522 64.9183 84.5522C67.7683 88.6689 68.7183 92.7855 68.7183 97.2189Z" fill="black"/>
<path d="M1507.02 75.998H1321.45V376.198H1507.02V75.998Z" fill="black"/>
</svg>
