    <svg

        viewBox="0 0 125 25"
        fill="none"
        xmlns="http://www.w3.org/2000/svg"
    >
        <mask
            x="0"
            y="0"
            width="125"
            height="25"
        >
            <path
                d="M125 0H0V25H125V0Z"
                fill="black" />
        </mask>

        <g>
            <path
                fillRule="evenodd"
                clipRule="evenodd"
                d="M43.3913 12.2708L31.084 0V8.98437L18.8652 17.9792L31.084 17.9896V24.5365L43.3913 12.2708Z"
                fill="black"
            />
            <path
                fillRule="evenodd"
                clipRule="evenodd"
                d="M0 12.2656L12.3073 24.5313V15.6198L24.526 6.55208L12.3073 6.54167V0L0 12.2656Z"
                fill="black"
            />
            <path
                d="M61.7295 18.3955H52.3076V15.6924L57.6982 9.68197H52.443V7.02051H61.6305V9.58822L56.0784 15.7132H61.7243V18.3955H61.7295Z"
                fill="black"
            />
            <path
                d="M74.5836 7.02083L70.0263 11.8073L74.6773 18.3958H70.9065L67.8961 14.0469L66.6252 15.3854V18.3906H63.5471V1.65625H66.6252V11.25L70.5575 7.02083H74.5836Z"
                fill="black"
            />
            <path
                d="M87.9743 5.91081L85.1045 6.79102C84.9951 6.20768 84.7035 5.67122 84.2243 5.19727C83.7451 4.7181 83.042 4.47852 82.1201 4.47852C81.3649 4.47852 80.7451 4.68685 80.266 5.10352C79.7868 5.50456 79.5472 5.98893 79.5472 6.56185C79.5472 7.56185 80.141 8.18164 81.3285 8.41081L83.6201 8.84831C85.0732 9.12435 86.1982 9.70247 87.0003 10.5827C87.8024 11.4629 88.2035 12.4941 88.2035 13.6816C88.2035 15.0358 87.6618 16.2233 86.5837 17.2441C85.5212 18.2441 84.0837 18.7493 82.2764 18.7493C81.2399 18.7493 80.3076 18.5931 79.4743 18.2858C78.641 17.9785 77.9691 17.5671 77.4587 17.0618C76.9482 16.5358 76.5472 15.9889 76.2555 15.4212C75.9795 14.8379 75.8076 14.2337 75.7451 13.6191L78.7087 12.8327C78.7868 13.7129 79.1253 14.4421 79.7295 15.0306C80.3441 15.6139 81.2035 15.9108 82.2972 15.9108C83.1305 15.9108 83.7764 15.7233 84.2399 15.3535C84.7191 14.9837 84.9587 14.4993 84.9587 13.8952C84.9587 13.416 84.7816 13.0098 84.4274 12.6712C84.0889 12.3171 83.5993 12.0775 82.9691 11.9525L80.6774 11.4889C79.3493 11.2129 78.3024 10.666 77.5316 9.84831C76.7607 9.0306 76.3753 8.01497 76.3753 6.79622C76.3753 5.34831 76.9326 4.12956 78.042 3.14518C79.167 2.16081 80.5212 1.66602 82.0941 1.66602C83.0368 1.66602 83.8753 1.79622 84.6149 2.05664C85.3545 2.31706 85.9482 2.67122 86.3962 3.11914C86.8441 3.55143 87.193 3.99935 87.4378 4.45768C87.6826 4.92122 87.8649 5.4056 87.9691 5.91602L87.9743 5.91081Z"
                fill="black"
            />
            <path
                d="M93.3906 22.8799H90.125L92.8073 16.9632L87.9688 7.02051H91.4167L94.4479 13.682L97.25 7.02051H100.536L93.3854 22.8799H93.3906Z"
                fill="black"
            />
            <path
                d="M104.79 11.8486V18.3903H101.712V7.02051H104.696V8.43197C105.019 7.87467 105.483 7.4528 106.087 7.16113C106.691 6.86947 107.321 6.72363 107.983 6.72363C109.327 6.72363 110.342 7.14551 111.04 7.99447C111.748 8.8278 112.103 9.90592 112.103 11.234V18.4007H109.024V11.7653C109.024 11.0882 108.847 10.5413 108.493 10.1247C108.155 9.70801 107.629 9.49967 106.92 9.49967C106.274 9.49967 105.754 9.72363 105.368 10.1715C104.983 10.6195 104.79 11.182 104.79 11.859V11.8486Z"
                fill="black"
            />
            <path
                d="M119.65 9.5153C118.832 9.5153 118.145 9.80176 117.588 10.3695C117.03 10.9372 116.754 11.7184 116.754 12.7028C116.754 13.6872 117.03 14.4736 117.588 15.0622C118.16 15.6351 118.853 15.9163 119.671 15.9163C120.395 15.9163 120.973 15.7288 121.405 15.359C121.838 14.9736 122.129 14.5205 122.285 13.9945L124.994 14.8955C124.718 15.9424 124.114 16.8434 123.187 17.5986C122.259 18.3538 121.088 18.734 119.666 18.734C117.968 18.734 116.541 18.1663 115.384 17.0205C114.244 15.8643 113.671 14.4215 113.671 12.6976C113.671 10.9736 114.233 9.5153 115.358 8.37467C116.499 7.23405 117.905 6.66113 119.572 6.66113C121.025 6.66113 122.213 7.04134 123.134 7.79655C124.062 8.53613 124.655 9.43717 124.916 10.4997L122.16 11.4268C121.791 10.1455 120.947 9.51009 119.64 9.51009L119.65 9.5153Z"
                fill="black"
            />
        </g>
    </svg>