<svg width="200" height="200" viewBox="0 0 200 200" fill="none" xmlns="http://www.w3.org/2000/svg">
<g clip-path="url(#clip0)">
<path d="M126.961 122.549C125.98 124.51 124.51 125.98 123.039 126.47C122.059 126.961 121.078 126.961 120.588 126.961H42.647C53.4313 149.51 77.4509 164.706 104.412 162.745C132.353 160.784 156.372 139.706 161.765 111.764C163.235 102.941 163.235 94.6076 161.765 86.7645H97.5489L125 114.215C125.49 114.706 125.98 115.686 126.47 116.666C126.961 117.647 126.961 118.627 126.961 119.117C127.451 121.078 126.961 122.059 126.961 122.549Z" fill="url(#paint0_radial)"/>
<path d="M176.961 87.2547C177.451 91.1763 177.941 95.588 177.941 99.9998C177.941 143.137 143.137 177.941 100 177.941C64.7058 177.941 34.8039 154.412 25 122.059C25 121.568 25 121.568 24.5098 121.078C20.5882 107.353 20.098 92.1567 25 76.4704C35.2941 46.5684 61.7647 24.9998 93.1372 22.0586C117.647 20.0978 139.706 29.4116 155.392 45.0978C159.804 49.9998 156.863 57.8429 150 57.8429C148.039 57.8429 146.078 56.8625 144.608 55.392C132.353 42.6469 114.216 35.2939 94.1176 36.7645C66.6666 39.2155 43.1372 60.2939 37.7451 87.7449C36.2745 96.5684 36.2745 104.902 37.7451 112.745H101.961L74.5098 85.2939C74.0196 84.8037 73.5294 83.8233 73.0392 82.8429C72.549 81.8625 72.549 80.8821 72.549 80.392C72.549 79.4116 72.549 78.4312 73.0392 77.941C74.0196 75.9802 75 74.5096 76.9607 74.0194C77.9411 73.5292 78.9215 73.5292 79.4117 73.5292H156.863H173.039H196.078C184.314 30.392 145.098 -0.490393 99.0196 -0.000197293C46.5686 0.489999 2.94114 42.6469 -3.47048e-05 94.6076C-2.94121 152.451 42.647 200 100 200C155.392 200 200 155.392 200 99.9998C200 95.588 199.51 91.6665 199.02 87.2547H176.961Z" fill="url(#paint1_radial)"/>
</g>
<defs>
<radialGradient id="paint0_radial" cx="0" cy="0" r="1" gradientUnits="userSpaceOnUse" gradientTransform="translate(16.1395 -1.23254) scale(222.802)">
<stop offset="0.475" stop-color="#4388DD"/>
<stop offset="0.9988" stop-color="#FF4581"/>
</radialGradient>
<radialGradient id="paint1_radial" cx="0" cy="0" r="1" gradientUnits="userSpaceOnUse" gradientTransform="translate(16.1395 -1.23255) scale(222.802)">
<stop offset="0.475" stop-color="#4388DD"/>
<stop offset="0.9988" stop-color="#FF4581"/>
</radialGradient>
<clipPath id="clip0">
<rect width="200" height="200" fill="white"/>
</clipPath>
</defs>
</svg>
