<svg width="643" height="267" viewBox="0 0 643 267" fill="none" xmlns="http://www.w3.org/2000/svg">
<path d="M35.5856 109.708C44.4832 68.6056 77.9478 38.4482 119.365 34.0387C128.184 33.0939 128.814 33.0939 137.712 34.0387C147.239 34.9836 153.617 36.4009 161.491 39.1569C189.838 49.393 213.066 74.4324 221.097 103.488C221.964 106.558 222.672 109.393 222.672 109.787C222.672 110.102 219.838 110.338 216.294 110.18L209.916 109.944L207.79 103.566C206.609 100.102 204.326 94.5899 202.672 91.4403C192.2 70.7316 172.83 55.1411 149.68 48.7631C144.483 47.3458 141.334 47.0308 129.365 47.0308C116.924 46.9521 114.404 47.1883 108.499 48.7631C79.4439 56.7159 56.2155 79.8655 49.0501 108.291C48.0265 112.228 47.0816 117.031 47.0029 118.999L46.6879 122.543L59.2864 122.779L71.8848 122.936L71.9635 130.259C72.121 143.015 77.3179 156.952 85.2706 166.007C87.2391 168.212 88.8139 170.495 88.8139 171.047C88.8139 172.306 79.3651 208.054 78.6564 209.314C77.869 210.732 65.7431 201.362 59.2864 194.432C52.9872 187.582 46.4517 177.976 42.7509 170.023C39.5226 163.015 36.058 152.621 36.058 150.023C36.058 148.212 36.2942 148.133 42.1998 148.133H48.3415L50.1525 153.802C53.6171 165.22 62.3572 180.023 69.2864 186.558L71.2549 188.291L72.9084 182.149C73.8533 178.684 74.6407 175.377 74.6407 174.747C74.6407 174.117 72.7509 170.653 70.3887 167.11C65.5068 159.787 61.5698 149.708 60.2312 141.204L59.2864 135.535H33.4596L33.932 125.456C34.1683 119.944 34.8769 112.858 35.5856 109.708Z" fill="white"/>
<path d="M384.089 114.274V46.5576H396.688L396.845 66.7151L397.081 86.9513L415.979 65.534H422.593C428.735 65.4553 429.129 65.534 428.105 66.7938C427.475 67.5812 423.538 72.1482 419.365 76.9513C415.113 81.8332 411.648 86.0064 411.648 86.2427C411.648 86.5576 415.664 92.5419 420.546 99.5498C425.428 106.558 429.759 112.778 430.073 113.251C430.467 114.038 429.129 114.274 424.089 114.274H417.554L403.381 93.1718L400.073 96.4001L396.688 99.6285V114.274H384.089Z" fill="white"/>
<path fill-rule="evenodd" clip-rule="evenodd" d="M263.617 114.275H276.451C283.459 114.275 291.254 113.96 293.774 113.488C308.026 111.204 317.554 101.204 319.522 86.6372C322.121 67.6609 311.963 52.149 294.719 48.9994C292.199 48.527 284.168 48.1333 276.845 48.1333H263.617V114.275ZM295.664 61.1254C302.514 64.0388 306.215 69.9443 306.766 78.9207C307.396 89.5506 303.695 97.2672 296.451 100.81C293.617 102.149 291.569 102.464 284.64 102.464H276.215V81.3616C276.215 69.7081 276.451 59.9443 276.845 59.5506C277.79 58.6057 292.357 59.7868 295.664 61.1254Z" fill="white"/>
<path d="M583.302 65.457V49.709H595.9V65.457H606.136V74.9058H595.9V87.8192C595.9 98.5279 596.136 100.969 597.16 101.992C598.577 103.41 601.884 103.646 604.955 102.465C606.766 101.756 607.081 101.914 607.711 103.725C608.184 104.827 608.735 107.032 608.971 108.685L609.443 111.756L605.27 113.173C599.916 114.985 592.357 115.063 589.129 113.331C584.01 110.575 583.695 109.315 583.459 91.2051L583.223 74.9058H577.003V65.457H583.302Z" fill="white"/>
<path fill-rule="evenodd" clip-rule="evenodd" d="M122.672 72.1491C122.672 83.9601 122.515 85.1412 121.334 85.1412C118.578 85.22 108.972 89.0782 105.035 91.6767C95.9007 97.7397 88.7353 107.661 86.0582 117.897C85.4283 120.417 84.8771 125.535 84.8771 129.236C84.8771 141.992 88.7353 151.283 98.0267 160.653L103.853 166.637L97.5542 190.259C94.0897 203.251 91.1763 214.59 91.0188 215.456C90.7826 216.795 91.8849 217.425 98.2629 219.629C108.499 223.173 117.082 224.511 129.523 224.511C141.57 224.511 152.357 222.7 161.57 219.078C166.137 217.346 167.082 216.637 166.924 215.456C166.767 214.59 163.775 203.173 160.31 190.023C156.846 176.952 154.09 166.086 154.247 166.007C158.184 163.409 162.751 158.685 165.901 153.96C175.113 140.181 176.137 124.039 168.657 108.842C163.224 97.8184 151.413 88.5271 139.601 85.8499L135.271 84.905V72.5428H137.554C140.94 72.5428 149.995 75.5349 155.743 78.5271C173.932 88.0546 185.035 105.771 186.216 127.031L186.688 135.535H199.129C209.287 135.535 211.649 135.771 211.649 136.637C211.649 139.314 209.05 150.811 207.318 156.007C203.696 166.637 195.664 179.866 189.05 186.086L186.767 188.212L184.956 181.125L183.066 174.039L186.373 169.393C190.074 164.118 194.877 154.433 195.586 150.653L196.137 148.133H183.538L180.31 154.59C178.499 158.212 175.271 163.33 173.066 166.007L169.05 170.889L174.247 190.417C177.161 201.125 179.601 210.023 179.68 210.181C179.838 210.259 182.751 208.291 186.137 205.771C210.074 187.818 224.247 160.023 224.247 131.125V122.937H211.727C210.705 122.937 209.764 122.939 208.896 122.942H208.893C202.595 122.961 200.177 122.969 199.104 121.771C198.435 121.025 198.288 119.81 198.05 117.839C197.996 117.399 197.938 116.92 197.869 116.401C197.239 111.755 194.405 103.409 191.57 97.7397C184.405 83.4877 174.011 73.3302 159.287 66.1649C149.759 61.5192 139.838 59.157 129.601 59.157H122.672V72.1491ZM135.586 98.1334C148.184 100.811 157.476 110.102 160.074 122.779C162.279 133.409 159.05 144.275 151.255 151.834C148.972 154.118 145.271 156.716 143.145 157.74C139.916 159.157 139.208 159.866 139.444 161.125C139.566 161.795 141.333 168.389 143.656 177.056L143.657 177.06L143.666 177.092C144.346 179.63 145.074 182.345 145.822 185.141C149.129 197.425 151.649 207.976 151.491 208.448C150.94 209.944 137.948 211.913 128.972 211.913C119.838 211.913 107.003 209.944 106.452 208.37C106.216 207.818 108.893 196.716 112.436 183.566C115.979 170.496 118.735 159.708 118.578 159.629C118.449 159.501 117.169 158.796 115.462 157.858L115.447 157.849C115.066 157.639 114.663 157.418 114.247 157.188C108.578 154.196 103.381 148.685 100.389 142.622C98.0267 137.897 97.8692 136.952 97.8692 129.236C97.8692 121.44 98.0267 120.653 100.468 115.614C105.113 106.244 113.932 99.4719 123.617 97.8184C126.52 97.3539 127.996 97.1178 129.467 97.1474C130.988 97.178 132.503 97.4928 135.586 98.1334Z" fill="white"/>
<path d="M64.6407 102.071C71.806 84.4334 87.4753 69.5515 105.743 63.0161C107.948 62.2286 109.759 61.5987 109.916 61.5987C109.995 61.52 110.074 64.4334 110.074 68.0554V74.5909L103.302 78.0554C91.9635 83.8035 81.5698 94.8271 76.373 106.559L74.7194 110.339H68.4202C63.8533 110.339 62.0422 110.024 62.0422 109.315C62.0422 108.843 63.2233 105.536 64.6407 102.071Z" fill="white"/>
<path fill-rule="evenodd" clip-rule="evenodd" d="M343.538 65.6917C336.452 68.0539 331.491 72.2271 328.105 78.8413C326.53 81.8334 326.215 83.5657 326.215 89.8649C326.215 96.4791 326.452 97.8177 328.341 101.361C330.861 106.085 335.743 110.731 340.704 112.936C343.538 114.274 345.9 114.589 351.412 114.668C357.633 114.668 359.05 114.353 362.987 112.463C367.475 110.259 374.483 103.487 373.302 102.463C372.908 102.148 370.625 101.361 368.026 100.652L363.381 99.3925L361.806 101.44C358.578 105.455 351.097 106.873 345.743 104.353C342.672 102.857 339.207 98.2114 339.207 95.613V93.802H376.452L376.058 87.6602C375.507 77.8964 371.018 71.2035 362.2 66.9516C357.948 64.9043 348.026 64.1957 343.538 65.6917ZM357.633 75.613C360.546 77.2665 362.672 80.1012 363.302 83.3295L363.853 85.9279H351.57C344.798 85.9279 339.129 85.6917 338.971 85.298C338.184 83.9594 340.152 79.7862 342.672 77.3453C346.845 73.3295 352.436 72.6996 357.633 75.613Z" fill="white"/>
<path d="M451.254 70.653C453.459 68.4483 456.609 66.1648 458.105 65.6924C464.168 63.8026 464.404 63.9601 464.404 70.4955V76.2436L460.861 76.716C456.215 77.4247 451.569 79.7869 449.522 82.7003C448.026 84.8262 447.868 86.0861 447.868 99.6294V114.275H436.057V65.4562H447.081V74.8262L451.254 70.653Z" fill="white"/>
<path fill-rule="evenodd" clip-rule="evenodd" d="M544.64 65.3776C541.333 66.48 538.971 67.8973 536.294 70.417L533.695 72.858V65.4564H522.672V134.039L534.876 133.567L535.113 119.945L535.27 106.323L537.317 108.763C540.782 112.779 545.113 114.59 551.412 114.59C558.105 114.59 561.963 112.858 566.451 107.74C570.782 102.858 572.672 97.2674 572.593 89.4721C572.514 75.7713 563.853 65.6926 551.491 64.9839C548.892 64.8265 545.743 64.9839 544.64 65.3776ZM549.837 75.7713C556.058 77.4249 559.916 82.9367 559.916 89.9446C559.916 95.1414 557.475 100.181 553.695 102.464C550.073 104.748 544.168 104.59 540.782 102.071C536.136 98.6847 535.27 96.5588 535.27 88.921C535.27 82.4643 535.428 81.8343 537.475 79.6296C538.656 78.291 541.018 76.7162 542.75 76.0863C542.857 76.0495 542.959 76.0137 543.059 75.9789L543.558 75.8039C544.961 75.3116 545.661 75.0658 546.368 75.0411C547.074 75.0165 547.786 75.2113 549.209 75.6003C549.405 75.6537 549.613 75.7107 549.837 75.7713Z" fill="white"/>
<path d="M476.688 91.2048C471.727 78.5277 467.396 67.5828 467.081 66.7954C466.688 65.6143 467.239 65.4568 472.908 65.4568H479.286L480.782 69.5513C481.13 70.5606 481.894 72.7545 482.875 75.5754C484.114 79.1363 485.701 83.6964 487.239 88.1339C489.995 96.0867 492.436 102.15 492.751 101.677C493.066 101.205 495.743 92.8584 498.735 83.1733L504.168 65.4568H509.837C512.987 65.4568 515.585 65.6143 515.585 65.8505C515.585 66.7954 495.034 124.669 494.011 126.638C491.333 131.835 485.664 134.984 478.971 135.063C476.294 135.063 473.853 134.827 473.459 134.591C472.987 134.354 472.829 131.756 472.908 128.921L473.223 123.803L476.53 124.197C480.546 124.748 482.357 123.331 484.483 117.74L485.822 114.197L476.688 91.2048Z" fill="white"/>
<path d="M435.192 146.165C435.192 146.401 435.192 149.157 435.113 152.228V157.976L447.082 158.448V145.771H441.176C437.948 145.771 435.271 145.928 435.192 146.165Z" fill="white"/>
<path d="M548.893 208.842C547.082 206.165 547.082 206.086 547.082 176.007V145.771H559.68L559.679 176.405C559.674 196.406 559.673 201.772 561.916 202.984C562.738 203.429 563.862 203.315 565.399 203.159L565.406 203.158L565.426 203.156C565.629 203.136 565.84 203.115 566.058 203.094L569.759 202.7L570.31 206.873C570.546 209.236 570.625 211.44 570.388 211.834C569.759 212.779 562.83 214.275 559.05 214.275C555.113 214.275 551.019 212.07 548.893 208.842Z" fill="white"/>
<path d="M281.412 148.133C265.428 152.149 254.404 169.156 257.239 185.298C260.467 203.566 276.452 216.164 293.145 213.566C300.861 212.385 307.16 209.235 311.649 204.275C313.853 201.912 315.586 199.629 315.586 199.314C315.586 198.054 305.113 192.621 304.719 193.645C304.011 195.849 300.389 199.314 297.003 200.889C291.885 203.408 284.089 202.936 279.444 199.865C275.743 197.424 271.885 191.834 270.625 187.109C268.263 178.605 271.806 166.716 277.948 162.306C285.9 156.479 298.341 158.29 303.381 165.928L304.956 168.369L309.837 165.141C312.593 163.33 314.798 161.676 314.798 161.361C314.798 161.125 313.066 158.92 310.861 156.558C305.586 150.731 299.444 148.054 290.861 147.66C287.318 147.503 283.145 147.739 281.412 148.133Z" fill="white"/>
<path d="M461.255 157.347C461.255 153.252 461.491 149.709 461.806 149.394C462.121 149.079 464.877 149 467.948 149.079L473.46 149.315L473.932 164.591L483.696 165.063V174.512L478.972 174.591L474.247 174.748L474.011 187.662C473.854 198.449 474.011 200.811 475.035 201.677C476.373 202.78 478.736 202.937 482.594 202.15L485.35 201.52L486.373 206.008C486.925 208.528 487.082 210.811 486.688 211.126C485.507 212.307 477.476 214.276 473.932 214.276C469.602 214.276 465.507 212.386 463.303 209.315C461.806 207.268 461.649 205.693 461.255 190.811L460.862 174.591H458.106L455.35 174.512L454.877 164.669H461.255V157.347Z" fill="white"/>
<path fill-rule="evenodd" clip-rule="evenodd" d="M336.058 164.748C331.648 165.614 324.562 168.449 323.459 169.787C322.829 170.496 323.066 171.756 324.404 174.433C325.349 176.48 326.373 177.976 326.609 177.819C334.325 173.331 341.018 171.835 345.821 173.488C349.522 174.748 351.491 177.346 352.199 181.913C352.751 185.299 352.751 185.378 350.94 184.827C346.53 183.409 336.294 183.409 331.884 184.669C320.782 187.898 316.294 199.079 322.672 207.819C325.821 212.228 329.68 213.882 336.845 213.882C343.144 213.803 346.766 212.465 351.727 208.37C353.932 206.402 354.168 206.402 354.168 207.819C354.168 211.913 359.443 214.906 364.877 213.961L367.554 213.409V208.528C367.554 204.591 367.239 203.331 365.979 202.228C364.562 201.047 364.404 199.945 364.404 189.63C364.404 179 364.247 178.134 362.357 174.197C359.68 168.921 355.27 165.929 348.341 164.748C342.751 163.803 341.097 163.803 336.058 164.748ZM350.152 191.52C352.199 192.228 352.593 192.78 352.593 194.827C352.593 200.024 348.499 204.118 342.436 205.142C336.924 206.008 331.333 202.465 331.333 198.055C331.333 196.008 334.089 192.307 336.373 191.441C338.735 190.417 347.239 190.496 350.152 191.52Z" fill="white"/>
<path fill-rule="evenodd" clip-rule="evenodd" d="M388.656 171.203C389.759 169.156 395.664 165.534 399.286 164.589C402.751 163.723 408.971 164.51 412.908 166.164C417.318 168.132 421.727 172.699 424.168 177.975C425.9 181.675 426.215 183.486 426.215 189.471C426.215 195.455 425.9 197.266 424.168 200.888C421.412 206.794 418.656 209.864 413.853 212.227C406.53 215.927 397.948 214.668 392.2 209.077L388.814 205.849V233.172H376.215V164.589L386.845 165.061L387.239 168.998C387.633 172.62 387.711 172.778 388.656 171.203ZM414.011 188.762C414.011 184.116 410.31 178.29 405.979 176.006C401.097 173.486 394.326 175.219 390.546 180.022C389.05 181.833 388.814 183.25 388.814 188.605C388.814 194.116 389.05 195.376 390.782 197.896C393.459 201.833 398.814 204.353 403.066 203.644C408.814 202.62 414.011 195.612 414.011 188.762Z" fill="white"/>
<path fill-rule="evenodd" clip-rule="evenodd" d="M508.893 164.432C505.034 164.984 497.239 167.739 495.271 169.236L493.381 170.653L495.192 174.354C496.216 176.401 497.239 177.976 497.475 177.818C511.255 169.865 521.885 171.598 523.224 181.913L523.696 185.299L521.019 184.669C519.523 184.275 514.956 183.96 510.861 183.96C504.247 184.039 502.908 184.275 499.286 186.165C493.696 189.078 490.94 193.173 490.861 198.763C490.704 213.251 509.523 219.551 521.727 209.157L524.877 206.401L525.428 208.606C526.531 213.015 530.625 215.062 535.98 213.881C538.421 213.33 538.42 213.33 538.42 207.897C538.42 203.802 538.184 202.464 537.318 202.464C535.665 202.464 535.271 199.865 535.271 188.999C535.271 178.448 534.641 175.22 531.649 171.204C528.027 166.401 517.318 163.173 508.893 164.432ZM521.019 191.519C523.145 192.306 523.46 192.7 523.46 195.377C523.46 204.905 507.16 209.157 503.145 200.653C500.625 195.377 505.586 190.653 513.617 190.653C516.294 190.653 519.602 191.047 521.019 191.519Z" fill="white"/>
<path d="M435.114 189.393C434.956 176.165 435.035 165.141 435.192 164.984C435.35 164.826 438.106 164.669 441.334 164.669H447.082V213.488H435.35L435.114 189.393Z" fill="white"/>
</svg>
