<svg width="663" height="261" viewBox="0 0 663 261" fill="none" xmlns="http://www.w3.org/2000/svg">
<path d="M33.5854 34.8181C34.1807 34.8181 34.7759 34.9173 35.4703 34.9173C90.8252 34.9173 146.18 34.9173 201.634 34.9173C202.23 34.9173 202.725 34.9173 203.618 34.9173C198.36 49.3017 193.103 63.3884 187.746 77.6736C166.12 66.8605 144.692 56.0474 122.967 45.2344C122.967 84.3201 122.967 123.108 122.967 162.095C120.189 162.095 117.411 162.095 114.634 162.095C114.634 123.307 114.634 84.4193 114.634 45.2344C92.9084 56.1466 71.3815 66.9597 49.6562 77.7728C49.1602 76.3839 48.6642 75.0943 48.1682 73.7054C43.4064 61.2059 38.8432 48.8056 34.1807 36.3061C34.0815 36.1077 33.7839 35.7109 33.6847 35.3141C33.5854 35.2149 33.5854 35.1157 33.5854 34.8181ZM45.6882 43.5479C48.4658 50.9881 51.2434 58.4283 54.0212 65.8685C68.9015 58.4283 83.5834 50.9881 98.2654 43.6471C98.2654 43.5479 98.1662 43.5479 98.1662 43.4487C80.8058 43.5479 63.4454 43.5479 45.6882 43.5479ZM191.218 43.5479C173.659 43.5479 156.1 43.5479 138.64 43.5479V43.6471C153.422 50.9881 168.104 58.4283 182.885 65.8685C185.663 58.4283 188.341 51.0873 191.218 43.5479ZM570.667 33.6277C570.667 56.5434 570.667 79.6576 570.667 102.772C573.345 103.169 576.024 103.367 578.802 103.764C578.703 104.756 578.603 105.748 578.405 106.74C571.163 106.74 563.921 106.74 556.58 106.74C556.481 105.847 556.183 104.855 556.085 103.764C558.168 103.367 560.251 103.169 562.334 102.772C562.334 89.9747 562.334 77.0784 562.334 64.182C555.093 64.182 547.85 64.182 540.51 64.182C540.51 77.0784 540.51 89.8754 540.51 102.573C543.485 102.772 546.263 102.97 549.339 103.169C549.24 104.359 548.942 105.351 548.843 106.442C540.906 106.442 533.168 106.442 525.133 106.442C525.034 105.549 524.736 104.557 524.637 103.466C527.216 103.069 529.598 102.871 532.177 102.474C532.177 89.6771 532.177 76.7807 532.177 63.8844C529.2 63.8844 526.324 63.8844 523.248 63.8844C522.852 62.7932 523.248 61.9996 523.745 61.3052C525.133 59.2219 526.82 58.3291 529.101 58.7259C530.093 58.8251 531.085 58.7259 532.078 58.7259C532.177 57.0394 532.275 55.2538 532.573 53.5674C533.168 49.7976 535.053 46.4248 537.533 43.5479C540.013 40.5719 542.395 37.695 544.875 34.6197C545.37 34.0245 545.965 33.7269 546.858 33.7269C552.513 33.7269 558.168 33.6277 563.723 33.5285C564.318 33.5285 564.913 33.4293 565.608 33.3301C567.294 33.6277 568.98 33.6277 570.667 33.6277ZM562.334 39.7782C562.135 39.7782 561.838 39.7782 561.739 39.8774C558.168 41.5639 554.398 41.8615 550.43 41.5639C548.942 41.4646 547.355 41.5639 545.867 41.5639C545.37 41.5639 544.875 41.7623 544.478 42.1591C541.998 44.5399 540.708 47.3176 540.708 50.7897C540.609 53.5674 540.708 56.5434 540.708 59.4203C547.95 59.4203 555.192 59.4203 562.433 59.4203C562.334 52.8729 562.334 46.4248 562.334 39.7782ZM139.633 120.232C139.633 117.255 139.633 114.577 139.633 111.799C148.065 111.799 156.497 111.799 164.93 111.799C164.93 142.75 164.93 173.702 164.93 204.653C133.978 204.653 103.126 204.653 72.0759 204.653C72.0759 173.702 72.0759 142.75 72.0759 111.799C80.4089 111.799 88.742 111.799 97.2734 111.799C97.2734 114.577 97.2734 117.354 97.2734 120.132C91.6189 120.132 86.0635 120.132 80.409 120.132C80.409 145.528 80.409 170.824 80.409 196.122C105.705 196.122 131.002 196.122 156.398 196.122C156.398 170.824 156.398 145.528 156.398 120.132C150.942 120.232 145.288 120.232 139.633 120.232ZM223.459 106.839C223.36 105.847 223.062 104.855 222.963 103.665C224.55 103.466 226.138 103.169 227.725 102.97C229.312 102.772 230.899 102.474 232.685 102.375C232.685 101.879 232.685 101.383 232.685 100.986C232.685 80.9472 232.685 61.1067 232.685 41.0679C232.685 39.8774 232.288 39.4806 231.197 39.3814C228.815 39.183 226.435 38.7862 224.054 38.3894C223.657 38.3894 223.459 38.2902 223.062 38.191C223.161 37.0998 223.459 36.1078 223.558 35.2149C225.74 35.2149 228.022 35.2149 230.205 35.2149C239.629 35.2149 249.152 35.1157 258.675 35.1157C264.925 35.1157 270.878 36.3061 276.235 39.5798C283.08 43.6471 287.246 49.5993 289.23 57.1386C291.413 65.8684 291.313 74.5983 288.734 83.1297C285.56 93.9427 278.02 100.689 267.604 104.26C261.354 106.442 255.005 106.938 248.458 106.74C241.315 106.542 234.173 106.74 227.129 106.74C225.84 106.839 224.748 106.839 223.459 106.839ZM241.91 39.679C241.91 60.3131 241.91 80.848 241.91 101.482C245.482 101.681 249.053 101.879 252.624 102.375C261.85 103.466 271.274 99.1013 276.036 89.4786C281.195 79.1616 281.69 68.3485 278.218 57.4363C275.243 48.3096 268.993 42.4567 259.568 40.0758C253.715 38.5878 247.863 39.4806 241.91 39.679ZM382.778 106.839C381.588 106.144 380.298 105.649 379.108 104.756C376.528 103.069 375.139 99.3989 375.933 96.4228C376.032 96.026 376.429 95.8276 376.825 95.53C379.802 93.4467 382.678 91.2643 385.953 88.9826C385.357 88.7842 384.861 88.4866 384.266 88.2882C372.46 83.1296 373.85 70.3326 380.099 64.4796C384.167 60.7099 389.226 58.2299 394.484 57.4363C399.642 56.7419 404.503 58.4283 408.57 61.9004C408.769 62.0988 409.066 62.3964 409.463 62.5948C411.15 61.0076 412.737 59.4203 414.523 57.8331C414.92 57.4363 415.614 57.2379 416.11 57.2379C417.697 57.1386 419.284 57.2379 420.872 57.2379C420.872 59.8171 420.872 62.198 420.872 64.678C417.697 64.5789 414.523 64.4797 412.142 66.3645C412.34 68.5469 412.737 70.6302 412.737 72.7134C412.638 77.6736 410.158 81.4432 406.19 84.4193C402.42 87.197 398.055 88.685 393.591 89.9747C393.194 90.0739 392.698 90.0739 392.4 89.9747C390.714 89.4787 389.623 90.3714 388.63 91.6611C387.54 93.1491 386.15 94.4387 384.96 95.9268C383.869 97.3157 383.968 98.9029 385.456 99.6964C386.15 100.093 387.043 100.292 387.936 100.292C394.087 100.292 400.337 100.292 406.487 100.292C408.471 100.292 410.257 100.49 412.241 100.986C418.094 102.474 420.97 107.633 419.086 113.387C417.697 117.652 414.82 120.628 411.348 123.207C406.289 126.977 400.634 129.557 394.682 131.144C392.698 131.639 390.615 131.243 388.532 131.144C385.258 130.945 381.885 130.152 378.81 128.564C372.957 125.489 371.965 120.331 372.163 115.668C372.163 115.272 372.659 114.775 373.056 114.577C376.032 112.097 378.909 109.617 381.885 107.236C382.083 107.335 382.381 107.037 382.778 106.839ZM394.087 126.184C398.353 126.184 402.221 124.993 405.495 122.414C407.975 120.43 409.761 118.148 410.455 114.974C411.348 111.204 409.959 109.121 406.19 108.228C405.098 108.029 404.007 107.831 403.015 107.831C397.758 107.732 392.599 107.732 387.341 107.732C386.944 107.732 386.349 107.831 386.15 108.129C384.464 110.509 382.58 112.692 380.992 114.974C379.802 116.958 380 119.041 381.389 120.827C382.083 121.918 383.274 122.811 384.365 123.505C387.143 125.588 390.615 126.084 394.087 126.184ZM383.77 72.4158C383.869 73.6062 383.968 74.8959 384.266 75.9871C385.456 82.3361 389.821 85.8081 396.071 85.4114C399.741 85.2129 402.916 83.0305 403.809 79.6576C405.198 74.3006 404.205 69.2414 400.634 64.8764C398.055 61.9004 394.583 61.2059 390.813 62.0988C387.341 62.7932 385.258 65.2733 384.464 68.7454C383.968 69.9358 383.869 71.3246 383.77 72.4158ZM346.172 203.065C346.172 209.712 346.172 216.359 346.172 223.104C349.843 223.501 353.414 223.799 357.183 224.196C357.085 225.187 356.985 226.08 356.688 226.874C356.588 227.072 356.093 227.469 355.695 227.469C351.728 227.469 347.858 227.271 343.99 227.271C339.923 227.271 335.855 227.37 331.788 227.469C331.391 227.469 331.193 227.469 330.697 227.469C330.598 226.378 330.3 225.386 330.101 224.294C332.581 223.898 335.061 223.6 337.542 223.204C337.542 202.867 337.542 182.332 337.542 161.797C335.061 161.996 332.581 162.293 330.101 162.492C330.002 161.499 329.705 160.507 329.506 159.317C334.665 158.226 339.525 155.845 345.081 155.746C345.18 158.424 345.478 161.103 345.577 163.979C345.974 163.782 346.172 163.583 346.47 163.484C350.14 160.706 353.91 157.829 357.68 155.052C358.076 154.853 358.573 154.555 358.87 154.555C364.723 154.555 370.08 156.143 374.048 160.607C377.123 163.88 378.512 167.948 379.207 172.313C379.901 177.273 379.901 182.134 378.71 187.094C376.726 194.534 372.064 199.891 364.921 202.669C361.747 203.859 358.175 204.752 354.703 205.347C351.926 205.843 349.148 204.851 346.768 203.661C346.569 203.562 346.271 203.462 346.073 203.264C346.271 203.065 346.271 203.065 346.172 203.065ZM346.172 181.539C346.172 185.507 346.172 189.376 346.172 193.344C346.172 193.839 346.37 194.534 346.668 194.931C349.644 198.998 355.993 201.279 360.953 200.089C365.616 198.899 368.195 195.526 369.783 191.26C371.667 186.201 371.667 181.042 370.973 175.884C370.477 172.214 369.584 168.742 367.5 165.666C364.525 161.202 360.358 160.012 355.596 162.591C352.422 164.277 349.446 166.559 346.47 168.642C346.073 168.841 345.974 169.535 345.974 170.031C346.073 173.702 346.172 177.669 346.172 181.539ZM286.75 151.282C285.163 151.282 283.774 151.282 282.286 151.282C281.591 151.282 281.294 151.084 281.095 150.389C280.203 147.909 279.508 145.429 278.516 143.048C278.119 142.155 277.623 141.461 277.028 140.866C265.52 131.044 241.513 132.532 235.76 154.159C232.685 165.666 233.677 176.975 240.323 187.292C246.077 196.122 254.31 200.784 265.124 200.288C269.588 200.089 273.358 197.907 276.631 195.129C277.723 194.137 278.218 192.451 278.814 191.062C279.905 188.979 280.996 186.797 282.088 184.713C282.286 184.316 282.98 184.019 283.476 183.82C284.865 183.721 286.254 183.82 287.94 183.82C286.948 188.284 286.055 192.649 285.163 196.915C285.063 197.113 284.667 197.51 284.468 197.609C277.226 201.082 269.687 203.859 261.751 205.248C257.783 205.942 254.013 205.149 250.243 204.057C235.463 199.99 225.84 188.086 224.451 173.007C223.855 165.269 224.55 157.829 228.022 150.786C231.99 142.949 238.339 137.691 246.275 134.318C251.533 132.136 257.088 130.35 262.842 130.35C271.473 130.35 279.012 133.326 286.055 138.088C286.453 138.287 286.65 138.683 286.65 139.08C286.849 143.048 286.75 147.115 286.75 151.282ZM489.321 103.565C489.222 104.657 488.925 105.649 488.825 106.641C481.98 106.641 475.036 106.641 467.993 106.641C467.893 105.748 467.596 104.657 467.497 103.565C470.076 103.169 472.556 102.97 475.135 102.573C475.135 89.9747 475.135 77.3759 475.135 64.7772C472.655 64.9756 470.274 65.2732 467.794 65.4717C467.695 64.3804 467.398 63.3884 467.298 62.3964C469.977 61.0076 480.095 58.6267 482.675 58.8251C482.873 61.5036 483.071 64.3804 483.27 67.2573C483.865 66.8605 484.262 66.6621 484.659 66.3645C488.825 63.5868 493.091 60.7099 497.258 58.0315C497.853 57.6346 498.646 57.4363 499.241 57.4363C500.928 57.4363 502.713 57.5355 504.4 57.8331C509.757 58.7259 512.336 61.6028 513.03 67.2573C513.229 69.1422 513.229 71.027 513.428 72.9118C513.428 82.3361 513.428 91.8595 513.428 101.383C513.428 102.474 513.824 102.871 514.816 102.871C516.999 102.97 519.38 103.367 521.86 103.565C521.76 104.657 521.463 105.649 521.363 106.641C514.32 106.641 507.475 106.641 500.531 106.641C500.432 105.649 500.134 104.657 500.035 103.565C501.92 103.169 503.606 102.97 505.392 102.573C505.392 102.077 505.392 101.681 505.392 101.185C505.392 91.8595 505.392 82.5345 505.392 73.2094C505.392 73.0111 505.392 72.6142 505.392 72.3166C505.193 65.2733 500.233 63.8844 495.472 65.1741C493.885 65.6701 492.396 66.3645 490.908 67.2573C488.726 68.4477 486.643 69.9357 484.361 71.4238C483.964 71.6222 483.766 72.1182 483.766 72.6142C483.766 82.3361 483.766 92.0579 483.766 101.879C483.766 102.573 483.964 102.871 484.659 102.871C485.849 102.97 487.436 103.367 489.321 103.565ZM615.01 63.0908C613.423 62.694 611.935 62.3964 610.348 61.9996C610.448 60.9084 610.547 59.9163 610.844 58.9243C616.598 58.9243 622.352 58.9243 628.304 58.9243C628.403 59.8171 628.7 60.9084 628.8 61.9996C626.915 62.1979 625.228 62.5948 623.443 62.694C622.451 62.7932 621.955 63.19 621.558 64.182C616.4 77.5744 611.34 91.0659 605.983 104.359C602.412 112.989 598.543 121.422 594.674 130.052C594.575 130.251 594.079 130.747 593.781 130.747C590.309 130.747 586.738 130.747 583.266 130.747C583.266 127.672 583.266 124.696 583.266 121.521C584.853 121.521 586.44 121.422 588.028 121.521C590.21 121.719 591.5 120.926 592.591 119.041C595.071 114.874 597.65 110.807 600.23 106.74C600.329 106.542 600.626 106.144 600.825 105.748C600.13 105.947 599.436 106.144 598.643 106.244C597.551 103.565 596.559 100.887 595.468 98.0101C591.004 86.701 586.738 75.3919 582.373 63.9836C581.976 62.9916 581.48 62.5948 580.488 62.5948C578.603 62.3964 576.917 62.0988 575.131 61.9004C575.23 60.8091 575.528 59.8171 575.628 58.8251C582.869 58.8251 590.012 58.8251 597.353 58.8251C597.452 59.7179 597.75 60.8091 597.848 61.9004C595.368 62.2972 593.186 62.5948 590.706 62.9916C592.293 67.4557 593.781 71.7214 595.368 75.8879C597.253 80.9472 598.94 85.9074 600.725 90.8674C601.618 93.2483 602.114 95.6291 602.213 98.2084C602.213 98.7044 602.313 99.2004 602.71 99.6964C606.777 87.693 610.844 75.4911 615.01 63.0908ZM419.681 83.7249C419.78 77.3759 421.268 71.3246 425.733 66.3645C429.502 62.0988 434.463 60.0155 439.819 58.2299C449.838 55.1546 461.148 60.9084 465.116 71.2254C467.893 78.5664 467.893 86.1057 464.918 93.3475C461.842 100.788 455.692 104.657 448.251 107.137C435.653 111.204 422.36 102.871 420.177 88.685C419.979 86.9986 419.78 85.3122 419.681 83.7249ZM458.668 82.7329C458.568 81.8401 458.568 80.1536 458.271 78.5664C457.576 73.6062 455.692 69.2414 451.723 65.7693C446.069 60.7099 435.256 59.6187 430.693 70.3326C428.113 76.3839 427.618 82.5344 429.105 88.7842C430.197 93.5459 432.379 97.6132 436.347 100.689C442.101 104.954 451.029 105.252 455.493 96.6212C457.775 92.4547 458.469 87.9906 458.668 82.7329ZM332.68 198.502C332.78 199.593 332.879 200.585 333.078 201.776C329.109 202.47 325.24 203.264 321.273 204.157C320.28 201.577 319.288 199.097 318.197 196.419C317.8 196.617 317.503 196.915 317.106 197.113C313.634 199.692 310.063 202.272 306.69 204.752C306.193 205.149 305.499 205.347 304.805 205.347C301.531 205.248 298.258 204.355 295.678 202.272C291.115 198.701 289.925 191.856 292.603 186.3C293.595 184.316 294.984 183.027 297.166 182.332C303.515 180.348 309.963 178.067 316.313 175.983C317.205 175.784 317.503 175.388 317.403 174.396C317.304 171.618 317.503 168.642 317.205 165.765C316.709 161.499 314.527 159.912 310.162 160.409C307.682 160.607 305.4 161.4 302.92 161.996C302.424 162.095 301.928 162.69 301.829 163.186C301.233 165.269 300.738 167.352 300.241 169.535C297.761 169.535 295.281 169.535 292.801 169.535C292.801 167.154 292.801 164.972 292.801 162.789C292.801 162.591 293.198 162.194 293.396 162.095C298.952 159.615 304.309 157.036 309.864 154.654C310.063 154.555 310.459 154.457 310.757 154.555C312.84 154.654 314.923 154.654 316.908 155.052C322.165 156.044 324.645 158.623 325.24 163.88C325.439 166.361 325.736 168.642 325.736 171.122C325.736 177.967 325.736 185.011 325.736 191.856C325.736 193.939 325.935 196.022 327.125 197.709C327.324 198.105 328.018 198.403 328.514 198.403C329.705 198.502 331.193 198.502 332.68 198.502ZM317.403 179.455C316.808 179.654 316.411 179.852 316.015 179.952C311.55 181.836 307.185 183.721 302.623 185.507C301.035 186.102 300.143 187.193 299.646 188.78C299.051 190.665 299.15 192.451 299.646 194.137C300.34 196.816 302.325 198.403 305.202 198.304C306.789 198.204 308.475 197.907 309.864 197.212C312.344 195.824 314.625 194.137 317.007 192.55C317.205 192.451 317.503 192.054 317.503 191.657C317.403 187.689 317.403 183.622 317.403 179.455ZM479.599 198.502C478.111 198.502 476.822 198.403 475.433 198.502C474.54 198.502 474.243 198.105 473.845 197.51C472.853 195.526 472.655 193.344 472.655 191.161C472.655 184.019 472.655 176.777 472.655 169.634C472.655 167.055 472.258 164.376 471.763 161.797C471.266 159.317 470.076 157.234 467.695 156.044C464.421 154.456 460.949 154.357 457.378 154.457C457.18 154.457 456.981 154.555 456.783 154.654C451.426 157.134 445.87 159.615 440.415 161.996C440.216 162.095 439.819 162.492 439.72 162.69C439.72 164.872 439.72 167.154 439.72 169.436C442.2 169.436 444.383 169.436 446.763 169.436C446.962 169.436 447.358 168.94 447.458 168.742C447.954 166.857 448.45 164.972 448.946 162.988C449.045 162.591 449.442 161.996 449.64 161.996C452.418 161.4 455.295 160.507 458.271 160.309C461.941 160.111 463.925 161.897 464.322 165.567C464.52 168.543 464.421 171.42 464.52 174.396C464.52 175.289 464.124 175.487 463.429 175.784C456.882 177.967 450.533 180.249 443.985 182.332C441.803 183.027 440.415 184.316 439.522 186.3C437.042 191.359 437.637 197.212 441.208 201.082C444.184 204.256 448.053 205.248 452.22 205.347C452.616 205.347 453.113 205.149 453.41 204.851C455.989 202.966 458.568 201.181 461.148 199.197C462.338 198.304 463.628 197.312 464.918 196.419C466.008 199.097 467 201.577 467.993 204.157C471.96 203.462 475.83 202.669 479.798 201.974C479.897 200.585 479.698 199.494 479.599 198.502ZM464.421 191.757C464.421 191.954 464.223 192.352 463.925 192.451C461.743 194.038 459.461 195.625 457.18 197.014C455.096 198.204 452.914 198.899 450.434 198.105C448.748 197.609 447.656 196.518 446.863 194.931C445.97 192.749 445.97 190.367 446.763 188.185C447.26 186.797 447.954 186.002 449.442 185.407C454.005 183.522 458.568 181.638 463.231 179.753C463.628 179.654 463.925 179.554 464.421 179.257C464.52 183.622 464.52 187.689 464.421 191.757ZM332.482 72.515C332.482 70.1341 332.482 67.9517 332.482 65.8685C332.482 65.6701 332.879 65.174 333.177 64.9756C338.533 62.4956 343.99 59.8172 349.545 57.6347C351.033 57.0394 353.017 57.5354 354.703 57.5354C355.398 57.5354 356.192 57.6346 356.886 57.9323C362.144 59.0235 364.723 61.9996 365.02 67.9517C365.219 75.8879 365.219 83.9233 365.418 92.0579C365.418 93.7444 365.517 95.6292 365.616 97.3157C365.616 97.8117 365.715 98.2084 365.814 98.7044C366.508 101.383 366.806 101.681 369.584 101.681C370.477 101.681 371.27 101.681 372.263 101.681C372.362 102.772 372.46 103.764 372.659 104.855C368.691 105.549 364.822 106.343 360.854 107.037C359.862 104.458 358.87 101.978 357.779 99.2996C357.283 99.6965 356.886 99.8949 356.588 100.193C353.116 102.673 349.743 105.252 346.271 107.633C345.875 107.831 345.378 108.228 345.081 108.228C340.319 108.228 335.855 106.839 333.078 102.673C330.101 98.4069 330.101 93.7444 332.482 88.8834C333.375 86.8994 334.665 85.8081 336.748 85.1137C343.295 83.1297 349.644 80.848 355.993 78.7648C356.985 78.368 357.382 78.0704 357.183 77.0784C357.085 74.3999 357.085 71.7214 356.985 69.1421C356.787 64.9756 354.604 62.9916 350.438 63.3884C347.76 63.5868 345.18 64.3804 342.502 64.9756C342.105 65.0749 341.609 65.6701 341.51 66.0669C341.013 67.9517 340.518 69.8366 340.022 71.7214C339.923 72.1182 339.426 72.4158 339.129 72.4158C337.244 72.7134 334.963 72.515 332.482 72.515ZM357.481 82.5344C356.886 82.7329 356.39 82.9313 355.993 83.1297C351.43 85.0145 346.867 86.8994 342.403 88.7842C341.311 89.2802 340.418 89.8754 340.022 90.9667C338.93 93.5459 338.93 96.2244 340.121 98.7044C340.815 100.193 342.105 100.887 343.593 101.383C346.172 101.978 348.355 101.284 350.636 99.8949C352.72 98.5061 354.803 97.1172 356.886 95.7284C357.085 95.5299 357.481 95.1331 357.481 94.7364C357.481 90.6691 357.481 86.7009 357.481 82.5344ZM497.952 199.593C500.73 199.99 503.309 200.189 506.185 200.585C506.086 201.577 506.086 202.47 505.789 203.164C505.69 203.562 505.094 203.76 504.598 203.76C501.623 203.76 498.845 203.562 495.868 203.562C492.099 203.562 488.13 203.661 484.361 203.76C483.865 203.76 483.369 203.76 482.774 203.76C482.675 202.669 482.377 201.776 482.278 200.585C484.758 200.189 487.139 199.99 489.718 199.593C489.718 178.86 489.718 158.127 489.718 137.394C487.238 137.394 484.956 137.394 482.377 137.394C482.278 136.402 481.98 135.409 481.881 134.219C487.238 133.029 492.298 130.549 498.051 130.648C497.952 153.662 497.952 176.677 497.952 199.593ZM421.169 143.346C421.169 147.809 421.169 152.274 421.169 156.837C426.427 156.837 431.685 156.837 437.042 156.837C437.042 158.325 437.042 159.615 437.042 161.103C431.784 161.103 426.625 161.103 421.368 161.103C421.368 161.698 421.268 162.095 421.268 162.591C421.268 172.015 421.268 181.539 421.268 190.963C421.268 191.856 421.368 192.649 421.467 193.542C421.863 196.22 423.55 197.808 426.228 198.006C428.609 198.105 430.693 197.51 432.875 196.518C433.47 196.319 434.264 195.923 434.958 195.625C435.454 196.617 435.95 197.609 436.545 198.701C433.966 200.189 431.486 201.677 428.907 202.967C428.411 203.363 427.815 203.562 427.32 203.958C423.253 206.339 419.483 205.149 415.812 203.264C413.729 202.172 413.431 199.792 413.233 197.609C413.134 196.022 413.134 194.435 413.134 192.847C413.134 182.927 413.134 173.007 413.134 162.988C413.134 162.492 413.134 161.897 413.134 161.302C409.86 161.302 406.487 161.302 403.313 161.302C402.916 160.21 403.213 159.417 403.908 158.623C405.495 156.639 407.479 155.647 410.058 156.143C411.15 156.242 412.241 156.143 413.63 156.143C413.63 154.258 413.53 152.472 413.63 150.786C413.63 150.092 414.027 149.298 414.324 148.802C415.515 147.214 417.003 145.727 418.391 144.239C419.284 143.048 419.284 143.048 421.169 143.346ZM309.963 58.6267C309.963 62.8924 309.963 66.9597 309.963 71.2254C311.65 69.2414 313.435 67.4557 315.023 65.4717C317.007 63.0908 319.09 60.8091 321.074 58.6267C321.47 58.2299 322.165 57.9323 322.76 57.9323C324.943 57.8331 327.225 57.9323 329.506 57.9323C329.506 61.0076 329.506 63.9837 329.506 67.0589C327.621 67.0589 325.835 66.9597 324.149 67.0589C322.959 67.1581 321.669 67.4557 320.677 67.9517C316.61 70.0349 313.435 73.1102 310.856 76.7807C310.658 76.9791 310.459 77.4751 310.459 77.7728C310.459 85.7089 310.459 93.7443 310.459 101.681C310.459 101.879 310.459 102.077 310.558 102.375C314.03 102.772 317.602 102.97 320.975 103.367C320.875 104.557 320.578 105.847 320.479 106.839C312.145 106.839 303.813 106.839 295.48 106.839C295.38 105.847 295.083 104.855 294.984 103.764C297.166 103.565 299.25 103.169 301.531 103.069C302.225 102.97 302.623 102.673 302.623 101.978C302.623 89.9747 302.623 77.8719 302.623 65.8685C302.623 65.6701 302.623 65.4716 302.523 65.1741C300.043 65.3724 297.563 65.6701 295.083 65.7693C294.984 64.6781 294.686 63.686 294.587 62.4956C299.646 61.1067 304.408 58.9243 309.963 58.6267ZM406.09 200.585C405.991 201.677 405.693 202.669 405.595 203.661C403.114 203.661 400.634 203.661 398.253 203.661C393.69 203.661 389.127 203.76 384.464 203.76C382.48 203.76 382.48 203.76 382.083 201.875C381.984 201.478 381.984 200.982 381.984 200.684C384.464 200.288 386.944 200.089 389.425 199.692C389.425 187.193 389.425 174.694 389.425 161.996C386.944 162.095 384.464 162.392 381.984 162.492C381.885 161.4 381.588 160.409 381.488 159.317C386.845 158.127 392.003 155.647 397.857 155.746C397.857 170.527 397.857 185.11 397.857 199.692C400.634 199.99 403.213 200.189 406.09 200.585ZM392.4 149.199C392.202 149.199 392.004 149.298 391.805 149.298C389.623 149.397 389.028 148.802 388.63 146.619C388.234 144.239 388.433 141.957 389.028 139.576C389.127 139.179 389.425 138.683 389.623 138.683C392.301 138.584 395.178 137.79 397.857 138.584C398.253 138.683 398.551 139.179 398.551 139.477C399.047 142.254 399.047 145.132 398.154 147.909C398.055 148.306 397.559 148.603 397.261 148.603C395.674 148.901 393.988 149 392.4 149.199Z" fill="white"/>
</svg>
