<svg width="167" height="67" viewBox="0 0 167 67" fill="none" xmlns="http://www.w3.org/2000/svg">
<path d="M76.9062 24.4595H80.6794V39.5516H84.4524V20.6865H80.6794C78.6042 20.6865 76.9062 22.3844 76.9062 24.4595Z" fill="white"/>
<path d="M88.2227 39.5515H91.9957V32.0054C91.9957 29.9303 90.2978 28.2324 88.2227 28.2324V39.5515Z" fill="white"/>
<path d="M95.7695 28.2324V39.5515H99.5425V32.0054H103.316V35.7785C103.316 37.8536 105.013 39.5515 107.089 39.5515V32.0054C107.089 29.9303 105.391 28.2324 103.316 28.2324H95.7695Z" fill="white"/>
<path d="M129.724 28.2326H125.951V24.4595C125.951 22.3844 124.254 20.6865 122.178 20.6865V35.7786H114.632V32.0056H118.405V28.2326H114.632C112.557 28.2326 110.859 29.9304 110.859 32.0056V35.7786C110.859 37.8538 112.557 39.5516 114.632 39.5516H125.951V32.0056H129.724V35.7786C129.724 37.8538 131.422 39.5516 133.497 39.5516V32.0056C133.497 29.9304 131.8 28.2326 129.724 28.2326Z" fill="white"/>
<path d="M88.2227 24.4595H91.9957C91.9957 22.3844 90.2978 20.6865 88.2227 20.6865V24.4595Z" fill="white"/>
<path d="M82.2394 45.9258H80.6758V43.3652H82.2017V43.7858H81.1392V44.4223H82.0887V44.843H81.1392V45.5052H82.2394V45.9258Z" fill="white"/>
<path d="M89.0954 43.3652H89.638L88.7488 44.62L89.6719 45.9258H89.1293L88.4473 44.9638L87.7691 45.9258H87.2266L88.1497 44.62L87.2681 43.3652H87.8106L88.4586 44.2907L89.0954 43.3652Z" fill="white"/>
<path d="M96.4763 45.3398L96.6533 45.6763C96.5705 45.7617 96.4512 45.8312 96.2955 45.8849C96.1422 45.9385 95.9802 45.9653 95.8094 45.9653C95.4075 45.9653 95.0797 45.8446 94.826 45.6032C94.5748 45.3617 94.4492 45.0423 94.4492 44.6448C94.4492 44.2644 94.5685 43.9486 94.8072 43.6974C95.0433 43.4486 95.3736 43.3242 95.7981 43.3242C96.1346 43.3242 96.4021 43.4108 96.6006 43.5839L96.3934 43.9169C96.2151 43.8022 96.0166 43.7449 95.7981 43.7449C95.5469 43.7449 95.3409 43.8266 95.1801 43.99C95.0194 44.1533 94.9391 44.3716 94.9391 44.6448C94.9391 44.913 95.0232 45.1301 95.1915 45.2959C95.3623 45.4617 95.5821 45.5446 95.8508 45.5446C96.0819 45.5446 96.2904 45.4763 96.4763 45.3398Z" fill="white"/>
<path d="M103.953 45.9258H103.493V44.8321H102.288V45.9258H101.824V43.3652H102.288V44.4114H103.493V43.3652H103.953V45.9258Z" fill="white"/>
<path d="M109.522 45.9253H109.055L110.17 43.3574H110.577L111.692 45.9253H111.199L110.923 45.2706H109.797L109.522 45.9253ZM110.746 44.8499L110.362 43.939L109.974 44.8499H110.746Z" fill="white"/>
<path d="M119.05 43.3652V45.9258H118.681L117.23 44.1517V45.9258H116.797V43.3652H117.166L118.617 45.1467V43.3652H119.05Z" fill="white"/>
<path d="M126.222 44.9667H125.585V44.546H126.656V45.6068C126.543 45.7166 126.392 45.8044 126.204 45.8703C126.015 45.9336 125.837 45.9653 125.668 45.9653C125.242 45.9653 124.905 45.8458 124.659 45.6068C124.415 45.3703 124.293 45.0496 124.293 44.6448C124.293 44.2692 124.414 43.9558 124.655 43.7046C124.896 43.451 125.214 43.3242 125.608 43.3242C125.945 43.3242 126.228 43.4108 126.456 43.5839L126.26 43.9424C126.195 43.8815 126.108 43.834 126 43.7998C125.892 43.7632 125.78 43.7449 125.664 43.7449C125.401 43.7449 125.189 43.8254 125.028 43.9863C124.865 44.1449 124.783 44.3643 124.783 44.6448C124.783 44.9155 124.865 45.1338 125.028 45.2996C125.189 45.463 125.405 45.5446 125.676 45.5446C125.771 45.5446 125.875 45.5276 125.985 45.4934C126.096 45.4568 126.175 45.4154 126.222 45.3691V44.9667Z" fill="white"/>
<path d="M133.498 45.9258H131.934V43.3652H133.46V43.7858H132.398V44.4223H133.347V44.843H132.398V45.5052H133.498V45.9258Z" fill="white"/>
<path fill-rule="evenodd" clip-rule="evenodd" d="M61.7215 19.3816C61.7215 19.3816 63.269 19.4436 64.8784 19.6292C61.2572 16.7818 57.8217 15.9461 55.0362 15.9461C51.227 15.9461 48.6375 17.5011 48.4476 17.6151L48.4437 17.6174L49.6508 15.6985C49.6508 15.6985 44.8224 15.2343 43.1201 20.3411C42.6869 19.2579 42.2845 17.6793 42.2845 17.6793C42.2845 17.6793 39.7775 19.8768 40.9537 23.529C38.0752 22.4767 33.9588 21.022 33.8041 20.9911C33.5874 20.9601 33.5255 21.053 33.5255 21.053C33.5255 21.053 33.4636 21.1458 33.6493 21.3006C33.9898 21.5791 40.4894 26.3765 41.9132 27.3049C41.6036 28.4192 41.6036 28.9454 41.9132 29.4715C42.3464 30.1834 42.3773 30.5547 42.3155 31.081C42.2536 31.6071 41.6965 36.1568 41.5726 36.7139C41.5227 36.9388 41.2811 37.3957 41.0147 37.8994C40.6213 38.6434 40.1739 39.4893 40.2109 39.84C40.2727 40.428 41.0774 42.935 41.7893 43.2136C42.3155 43.3992 43.6155 43.8016 44.482 43.8016C44.7915 43.8016 45.07 43.7397 45.1939 43.6159C45.72 43.1516 45.8748 43.0588 46.2462 43.0588H46.3391C46.4099 43.0588 46.4873 43.0653 46.5712 43.0723C46.6704 43.0807 46.7788 43.0898 46.8962 43.0898C47.3914 43.0898 48.0413 42.9969 48.5056 42.5636C48.8266 42.2426 49.2576 41.8666 49.6625 41.5133C50.1166 41.1173 50.5377 40.7499 50.734 40.5209C51.1983 39.9328 51.4459 39.1281 51.3221 38.3234C51.2292 37.5806 51.6316 36.9306 52.0959 36.2807C52.6839 35.5068 53.7671 34.1141 53.7671 34.1141C55.9028 35.7235 57.2336 38.1686 57.2336 40.8922C57.2336 45.7206 53.0244 49.6203 47.8247 49.6203C47.0199 49.6203 46.2462 49.5275 45.4724 49.3417C47.8557 50.1775 49.8674 50.456 51.5078 50.456C55.0053 50.456 56.8622 49.187 56.8622 49.187C56.8622 49.187 56.2122 50.0227 55.1599 50.9822H55.1909C60.9787 50.1775 63.7952 45.411 63.7952 45.411C63.7952 45.411 63.5785 46.9586 63.3 48.0109C70.8104 42.3706 69.7671 35.3486 69.6805 34.7655C69.6782 34.7502 69.6766 34.7394 69.6758 34.7331C69.7141 34.7907 70.0259 35.1692 70.3533 35.5667H70.3534C70.5542 35.8105 70.7608 36.0614 70.9138 36.2496C72.1518 23.4981 61.7215 19.3816 61.7215 19.3816ZM64.8628 19.6263C63.2534 19.4407 61.7059 19.3787 61.7059 19.3787C61.7059 19.3787 72.1362 23.4951 70.8982 36.2467C70.7452 36.0585 70.5386 35.8076 70.3378 35.5638L70.3377 35.5637C70.0103 35.1663 69.6985 34.7877 69.6602 34.7302C69.661 34.7365 69.6626 34.7473 69.6648 34.7625C69.7515 35.3457 70.7947 42.3676 63.2843 48.008C63.5629 46.9557 63.7795 45.4081 63.7795 45.4081C63.7795 45.4081 60.9631 50.1745 55.1753 50.9792H55.1443C56.1966 50.0197 56.8466 49.1841 56.8466 49.1841C56.8466 49.1841 54.9896 50.4531 51.4921 50.4531C49.8518 50.4531 47.84 50.1745 45.4568 49.3388C46.2306 49.5245 47.0043 49.6173 47.8091 49.6173C53.0088 49.6173 57.218 45.7176 57.218 40.8893C57.218 38.1657 55.8871 35.7206 53.7515 34.1112C53.7515 34.1112 52.6683 35.5039 52.0803 36.2777C51.616 36.9277 51.2136 37.5776 51.3065 38.3205C51.4303 39.1252 51.1826 39.9298 50.7184 40.518C50.5221 40.747 50.1009 41.1144 49.6469 41.5104C49.242 41.8636 48.8109 42.2397 48.4899 42.5607C48.0257 42.994 47.3758 43.0868 46.8806 43.0868C46.7631 43.0868 46.6548 43.0777 46.5555 43.0694C46.4717 43.0624 46.3943 43.0559 46.3235 43.0559H46.2306C45.8592 43.0559 45.7044 43.1487 45.1783 43.613C45.0544 43.7368 44.7759 43.7987 44.4664 43.7987C43.5998 43.7987 42.2998 43.3963 41.7737 43.2107C41.0618 42.932 40.2571 40.4251 40.1952 39.837C40.1583 39.4864 40.6056 38.6404 40.9991 37.8965C41.2654 37.3928 41.5071 36.9359 41.557 36.711C41.6809 36.1539 42.238 31.6042 42.2998 31.0781C42.3617 30.5518 42.3308 30.1805 41.8975 29.4686C41.588 28.9424 41.588 28.4163 41.8975 27.302C40.4738 26.3736 33.9742 21.5762 33.6337 21.2976C33.448 21.1428 33.5099 21.05 33.5099 21.05C33.5099 21.05 33.5718 20.9572 33.7885 20.9882C33.9432 21.0191 38.0596 22.4738 40.9381 23.5261C39.7619 19.8739 42.2689 17.6764 42.2689 17.6764C42.2689 17.6764 42.6713 19.2549 43.1045 20.3382C44.8068 15.2314 49.6351 15.6956 49.6351 15.6956L48.4281 17.6145L48.432 17.6122C48.6219 17.4981 51.2114 15.9432 55.0206 15.9432C57.8061 15.9432 61.2416 16.7789 64.8628 19.6263ZM48.8188 33.8732C49.2615 32.6717 49.74 31.448 49.8828 31.3257C50.0065 31.2328 50.3161 31.1399 50.8422 30.9851C51.1517 30.9233 51.585 30.7994 51.6469 30.7375C51.7498 30.5832 52.6221 28.5054 52.9673 27.6831L52.9681 27.6813L52.9696 27.6776C53.0386 27.5133 53.0861 27.4002 53.1016 27.364C53.0763 27.1865 52.6561 26.0947 52.1476 24.8718C50.7252 25.2538 49.4497 25.0571 48.85 24.9205C48.6422 24.91 48.5209 24.8879 48.5209 24.8879C48.5209 24.8879 48.5501 24.8797 48.6042 24.8589C48.563 24.8475 48.5323 24.8385 48.5128 24.8328L48.5127 24.8327H48.5126C48.4977 24.8283 48.4895 24.8259 48.4883 24.8259C48.6135 24.8015 48.7352 24.7747 48.8533 24.7457C49.2968 24.5178 50.1242 23.9629 50.966 22.7214C52.1731 20.8952 51.0279 18.3883 51.0279 18.3883C51.0279 18.3883 46.7877 24.7641 46.2615 24.8879C45.7354 25.0117 45.364 24.3617 45.364 24.3617C45.364 24.3617 44.2497 27.2711 43.9402 28.3234C43.6308 29.3758 44.0021 30.3662 44.2807 30.8614C44.5902 31.3566 45.2401 32.5946 44.3426 33.8636C44.4664 33.3065 43.9093 32.4398 43.5069 31.9137C43.3522 33.2755 42.9498 36.5254 42.826 37.0515C42.767 37.4053 42.5676 37.7872 42.2278 38.438L42.1761 38.5371C42.1241 38.641 42.0576 38.7667 41.9867 38.9007L41.9865 38.9011C41.8041 39.2459 41.5929 39.6452 41.5261 39.868C41.6499 40.4251 42.1141 41.756 42.4237 42.1583C42.8569 42.3131 43.476 42.4679 44.0021 42.5607C44.2386 42.5607 44.5315 42.4477 44.9349 42.0871L42.8874 41.632C42.8874 41.632 44.2491 40.9202 44.4658 40.1155C44.6599 39.4225 44.1587 37.2893 44.0298 36.7406C44.0147 36.6766 44.0048 36.6342 44.0015 36.6181L44.0137 36.6294C44.1075 36.7151 44.6687 37.2285 44.9301 38.0417C45.4253 36.68 46.0752 35.3801 46.2609 35.2562C46.4206 35.1498 48.2955 34.1514 48.8188 33.8732ZM48.8003 35.503C48.719 35.5104 48.636 35.5209 48.5518 35.5349C49.109 33.9873 49.9446 31.7898 50.0994 31.6042C50.1487 31.5548 50.4537 31.4662 50.7321 31.3852H50.7324C50.8032 31.3646 50.8723 31.3445 50.935 31.3257C51.5232 31.1709 51.8017 31.0781 51.8945 30.9542C51.9564 30.8614 52.2659 30.1495 52.5755 29.4067C52.6781 29.4067 52.8396 29.3983 53.0057 29.3861C53.2904 29.3653 53.5887 29.3334 53.6278 29.3138C53.6896 29.2519 54.2778 27.7354 54.2778 27.5496C54.2778 27.548 54.2776 27.5461 54.2774 27.5439C54.2772 27.5421 54.2769 27.54 54.2765 27.5378C54.2447 27.3537 53.6312 25.7984 53.1194 24.5209C53.8893 24.1663 54.667 23.6116 55.3753 22.7634C60.6701 24.2789 64.5533 29.1639 64.5533 34.9468C64.5533 36.1163 64.3933 37.2504 64.0938 38.3279C64.3973 37.0338 64.4498 35.6778 64.2123 34.2967C63.1007 27.9978 56.6908 24.7793 56.2917 24.6104L56.2897 24.6095L56.2889 24.6092L56.2892 24.6102C57.5884 28.8807 54.7103 31.2636 52.7605 31.2945C52.3777 31.2945 51.9485 31.3834 51.5535 31.4984C50.8308 31.7088 50.2226 32.0064 50.2226 32.0064L48.8003 35.503ZM58.0841 45.9818C59.848 44.47 61.1678 42.4739 61.7981 40.2392C61.8221 40.1674 61.9942 40.0585 62.1569 39.9556C62.2045 39.9255 62.2513 39.8959 62.2933 39.8679L62.3558 39.8307L62.3996 39.8049C62.6706 39.6454 62.9194 39.4989 62.9743 39.2798C63.098 38.5679 63.1599 37.8252 63.1599 37.0823C63.1599 36.8037 62.8813 36.5252 62.6028 36.2466C62.3861 36.0609 62.1695 35.8442 62.1695 35.6895C61.9087 33.3163 60.9448 31.075 59.4073 29.2803C59.4211 29.3523 59.4342 29.4254 59.4465 29.4995C60.8392 31.2637 61.7368 33.3993 61.9844 35.6587C61.9844 35.7744 62.1228 35.9247 62.2573 36.0708L62.2574 36.0709C62.3028 36.1202 62.3477 36.169 62.3867 36.2158C62.6654 36.4943 62.9439 36.773 62.9439 37.0515C62.9439 37.7943 62.8819 38.5371 62.7582 39.249C62.6963 39.4966 62.3867 39.6822 62.0772 39.837C62.0352 39.865 61.9884 39.8946 61.9409 39.9247C61.7781 40.0277 61.606 40.1366 61.582 40.2084C60.9011 42.6535 59.3536 44.82 57.3418 46.3676C57.594 46.2469 57.8416 46.1182 58.0841 45.9818ZM46.9556 40.8663C47.1519 40.6848 47.35 40.5113 47.5299 40.3631C47.8472 40.1005 48.1646 39.9229 48.4423 39.7676C48.95 39.4836 49.3251 39.2738 49.3251 38.7536C49.3446 37.6995 48.6377 37.4949 48.1129 37.4875C47.8374 37.5514 47.6234 37.6395 47.6234 37.6395C47.6234 37.6395 48.5209 37.4847 48.8614 38.1347C49.2018 38.7847 48.9233 39.1561 48.3662 39.5275C48.0888 39.7125 47.491 40.2952 46.9556 40.8663ZM47.206 39.0101C47.1892 39.3097 47.1617 39.7989 46.9424 40.1156C46.964 40.094 47.0305 40.0238 47.1172 39.9321L47.1174 39.9319C47.2799 39.7603 47.5131 39.514 47.6543 39.3728C47.7507 39.286 47.8591 39.2173 47.9626 39.1516C48.1917 39.0064 48.3971 38.8761 48.3971 38.599C48.3971 38.1657 47.8091 38.0729 47.5615 38.1347C47.3139 38.1966 47.2519 38.599 47.221 38.8157C47.2144 38.8618 47.2106 38.929 47.206 39.0101ZM50.2819 22.3189C50.9938 21.4831 50.7152 20.2451 50.7152 20.2451L48.6415 23.3093C48.6106 23.3093 49.3843 23.3402 50.2819 22.3189ZM49.1103 29.6542C49.6983 28.9732 49.3888 27.7043 48.3056 27.4876C48.5841 26.8376 48.9864 25.5377 48.9864 25.5377C48.9864 25.5377 45.8295 30.4898 45.5509 30.5826C45.2724 30.6755 44.9938 29.5922 44.9938 29.5922C44.4058 31.8517 45.9842 32.1612 46.17 31.4493C47.0365 31.2326 48.5222 30.3041 49.1103 29.6542ZM43.57 37.8251L43.3224 39.0631C43.3224 39.0631 43.8176 39.0012 43.8176 39.5583C43.8176 39.9916 43.3224 40.5797 42.9201 40.6106C42.5177 40.6416 42.363 40.1464 42.4558 39.8678C42.5486 39.6202 43.57 37.8251 43.57 37.8251Z" fill="white"/>
<path d="M46.4141 30.861L48.0234 28.1064C48.0234 28.1064 48.952 28.5707 48.4877 29.3135C47.8997 30.1801 46.4141 30.861 46.4141 30.861Z" fill="white"/>
<path d="M66.3164 43.6126C65.8521 44.2317 65.326 44.8816 64.707 45.5006C68.6996 37.8249 64.8928 30.7991 64.738 30.5205C65.0165 30.7991 65.2951 31.1086 65.5427 31.3872C68.6068 34.7918 68.9782 39.8985 66.3164 43.6126Z" fill="white"/>
<path d="M70.0329 33.7395C68.6402 29.9945 66.6594 26.8066 62.2953 23.9282C58.0861 21.1426 53.5673 21.3593 53.3197 21.3902C53.2888 21.3902 53.2578 21.3902 53.2578 21.3902C53.4125 21.3283 53.5673 21.2974 53.722 21.2665C54.6815 20.957 55.9195 20.7094 57.1575 20.5546C60.4383 20.0903 63.75 21.2046 66.0094 23.5877C66.0403 23.6187 66.0403 23.6187 66.0713 23.6496C68.6402 26.3732 69.9711 29.7778 70.0329 33.7395Z" fill="white"/>
<path d="M61.3057 18.4193C56.6941 17.5527 53.7228 17.9859 51.5873 18.7907C51.5254 18.5431 51.3088 18.0479 51.123 17.6455C50.473 18.4193 49.7922 19.3478 49.3589 19.9358C48.1827 20.7406 47.6875 21.5144 47.6875 21.5144C48.3684 19.193 50.3493 17.4598 52.7634 17.0265C53.4443 16.9027 54.1871 16.8408 54.9919 16.8408C57.1274 16.8718 59.263 17.3979 61.3057 18.4193Z" fill="white"/>
<path d="M44.2504 24.3619C40.6292 24.2382 41.8363 20.029 41.8982 19.7812C41.8982 19.8122 42.1458 23.0929 44.2504 24.3619Z" fill="white"/>
<path d="M47.8074 16.7783C45.0218 18.4497 45.579 22.4423 45.579 22.4423C42.9172 18.3878 47.5907 16.8711 47.8074 16.7783Z" fill="white"/>
<path d="M43.2285 25.4756C43.4142 25.6304 43.6 25.9089 43.3833 26.3112C43.2594 26.5279 43.0738 26.497 42.7952 26.3732C42.4238 26.1875 40.1954 24.8876 38.1836 23.5566C40.4739 24.3613 42.7952 25.228 43.1666 25.4137C43.1666 25.4137 43.1976 25.4447 43.2285 25.4756Z" fill="white"/>
</svg>
