<svg width="471" height="267" viewBox="0 0 471 267" fill="none" xmlns="http://www.w3.org/2000/svg">
<path d="M84.0683 36.5271C87.854 36.5271 88.354 36.3842 88.354 35.0985C88.354 33.7414 88.854 33.6699 95.4969 33.6699C102.14 33.6699 102.64 33.7414 102.64 35.0985C102.64 36.0271 102.14 36.5271 101.211 36.5271C100.283 36.5271 99.7826 37.0271 99.7826 37.9556C99.7826 38.8842 100.283 39.3842 101.211 39.3842C102.64 39.3842 102.64 39.8842 102.64 126.527C102.64 213.17 102.64 213.67 101.211 213.67C100.283 213.67 99.7826 214.17 99.7826 215.099C99.7826 216.027 100.283 216.527 101.211 216.527C102.14 216.527 102.64 217.027 102.64 217.956C102.64 219.384 103.14 219.384 126.925 219.384C150.711 219.384 151.211 219.384 151.211 220.813C151.211 221.741 151.711 222.241 152.64 222.241C153.568 222.241 154.068 222.741 154.068 223.67C154.068 224.599 154.568 225.099 155.497 225.099C156.425 225.099 156.925 225.599 156.925 226.527C156.925 227.456 156.425 227.956 155.497 227.956C154.283 227.956 154.068 228.456 154.068 230.813V233.67H95.4969C37.4254 233.67 36.9254 233.67 36.9254 232.241C36.9254 231.313 36.4254 230.813 35.4969 230.813C34.2112 230.813 34.0683 230.313 34.0683 226.527C34.0683 222.741 34.2112 222.241 35.4969 222.241C36.4254 222.241 36.9254 221.741 36.9254 220.813C36.9254 219.384 37.4254 219.384 62.6397 219.384H88.354V50.8128H84.0683C80.2826 50.8128 79.7826 50.9556 79.7826 52.2414C79.7826 53.5271 79.2826 53.6699 75.4969 53.6699C71.7112 53.6699 71.2112 53.8128 71.2112 55.0985C71.2112 56.3842 70.7112 56.5271 66.9254 56.5271C63.1397 56.5271 62.6397 56.6699 62.6397 57.9556C62.6397 59.2414 62.1397 59.3842 58.354 59.3842C54.5683 59.3842 54.0683 59.5271 54.0683 60.8128C54.0683 62.0985 53.5683 62.2414 49.7826 62.2414C45.9969 62.2414 45.4969 62.3842 45.4969 63.6699C45.4969 64.9556 44.9969 65.0985 41.2112 65.0985C37.4254 65.0985 36.9254 64.9556 36.9254 63.6699C36.9254 62.7414 36.4254 62.2414 35.4969 62.2414C34.2112 62.2414 34.0683 61.7414 34.0683 57.9556C34.0683 54.1699 34.2112 53.6699 35.4969 53.6699C36.4254 53.6699 36.9254 53.1699 36.9254 52.2414C36.9254 50.9556 37.4254 50.8128 41.2112 50.8128C44.9969 50.8128 45.4969 50.6699 45.4969 49.3842C45.4969 48.0985 45.9969 47.9556 49.7826 47.9556C53.5683 47.9556 54.0683 47.8128 54.0683 46.5271C54.0683 45.2414 54.5683 45.0985 58.354 45.0985C62.1397 45.0985 62.6397 44.9556 62.6397 43.6699C62.6397 42.3842 63.1397 42.2414 66.9254 42.2414C70.7112 42.2414 71.2112 42.0985 71.2112 40.8128C71.2112 39.5271 71.7112 39.3842 75.4969 39.3842C79.2826 39.3842 79.7826 39.2414 79.7826 37.9556C79.7826 36.6699 80.2826 36.5271 84.0683 36.5271Z" fill="white"/>
<path fill-rule="evenodd" clip-rule="evenodd" d="M178.354 36.5271C179.283 36.5271 179.783 36.0271 179.783 35.0985C179.783 33.7414 180.283 33.6699 198.354 33.6699H216.925V95.0985C216.925 156.027 216.925 156.527 218.354 156.527C219.283 156.527 219.783 156.027 219.783 155.099C219.783 154.17 220.283 153.67 221.211 153.67C222.14 153.67 222.64 153.17 222.64 152.241C222.64 151.313 223.14 150.813 224.068 150.813C224.997 150.813 225.497 150.313 225.497 149.384C225.497 148.456 225.997 147.956 226.925 147.956C227.854 147.956 228.354 147.456 228.354 146.527C228.354 145.313 228.854 145.099 231.211 145.099C233.568 145.099 234.068 144.884 234.068 143.67C234.068 142.741 234.568 142.241 235.497 142.241C236.425 142.241 236.925 141.741 236.925 140.813C236.925 139.884 237.425 139.384 238.354 139.384C239.283 139.384 239.783 138.884 239.783 137.956C239.783 137.027 240.283 136.527 241.211 136.527C242.14 136.527 242.64 136.027 242.64 135.099C242.64 134.17 243.14 133.67 244.068 133.67C244.997 133.67 245.497 133.17 245.497 132.241C245.497 131.027 245.997 130.813 248.354 130.813C250.711 130.813 251.211 130.599 251.211 129.384C251.211 128.456 251.711 127.956 252.64 127.956C253.568 127.956 254.068 127.456 254.068 126.527C254.068 125.599 254.568 125.099 255.497 125.099C256.425 125.099 256.925 124.599 256.925 123.67C256.925 122.741 257.425 122.241 258.354 122.241C259.283 122.241 259.783 121.741 259.783 120.813C259.783 119.884 260.283 119.384 261.211 119.384C262.14 119.384 262.64 118.884 262.64 117.956C262.64 117.027 263.14 116.527 264.068 116.527C264.997 116.527 265.497 116.027 265.497 115.099C265.497 113.884 265.997 113.67 268.354 113.67H271.211V107.956H265.497C260.283 107.956 259.783 107.813 259.783 106.527C259.783 105.598 259.283 105.098 258.354 105.098C257.14 105.098 256.925 104.598 256.925 102.241C256.925 99.8842 257.14 99.3842 258.354 99.3842C259.283 99.3842 259.783 98.8842 259.783 97.9556C259.783 96.5271 260.283 96.5271 295.497 96.5271C330.711 96.5271 331.211 96.5271 331.211 97.9556C331.211 98.8842 331.711 99.3842 332.64 99.3842C333.925 99.3842 334.068 99.8842 334.068 103.67V107.956H329.783C325.997 107.956 325.497 108.099 325.497 109.384C325.497 110.67 324.997 110.813 321.211 110.813C317.425 110.813 316.925 110.67 316.925 109.384C316.925 108.17 316.425 107.956 314.068 107.956H311.211V113.67H314.068C316.425 113.67 316.925 113.884 316.925 115.099C316.925 116.027 317.425 116.527 318.354 116.527C319.283 116.527 319.783 117.027 319.783 117.956C319.783 118.884 320.283 119.384 321.211 119.384C322.14 119.384 322.64 119.884 322.64 120.813C322.64 121.741 323.14 122.241 324.068 122.241C324.997 122.241 325.497 122.741 325.497 123.67C325.497 124.599 325.997 125.099 326.925 125.099C327.854 125.099 328.354 125.599 328.354 126.527C328.354 127.456 328.854 127.956 329.783 127.956C330.711 127.956 331.211 128.456 331.211 129.384C331.211 130.313 331.711 130.813 332.64 130.813C333.568 130.813 334.068 131.313 334.068 132.241C334.068 133.17 334.568 133.67 335.497 133.67C336.425 133.67 336.925 134.17 336.925 135.099C336.925 136.027 337.425 136.527 338.354 136.527C339.283 136.527 339.783 137.027 339.783 137.956C339.783 138.884 340.283 139.384 341.211 139.384C342.14 139.384 342.64 139.884 342.64 140.813C342.64 141.741 343.14 142.241 344.068 142.241C344.997 142.241 345.497 142.741 345.497 143.67C345.497 144.599 345.997 145.099 346.925 145.099C347.854 145.099 348.354 145.599 348.354 146.527C348.354 147.456 348.854 147.956 349.783 147.956C350.711 147.956 351.211 148.456 351.211 149.384C351.211 150.599 351.711 150.813 354.068 150.813C356.425 150.813 356.925 150.599 356.925 149.384C356.925 148.456 357.425 147.956 358.354 147.956C359.283 147.956 359.783 147.456 359.783 146.527C359.783 145.599 360.283 145.099 361.211 145.099C362.14 145.099 362.64 144.599 362.64 143.67C362.64 142.456 363.14 142.241 365.497 142.241C367.854 142.241 368.354 142.027 368.354 140.813C368.354 139.884 368.854 139.384 369.783 139.384C370.711 139.384 371.211 138.884 371.211 137.956C371.211 137.027 371.711 136.527 372.64 136.527C373.568 136.527 374.068 136.027 374.068 135.099C374.068 134.17 374.568 133.67 375.497 133.67C376.425 133.67 376.925 133.17 376.925 132.241C376.925 131.313 377.425 130.813 378.354 130.813C379.283 130.813 379.783 130.313 379.783 129.384C379.783 128.456 380.283 127.956 381.211 127.956C382.14 127.956 382.64 127.456 382.64 126.527C382.64 125.599 383.14 125.099 384.068 125.099C384.997 125.099 385.497 124.599 385.497 123.67C385.497 122.741 385.997 122.241 386.925 122.241C387.854 122.241 388.354 121.741 388.354 120.813C388.354 119.884 388.854 119.384 389.783 119.384C390.711 119.384 391.211 118.884 391.211 117.956C391.211 117.027 391.711 116.527 392.64 116.527C393.568 116.527 394.068 116.027 394.068 115.099C394.068 114.17 394.568 113.67 395.497 113.67C396.711 113.67 396.925 113.17 396.925 110.813C396.925 108.456 396.711 107.956 395.497 107.956C394.568 107.956 394.068 108.456 394.068 109.384C394.068 110.67 393.568 110.813 389.783 110.813C385.997 110.813 385.497 110.67 385.497 109.384C385.497 108.099 384.997 107.956 381.211 107.956C377.425 107.956 376.925 107.813 376.925 106.527C376.925 105.598 376.425 105.098 375.497 105.098C374.283 105.098 374.068 104.598 374.068 102.241C374.068 99.8842 374.283 99.3842 375.497 99.3842C376.425 99.3842 376.925 98.8842 376.925 97.9556C376.925 96.5271 377.425 96.5271 401.211 96.5271C424.997 96.5271 425.497 96.5271 425.497 97.9556C425.497 98.8842 425.997 99.3842 426.925 99.3842C428.211 99.3842 428.354 99.8842 428.354 103.67V107.956H425.497C423.14 107.956 422.64 108.17 422.64 109.384C422.64 110.67 422.14 110.813 418.354 110.813C414.568 110.813 414.068 110.956 414.068 112.241C414.068 113.17 413.568 113.67 412.64 113.67C411.711 113.67 411.211 114.17 411.211 115.099C411.211 116.027 410.711 116.527 409.783 116.527C408.854 116.527 408.354 117.027 408.354 117.956C408.354 118.884 407.854 119.384 406.925 119.384C405.997 119.384 405.497 119.884 405.497 120.813C405.497 121.741 404.997 122.241 404.068 122.241C403.14 122.241 402.64 122.741 402.64 123.67C402.64 124.599 402.14 125.099 401.211 125.099C400.283 125.099 399.783 125.599 399.783 126.527C399.783 127.456 399.283 127.956 398.354 127.956C397.425 127.956 396.925 128.456 396.925 129.384C396.925 130.313 396.425 130.813 395.497 130.813C394.568 130.813 394.068 131.313 394.068 132.241C394.068 133.17 393.568 133.67 392.64 133.67C391.711 133.67 391.211 134.17 391.211 135.099C391.211 136.027 390.711 136.527 389.783 136.527C388.854 136.527 388.354 137.027 388.354 137.956C388.354 138.884 387.854 139.384 386.925 139.384C385.997 139.384 385.497 139.884 385.497 140.813C385.497 141.741 384.997 142.241 384.068 142.241C383.14 142.241 382.64 142.741 382.64 143.67C382.64 144.599 382.14 145.099 381.211 145.099C380.283 145.099 379.783 145.599 379.783 146.527C379.783 147.456 379.283 147.956 378.354 147.956C377.425 147.956 376.925 148.456 376.925 149.384C376.925 150.313 376.425 150.813 375.497 150.813C374.568 150.813 374.068 151.313 374.068 152.241C374.068 153.17 373.568 153.67 372.64 153.67C371.711 153.67 371.211 154.17 371.211 155.099C371.211 156.027 370.711 156.527 369.783 156.527C368.854 156.527 368.354 157.027 368.354 157.956C368.354 158.884 367.854 159.384 366.925 159.384C365.711 159.384 365.497 159.884 365.497 162.241C365.497 164.599 365.711 165.099 366.925 165.099C367.854 165.099 368.354 165.598 368.354 166.527C368.354 167.456 368.854 167.956 369.783 167.956C370.711 167.956 371.211 168.456 371.211 169.384C371.211 170.313 371.711 170.813 372.64 170.813C373.568 170.813 374.068 171.313 374.068 172.241C374.068 173.17 374.568 173.67 375.497 173.67C376.425 173.67 376.925 174.17 376.925 175.099C376.925 176.027 377.425 176.527 378.354 176.527C379.283 176.527 379.783 177.027 379.783 177.956C379.783 178.884 380.283 179.384 381.211 179.384C382.14 179.384 382.64 179.884 382.64 180.813C382.64 182.027 383.14 182.241 385.497 182.241C387.854 182.241 388.354 182.456 388.354 183.67C388.354 184.599 388.854 185.099 389.783 185.099C390.711 185.099 391.211 185.598 391.211 186.527C391.211 187.456 391.711 187.956 392.64 187.956C393.568 187.956 394.068 188.456 394.068 189.384C394.068 190.313 394.568 190.813 395.497 190.813C396.425 190.813 396.925 191.313 396.925 192.241C396.925 193.17 397.425 193.67 398.354 193.67C399.283 193.67 399.783 194.17 399.783 195.099C399.783 196.027 400.283 196.527 401.211 196.527C402.14 196.527 402.64 197.027 402.64 197.956C402.64 198.884 403.14 199.384 404.068 199.384C404.997 199.384 405.497 199.884 405.497 200.813C405.497 201.741 405.997 202.241 406.925 202.241C407.854 202.241 408.354 202.741 408.354 203.67C408.354 204.599 408.854 205.099 409.783 205.099C410.711 205.099 411.211 205.599 411.211 206.527C411.211 207.456 411.711 207.956 412.64 207.956C413.568 207.956 414.068 208.456 414.068 209.384C414.068 210.313 414.568 210.813 415.497 210.813C416.425 210.813 416.925 211.313 416.925 212.241C416.925 213.17 417.425 213.67 418.354 213.67C419.283 213.67 419.783 214.17 419.783 215.099C419.783 216.027 420.283 216.527 421.211 216.527C422.14 216.527 422.64 217.027 422.64 217.956C422.64 219.241 423.14 219.384 426.925 219.384C430.711 219.384 431.211 219.527 431.211 220.813C431.211 221.741 431.711 222.241 432.64 222.241C433.568 222.241 434.068 222.741 434.068 223.67C434.068 224.599 434.568 225.099 435.497 225.099C436.425 225.099 436.925 225.599 436.925 226.527C436.925 227.456 436.425 227.956 435.497 227.956C434.568 227.956 434.068 228.456 434.068 229.384C434.068 230.313 433.568 230.813 432.64 230.813C431.711 230.813 431.211 231.313 431.211 232.241C431.211 233.67 430.711 233.67 405.497 233.67C380.283 233.67 379.783 233.67 379.783 232.241C379.783 231.313 379.283 230.813 378.354 230.813C377.425 230.813 376.925 230.313 376.925 229.384C376.925 228.456 376.425 227.956 375.497 227.956C374.568 227.956 374.068 227.456 374.068 226.527C374.068 225.599 374.568 225.099 375.497 225.099C376.425 225.099 376.925 224.599 376.925 223.67C376.925 222.741 377.425 222.241 378.354 222.241C379.283 222.241 379.783 221.741 379.783 220.813C379.783 219.456 380.283 219.384 392.64 219.384C404.997 219.384 405.497 219.313 405.497 217.956C405.497 216.741 404.997 216.527 402.64 216.527C400.283 216.527 399.783 216.313 399.783 215.099C399.783 214.17 399.283 213.67 398.354 213.67C397.425 213.67 396.925 213.17 396.925 212.241C396.925 211.313 396.425 210.813 395.497 210.813C394.568 210.813 394.068 210.313 394.068 209.384C394.068 208.456 393.568 207.956 392.64 207.956C391.711 207.956 391.211 207.456 391.211 206.527C391.211 205.599 390.711 205.099 389.783 205.099C388.854 205.099 388.354 204.599 388.354 203.67C388.354 202.741 387.854 202.241 386.925 202.241C385.997 202.241 385.497 201.741 385.497 200.813C385.497 199.884 384.997 199.384 384.068 199.384C383.14 199.384 382.64 198.884 382.64 197.956C382.64 197.027 382.14 196.527 381.211 196.527C380.283 196.527 379.783 196.027 379.783 195.099C379.783 194.17 379.283 193.67 378.354 193.67C377.425 193.67 376.925 193.17 376.925 192.241C376.925 191.313 376.425 190.813 375.497 190.813C374.568 190.813 374.068 190.313 374.068 189.384C374.068 188.456 373.568 187.956 372.64 187.956C371.711 187.956 371.211 187.456 371.211 186.527C371.211 185.598 370.711 185.099 369.783 185.099C368.854 185.099 368.354 184.599 368.354 183.67C368.354 182.741 367.854 182.241 366.925 182.241C365.997 182.241 365.497 181.741 365.497 180.813C365.497 179.884 364.997 179.384 364.068 179.384C363.14 179.384 362.64 178.884 362.64 177.956C362.64 177.027 362.14 176.527 361.211 176.527C360.283 176.527 359.783 176.027 359.783 175.099C359.783 174.17 359.283 173.67 358.354 173.67C357.425 173.67 356.925 173.17 356.925 172.241C356.925 171.027 356.425 170.813 354.068 170.813C351.711 170.813 351.211 171.027 351.211 172.241C351.211 173.17 350.711 173.67 349.783 173.67C348.854 173.67 348.354 174.17 348.354 175.099C348.354 176.027 347.854 176.527 346.925 176.527C345.997 176.527 345.497 177.027 345.497 177.956C345.497 178.884 344.997 179.384 344.068 179.384C343.14 179.384 342.64 179.884 342.64 180.813C342.64 181.741 342.14 182.241 341.211 182.241C340.283 182.241 339.783 182.741 339.783 183.67C339.783 184.599 339.283 185.099 338.354 185.099C337.425 185.099 336.925 185.598 336.925 186.527C336.925 187.456 336.425 187.956 335.497 187.956C334.568 187.956 334.068 188.456 334.068 189.384C334.068 190.313 333.568 190.813 332.64 190.813C331.711 190.813 331.211 191.313 331.211 192.241C331.211 193.17 330.711 193.67 329.783 193.67C328.854 193.67 328.354 194.17 328.354 195.099C328.354 196.027 327.854 196.527 326.925 196.527C325.997 196.527 325.497 197.027 325.497 197.956C325.497 198.884 324.997 199.384 324.068 199.384C323.14 199.384 322.64 199.884 322.64 200.813C322.64 201.741 322.14 202.241 321.211 202.241C320.283 202.241 319.783 202.741 319.783 203.67C319.783 204.599 319.283 205.099 318.354 205.099C317.425 205.099 316.925 205.599 316.925 206.527C316.925 207.456 316.425 207.956 315.497 207.956C314.568 207.956 314.068 208.456 314.068 209.384C314.068 210.313 313.568 210.813 312.64 210.813C311.711 210.813 311.211 211.313 311.211 212.241C311.211 213.17 310.711 213.67 309.783 213.67C308.854 213.67 308.354 214.17 308.354 215.099C308.354 216.027 307.854 216.527 306.925 216.527C305.997 216.527 305.497 217.027 305.497 217.956C305.497 219.313 305.997 219.384 318.354 219.384C330.711 219.384 331.211 219.456 331.211 220.813C331.211 221.741 331.711 222.241 332.64 222.241C333.925 222.241 334.068 222.741 334.068 226.527C334.068 230.313 333.925 230.813 332.64 230.813C331.711 230.813 331.211 231.313 331.211 232.241C331.211 233.67 330.711 233.67 302.64 233.67C274.568 233.67 274.068 233.67 274.068 232.241C274.068 231.313 273.568 230.813 272.64 230.813C271.354 230.813 271.211 230.313 271.211 226.527C271.211 222.741 271.354 222.241 272.64 222.241C273.568 222.241 274.068 221.741 274.068 220.813C274.068 219.527 274.568 219.384 279.783 219.384H285.497V216.527C285.497 214.17 285.283 213.67 284.068 213.67C283.14 213.67 282.64 213.17 282.64 212.241C282.64 211.313 282.14 210.813 281.211 210.813C280.283 210.813 279.783 210.313 279.783 209.384C279.783 208.456 279.283 207.956 278.354 207.956C277.425 207.956 276.925 207.456 276.925 206.527C276.925 205.599 276.425 205.099 275.497 205.099C274.568 205.099 274.068 204.599 274.068 203.67C274.068 202.741 273.568 202.241 272.64 202.241C271.711 202.241 271.211 201.741 271.211 200.813C271.211 199.884 270.711 199.384 269.783 199.384C268.854 199.384 268.354 198.884 268.354 197.956C268.354 197.027 267.854 196.527 266.925 196.527C265.997 196.527 265.497 196.027 265.497 195.099C265.497 194.17 264.997 193.67 264.068 193.67C263.14 193.67 262.64 193.17 262.64 192.241C262.64 191.313 262.14 190.813 261.211 190.813C260.283 190.813 259.783 190.313 259.783 189.384C259.783 188.456 259.283 187.956 258.354 187.956C257.425 187.956 256.925 187.456 256.925 186.527C256.925 185.598 256.425 185.099 255.497 185.099C254.568 185.099 254.068 184.599 254.068 183.67C254.068 182.741 253.568 182.241 252.64 182.241C251.711 182.241 251.211 181.741 251.211 180.813C251.211 179.884 250.711 179.384 249.783 179.384C248.854 179.384 248.354 178.884 248.354 177.956C248.354 177.027 247.854 176.527 246.925 176.527C245.997 176.527 245.497 176.027 245.497 175.099C245.497 174.17 244.997 173.67 244.068 173.67C243.14 173.67 242.64 173.17 242.64 172.241C242.64 171.313 242.14 170.813 241.211 170.813C240.283 170.813 239.783 170.313 239.783 169.384C239.783 168.456 239.283 167.956 238.354 167.956C237.425 167.956 236.925 167.456 236.925 166.527C236.925 165.598 236.425 165.099 235.497 165.099C234.568 165.099 234.068 164.599 234.068 163.67C234.068 162.456 233.568 162.241 231.211 162.241C228.854 162.241 228.354 162.456 228.354 163.67C228.354 164.599 227.854 165.099 226.925 165.099C225.997 165.099 225.497 165.598 225.497 166.527C225.497 167.456 224.997 167.956 224.068 167.956C223.14 167.956 222.64 168.456 222.64 169.384C222.64 170.313 222.14 170.813 221.211 170.813C220.283 170.813 219.783 171.313 219.783 172.241C219.783 173.17 219.283 173.67 218.354 173.67C216.925 173.67 216.925 174.17 216.925 203.67V233.67H198.354C180.283 233.67 179.783 233.599 179.783 232.241C179.783 231.313 179.283 230.813 178.354 230.813C177.068 230.813 176.925 230.313 176.925 226.527C176.925 222.741 177.068 222.241 178.354 222.241C179.283 222.241 179.783 221.741 179.783 220.813C179.783 219.456 180.283 219.384 191.211 219.384H202.64V47.9556H191.211C180.283 47.9556 179.783 47.8842 179.783 46.5271C179.783 45.5985 179.283 45.0985 178.354 45.0985C177.068 45.0985 176.925 44.5985 176.925 40.8128C176.925 37.0271 177.068 36.5271 178.354 36.5271ZM295.497 113.67C294.568 113.67 294.068 113.17 294.068 112.241C294.068 111.313 293.568 110.813 292.64 110.813C291.711 110.813 291.211 111.313 291.211 112.241C291.211 113.17 290.711 113.67 289.783 113.67C288.854 113.67 288.354 114.17 288.354 115.099C288.354 116.027 287.854 116.527 286.925 116.527C285.997 116.527 285.497 117.027 285.497 117.956C285.497 119.17 284.997 119.384 282.64 119.384C280.283 119.384 279.783 119.599 279.783 120.813C279.783 121.741 279.283 122.241 278.354 122.241C277.425 122.241 276.925 122.741 276.925 123.67C276.925 124.599 276.425 125.099 275.497 125.099C274.568 125.099 274.068 125.599 274.068 126.527C274.068 127.456 273.568 127.956 272.64 127.956C271.711 127.956 271.211 128.456 271.211 129.384C271.211 130.599 270.711 130.813 268.354 130.813C265.997 130.813 265.497 131.027 265.497 132.241C265.497 133.17 264.997 133.67 264.068 133.67C263.14 133.67 262.64 134.17 262.64 135.099C262.64 136.027 262.14 136.527 261.211 136.527C260.283 136.527 259.783 137.027 259.783 137.956C259.783 138.884 259.283 139.384 258.354 139.384C257.425 139.384 256.925 139.884 256.925 140.813C256.925 141.741 256.425 142.241 255.497 142.241C254.568 142.241 254.068 142.741 254.068 143.67C254.068 144.599 253.568 145.099 252.64 145.099C251.711 145.099 251.211 145.599 251.211 146.527C251.211 147.741 250.711 147.956 248.354 147.956C245.997 147.956 245.497 148.17 245.497 149.384C245.497 150.313 244.997 150.813 244.068 150.813C243.14 150.813 242.64 151.313 242.64 152.241C242.64 153.17 243.14 153.67 244.068 153.67C244.997 153.67 245.497 154.17 245.497 155.099C245.497 156.027 245.997 156.527 246.925 156.527C247.854 156.527 248.354 157.027 248.354 157.956C248.354 158.884 248.854 159.384 249.783 159.384C250.997 159.384 251.211 159.884 251.211 162.241C251.211 164.599 251.425 165.099 252.64 165.099C253.568 165.099 254.068 165.598 254.068 166.527C254.068 167.741 254.568 167.956 256.925 167.956H259.783V170.813C259.783 173.17 259.997 173.67 261.211 173.67C262.14 173.67 262.64 174.17 262.64 175.099C262.64 176.027 263.14 176.527 264.068 176.527C264.997 176.527 265.497 177.027 265.497 177.956C265.497 178.884 265.997 179.384 266.925 179.384C267.854 179.384 268.354 179.884 268.354 180.813C268.354 181.741 268.854 182.241 269.783 182.241C270.711 182.241 271.211 182.741 271.211 183.67C271.211 184.599 271.711 185.099 272.64 185.099C273.568 185.099 274.068 185.598 274.068 186.527C274.068 187.456 274.568 187.956 275.497 187.956C276.425 187.956 276.925 188.456 276.925 189.384C276.925 190.313 277.425 190.813 278.354 190.813C279.283 190.813 279.783 191.313 279.783 192.241C279.783 193.17 280.283 193.67 281.211 193.67C282.14 193.67 282.64 194.17 282.64 195.099C282.64 196.027 283.14 196.527 284.068 196.527C284.997 196.527 285.497 197.027 285.497 197.956C285.497 198.884 285.997 199.384 286.925 199.384C287.854 199.384 288.354 199.884 288.354 200.813C288.354 201.741 288.854 202.241 289.783 202.241C290.711 202.241 291.211 202.741 291.211 203.67C291.211 204.599 291.711 205.099 292.64 205.099C293.568 205.099 294.068 205.599 294.068 206.527C294.068 207.456 294.568 207.956 295.497 207.956C296.425 207.956 296.925 207.456 296.925 206.527C296.925 205.599 297.425 205.099 298.354 205.099C299.283 205.099 299.783 204.599 299.783 203.67C299.783 202.741 300.283 202.241 301.211 202.241C302.14 202.241 302.64 201.741 302.64 200.813C302.64 199.599 303.14 199.384 305.497 199.384C307.854 199.384 308.354 199.17 308.354 197.956C308.354 197.027 308.854 196.527 309.783 196.527C310.711 196.527 311.211 196.027 311.211 195.099C311.211 194.17 311.711 193.67 312.64 193.67C313.568 193.67 314.068 193.17 314.068 192.241C314.068 191.313 314.568 190.813 315.497 190.813C316.425 190.813 316.925 190.313 316.925 189.384C316.925 188.456 317.425 187.956 318.354 187.956C319.283 187.956 319.783 187.456 319.783 186.527C319.783 185.598 320.283 185.099 321.211 185.099C322.14 185.099 322.64 184.599 322.64 183.67C322.64 182.741 323.14 182.241 324.068 182.241C324.997 182.241 325.497 181.741 325.497 180.813C325.497 179.884 325.997 179.384 326.925 179.384C327.854 179.384 328.354 178.884 328.354 177.956C328.354 177.027 328.854 176.527 329.783 176.527C330.711 176.527 331.211 176.027 331.211 175.099C331.211 174.17 331.711 173.67 332.64 173.67C333.568 173.67 334.068 173.17 334.068 172.241C334.068 171.313 334.568 170.813 335.497 170.813C336.425 170.813 336.925 170.313 336.925 169.384C336.925 168.456 337.425 167.956 338.354 167.956C339.283 167.956 339.783 167.456 339.783 166.527C339.783 165.598 340.283 165.099 341.211 165.099C342.14 165.099 342.64 164.599 342.64 163.67C342.64 162.741 343.14 162.241 344.068 162.241C344.997 162.241 345.497 161.741 345.497 160.813C345.497 159.884 344.997 159.384 344.068 159.384C343.14 159.384 342.64 158.884 342.64 157.956C342.64 157.027 342.14 156.527 341.211 156.527C340.283 156.527 339.783 156.027 339.783 155.099C339.783 154.17 339.283 153.67 338.354 153.67C337.425 153.67 336.925 153.17 336.925 152.241C336.925 151.313 336.425 150.813 335.497 150.813C334.568 150.813 334.068 150.313 334.068 149.384C334.068 148.456 333.568 147.956 332.64 147.956C331.711 147.956 331.211 147.456 331.211 146.527C331.211 145.313 330.711 145.099 328.354 145.099C325.997 145.099 325.497 144.884 325.497 143.67C325.497 142.741 324.997 142.241 324.068 142.241C323.14 142.241 322.64 141.741 322.64 140.813C322.64 139.884 322.14 139.384 321.211 139.384C320.283 139.384 319.783 138.884 319.783 137.956C319.783 137.027 319.283 136.527 318.354 136.527C317.425 136.527 316.925 136.027 316.925 135.099C316.925 134.17 316.425 133.67 315.497 133.67C314.568 133.67 314.068 133.17 314.068 132.241C314.068 131.313 313.568 130.813 312.64 130.813C311.711 130.813 311.211 130.313 311.211 129.384C311.211 128.456 310.711 127.956 309.783 127.956C308.854 127.956 308.354 127.456 308.354 126.527C308.354 125.599 307.854 125.099 306.925 125.099C305.997 125.099 305.497 124.599 305.497 123.67C305.497 122.741 304.997 122.241 304.068 122.241C303.14 122.241 302.64 121.741 302.64 120.813C302.64 119.884 302.14 119.384 301.211 119.384C300.283 119.384 299.783 118.884 299.783 117.956C299.783 117.027 299.283 116.527 298.354 116.527C297.425 116.527 296.925 116.027 296.925 115.099C296.925 114.17 296.425 113.67 295.497 113.67Z" fill="white"/>
</svg>
