<svg width="105" height="18" viewBox="0 0 105 18" fill="none" xmlns="http://www.w3.org/2000/svg">
<path fill-rule="evenodd" clip-rule="evenodd" d="M5.49284 10.4824C6.91355 10.8473 8.5906 11.0581 10.3869 11.0581C12.1831 11.0581 13.8602 10.8473 15.2809 10.4824C18.5499 11.0799 20.7737 12.2575 20.7737 13.6124C20.7737 15.5717 16.1234 17.1601 10.3869 17.1601C4.65036 17.1601 0 15.5717 0 13.6124C0 12.2575 2.22383 11.0799 5.49284 10.4824Z" fill="white"/>
<path fill-rule="evenodd" clip-rule="evenodd" d="M6.74474 4.73633C7.81154 5.00447 9.05683 5.15839 10.387 5.15839C11.7171 5.15839 12.9625 5.00447 14.0293 4.73633C16.8058 5.19382 18.7193 6.15809 18.7193 7.27363C18.7193 8.83124 14.9888 10.0939 10.387 10.0939C5.7852 10.0939 2.05469 8.83124 2.05469 7.27363C2.05469 6.15809 3.96815 5.19382 6.74474 4.73633Z" fill="white"/>
<path d="M10.4233 4.27059C13.8694 4.27059 16.663 3.31459 16.663 2.1353C16.663 0.956006 13.8694 0 10.4233 0C6.97722 0 4.18359 0.956006 4.18359 2.1353C4.18359 3.31459 6.97722 4.27059 10.4233 4.27059Z" fill="white"/>
<path d="M26.6367 15.6438V0.832382H31.2658C32.1572 0.832382 32.9253 0.921955 33.5702 1.10112C34.2151 1.28028 34.7452 1.53522 35.1604 1.86598C35.5757 2.19672 35.883 2.60154 36.0822 3.08045C36.2814 3.55934 36.3811 4.09853 36.3811 4.69801C36.3811 5.06322 36.3254 5.41464 36.2139 5.75228C36.1025 6.08992 35.9337 6.40344 35.7075 6.69285C35.4812 6.98226 35.1976 7.24065 34.8566 7.46804C34.5156 7.69543 34.1155 7.88147 33.6563 8.02619C34.7165 8.23979 35.5167 8.62907 36.0569 9.19418C36.5971 9.75921 36.8672 10.5034 36.8672 11.4267C36.8672 12.0538 36.7541 12.6257 36.5279 13.1424C36.3017 13.6593 35.9708 14.1037 35.5353 14.4758C35.0997 14.8479 34.5662 15.1356 33.9348 15.3389C33.3035 15.5421 32.5826 15.6438 31.7722 15.6438H26.6367ZM28.6018 8.89444V14.052H31.7418C32.3024 14.052 32.7835 13.9866 33.1853 13.8557C33.587 13.7247 33.9179 13.5404 34.1779 13.3026C34.4379 13.065 34.6286 12.7824 34.7502 12.4551C34.8717 12.1278 34.9326 11.7678 34.9326 11.375C34.9326 10.6102 34.6675 10.0056 34.1374 9.56104C33.6073 9.11661 32.8054 8.89444 31.7317 8.89444H28.6018ZM28.6018 7.46804H31.1949C31.7486 7.46804 32.2281 7.40603 32.6332 7.282C33.0384 7.15796 33.3744 6.9857 33.6411 6.7652C33.9078 6.5447 34.1053 6.27769 34.2337 5.96417C34.3619 5.65064 34.4261 5.30784 34.4261 4.93574C34.4261 4.06752 34.1695 3.43014 33.6563 3.0236C33.143 2.61705 32.3463 2.41378 31.2658 2.41378H28.6018V7.46804ZM47.3155 15.6438H46.5152C46.3397 15.6438 46.1979 15.6162 46.0899 15.561C45.9817 15.5059 45.9109 15.3888 45.8771 15.2096L45.6746 14.238C45.4044 14.4861 45.1411 14.7084 44.8845 14.9047C44.6278 15.1011 44.3578 15.2665 44.0741 15.4008C43.7905 15.5352 43.4883 15.6369 43.1676 15.7058C42.8468 15.7746 42.4906 15.8091 42.0989 15.8091C41.7005 15.8091 41.3274 15.7523 40.9796 15.6386C40.6319 15.5249 40.3297 15.3544 40.0731 15.127C39.8165 14.8996 39.6122 14.6119 39.4602 14.2639C39.3084 13.9159 39.2323 13.5042 39.2323 13.0288C39.2323 12.6153 39.3438 12.2174 39.5666 11.835C39.7894 11.4525 40.149 11.1132 40.6454 10.8168C41.1418 10.5206 41.7917 10.2777 42.5953 10.0882C43.3988 9.89867 44.3814 9.79015 45.5428 9.76264V8.94604C45.5428 8.13299 45.3723 7.518 45.0313 7.10112C44.6903 6.68424 44.1856 6.4758 43.517 6.4758C43.078 6.4758 42.7084 6.53264 42.4079 6.64634C42.1073 6.76003 41.8474 6.88751 41.6279 7.02876C41.4085 7.17002 41.2194 7.2975 41.0607 7.41119C40.902 7.52489 40.745 7.58174 40.5897 7.58174C40.4682 7.58174 40.3617 7.54901 40.2706 7.48355C40.1794 7.41809 40.1069 7.33712 40.0529 7.24065L39.7287 6.6515C40.296 6.09336 40.9071 5.67648 41.5621 5.40086C42.2171 5.12523 42.943 4.98742 43.7399 4.98742C44.3138 4.98742 44.8236 5.08389 45.2693 5.27682C45.715 5.46977 46.0899 5.7385 46.3937 6.08303C46.6976 6.42756 46.9272 6.84444 47.0825 7.33367C47.2378 7.82291 47.3155 8.36038 47.3155 8.94604V15.6438ZM42.6358 14.5171C42.9531 14.5171 43.2435 14.4844 43.5069 14.419C43.7703 14.3535 44.0184 14.2605 44.2513 14.1399C44.4844 14.0193 44.7072 13.8729 44.9199 13.7006C45.1326 13.5283 45.3402 13.332 45.5428 13.1115V10.9306C44.7123 10.9582 44.0066 11.0253 43.4259 11.1321C42.8451 11.2389 42.3724 11.3784 42.0078 11.5507C41.6431 11.723 41.378 11.9262 41.2126 12.1606C41.0472 12.3948 40.9644 12.6567 40.9644 12.9461C40.9644 13.2217 41.0084 13.4594 41.0961 13.6593C41.1839 13.8591 41.3021 14.0227 41.4506 14.1502C41.5992 14.2777 41.7748 14.3707 41.9774 14.4293C42.18 14.4879 42.3994 14.5171 42.6358 14.5171ZM52.375 0.418945V15.6438H50.5719V0.418945H52.375ZM63.4107 15.6438H62.6105C62.4349 15.6438 62.2931 15.6162 62.185 15.561C62.077 15.5059 62.0061 15.3888 61.9723 15.2096L61.7697 14.238C61.4997 14.4861 61.2363 14.7084 60.9797 14.9047C60.7231 15.1011 60.4529 15.2665 60.1693 15.4008C59.8857 15.5352 59.5835 15.6369 59.2627 15.7058C58.942 15.7746 58.5858 15.8091 58.1942 15.8091C57.7958 15.8091 57.4226 15.7523 57.0749 15.6386C56.7271 15.5249 56.4249 15.3544 56.1683 15.127C55.9117 14.8996 55.7074 14.6119 55.5555 14.2639C55.4035 13.9159 55.3276 13.5042 55.3276 13.0288C55.3276 12.6153 55.439 12.2174 55.6618 11.835C55.8847 11.4525 56.2443 11.1132 56.7406 10.8168C57.2369 10.5206 57.8869 10.2777 58.6904 10.0882C59.4941 9.89867 60.4766 9.79015 61.6381 9.76264V8.94604C61.6381 8.13299 61.4676 7.518 61.1265 7.10112C60.7855 6.68424 60.2807 6.4758 59.6123 6.4758C59.1733 6.4758 58.8036 6.53264 58.5031 6.64634C58.2026 6.76003 57.9426 6.88751 57.7231 7.02876C57.5037 7.17002 57.3146 7.2975 57.1559 7.41119C56.9972 7.52489 56.8402 7.58174 56.6849 7.58174C56.5633 7.58174 56.457 7.54901 56.3658 7.48355C56.2747 7.41809 56.202 7.33712 56.148 7.24065L55.8239 6.6515C56.3911 6.09336 57.0023 5.67648 57.6573 5.40086C58.3124 5.12523 59.0382 4.98742 59.8351 4.98742C60.4091 4.98742 60.9189 5.08389 61.3646 5.27682C61.8103 5.46977 62.185 5.7385 62.4889 6.08303C62.7928 6.42756 63.0224 6.84444 63.1777 7.33367C63.333 7.82291 63.4107 8.36038 63.4107 8.94604V15.6438ZM58.731 14.5171C59.0484 14.5171 59.3388 14.4844 59.6021 14.419C59.8654 14.3535 60.1137 14.2605 60.3466 14.1399C60.5796 14.0193 60.8024 13.8729 61.0151 13.7006C61.2278 13.5283 61.4355 13.332 61.6381 13.1115V10.9306C60.8075 10.9582 60.1018 11.0253 59.521 11.1321C58.9403 11.2389 58.4677 11.3784 58.1029 11.5507C57.7383 11.723 57.4733 11.9262 57.3078 12.1606C57.1424 12.3948 57.0597 12.6567 57.0597 12.9461C57.0597 13.2217 57.1036 13.4594 57.1914 13.6593C57.2792 13.8591 57.3973 14.0227 57.5459 14.1502C57.6945 14.2777 57.87 14.3707 58.0726 14.4293C58.2751 14.4879 58.4946 14.5171 58.731 14.5171ZM66.4646 15.6438V5.17347H67.5382C67.7949 5.17347 67.957 5.30094 68.0245 5.5559L68.1663 6.69285C68.612 6.18984 69.11 5.78329 69.6603 5.47321C70.2107 5.16313 70.8472 5.00809 71.5697 5.00809C72.1302 5.00809 72.6249 5.10284 73.0536 5.29233C73.4824 5.48183 73.8403 5.75056 74.1273 6.09853C74.4143 6.44652 74.6321 6.86511 74.7806 7.35435C74.9292 7.84358 75.0035 8.38449 75.0035 8.97707V15.6438H73.2005V8.97707C73.2005 8.18466 73.0233 7.56968 72.6687 7.13213C72.3142 6.69457 71.7723 6.4758 71.043 6.4758C70.5095 6.4758 70.0115 6.60672 69.549 6.86856C69.0864 7.1304 68.6592 7.48527 68.2676 7.93316V15.6438H66.4646ZM85.0468 7.03393C84.9922 7.10973 84.9384 7.1683 84.8847 7.20965C84.8301 7.25099 84.7528 7.27166 84.6511 7.27166C84.5503 7.27166 84.4403 7.2286 84.3227 7.14246C84.2043 7.05633 84.0539 6.96158 83.8715 6.85823C83.6893 6.75486 83.4681 6.66012 83.2081 6.57398C82.9481 6.48786 82.6291 6.44478 82.2509 6.44478C81.7512 6.44478 81.3089 6.53609 80.924 6.71869C80.5391 6.90129 80.2166 7.16485 79.9566 7.50939C79.6967 7.85392 79.5009 8.2708 79.3691 8.76004C79.2374 9.2493 79.1717 9.7971 79.1717 10.4034C79.1717 11.0374 79.2426 11.6007 79.3843 12.0934C79.5261 12.5861 79.7254 12.9995 79.982 13.3337C80.2386 13.6679 80.5509 13.9228 80.9189 14.0985C81.2869 14.2742 81.7006 14.3621 82.1597 14.3621C82.5987 14.3621 82.96 14.3087 83.2436 14.2019C83.5272 14.0951 83.7635 13.9763 83.9526 13.8453C84.1421 13.7144 84.2967 13.5955 84.4185 13.4887C84.5403 13.3819 84.6621 13.3285 84.783 13.3285C84.9384 13.3285 85.0535 13.3871 85.1274 13.5042L85.6339 14.1761C85.1887 14.7342 84.631 15.1425 83.9628 15.4008C83.2942 15.6593 82.5885 15.7884 81.8457 15.7884C81.2042 15.7884 80.6083 15.6678 80.0579 15.4267C79.5076 15.1855 79.0299 14.8358 78.6247 14.3776C78.2195 13.9194 77.9004 13.356 77.6675 12.6876C77.4345 12.0193 77.318 11.2579 77.318 10.4034C77.318 9.62481 77.4244 8.90472 77.6371 8.24324C77.8497 7.58173 78.1604 7.01154 78.569 6.53264C78.9775 6.05374 79.4823 5.67993 80.0832 5.4112C80.6842 5.14246 81.373 5.00809 82.1496 5.00809C82.8654 5.00809 83.5002 5.12695 84.0539 5.36468C84.6075 5.60241 85.0972 5.93832 85.5222 6.37243L85.0468 7.03393ZM91.8886 5.00809C92.5035 5.00809 93.0705 5.11318 93.5904 5.32334C94.1104 5.5335 94.5598 5.83668 94.9378 6.2329C95.3158 6.62911 95.6115 7.11834 95.824 7.7006C96.0365 8.28286 96.1432 8.94604 96.1432 9.6903C96.1432 9.97967 96.1129 10.1726 96.0516 10.269C95.9911 10.3656 95.8761 10.4138 95.7072 10.4138H88.8805C88.894 11.0753 88.9813 11.6507 89.1435 12.1398C89.3056 12.6291 89.529 13.0374 89.8121 13.3647C90.096 13.692 90.4337 13.9366 90.8251 14.0985C91.2166 14.2605 91.6559 14.3414 92.1423 14.3414C92.5942 14.3414 92.9848 14.288 93.3115 14.1812C93.6391 14.0744 93.9214 13.959 94.1574 13.835C94.3943 13.7109 94.5917 13.5955 94.7505 13.4887C94.9092 13.3819 95.0461 13.3285 95.1604 13.3285C95.3091 13.3285 95.4241 13.3871 95.5048 13.5042L96.0113 14.1761C95.7887 14.4516 95.5216 14.6911 95.2108 14.8944C94.9008 15.0977 94.5682 15.2648 94.2137 15.3957C93.8592 15.5266 93.493 15.6248 93.1141 15.6903C92.7361 15.7557 92.3615 15.7884 91.9902 15.7884C91.2813 15.7884 90.6277 15.6661 90.0305 15.4215C89.4324 15.177 88.9158 14.8186 88.4807 14.3466C88.0447 13.8746 87.7054 13.2906 87.4626 12.5946C87.219 11.8987 87.0981 11.0994 87.0981 10.1967C87.0981 9.46632 87.2073 8.78412 87.4265 8.15021C87.6466 7.51627 87.9624 6.96675 88.374 6.50164C88.7856 6.03652 89.2888 5.67132 89.8835 5.40603C90.4774 5.14074 91.146 5.00809 91.8886 5.00809ZM91.9289 6.3621C91.0578 6.3621 90.3732 6.61878 89.8734 7.13213C89.3736 7.64548 89.0628 8.35692 88.941 9.26652H94.522C94.522 8.83924 94.4649 8.44824 94.3498 8.09337C94.2355 7.7385 94.0667 7.43187 93.8441 7.17347C93.6207 6.91507 93.3493 6.71525 93.0285 6.57398C92.7076 6.43272 92.3413 6.3621 91.9289 6.3621ZM98.7615 15.6438V5.17347H99.7947C99.9904 5.17347 100.126 5.21136 100.2 5.28716C100.274 5.36296 100.325 5.49388 100.352 5.67993L100.473 7.313C100.825 6.5826 101.258 6.01241 101.775 5.60241C102.291 5.19241 102.898 4.98742 103.593 4.98742C103.877 4.98742 104.133 5.02015 104.363 5.08561C104.593 5.15107 104.805 5.24238 105.001 5.35951L104.768 6.73419C104.72 6.90646 104.616 6.99259 104.454 6.99259C104.359 6.99259 104.214 6.95986 104.018 6.8944C103.822 6.82894 103.549 6.7962 103.198 6.7962C102.57 6.7962 102.045 6.98226 101.623 7.35435C101.201 7.72644 100.848 8.26735 100.564 8.97707V15.6438H98.7615Z" fill="white"/>
</svg>
