<svg width="64" height="64" viewBox="0 0 64 64" fill="none" xmlns="http://www.w3.org/2000/svg">
<path fill-rule="evenodd" clip-rule="evenodd" d="M31.9974 55.667C18.9303 55.667 8.33073 45.0862 8.33073 32.027C8.33073 18.9352 18.9362 8.33365 31.9974 8.33365C45.0586 8.33366 55.6641 18.9352 55.6641 32.027C55.6641 45.0862 45.0645 55.667 31.9974 55.667ZM31.9974 58.667C17.2774 58.667 5.33073 46.747 5.33073 32.027C5.33073 17.2803 17.2774 5.33365 31.9974 5.33365C46.7174 5.33366 58.6641 17.2803 58.6641 32.027C58.6641 46.747 46.7174 58.667 31.9974 58.667ZM33.4987 17.0001C33.4987 16.1717 32.8271 15.5001 31.9987 15.5001C31.1703 15.5001 30.4987 16.1717 30.4987 17.0001L30.4987 33.0001L30.4987 34.5001L31.9987 34.5001L43.4987 34.5001C44.3271 34.5001 44.9987 33.8285 44.9987 33.0001C44.9987 32.1717 44.3271 31.5001 43.4987 31.5001L33.4987 31.5001L33.4987 17.0001Z" fill="url(#paint0_linear)"/>
<defs>
<linearGradient id="paint0_linear" x1="5.33073" y1="5.33365" x2="57.1946" y2="58.1459" gradientUnits="userSpaceOnUse">
<stop stop-color="#4E529A"/>
<stop offset="1" stop-color="#7678FD"/>
</linearGradient>
</defs>
</svg>
