<svg width="148" height="24" viewBox="0 0 148 24" fill="none" xmlns="http://www.w3.org/2000/svg">
<path d="M8.01238 15.5337C8.28232 16.1472 8.65042 16.7116 9.09213 17.2024C8.13508 17.7177 7.15348 17.9631 6.04919 17.9631C2.80993 17.9631 0.478638 15.8036 0.478638 12.3435C0.478638 8.85883 2.93263 6.69932 6.04919 6.69932C7.15348 6.69932 8.03692 6.94472 8.92036 7.41098C8.50318 7.92632 8.15962 8.51528 7.91422 9.15331C7.37434 8.93245 6.83447 8.8343 6.27005 8.8343C4.35594 8.8343 2.85901 10.0858 2.85901 12.3435C2.85901 14.4785 4.30686 15.8527 6.34367 15.8527C6.95717 15.8527 7.49704 15.7545 8.01238 15.5337ZM14.5154 6.72387C17.7056 6.72387 19.9878 9.00608 19.9878 12.368C19.9878 15.7055 17.6811 17.9877 14.5154 17.9877C11.3498 17.9877 9.06759 15.7055 9.06759 12.368C9.06759 9.00608 11.3743 6.72387 14.5154 6.72387ZM14.5154 8.78522C12.7486 8.78522 11.448 10.1595 11.448 12.368C11.448 14.5275 12.7486 15.9263 14.5154 15.9263C16.3314 15.9263 17.6075 14.5521 17.6075 12.368C17.6075 10.1595 16.3559 8.78522 14.5154 8.78522ZM21.5093 17.7177V6.94472H23.8897V17.7177H21.5093ZM21.2148 3.65638C21.2148 2.82202 21.902 2.18399 22.6872 2.18399C23.4725 2.18399 24.1596 2.84656 24.1596 3.65638C24.1596 4.51528 23.4725 5.17786 22.6872 5.17786C21.902 5.17786 21.2148 4.49074 21.2148 3.65638ZM25.951 7.63185C27.4234 7.04289 29.2639 6.69932 30.8099 6.69932C33.5093 6.69932 35.2516 7.75454 35.2516 10.7729V17.6932H32.8958V11.0183C32.8958 9.47233 31.9388 8.90791 30.6136 8.90791C29.7793 8.90791 28.9449 9.03062 28.3069 9.22694V17.7423H25.9265V7.63185H25.951ZM37.2394 1.20239H39.6197V7.26375C40.1105 6.99381 41.0921 6.72387 42.0492 6.72387C45.1167 6.72387 47.4234 8.7116 47.4234 12.1717C47.4234 15.6564 45.1412 17.9877 41.2148 17.9877C39.6934 17.9877 38.3437 17.6687 37.2639 17.276V1.20239H37.2394ZM39.5952 15.6809C40.0615 15.8282 40.6504 15.9018 41.2394 15.9018C43.4234 15.9018 44.9694 14.6748 44.9694 12.1963C44.9694 10.1104 43.497 8.85884 41.7056 8.85884C40.7731 8.85884 40.0615 9.10423 39.5707 9.37417V15.6809H39.5952ZM54.221 10.503C54.221 9.32509 53.3621 8.80976 52.1842 8.80976C50.9572 8.80976 50.0001 9.17786 49.1167 9.69319V7.58276C50.0492 7.04288 51.2516 6.69932 52.5523 6.69932C54.8835 6.69932 56.5277 7.68092 56.5277 10.3803V17.4969C55.5216 17.7668 54.0983 17.9386 52.8958 17.9386C50.1474 17.9386 48.1351 17.0797 48.1351 14.6502C48.1351 12.4662 49.9756 11.3864 53.0431 11.3864H54.221V10.503V10.503ZM54.221 13.0061H53.2148C51.5707 13.0061 50.4909 13.4969 50.4909 14.5766C50.4909 15.7055 51.497 16.1226 52.9449 16.1226C53.313 16.1226 53.8038 16.0736 54.2455 15.9999L54.221 13.0061ZM58.27 14.7975C59.2516 15.5582 60.4296 16.0245 61.5093 16.0245C62.5645 16.0245 63.2516 15.6564 63.2516 14.7975C63.2516 13.9141 62.6382 13.595 61.2639 13.2515C59.0553 12.7361 58.1228 11.8527 58.1228 9.96313C58.1228 7.77908 59.7424 6.69932 61.902 6.69932C63.1044 6.69932 64.0615 6.96926 64.9449 7.53368V9.74227C64.0124 9.05515 63.1044 8.63797 61.9756 8.63797C60.9449 8.63797 60.405 9.15331 60.405 9.86497C60.405 10.5766 60.8713 10.9447 62.0737 11.2637C64.5032 11.8036 65.5339 12.7116 65.5339 14.6748C65.5339 16.9325 63.8406 17.9631 61.5339 17.9631C60.2823 17.9631 59.0553 17.6196 58.2455 17.0797V14.7975H58.27ZM68.7977 12.8834V12.9325C68.9449 14.8466 70.5645 15.9018 72.2332 15.9018C73.7056 15.9018 74.7363 15.5582 75.7915 14.8466V16.957C74.8345 17.6441 73.4112 17.9631 72.0615 17.9631C68.7486 17.9631 66.5154 15.8282 66.5154 12.4171C66.5154 8.98154 68.724 6.69932 71.6443 6.69932C74.7363 6.69932 76.1842 8.7116 76.1842 11.6564V12.8834H68.7977ZM73.951 11.3374C73.9019 9.66865 73.0921 8.73614 71.5461 8.73614C70.1719 8.73614 69.1658 9.71773 68.8713 11.3374H73.951Z" fill="white"/>
<path d="M84.6259 0.687134H84.8468C85.0676 0.687134 85.2394 0.858914 85.2394 1.07977V23.1657C85.2394 23.3865 85.0676 23.5583 84.8468 23.5583H84.6259C84.405 23.5583 84.2333 23.3865 84.2333 23.1657V1.07977C84.2333 0.858914 84.4296 0.687134 84.6259 0.687134Z" fill="white"/>
<path d="M98.2944 17.7424H96.9692L92.8956 6.87122H94.0981L97.6809 16.6135L101.264 6.87122H102.417L98.2944 17.7424ZM108.871 13.816H102.982V13.8405C102.982 15.8037 104.356 16.9571 105.877 16.9571C106.982 16.9571 107.742 16.6626 108.528 16.0491V17.1534C107.84 17.6933 106.834 17.9142 105.877 17.9142C103.62 17.9142 101.902 16.3436 101.902 13.7424C101.902 11.3375 103.497 9.5706 105.607 9.5706C107.57 9.5706 108.871 10.7731 108.871 13.0553V13.816ZM103.055 12.8835H107.816C107.742 11.2148 106.859 10.5522 105.558 10.5522C104.356 10.5522 103.374 11.3866 103.055 12.8835ZM110.074 17.7424V10.1841C111.104 9.79146 112.282 9.5706 113.337 9.5706C115.301 9.5706 116.503 10.3559 116.503 12.3436V17.7178H115.423V12.5645C115.423 10.9448 114.294 10.5767 113.239 10.5767C112.429 10.5767 111.693 10.724 111.129 10.8712V17.7178H110.074V17.7424ZM117.166 10.6994V9.76692H118.368V7.82827H119.448V9.76692H121.632V10.6994H119.448V15.5583C119.448 16.589 119.84 16.9816 120.577 16.9816C121.067 16.9816 121.485 16.8099 122.024 16.5399V17.5215C121.558 17.7669 121.018 17.9142 120.356 17.9142C119.227 17.9142 118.393 17.3007 118.393 15.6565V10.6749H117.166V10.6994ZM129.092 9.76692V17.6442C128.135 17.816 127.178 17.9142 126.368 17.9142C124.11 17.9142 122.834 17.1289 122.834 15.1411V9.76692H123.914V15.0921C123.914 16.589 125.067 16.9816 126.319 16.9816C126.859 16.9816 127.472 16.9571 128.037 16.8835V9.79146H129.092V9.76692ZM131.988 11.0921V17.7424H130.908V10.5031C131.718 9.96324 132.724 9.64422 133.804 9.64422C134.221 9.64422 134.662 9.6933 135.104 9.816V10.8958C134.638 10.724 134.098 10.6994 133.73 10.6994C132.969 10.6749 132.38 10.8467 131.988 11.0921ZM142.049 13.816H136.159V13.8405C136.159 15.8037 137.534 16.9571 139.055 16.9571C140.159 16.9571 140.92 16.6626 141.705 16.0491V17.1534C141.018 17.6933 140.012 17.9142 139.055 17.9142C136.797 17.9142 135.08 16.3436 135.08 13.7424C135.08 11.3375 136.675 9.5706 138.785 9.5706C140.748 9.5706 142.049 10.7731 142.049 13.0553V13.816V13.816ZM136.233 12.8835H140.994C140.92 11.2148 140.037 10.5522 138.736 10.5522C137.509 10.5522 136.528 11.3866 136.233 12.8835ZM142.859 17.2761V16.0246C143.521 16.6381 144.208 16.9816 145.043 16.9816C146.024 16.9816 146.638 16.589 146.638 15.7056C146.638 14.7485 145.951 14.5031 144.724 14.0859C143.35 13.6197 142.761 13.0307 142.761 11.7546C142.761 10.3559 143.791 9.59514 145.215 9.59514C145.975 9.59514 146.736 9.76692 147.35 10.2086V11.3866C146.736 10.8712 146.123 10.5277 145.215 10.5277C144.356 10.5277 143.816 10.9939 143.816 11.7546C143.816 12.4908 144.233 12.8589 145.435 13.2516C146.785 13.6688 147.693 14.2086 147.693 15.6565C147.693 17.227 146.491 17.9387 145.043 17.9387C144.184 17.9142 143.35 17.6688 142.859 17.2761Z" fill="white"/>
</svg>
