<svg width="652" height="267" viewBox="0 0 652 267" fill="none" xmlns="http://www.w3.org/2000/svg">
<path d="M92.1838 172.803V33.3301L33.412 135.377L92.1838 172.803Z" fill="white"/>
<path d="M92.2115 33.3301L150.983 135.377L92.2115 172.803V33.3301Z" fill="white"/>
<path d="M33.412 147.463L92.2813 184.988V233.331" fill="white"/>
<path d="M150.983 147.463L92.2115 184.988V233.331" fill="white"/>
<path d="M92.1992 101.947L33.33 135.378L92.1992 172.805V101.947Z" fill="white"/>
<path d="M92.2115 101.947L150.983 135.377L92.2115 172.803V101.947Z" fill="white"/>
<path d="M189.09 98.5357C189.284 105.748 194.548 109.159 200.493 109.159C204.294 109.159 208.095 107.6 209.655 104.091H219.596C217.355 113.448 208.875 118.321 200.006 118.321C189.382 118.321 178.758 111.109 178.758 95.4167C178.758 80.2121 188.797 72.4148 200.103 72.4148C210.824 72.4148 219.986 79.5299 219.986 94.1497V98.5357H189.09ZM189.382 90.6409H209.46C209.46 84.793 205.366 81.4792 199.908 81.4792C195.035 81.5766 190.259 84.2082 189.382 90.6409ZM253.709 117.347H246.692C238.31 117.347 233.144 114.715 233.144 102.922V82.7462H225.152V73.1946H233.242V63.2531L243.865 60.3291V73.1946H252.637V82.7462H243.865V102.629C243.865 105.651 244.742 107.892 249.128 107.892H253.612L253.709 117.347ZM302.832 88.8865V117.347H292.208V89.7638C292.208 84.793 289.187 81.869 283.924 81.869C277.588 81.869 274.177 86.255 274.177 93.4674V117.347H263.553V56.333H274.275V79.7248C276.711 75.5337 280.22 72.4148 287.725 72.4148C297.666 72.3174 302.832 78.3602 302.832 88.8865ZM323.397 98.5357C323.592 105.748 328.855 109.159 334.801 109.159C338.602 109.159 342.403 107.6 343.963 104.091H353.904C351.662 113.448 343.183 118.321 334.313 118.321C323.69 118.321 313.066 111.109 313.066 95.4167C313.066 80.2121 323.105 72.4148 334.411 72.4148C345.132 72.4148 354.294 79.5299 354.294 94.1497V98.5357H323.397ZM323.69 90.6409H343.768C343.768 84.793 339.674 81.4792 334.216 81.4792C329.343 81.5766 324.664 84.2082 323.69 90.6409ZM390.064 83.0386H387.237C379.83 83.0386 375.736 87.1322 375.736 95.8066V117.347H365.113V73.1946H375.736V79.7248C377.978 74.8515 382.072 72.7073 387.237 72.7073H390.161L390.064 83.0386ZM405.463 98.5357C405.658 105.748 410.921 109.159 416.867 109.159C420.668 109.159 424.469 107.6 426.029 104.091H435.97C433.728 113.448 425.249 118.321 416.379 118.321C405.756 118.321 395.132 111.109 395.132 95.4167C395.132 80.2121 405.171 72.4148 416.477 72.4148C427.198 72.4148 436.36 79.5299 436.36 94.1497V98.5357H405.463ZM405.756 90.6409H425.834C425.834 84.793 421.74 81.4792 416.282 81.4792C411.409 81.5766 406.633 84.2082 405.756 90.6409ZM485.19 117.347H474.761V111.011C472.13 115.105 468.524 117.736 462.481 117.736C453.222 117.736 446.594 111.791 446.594 100.485V73.0971H457.218V99.8027C457.218 105.748 460.337 108.38 464.917 108.38C469.888 108.38 474.469 104.676 474.469 94.5396V73.0971H485.093L485.19 117.347ZM561.993 87.6195V117.444H551.369V89.6663C551.369 84.4031 548.933 81.9665 544.352 81.9665C539.284 81.9665 535.872 84.9879 535.872 92.5903V117.444H525.249V89.6663C525.249 84.4031 522.52 81.9665 518.134 81.9665C513.163 81.9665 509.654 85.0854 509.654 92.4928V117.444H499.03V73.1946H509.557V79.7248C510.921 76.216 514.43 72.4148 521.155 72.4148C527.101 72.4148 531.389 75.1439 533.533 79.7248C535.19 76.6059 538.601 72.4148 546.594 72.4148C555.95 72.3174 561.993 78.0679 561.993 87.6195ZM198.349 148.633C194.548 148.633 193.865 150.582 193.865 153.116V156.04H201.955V165.592H193.865V200.192H183.242V165.592H176.614V156.04H183.242V153.701C183.242 141.81 188.505 139.276 196.692 139.276H203.125V148.73L198.349 148.633ZM251.857 178.165C251.857 192.59 242.793 201.167 229.83 201.167C216.965 201.167 207.9 192.59 207.9 178.165C207.9 163.838 216.965 155.261 229.83 155.261C242.793 155.163 251.857 163.74 251.857 178.165ZM218.817 178.165C218.817 187.034 223.592 191.323 230.025 191.323C236.945 191.323 240.941 186.45 240.941 178.165C240.941 169.393 236.165 165.105 229.733 165.105C222.813 165.105 218.817 169.881 218.817 178.165ZM300.688 200.192H290.356V193.857C287.725 197.951 284.119 200.582 278.076 200.582C268.816 200.582 262.189 194.637 262.189 183.331V155.943H272.813V182.649C272.813 188.594 275.931 191.225 280.512 191.225C285.483 191.225 290.064 187.522 290.064 177.385V155.943H300.688V200.192ZM353.709 171.635V200.192H343.085V172.61C343.085 167.639 340.064 164.715 334.801 164.715C328.465 164.715 325.054 169.101 325.054 176.313V200.192H314.43V156.138H325.054V162.571C327.491 158.477 331.195 155.358 338.504 155.358C348.543 155.163 353.709 161.206 353.709 171.635ZM408.387 200.192H397.861V193.467C395.522 198.535 389.966 201.167 383.826 201.167C373.007 201.167 363.943 193.565 363.943 178.068C363.943 162.766 373.007 155.261 383.826 155.261C389.576 155.261 395.035 157.6 397.666 161.888V139.179H408.29L408.387 200.192ZM397.958 178.068C397.958 168.906 392.111 164.617 386.36 164.617C380.122 164.617 374.859 169.003 374.859 178.068C374.859 186.937 380.122 191.42 386.36 191.42C392.111 191.42 397.958 187.132 397.958 178.068ZM457.607 170.563V200.29H447.179V193.857C443.767 199.51 438.017 201.264 433.339 201.264C426.321 201.264 419.109 197.463 419.109 188.107C419.109 177.093 429.148 175.144 433.241 174.559L442.403 173.292C444.352 173.097 447.666 172.122 447.666 168.516C447.666 165.007 444.547 163.643 440.454 163.643C434.508 163.643 431.682 166.372 431.194 170.173H420.96C422.13 159.939 430.902 155.261 440.941 155.261C451.272 155.163 457.607 160.134 457.607 170.563ZM447.276 181.674V179.335C445.912 179.919 444.45 180.212 442.013 180.602L436.75 181.284C434.021 181.576 429.635 182.843 429.635 187.229C429.635 190.641 432.266 192.298 436.068 192.298C442.305 192.298 447.276 187.814 447.276 181.674ZM493.572 200.192H486.555C478.173 200.192 473.007 197.561 473.007 185.767V165.592H464.917V156.04H473.007V146.099L483.631 143.175V156.04H492.403V165.592H483.631V185.475C483.631 188.496 484.508 190.738 488.894 190.738H493.377L493.572 200.192ZM502.832 138.009H514.138V150.095H502.832V138.009ZM503.124 200.192H513.748V156.04H503.124V200.192ZM568.134 178.165C568.134 192.59 559.069 201.167 546.106 201.167C533.241 201.167 524.177 192.59 524.177 178.165C524.177 163.838 533.241 155.261 546.106 155.261C559.167 155.163 568.134 163.74 568.134 178.165ZM535.19 178.165C535.19 187.034 539.966 191.323 546.399 191.323C553.319 191.323 557.315 186.45 557.315 178.165C557.315 169.393 552.539 165.105 546.106 165.105C539.186 165.105 535.19 169.881 535.19 178.165ZM618.133 171.635V200.192H607.51V172.61C607.51 167.639 604.488 164.715 599.225 164.715C592.89 164.715 589.479 169.101 589.479 176.313V200.192H578.855V156.138H589.479V162.571C591.915 158.477 595.619 155.358 602.929 155.358C612.968 155.163 618.231 161.206 618.133 171.635Z" fill="white"/>
</svg>
