<?xml version="1.0" standalone="no"?>
<!DOCTYPE svg PUBLIC "-//W3C//DTD SVG 1.1//EN" "http://www.w3.org/Graphics/SVG/1.1/DTD/svg11.dtd" >
<svg xmlns="http://www.w3.org/2000/svg" xmlns:xlink="http://www.w3.org/1999/xlink" version="1.1">
<metadata>
Created by FontForge 20170731 at Thu Feb 18 10:11:47 2021
 By Aleksey,,,
Copyright (c) 2019 by Florian Karsten. All rights reserved.
</metadata>
<defs>
<font id="FKGrotesk-Regular" horiz-adv-x="0" >
  <font-face 
    font-family="FK Grotesk"
    font-weight="400"
    font-stretch="normal"
    units-per-em="2048"
    panose-1="0 0 5 0 0 0 0 0 0 0"
    ascent="1638"
    descent="-410"
    x-height="1042"
    cap-height="1475"
    bbox="-981 -537 2587 2279"
    underline-thickness="102"
    underline-position="-307"
    unicode-range="U+0020-FB02"
  />
<missing-glyph horiz-adv-x="1398" 
d="M1210 1475l21 -21v-1434l-21 -20h-1024l-20 20v1434l20 21h1024zM1083 1393h-835v-1250zM313 82h836v1249z" />
    <glyph glyph-name="fi" unicode="fi" horiz-adv-x="1232" 
d="M31 907v135h243v179q0 125 69.5 189.5t199.5 64.5h469v-136h-541l-16 -16v-281h630v-1042h-180v907h-450v-907h-181v907h-243z" />
    <glyph glyph-name="fl" unicode="fl" horiz-adv-x="1232" 
d="M1085 1475v-1475h-180v1339h-434l-16 -16v-281h266v-135h-266v-907h-181v907h-243v135h243v179q0 125 69.5 189.5t199.5 64.5h542z" />
    <glyph glyph-name="f_f.liga" unicode="ff" horiz-adv-x="1415" 
d="M1122 1339l-16 -16v-281h272v-135h-272v-907h-180v907h-471v-907h-181v907h-243v135h243v179q0 125 69.5 189.5t199.5 64.5h209v-136h-281l-16 -16v-281h471v179q0 125 69 189.5t199 64.5h236v-136h-308z" />
    <glyph glyph-name="f_f_i.liga" unicode="ffi" horiz-adv-x="1863" 
d="M31 907v135h243v179q0 125 69.5 189.5t199.5 64.5h209v-136h-281l-16 -16v-281h450v179q0 125 69.5 189.5t199.5 64.5h468v-136h-540l-17 -16v-281h631v-1042h-180v907h-451v-907h-180v907h-450v-907h-181v907h-243z" />
    <glyph glyph-name="f_f_j.liga" unicode="ffj" horiz-adv-x="1863" 
d="M31 907v135h243v179q0 125 69.5 189.5t199.5 64.5h209v-136h-281l-16 -16v-281h450v179q0 125 69.5 189.5t199.5 64.5h468v-136h-540l-17 -16v-281h631v-1198q0 -125 -69.5 -189.5t-198.5 -64.5h-174v140h246l16 16v1161h-451v-907h-180v907h-450v-907h-181v907h-243z
" />
    <glyph glyph-name="f_f_l.liga" unicode="ffl" horiz-adv-x="1863" 
d="M1716 1475v-1475h-180v1339h-434l-17 -16v-281h267v-135h-267v-907h-180v907h-450v-907h-181v907h-243v135h243v179q0 125 69.5 189.5t199.5 64.5h209v-136h-281l-16 -16v-281h450v179q0 125 69.5 189.5t199.5 64.5h542z" />
    <glyph glyph-name="f_j.liga" unicode="fj" horiz-adv-x="1232" 
d="M31 907v135h243v179q0 125 69.5 189.5t199.5 64.5h469v-136h-541l-16 -16v-281h630v-1198q0 -125 -69.5 -189.5t-198.5 -64.5h-178v140h250l16 16v1161h-450v-907h-181v907h-243z" />
    <glyph glyph-name="f_lcaron.liga" unicode="f&#x13e;" horiz-adv-x="1431" 
d="M543 1475h542v-1475h-180v1339h-434l-16 -16v-281h266v-135h-266v-907h-181v907h-243v135h243v179q0 125 69.5 189.5t199.5 64.5zM1264 1475h174v-31l-78 -350h-125v30z" />
    <glyph glyph-name="f_t.liga" unicode="ft" horiz-adv-x="1454" 
d="M1122 139h279v-139h-207q-130 0 -199 65t-69 191v651h-471v-907h-181v907h-243v135h243v179q0 125 69.5 189.5t199.5 64.5h209v-136h-281l-16 -16v-281h471v209l149 113h31v-322h276v-135h-276v-751z" />
    <glyph glyph-name="t_t.liga" unicode="tt" horiz-adv-x="1454" 
d="M1122 139h279v-139h-207q-130 0 -199 65t-69 191v651h-471v-751l16 -17h270v-139h-198q-130 0 -199.5 65t-69.5 191v651h-243v135h243v209l150 113h31v-322h471v209l149 113h31v-322h276v-135h-276v-751z" />
    <glyph glyph-name=".notdef" horiz-adv-x="1398" 
d="M1210 1475l21 -21v-1434l-21 -20h-1024l-20 20v1434l20 21h1024zM1083 1393h-835v-1250zM313 82h836v1249z" />
    <glyph glyph-name=".null" 
 />
    <glyph glyph-name="nonmarkingreturn" horiz-adv-x="682" 
 />
    <glyph glyph-name="space" unicode=" " horiz-adv-x="561" 
 />
    <glyph glyph-name="exclam" unicode="!" horiz-adv-x="518" 
d="M166 1475h186v-433l-35 -647h-116l-35 647v433zM137 219h244v-219h-244v219z" />
    <glyph glyph-name="quotedbl" unicode="&#x22;" horiz-adv-x="817" 
d="M111 1255v220h243v-267q0 -107 -59 -162t-168 -55h-45v105h41q56 0 82 27t26 85v47h-120zM463 1475h244v-267q0 -107 -58.5 -162t-167.5 -55h-47v105h41q58 0 84.5 27t26.5 85v47h-123v220z" />
    <glyph glyph-name="numbersign" unicode="#" horiz-adv-x="1689" 
d="M1567 918h-326l-98 -361h424v-139h-461l-115 -418h-160v31l105 387h-356l-113 -418h-160v31l105 387h-287v139h326l96 361h-422v139h461l112 418h162v-31l-106 -387h356l113 418h161v-31l-104 -387h287v-139zM977 553l98 369h-360l-101 -369h363z" />
    <glyph glyph-name="dollar" unicode="$" horiz-adv-x="1366" 
d="M690 1350q-169 0 -273 -66t-104 -184q0 -56 22 -97t69 -69.5t101 -46.5t138 -37l154 -35q117 -27 197 -57.5t146.5 -77.5t99 -116.5t32.5 -162.5q0 -179 -132 -291.5t-366 -129.5v-222h-162v224q-232 19 -375 137.5t-169 316.5v31h180q21 -178 142.5 -260t307.5 -82
q175 0 280 68.5t105 195.5q0 51 -17.5 90t-44.5 65t-75.5 47t-92.5 33.5t-114 28.5l-153 35q-227 51 -344 145t-117 263q0 167 133.5 275.5t362.5 123.5v221h163v-223q218 -22 347.5 -135.5t146.5 -298.5v-31h-180q-9 164 -120.5 243t-287.5 79z" />
    <glyph glyph-name="percent" unicode="%" horiz-adv-x="1912" 
d="M457 829q-148 0 -247 97t-99 239q0 141 99 237.5t247 96.5q150 0 249 -96.5t99 -237.5q0 -142 -99 -239t-249 -97zM1536 1475h195v-31l-1371 -1444h-192v31zM457 963q89 0 141.5 57t52.5 145q0 86 -53 142.5t-141 56.5q-87 0 -141 -56.5t-54 -142.5q0 -88 53.5 -145
t141.5 -57zM1454 -25q-148 0 -247 97t-99 239q0 141 99 237.5t247 96.5q150 0 249 -96.5t99 -237.5q0 -142 -99 -239t-249 -97zM1454 109q89 0 142 57t53 145q0 86 -53.5 142.5t-141.5 56.5q-87 0 -140.5 -56.5t-53.5 -142.5q0 -88 53 -145t141 -57z" />
    <glyph glyph-name="ampersand" unicode="&#x26;" horiz-adv-x="1554" 
d="M1497 860v-31l-401 -536l129 -143l26 -13h236v-137h-166q-98 0 -164 28t-121 91l-43 49q-85 -91 -188 -142t-242 -51q-203 0 -333 109t-130 285q0 146 87.5 245t250.5 179q-84 97 -125 177.5t-41 180.5q0 155 117 251.5t303 96.5q180 0 290 -93.5t110 -238.5
q0 -60 -20.5 -112.5t-52.5 -92.5t-86 -78.5t-107 -67t-128 -62.5l-10 -4l303 -338l334 448h172zM688 1360q-107 0 -175.5 -57.5t-68.5 -151.5q0 -77 33.5 -139.5t110.5 -149.5l45 21q150 69 218.5 128.5t68.5 151.5q0 88 -62.5 142.5t-169.5 54.5zM567 119q172 0 322 166
l-352 395q-130 -62 -196.5 -130t-66.5 -169q0 -117 84 -189.5t209 -72.5z" />
    <glyph glyph-name="quotesingle" unicode="'" horiz-adv-x="462" 
d="M111 1475h243v-267q0 -107 -59 -162t-168 -55h-45v105h41q56 0 82 27t26 85v47h-120v220z" />
    <glyph glyph-name="parenleft" unicode="(" horiz-adv-x="694" 
d="M664 1577v-27q-79 -97 -137.5 -190t-109.5 -211t-77.5 -260.5t-26.5 -304.5t26.5 -305t77.5 -261t109.5 -211t137.5 -190v-27h-168q-78 89 -138 181.5t-113.5 214t-82.5 273.5t-29 325t29 325t82.5 273t113.5 213.5t138 181.5h168z" />
    <glyph glyph-name="parenright" unicode=")" horiz-adv-x="694" 
d="M199 1577q78 -89 138 -181.5t113.5 -213.5t82 -273t28.5 -325t-28.5 -325t-82 -273.5t-113.5 -214t-138 -181.5h-168v27q79 97 137 190t109 211t77.5 261t26.5 305t-26.5 304.5t-77.5 260.5t-109 211t-137 190v27h168z" />
    <glyph glyph-name="asterisk" unicode="*" horiz-adv-x="1056" 
d="M946 1104h31v-123h-31l-217 14l-123 15l96 -74l166 -145l23 -23l-88 -88l-23 22l-143 166l-76 97l14 -121l15 -219v-31h-123v31l14 219l15 119l-74 -95l-146 -166l-22 -22l-88 88l22 23l166 145l97 74l-121 -15l-219 -14h-31v123h31l219 -14l121 -15l-97 76l-166 143
l-22 23l88 88l22 -23l146 -165l74 -95l-15 121l-14 217v31h123v-31l-15 -217l-14 -123l76 97l143 165l23 23l88 -88l-23 -23l-166 -143l-96 -76l123 15z" />
    <glyph glyph-name="plus" unicode="+" horiz-adv-x="1392" 
d="M1206 817v-143h-432v-443h-156v443h-432v143h432v443h156v-443h432z" />
    <glyph glyph-name="comma" unicode="," horiz-adv-x="462" 
d="M111 219h243v-268q0 -106 -59.5 -161.5t-167.5 -55.5h-45v106h41q56 0 82 27.5t26 85.5v47h-120v219z" />
    <glyph glyph-name="hyphen" unicode="-" horiz-adv-x="823" 
d="M123 602h577v-143h-577v143z" />
    <glyph glyph-name="period" unicode="." horiz-adv-x="462" 
d="M111 219h243v-219h-243v219z" />
    <glyph glyph-name="slash" unicode="/" horiz-adv-x="1034" 
d="M727 1475h172v-31l-580 -1444h-172v31z" />
    <glyph glyph-name="zero" unicode="0" horiz-adv-x="1398" 
d="M104 737q0 354 158.5 558t437.5 204q278 0 436 -204t158 -558q0 -353 -158.5 -557.5t-435.5 -204.5q-279 0 -437.5 204.5t-158.5 557.5zM293 737q0 -282 107.5 -446t299.5 -164q191 0 298.5 164t107.5 446t-108 447.5t-298 165.5q-192 0 -299.5 -165t-107.5 -448z" />
    <glyph glyph-name="one" unicode="1" horiz-adv-x="811" 
d="M53 1073v137h176q121 0 175.5 49.5t54.5 149.5v66h184v-1475h-186v1073h-404z" />
    <glyph glyph-name="two" unicode="2" horiz-adv-x="1290" 
d="M106 1032v31q17 195 164.5 314.5t382.5 119.5q236 0 380.5 -120t144.5 -310q0 -53 -10 -101.5t-24 -86.5t-44.5 -81.5t-54.5 -72t-72 -73t-79 -70l-93 -76.5l-420 -356h813v-150h-1081v127l604 520q75 65 118 107.5t82.5 94.5t55.5 104.5t16 115.5q0 130 -90.5 206.5
t-247.5 76.5q-161 0 -257.5 -82.5t-106.5 -237.5h-181z" />
    <glyph glyph-name="three" unicode="3" horiz-adv-x="1282" 
d="M92 406v30h178q7 -150 107.5 -232.5t263.5 -82.5q160 0 257 78.5t97 208.5q0 129 -96.5 202.5t-259.5 73.5h-160v147h160q147 0 238.5 72t91.5 191q0 122 -91 191t-239 69q-146 0 -239 -71t-103 -202h-178v31q21 176 160.5 281.5t363.5 105.5q230 0 371 -107.5
t141 -285.5q0 -64 -17.5 -118t-45.5 -90t-65.5 -63t-74 -41t-73.5 -20v-20q40 -6 79 -20t81 -42t73.5 -66t51.5 -97t20 -130q0 -194 -149.5 -309t-391.5 -115q-239 0 -386.5 115t-164.5 316z" />
    <glyph glyph-name="four" unicode="4" horiz-adv-x="1284" 
d="M47 420v129l842 926h227v-1475h-188v420h-881zM256 565h672v717h-21z" />
    <glyph glyph-name="five" unicode="5" horiz-adv-x="1280" 
d="M201 1475h956v-150h-780l-37 -508h20q24 26 45.5 44.5t63.5 46t102 42.5t131 15q208 0 345 -132t137 -348q0 -110 -38 -204t-108 -161.5t-174 -106t-231 -38.5q-124 0 -225.5 36.5t-166 98.5t-102.5 137.5t-47 158.5v30h180q11 -135 103.5 -225t255.5 -90q168 0 266 98
t98 256q0 152 -96.5 247t-257.5 95q-228 0 -315 -203h-187z" />
    <glyph glyph-name="six" unicode="6" horiz-adv-x="1333" 
d="M1233 465q0 -218 -150 -354t-393 -136q-100 0 -186.5 25t-160.5 79.5t-126.5 135t-82.5 196.5t-30 259q0 212 45.5 372.5t130 259.5t197.5 148t254 49q102 0 185.5 -24.5t138.5 -63.5t94.5 -92.5t59.5 -106t28 -108.5v-31h-178q-6 52 -24 97.5t-54 89t-100.5 69
t-151.5 25.5q-206 0 -321 -161.5t-115 -477.5h20q32 60 83 107.5t139.5 81.5t197.5 34q141 0 254 -57t179.5 -165.5t66.5 -250.5zM1044 455q0 150 -97 243t-259 93q-160 0 -256 -93t-96 -243q0 -149 96.5 -241.5t257.5 -92.5q160 0 257 92.5t97 241.5z" />
    <glyph glyph-name="seven" unicode="7" horiz-adv-x="1193" 
d="M39 1475h1110v-132l-645 -1343h-195v31l631 1294h-901v150z" />
    <glyph glyph-name="eight" unicode="8" horiz-adv-x="1318" 
d="M125 1104q0 178 146 286.5t388 108.5q241 0 387 -109t146 -286q0 -78 -26 -139.5t-69.5 -99t-86 -60t-90.5 -35.5v-20q38 -9 75.5 -24.5t79 -45t72.5 -67.5t51.5 -95t20.5 -125q0 -190 -153 -304t-407 -114t-406.5 114t-152.5 304q0 68 20 125t51 95t72 67.5t77.5 45
t74.5 24.5v20q-37 10 -71 25t-71.5 43t-64.5 62.5t-45 87.5t-18 116zM313 1092q0 -123 91.5 -193t254.5 -70t255 70t92 193t-92 192.5t-255 69.5t-254.5 -69.5t-91.5 -192.5zM289 401q0 -130 99.5 -205t270.5 -75t271 75t100 205q0 131 -100 207t-271 76t-270.5 -75.5
t-99.5 -207.5z" />
    <glyph glyph-name="nine" unicode="9" horiz-adv-x="1329" 
d="M98 1014q0 216 149 350.5t390 134.5q126 0 231 -41t185.5 -122.5t126 -217t45.5 -313.5q0 -419 -155.5 -624.5t-436.5 -205.5q-100 0 -183.5 25.5t-138 65t-96 91.5t-62.5 99.5t-32 95.5v31h180q7 -34 20 -67t39.5 -69t62 -63.5t90 -45t120.5 -17.5q198 0 301.5 158.5
t103.5 478.5h-20q-53 -95 -154.5 -157t-257.5 -62q-220 0 -364 132.5t-144 342.5zM287 1020q0 -151 96.5 -243.5t257.5 -92.5q160 0 257 93t97 243q0 149 -97 241.5t-259 92.5q-160 0 -256 -92.5t-96 -241.5z" />
    <glyph glyph-name="colon" unicode=":" horiz-adv-x="462" 
d="M111 1042h243v-217h-243v217zM111 219h243v-219h-243v219z" />
    <glyph glyph-name="semicolon" unicode=";" horiz-adv-x="471" 
d="M119 1042h243v-217h-243v217zM111 0v219h243v-268q0 -106 -59.5 -161.5t-167.5 -55.5h-45v106h41q56 0 82 27.5t26 85.5v47h-120z" />
    <glyph glyph-name="less" unicode="&#x3c;" horiz-adv-x="1392" 
d="M1180 326h-31l-956 348v143l956 348h31v-149l-748 -258v-21l748 -262v-149z" />
    <glyph glyph-name="equal" unicode="=" horiz-adv-x="1392" 
d="M213 1014h967v-146h-967v146zM213 623h967v-146h-967v146z" />
    <glyph glyph-name="greater" unicode="&#x3e;" horiz-adv-x="1392" 
d="M213 326v149l748 262v21l-748 258v149h31l956 -348v-143l-956 -348h-31z" />
    <glyph glyph-name="question" unicode="?" horiz-adv-x="1155" 
d="M250 1067h-182v31q7 180 151 290.5t365 110.5q219 0 355 -107t136 -274q-1 -64 -19 -119.5t-43.5 -92.5t-70 -74.5t-78 -58.5t-88.5 -52l-28 -16q-52 -31 -71.5 -63.5t-19.5 -88.5v-33l-28 -125h-123l-29 125v37q0 95 39.5 153.5t128.5 110.5l29 17q54 30 88 54
t66.5 57.5t47.5 75t15 93.5q0 108 -86 174t-225 66q-93 0 -166 -31t-118 -98t-46 -162zM444 219h246v-219h-246v219z" />
    <glyph glyph-name="at" unicode="@" horiz-adv-x="2195" 
d="M1008 612l381 37v37q0 234 -265 234q-123 0 -194 -52t-84 -153h-170v30q25 139 146 224.5t308 85.5q196 0 312.5 -94.5t116.5 -276.5v-491l16 -17h31q47 0 90 14.5t83.5 49t70 87.5t47.5 136t18 188q0 147 -56 277t-156 227t-248.5 153t-324.5 56q-179 0 -333.5 -58.5
t-267.5 -164.5t-177.5 -263.5t-64.5 -345.5q0 -251 111.5 -441t306.5 -290t446 -100q323 0 553 164l76 -121q-265 -178 -629 -178q-292 0 -522 116t-363 337t-133 513q0 219 77 402t211 306t316.5 191t392.5 68q207 0 383.5 -65.5t297.5 -179t189 -268.5t68 -331
q0 -128 -27 -232.5t-72.5 -173.5t-106.5 -116t-127 -67.5t-136 -20.5q-86 0 -134 42t-54 114h-20q-26 -32 -50.5 -55t-69 -52.5t-109 -45t-144.5 -15.5q-162 0 -264 79.5t-101 211.5q1 88 49 151t125.5 95.5t180.5 41.5zM1389 489v27l-355 -35q-211 -19 -211 -155
q0 -74 60 -116t166 -42q147 0 243.5 83.5t96.5 237.5z" />
    <glyph glyph-name="A" unicode="A" horiz-adv-x="1419" 
d="M51 0v31l539 1444h241l537 -1444v-31h-184l-154 416h-641l-151 -416h-187zM440 565h539l-258 711h-21z" />
    <glyph glyph-name="B" unicode="B" horiz-adv-x="1380" 
d="M166 1475h661q197 0 324 -98t127 -273q0 -81 -27.5 -145t-71.5 -101.5t-84.5 -58.5t-82.5 -31v-20q36 -8 70 -21t75 -40.5t70.5 -64.5t50 -96.5t20.5 -132.5q0 -126 -64 -216.5t-168.5 -133.5t-238.5 -43h-661v1475zM354 1319v-488h434q134 0 219 61.5t85 182.5
t-85 182.5t-219 61.5h-434zM354 676v-520h439q143 0 231 65.5t88 192.5t-88 194.5t-231 67.5h-439z" />
    <glyph glyph-name="C" unicode="C" horiz-adv-x="1554" 
d="M92 737q0 176 54.5 320.5t152 241t233 148.5t295.5 52q123 0 226.5 -29.5t173.5 -76.5t122 -110t78.5 -127t34.5 -130v-31h-178q-5 48 -22 94.5t-52.5 94.5t-85 83.5t-126.5 58t-171 22.5q-248 0 -398 -163.5t-150 -447.5t150 -447t398 -163q94 0 171.5 23t127.5 59
t87.5 84t56 93.5t26.5 92.5h179v-30q-11 -62 -38.5 -124.5t-80.5 -126.5t-124 -112.5t-176 -79.5t-229 -31q-160 0 -295.5 52t-233 148.5t-152 241t-54.5 320.5z" />
    <glyph glyph-name="D" unicode="D" horiz-adv-x="1505" 
d="M166 1475h524q329 0 527 -199t198 -539t-198 -538.5t-527 -198.5h-524v1475zM354 1319v-1163h334q248 0 393.5 154.5t145.5 426.5t-145.5 427t-393.5 155h-334z" />
    <glyph glyph-name="E" unicode="E" horiz-adv-x="1300" 
d="M166 1475h1034v-156h-846v-485h744v-156h-744v-522h867v-156h-1055v1475z" />
    <glyph glyph-name="F" unicode="F" horiz-adv-x="1210" 
d="M166 1475h987v-156h-799v-510h717v-156h-717v-653h-188v1475z" />
    <glyph glyph-name="G" unicode="G" horiz-adv-x="1595" 
d="M92 735q0 177 55.5 321.5t154 241t235.5 149t299 52.5q122 0 225 -29t175 -77t125 -112t81 -132t37 -139v-31h-179q-4 51 -21.5 100t-53.5 98.5t-87 86.5t-129 60.5t-173 23.5q-255 0 -406 -165t-151 -448t149.5 -445.5t400.5 -162.5q115 0 205 36.5t144 98.5t82 138.5
t30 162.5h-506v146h678v-709h-131l-41 190h-20q-153 -213 -461 -213q-152 0 -283 52t-227.5 147.5t-151.5 239.5t-55 319z" />
    <glyph glyph-name="H" unicode="H" horiz-adv-x="1474" 
d="M166 1475h188v-652h764v652h189v-1475h-189v668h-764v-668h-188v1475z" />
    <glyph glyph-name="I" unicode="I" horiz-adv-x="522" 
d="M166 1475h188v-1475h-188v1475z" />
    <glyph glyph-name="J" unicode="J" horiz-adv-x="1165" 
d="M819 1475h189v-1039q0 -221 -118 -341t-355 -120q-236 0 -357 117.5t-121 325.5h185q0 -137 72.5 -214t217.5 -77q287 0 287 307v1041z" />
    <glyph glyph-name="K" unicode="K" horiz-adv-x="1464" 
d="M805 909l610 -878v-31h-203l-540 788l-318 -284v-504h-188v1475h188v-725h21l799 725h227v-31z" />
    <glyph glyph-name="L" unicode="L" horiz-adv-x="1200" 
d="M166 1475h188v-1319h799v-156h-987v1475z" />
    <glyph glyph-name="M" unicode="M" horiz-adv-x="1941" 
d="M166 1475h240l555 -1282h20l553 1282h240v-1475h-183v1155h-20l-500 -1155h-201l-499 1155h-21v-1155h-184v1475z" />
    <glyph glyph-name="N" unicode="N" horiz-adv-x="1503" 
d="M166 1475h229l738 -1207h20v1207h182v-1475h-229l-735 1206h-21v-1206h-184v1475z" />
    <glyph glyph-name="O" unicode="O" horiz-adv-x="1658" 
d="M92 737q0 177 54.5 321t152.5 240.5t233.5 148.5t296.5 52t297 -52t234.5 -148.5t153.5 -241t55 -320.5t-55 -320.5t-153.5 -241t-234.5 -148.5t-297 -52t-296.5 52t-233.5 148.5t-152.5 240.5t-54.5 321zM279 737q0 -285 149.5 -447.5t400.5 -162.5q252 0 401.5 163
t149.5 447q0 285 -150 448t-401 163t-400.5 -163t-149.5 -448z" />
    <glyph glyph-name="P" unicode="P" horiz-adv-x="1337" 
d="M166 1475h645q200 0 332.5 -113.5t132.5 -308.5t-132.5 -308.5t-332.5 -113.5h-457v-631h-188v1475zM354 1319v-533h424q141 0 225 71t84 196t-84 195.5t-225 70.5h-424z" />
    <glyph glyph-name="Q" unicode="Q" horiz-adv-x="1658" 
d="M1569 737q0 -327 -178 -528t-471 -229v-187l16 -16h215v-135h-145q-130 0 -199.5 65t-69.5 191v82q-192 20 -336.5 114t-226.5 259.5t-82 383.5q0 177 54.5 321t152.5 240.5t233.5 148.5t296.5 52t297 -52t234.5 -148.5t153.5 -241t55 -320.5zM279 737
q0 -285 149.5 -447.5t400.5 -162.5q252 0 401.5 163t149.5 447q0 285 -150 448t-401 163t-400.5 -163t-149.5 -448z" />
    <glyph glyph-name="R" unicode="R" horiz-adv-x="1396" 
d="M1317 1049q0 -179 -111 -291t-286 -131l378 -596v-31h-198l-389 623h-357v-623h-188v1475h690q197 0 329 -115.5t132 -310.5zM354 1319v-541h469q138 0 221.5 71.5t83.5 199.5t-83.5 199t-221.5 71h-469z" />
    <glyph glyph-name="S" unicode="S" horiz-adv-x="1366" 
d="M125 1096q0 180 153 290.5t410 110.5q259 0 415 -116.5t175 -321.5v-31h-180q-9 164 -120.5 243t-287.5 79q-169 0 -273 -66t-104 -184q0 -56 22 -97t69 -69.5t101 -46.5t138 -37l154 -35q117 -27 197 -57.5t146.5 -77.5t99 -116.5t32.5 -162.5q0 -194 -153 -309
t-419 -115q-268 0 -435.5 121t-196.5 338v31h180q21 -178 142.5 -260t307.5 -82q175 0 280 68.5t105 195.5q0 51 -17.5 90t-44.5 65t-75.5 47t-92.5 33.5t-114 28.5l-153 35q-227 51 -344 145t-117 263z" />
    <glyph glyph-name="T" unicode="T" horiz-adv-x="1325" 
d="M35 1475h1255v-156h-534v-1319h-187v1319h-534v156z" />
    <glyph glyph-name="U" unicode="U" horiz-adv-x="1480" 
d="M158 1475h188v-938q0 -206 101.5 -308t293.5 -102q191 0 292.5 102t101.5 308v938h188v-930q0 -272 -149.5 -421t-432.5 -149t-433 149t-150 421v930z" />
    <glyph glyph-name="V" unicode="V" horiz-adv-x="1415" 
d="M49 1475h184l463 -1276h21l463 1276h186v-31l-539 -1444h-241l-537 1444v31z" />
    <glyph glyph-name="W" unicode="W" horiz-adv-x="2062" 
d="M57 1475h185l311 -1254h20l355 1254h207l354 -1254h20l312 1254h184v-31l-377 -1444h-242l-344 1225h-20l-346 -1225h-242l-377 1444v31z" />
    <glyph glyph-name="X" unicode="X" horiz-adv-x="1478" 
d="M100 1475h201l434 -598h21l448 598h201v-31l-531 -694l533 -719v-31h-203l-448 623h-21l-467 -623h-205v31l551 719l-514 694v31z" />
    <glyph glyph-name="Y" unicode="Y" horiz-adv-x="1402" 
d="M29 1475h204l459 -723h21l458 723h203v-31l-577 -883v-561h-189v561l-579 883v31z" />
    <glyph glyph-name="Z" unicode="Z" horiz-adv-x="1316" 
d="M121 1475h1089v-127l-874 -1192h899v-156h-1143v129l873 1190h-844v156z" />
    <glyph glyph-name="bracketleft" unicode="[" horiz-adv-x="661" 
d="M166 1577h424v-135h-244v-1716h244v-136h-424v1987z" />
    <glyph glyph-name="backslash" unicode="\" horiz-adv-x="1034" 
d="M307 1475l580 -1444v-31h-172l-580 1444v31h172z" />
    <glyph glyph-name="bracketright" unicode="]" horiz-adv-x="655" 
d="M489 1577v-1987h-417v136h237v1716h-237v135h417z" />
    <glyph glyph-name="asciicircum" unicode="^" horiz-adv-x="1392" 
d="M1163 821h-157l-299 484h-21l-299 -484h-158v31l396 623h143l395 -623v-31z" />
    <glyph glyph-name="underscore" unicode="_" horiz-adv-x="1181" 
d="M123 -57h936v-144h-936v144z" />
    <glyph glyph-name="grave" unicode="`" horiz-adv-x="583" 
d="M326 1188l-215 256v31h196l166 -256v-31h-147z" />
    <glyph glyph-name="a" unicode="a" horiz-adv-x="1165" 
d="M115 709v30q27 149 152 238.5t317 89.5q200 0 320 -100.5t120 -286.5v-680h-174v154h-21q-108 -177 -362 -177q-170 0 -275.5 80.5t-105.5 218.5q0 140 100.5 216t270.5 92l389 37v63q0 125 -69 186.5t-197 61.5q-127 0 -202.5 -57.5t-88.5 -165.5h-174zM266 285
q0 -78 63 -125t169 -47q151 0 249.5 88.5t98.5 257.5v28l-365 -34q-215 -19 -215 -168z" />
    <glyph glyph-name="b" unicode="b" horiz-adv-x="1257" 
d="M150 1475h180v-576h20q43 67 128 117.5t216 50.5q207 0 342 -147t135 -398t-135 -398t-342 -147q-71 0 -132 16.5t-104 45.5t-71.5 57.5t-50.5 61.5h-21l-41 -158h-124v1475zM319 522q0 -191 93 -298t243 -107q149 0 241.5 107.5t92.5 297.5q0 189 -93 297.5t-241 108.5
q-150 0 -243 -108t-93 -298z" />
    <glyph glyph-name="c" unicode="c" horiz-adv-x="1144" 
d="M86 522q0 248 143.5 396.5t378.5 148.5q106 0 191.5 -30t138.5 -80.5t84 -106.5t43 -117v-31h-166q-7 40 -25.5 77t-51.5 72t-87.5 56t-124.5 21q-155 0 -249.5 -108t-94.5 -298q0 -192 94 -299.5t250 -107.5q136 0 206.5 68.5t90.5 174.5h168v-30q-8 -51 -29.5 -99.5
t-60 -95t-90.5 -81.5t-126 -56t-161 -21q-235 0 -378.5 149.5t-143.5 397.5z" />
    <glyph glyph-name="d" unicode="d" horiz-adv-x="1257" 
d="M1108 0h-176v147h-21q-45 -69 -130.5 -119.5t-217.5 -50.5q-208 0 -342.5 146.5t-134.5 398.5t134.5 398.5t342.5 146.5q131 0 216 -50.5t128 -117.5h21v576h180v-1475zM936 522q0 190 -92.5 298t-241.5 108q-150 0 -243 -108t-93 -298q0 -191 93 -298t243 -107t242 107
t92 298z" />
    <glyph glyph-name="e" unicode="e" horiz-adv-x="1181" 
d="M86 522q0 248 140.5 396.5t375.5 148.5q231 0 362.5 -141.5t131.5 -368.5v-78h-826q3 -164 93.5 -266t242.5 -102q70 0 127 21t92 56t55.5 73.5t28.5 80.5h172v-31q-9 -43 -29.5 -85.5t-59.5 -89t-90.5 -81.5t-128.5 -57.5t-167 -22.5q-238 0 -379 149t-141 398zM270 614
h648q-5 141 -87 229.5t-229 88.5q-145 0 -232.5 -89t-99.5 -229z" />
    <glyph glyph-name="f" unicode="f" horiz-adv-x="763" 
d="M31 907v135h243v179q0 125 69.5 189.5t199.5 64.5h235v-136h-307l-16 -16v-281h272v-135h-272v-907h-181v907h-243z" />
    <glyph glyph-name="g" unicode="g" horiz-adv-x="1241" 
d="M86 539q0 121 37.5 221.5t102 167t151 103t184.5 36.5q230 0 344 -170h21l41 145h127v-983q0 -229 -129 -360t-373 -131q-113 0 -203.5 28t-148 76.5t-92 104t-50.5 119.5v30h166q54 -223 324 -223q164 0 244.5 91.5t80.5 256.5v119h-20q-114 -158 -336 -158
q-202 0 -336.5 143.5t-134.5 383.5zM266 539q0 -181 91.5 -284t236.5 -103t236.5 103t91.5 284q0 182 -91.5 285.5t-236.5 103.5t-236.5 -103.5t-91.5 -285.5z" />
    <glyph glyph-name="h" unicode="h" horiz-adv-x="1226" 
d="M150 1475h180v-578h20q108 170 344 170q177 0 284 -97.5t107 -275.5v-694h-180v676q0 126 -68.5 189t-185.5 63q-138 0 -229.5 -88t-91.5 -256v-584h-180v1475z" />
    <glyph glyph-name="i" unicode="i" horiz-adv-x="477" 
d="M115 1440h250v-201h-250v201zM150 1042h180v-1042h-180v1042z" />
    <glyph glyph-name="j" unicode="j" horiz-adv-x="481" 
d="M119 1440h250v-201h-250v201zM154 1042h180v-1198q0 -125 -69.5 -189.5t-198.5 -64.5h-179v140h250l17 16v1296z" />
    <glyph glyph-name="k" unicode="k" horiz-adv-x="1189" 
d="M678 643l465 -612v-31h-191l-401 539l-221 -183v-356h-180v1475h180v-897h20l555 464h221v-30z" />
    <glyph glyph-name="l" unicode="l" horiz-adv-x="477" 
d="M150 1475h180v-1475h-180v1475z" />
    <glyph glyph-name="m" unicode="m" horiz-adv-x="1841" 
d="M150 1042h174v-131h20q19 32 40.5 55.5t57 48.5t90 38.5t123.5 13.5q70 0 126.5 -17t93.5 -46t60.5 -60t37.5 -67h20q105 190 348 190q159 0 260 -90t101 -262v-715h-180v702q0 104 -57.5 163t-166.5 59q-129 0 -205.5 -79t-76.5 -231v-614h-180v702q0 104 -57.5 163
t-166.5 59q-129 0 -205.5 -79t-76.5 -231v-614h-180v1042z" />
    <glyph glyph-name="n" unicode="n" horiz-adv-x="1226" 
d="M150 1042h174v-153h20q102 178 350 178q178 0 284.5 -98t106.5 -277v-692h-180v674q0 127 -68 189.5t-186 62.5q-138 0 -229.5 -87t-91.5 -255v-584h-180v1042z" />
    <glyph glyph-name="o" unicode="o" horiz-adv-x="1212" 
d="M86 522q0 247 142.5 396t377.5 149t377.5 -149t142.5 -396q0 -249 -142.5 -398t-377.5 -149t-377.5 149t-142.5 398zM266 522q0 -192 92.5 -299.5t247.5 -107.5t246.5 107.5t91.5 299.5q0 191 -92 298.5t-246 107.5q-155 0 -247.5 -107.5t-92.5 -298.5z" />
    <glyph glyph-name="p" unicode="p" horiz-adv-x="1257" 
d="M150 1042h174v-147h20q21 31 48.5 58t69.5 54.5t102 43.5t130 16q207 0 342 -147t135 -398t-135 -398t-342 -147q-91 0 -165.5 29t-113 63t-65.5 74h-20v-553h-180v1452zM319 522q0 -191 93 -298t243 -107q149 0 241.5 107.5t92.5 297.5q0 189 -93 297.5t-241 108.5
q-150 0 -243 -108t-93 -298z" />
    <glyph glyph-name="q" unicode="q" horiz-adv-x="1257" 
d="M1108 -410h-180v553h-21q-27 -40 -65.5 -74t-113 -63t-165.5 -29q-208 0 -342.5 146.5t-134.5 398.5t134.5 398.5t342.5 146.5q239 0 357 -180h20l43 155h125v-1452zM936 522q0 190 -92.5 298t-241.5 108q-150 0 -243 -108t-93 -298q0 -191 93 -298t243 -107t242 107
t92 298z" />
    <glyph glyph-name="r" unicode="r" horiz-adv-x="755" 
d="M150 1042h174v-141h20q32 68 90.5 107t165.5 39h107v-144h-105q-144 0 -208 -80.5t-64 -244.5v-578h-180v1042z" />
    <glyph glyph-name="s" unicode="s" horiz-adv-x="1075" 
d="M106 764q0 140 117 221.5t318 81.5q198 0 314.5 -81t137.5 -224v-31h-168q-7 101 -82 151t-202 50q-122 0 -191 -42.5t-69 -117.5q0 -70 50.5 -104.5t145.5 -51.5l170 -30q83 -15 144 -36t110.5 -55t74.5 -85t25 -119q0 -142 -116 -229t-326 -87q-212 0 -338.5 89.5
t-150.5 244.5v31h170q13 -116 97 -172.5t220 -56.5q129 0 199.5 46t70.5 124q0 69 -54 102.5t-167 54.5l-170 31q-158 28 -244 97.5t-86 197.5z" />
    <glyph glyph-name="t" unicode="t" horiz-adv-x="802" 
d="M31 1042h243v209l150 113h31v-322h276v-135h-276v-751l16 -17h279v-139h-207q-130 0 -199.5 65t-69.5 191v651h-243v135z" />
    <glyph glyph-name="u" unicode="u" horiz-adv-x="1226" 
d="M1077 0h-174v154h-20q-105 -177 -351 -177q-178 0 -284.5 97t-106.5 276v692h181v-673q0 -126 67.5 -188t185.5 -62q66 0 123 20.5t102 61.5t71 107.5t26 152.5v581h180v-1042z" />
    <glyph glyph-name="v" unicode="v" horiz-adv-x="1101" 
d="M35 1042h184l322 -845h20l322 845h184v-30l-414 -1012h-204l-414 1012v30z" />
    <glyph glyph-name="w" unicode="w" horiz-adv-x="1566" 
d="M33 1042h174l207 -843h20l244 843h211l244 -843h20l207 843h176v-30l-272 -1012h-226l-243 854h-21l-246 -854h-225l-270 1012v30z" />
    <glyph glyph-name="x" unicode="x" horiz-adv-x="1179" 
d="M98 1042h187l297 -397h20l318 397h190v-30l-401 -490l378 -491v-31h-186l-309 414h-21l-327 -414h-193v31l414 506l-367 475v30z" />
    <glyph glyph-name="y" unicode="y" horiz-adv-x="1107" 
d="M35 1042h186l324 -856h20l322 856h186v-30l-579 -1422h-185v31l150 350l-424 1041v30z" />
    <glyph glyph-name="z" unicode="z" horiz-adv-x="1048" 
d="M113 1042h843v-114l-632 -793h649v-135h-881v115l633 792h-612v135z" />
    <glyph glyph-name="braceleft" unicode="{" horiz-adv-x="804" 
d="M57 514h-12v139h12q136 0 194 49t58 172v439q0 264 277 264h145v-135h-225l-17 -17v-565q0 -119 -56.5 -183.5t-168.5 -82.5v-21q112 -18 168.5 -82.5t56.5 -183.5v-565l17 -16h225v-136h-145q-277 0 -277 265v438q0 123 -58 172t-194 49z" />
    <glyph glyph-name="bar" unicode="|" horiz-adv-x="552" 
d="M186 1475h181v-1885h-181v1885z" />
    <glyph glyph-name="braceright" unicode="}" horiz-adv-x="804" 
d="M745 514q-134 0 -191.5 -49t-57.5 -172v-438q0 -132 -71 -198.5t-206 -66.5h-147v136h227l16 16v565q0 119 56.5 183.5t167.5 82.5v21q-111 18 -167.5 82.5t-56.5 183.5v565l-16 17h-227v135h147q135 0 206 -66t71 -198v-439q0 -123 57.5 -172t191.5 -49h13v-139h-13z
" />
    <glyph glyph-name="asciitilde" unicode="~" horiz-adv-x="1392" 
d="M1067 903h139v-31q-5 -132 -77 -212t-197 -80q-58 0 -113.5 19.5t-98.5 47.5t-82.5 56t-82 47.5t-82.5 19.5q-140 0 -147 -178h-140v31q6 132 78.5 212t198.5 80q58 0 113 -19.5t97.5 -47.5t82 -56t82 -47.5t82.5 -19.5q140 0 147 178z" />
    <glyph glyph-name="exclamdown" unicode="&#xa1;" horiz-adv-x="518" 
d="M381 825h-244v217h244v-217zM352 -410h-186v410l35 649h116l35 -649v-410z" />
    <glyph glyph-name="cent" unicode="&#xa2;" horiz-adv-x="1138" 
d="M901 782h168v-30q-10 -58 -37 -112.5t-72 -104.5t-116.5 -85.5t-159.5 -46.5v-200h-164v203q-199 26 -316.5 171t-117.5 369q0 225 117.5 370t316.5 171v203h164v-201q87 -11 156.5 -45t113 -82t69.5 -99t38 -106v-31h-168q-7 40 -25 77t-50.5 72t-86.5 56t-123 21
q-155 0 -248.5 -108t-93.5 -298q0 -191 93 -298t249 -107q136 0 206 68t87 173z" />
    <glyph glyph-name="sterling" unicode="&#xa3;" horiz-adv-x="1421" 
d="M799 1354q-158 0 -258.5 -82.5t-100.5 -233.5q0 -99 58 -252h467v-135h-416q41 -121 41 -207q0 -109 -46.5 -178.5t-135.5 -115.5h923v-150h-1143v129q115 56 169.5 124.5t54.5 170.5q0 81 -58 227h-297v135h246q-49 128 -49 248q0 146 72 252.5t194 159.5t277 53
q231 0 377 -115.5t163 -312.5v-31h-182q-7 151 -104 232.5t-252 81.5z" />
    <glyph glyph-name="currency" unicode="&#xa4;" horiz-adv-x="1363" 
d="M1233 745q0 -195 -113 -339l205 -205l-98 -99l-205 205q-146 -108 -340 -108t-340 108l-205 -205l-98 99l205 205q-113 144 -113 339q0 196 113 340l-205 205l98 99l205 -205q146 108 340 108t340 -108l205 205l98 -99l-205 -205q113 -144 113 -340zM682 336
q169 0 277 115.5t108 293.5t-107.5 294t-277.5 116q-169 0 -277 -116t-108 -294t108 -293.5t277 -115.5z" />
    <glyph glyph-name="yen" unicode="&#xa5;" horiz-adv-x="1402" 
d="M1374 1475v-31l-512 -785h371v-90h-436v-178h436v-90h-436v-301h-189v301h-438v90h438v178h-438v90h371l-512 785v31h204l459 -723h21l458 723h203z" />
    <glyph glyph-name="brokenbar" unicode="&#xa6;" horiz-adv-x="552" 
d="M186 797v678h181v-678h-181zM186 -410v678h181v-678h-181z" />
    <glyph glyph-name="section" unicode="&#xa7;" horiz-adv-x="1286" 
d="M1188 516q0 -48 -11 -89.5t-26 -68t-38 -50.5t-38.5 -36t-35.5 -26l-9 -6v-17q66 -82 66 -190q0 -158 -127 -251t-332 -93q-203 0 -332.5 92.5t-148.5 253.5v31h180q9 -118 89.5 -177t209.5 -59q124 0 199 51t75 139q0 35 -13 64.5t-30 49t-52 40.5t-60 32.5t-74 31.5
l-277 108q-70 27 -119 54t-90.5 65.5t-62 89.5t-20.5 117q0 48 11 89.5t26 68t38 51t38 36.5t35 25l9 6v19q-65 78 -65 190q0 157 123.5 249.5t324.5 92.5q200 0 323.5 -91t143.5 -249v-31h-180q-9 115 -84.5 172.5t-200.5 57.5q-121 0 -192.5 -51t-71.5 -140
q0 -35 13 -64.5t29.5 -48.5t52 -40t60.5 -32t74 -32l277 -108q70 -27 119 -54t91 -65.5t62.5 -89.5t20.5 -117zM750 391q106 -43 157 -72q103 63 103 173q0 76 -47.5 120t-137.5 78l-276 107q-116 47 -158 71q-102 -62 -102 -172q0 -76 47.5 -120t136.5 -78z" />
    <glyph glyph-name="dieresis" unicode="&#xa8;" horiz-adv-x="864" 
d="M100 1440h230v-201h-230v201zM512 1440h231v-201h-231v201z" />
    <glyph glyph-name="copyright" unicode="&#xa9;" horiz-adv-x="1736" 
d="M98 737q0 160 59 301t161 242.5t245 160t305 58.5q161 0 304 -58.5t245 -160t161.5 -243t59.5 -300.5t-59.5 -300.5t-161.5 -243t-245 -160t-304 -58.5q-162 0 -305 58.5t-245 160t-161 242.5t-59 301zM197 737q0 -189 86.5 -342.5t240 -241t344.5 -87.5q190 0 344 87.5
t241 241t87 342.5q0 142 -51 266.5t-140 213.5t-214 140.5t-267 51.5q-191 0 -344.5 -87.5t-240 -241.5t-86.5 -343zM494 739q0 180 110.5 295t282.5 115q135 0 221 -71.5t106 -174.5v-31h-94q-14 81 -74.5 134t-158.5 53q-131 0 -213 -86.5t-82 -233.5t82 -233t213 -86
q103 0 163 52t80 142h95v-30q-22 -105 -111 -179.5t-227 -74.5q-172 0 -282.5 114.5t-110.5 294.5z" />
    <glyph glyph-name="guillemotleft" unicode="&#xab;" horiz-adv-x="1054" 
d="M342 143l-252 373v29l252 373h172v-31l-244 -357l244 -356v-31h-172zM762 143l-252 373v29l252 373h170v-31l-244 -357l244 -356v-31h-170z" />
    <glyph glyph-name="registered" unicode="&#xae;" horiz-adv-x="1736" 
d="M868 1499q161 0 304 -58.5t245 -160t161.5 -243t59.5 -300.5t-59.5 -300.5t-161.5 -243t-245 -160t-304 -58.5q-162 0 -305 58.5t-245 160t-161 242.5t-59 301t59 301t161 242.5t245 160t305 58.5zM868 66q190 0 344 87.5t241 241t87 342.5q0 142 -51 266.5t-140 213.5
t-214 140.5t-267 51.5q-191 0 -344.5 -87.5t-240 -241.5t-86.5 -343t86.5 -342.5t240 -241t344.5 -87.5zM1221 909q0 -99 -63 -159t-163 -68l176 -311v-31h-96l-186 340h-189v-340h-98v799h365q110 0 182 -62t72 -168zM965 770q74 0 115.5 34.5t41.5 104.5t-41.5 105
t-115.5 35h-265v-279h265z" />
    <glyph glyph-name="macron" unicode="&#xaf;" horiz-adv-x="866" 
d="M111 1348h645v-131h-645v131z" />
    <glyph glyph-name="degree" unicode="&#xb0;" horiz-adv-x="915" 
d="M457 829q-148 0 -247 97t-99 239q0 141 99 237.5t247 96.5q150 0 249 -96.5t99 -237.5q0 -142 -99 -239t-249 -97zM457 963q89 0 141.5 57t52.5 145q0 86 -53 142.5t-141 56.5q-87 0 -141 -56.5t-54 -142.5q0 -88 53.5 -145t141.5 -57z" />
    <glyph glyph-name="plusminus" unicode="&#xb1;" horiz-adv-x="1392" 
d="M774 834h406v-146h-406v-391h-156v391h-405v146h405v393h156v-393zM213 0v145h967v-145h-967z" />
    <glyph glyph-name="acute" unicode="&#xb4;" horiz-adv-x="583" 
d="M258 1188h-147v31l165 256h197v-31z" />
    <glyph glyph-name="paragraph" unicode="&#xb6;" horiz-adv-x="1593" 
d="M1552 1475v-91h-270v-1794h-98v1794h-377v-1794h-98v1082h-197q-192 0 -317 107t-125 294q0 125 59.5 217.5t158.5 138.5t224 46h1040z" />
    <glyph glyph-name="periodcentered" unicode="&#xb7;" horiz-adv-x="462" 
d="M111 639h243v-219h-243v219z" />
    <glyph glyph-name="cedilla" unicode="&#xb8;" horiz-adv-x="739" 
d="M303 0h111l-25 -113l49 4q80 5 135.5 -29t55.5 -112q0 -82 -70.5 -133t-183.5 -51q-152 0 -264 80v118h30q58 -43 112 -67.5t122 -24.5q62 0 94.5 22t32.5 56q0 62 -92 62h-140v30z" />
    <glyph glyph-name="guillemotright" unicode="&#xbb;" horiz-adv-x="1054" 
d="M293 143h-170v31l242 356l-242 357v31h170l252 -373v-29zM713 143h-172v31l243 356l-243 357v31h172l250 -373v-29z" />
    <glyph glyph-name="questiondown" unicode="&#xbf;" horiz-adv-x="1155" 
d="M711 825h-244v217h244v-217zM903 -2h184v-31q-7 -180 -151 -290.5t-365 -110.5q-220 0 -355.5 107t-133.5 274q0 47 9.5 89t23 73.5t38.5 62.5t46.5 52t57 46t59 39t63.5 37l29 14q51 31 70.5 64t19.5 88v23l28 114h123l29 -114v-27q0 -95 -39 -154t-129 -110l-29 -17
q-53 -30 -87.5 -54t-66 -57.5t-46.5 -75t-15 -93.5q0 -108 85.5 -174t223.5 -66q93 0 165.5 31t117 98t45.5 162z" />
    <glyph glyph-name="Agrave" unicode="&#xc0;" horiz-adv-x="1419" 
d="M680 1585l-217 227v31h217l158 -227v-31h-158zM51 0v31l539 1444h241l537 -1444v-31h-184l-154 416h-641l-151 -416h-187zM440 565h539l-258 711h-21z" />
    <glyph glyph-name="Aacute" unicode="&#xc1;" horiz-adv-x="1419" 
d="M731 1585h-158v31l158 227h217v-31zM51 0v31l539 1444h241l537 -1444v-31h-184l-154 416h-641l-151 -416h-187zM440 565h539l-258 711h-21z" />
    <glyph glyph-name="Acircumflex" unicode="&#xc2;" horiz-adv-x="1419" 
d="M711 1741l-201 -156h-178v37l266 221h225l264 -221v-37h-178zM831 1475l537 -1444v-31h-184l-154 416h-641l-151 -416h-187v31l539 1444h241zM440 565h539l-258 711h-21z" />
    <glyph glyph-name="Atilde" unicode="&#xc3;" horiz-adv-x="1419" 
d="M555 1712q-96 0 -96 -108h-123v30q5 89 58 148t149 59q49 0 97 -19.5t79.5 -43t70 -43t72.5 -19.5q94 0 94 107h125v-31q-7 -89 -59.5 -147t-149.5 -58q-49 0 -96.5 19.5t-78.5 43t-69.5 43t-72.5 19.5zM707 1716v-4h2v4h-2zM831 1475l537 -1444v-31h-184l-154 416h-641
l-151 -416h-187v31l539 1444h241zM440 565h539l-258 711h-21z" />
    <glyph glyph-name="Adieresis" unicode="&#xc4;" horiz-adv-x="1419" 
d="M367 1800h245v-201h-245v201zM807 1800h246v-201h-246v201zM51 0v31l539 1444h241l537 -1444v-31h-184l-154 416h-641l-151 -416h-187zM440 565h539l-258 711h-21z" />
    <glyph glyph-name="Aring" unicode="&#xc5;" horiz-adv-x="1419" 
d="M711 1536q-89 0 -146 52t-57 134t57 134.5t146 52.5t146.5 -52.5t57.5 -134.5t-57.5 -134t-146.5 -52zM711 1636q39 0 63.5 24.5t24.5 61.5t-24.5 61.5t-63.5 24.5t-63.5 -24.5t-24.5 -61.5t24.5 -61.5t63.5 -24.5zM51 0v31l539 1444h241l537 -1444v-31h-184l-154 416
h-641l-151 -416h-187zM440 565h539l-258 711h-21z" />
    <glyph glyph-name="AE" unicode="&#xc6;" horiz-adv-x="2019" 
d="M51 0v31l799 1444h1069v-156h-750v-485h648v-156h-648v-522h770v-156h-958v414h-508l-229 -414h-193zM549 565h432v756h-20z" />
    <glyph glyph-name="Ccedilla" unicode="&#xc7;" horiz-adv-x="1554" 
d="M1296 479h179v-30q-10 -58 -35.5 -117.5t-73.5 -121t-112 -110t-158 -82.5t-205 -41l-21 -90l50 4q80 5 135 -29t55 -112q0 -82 -70.5 -133t-183.5 -51q-152 0 -264 80v118h31q59 -44 112 -68t121 -24q62 0 94.5 22t32.5 56q0 62 -92 62h-139v30l28 135q-308 15 -498 218
t-190 542q0 176 54.5 320.5t152 241t233 148.5t295.5 52q123 0 226.5 -29.5t173.5 -76.5t122 -110t78.5 -127t34.5 -130v-31h-178q-5 48 -22 94.5t-52.5 94.5t-85 83.5t-126.5 58t-171 22.5q-248 0 -398 -163.5t-150 -447.5t150 -447t398 -163q94 0 171.5 23t127.5 59
t87.5 84t56 93.5t26.5 92.5z" />
    <glyph glyph-name="Egrave" unicode="&#xc8;" horiz-adv-x="1300" 
d="M655 1585l-217 227v31h217l158 -227v-31h-158zM166 1475h1034v-156h-846v-485h744v-156h-744v-522h867v-156h-1055v1475z" />
    <glyph glyph-name="Eacute" unicode="&#xc9;" horiz-adv-x="1300" 
d="M707 1585h-158v31l158 227h217v-31zM166 1475h1034v-156h-846v-485h744v-156h-744v-522h867v-156h-1055v1475z" />
    <glyph glyph-name="Ecircumflex" unicode="&#xca;" horiz-adv-x="1300" 
d="M684 1741l-201 -156h-178v37l266 221h226l264 -221v-37h-178zM354 156h867v-156h-1055v1475h1034v-156h-846v-485h744v-156h-744v-522z" />
    <glyph glyph-name="Edieresis" unicode="&#xcb;" horiz-adv-x="1300" 
d="M342 1800h246v-201h-246v201zM782 1800h246v-201h-246v201zM166 1475h1034v-156h-846v-485h744v-156h-744v-522h867v-156h-1055v1475z" />
    <glyph glyph-name="Igrave" unicode="&#xcc;" horiz-adv-x="522" 
d="M231 1843l158 -227v-31h-158l-217 227v31h217zM166 1475h188v-1475h-188v1475z" />
    <glyph glyph-name="Iacute" unicode="&#xcd;" horiz-adv-x="522" 
d="M283 1843h217v-31l-217 -227h-158v31zM166 1475h188v-1475h-188v1475z" />
    <glyph glyph-name="Icircumflex" unicode="&#xce;" horiz-adv-x="522" 
d="M373 1843l264 -221v-37h-178l-199 156l-201 -156h-178v37l266 221h226zM166 1475h188v-1475h-188v1475z" />
    <glyph glyph-name="Idieresis" unicode="&#xcf;" horiz-adv-x="522" 
d="M-84 1599v201h246v-201h-246zM356 1800h246v-201h-246v201zM166 1475h188v-1475h-188v1475z" />
    <glyph glyph-name="Eth" unicode="&#xd0;" horiz-adv-x="1619" 
d="M805 1475q329 0 527 -199t198 -539t-198 -538.5t-527 -198.5h-524v702h-211v91h211v682h524zM803 156q248 0 393 154.5t145 426.5t-145 427t-393 155h-334v-526h256v-91h-256v-546h334z" />
    <glyph glyph-name="Ntilde" unicode="&#xd1;" horiz-adv-x="1503" 
d="M596 1712q-96 0 -96 -108h-123v30q5 89 58 148t149 59q49 0 97 -19.5t79.5 -43t70 -43t72.5 -19.5q94 0 94 107h125v-31q-7 -89 -59.5 -147t-149.5 -58q-49 0 -96.5 19.5t-78.5 43t-69.5 43t-72.5 19.5zM748 1716v-4h2v4h-2zM1153 1475h182v-1475h-229l-735 1206h-21
v-1206h-184v1475h229l738 -1207h20v1207z" />
    <glyph glyph-name="Ograve" unicode="&#xd2;" horiz-adv-x="1658" 
d="M801 1585l-217 227v31h217l157 -227v-31h-157zM92 737q0 177 54.5 321t152.5 240.5t233.5 148.5t296.5 52t297 -52t234.5 -148.5t153.5 -241t55 -320.5t-55 -320.5t-153.5 -241t-234.5 -148.5t-297 -52t-296.5 52t-233.5 148.5t-152.5 240.5t-54.5 321zM279 737
q0 -285 149.5 -447.5t400.5 -162.5q252 0 401.5 163t149.5 447q0 285 -150 448t-401 163t-400.5 -163t-149.5 -448z" />
    <glyph glyph-name="Oacute" unicode="&#xd3;" horiz-adv-x="1658" 
d="M852 1585h-158v31l158 227h217v-31zM92 737q0 177 54.5 321t152.5 240.5t233.5 148.5t296.5 52t297 -52t234.5 -148.5t153.5 -241t55 -320.5t-55 -320.5t-153.5 -241t-234.5 -148.5t-297 -52t-296.5 52t-233.5 148.5t-152.5 240.5t-54.5 321zM279 737
q0 -285 149.5 -447.5t400.5 -162.5q252 0 401.5 163t149.5 447q0 285 -150 448t-401 163t-400.5 -163t-149.5 -448z" />
    <glyph glyph-name="Ocircumflex" unicode="&#xd4;" horiz-adv-x="1658" 
d="M829 1741l-200 -156h-178v37l266 221h225l264 -221v-37h-178zM829 1499q161 0 297 -52t234.5 -148.5t153.5 -241t55 -320.5t-55 -320.5t-153.5 -241t-234.5 -148.5t-297 -52t-296.5 52t-233.5 148.5t-152.5 240.5t-54.5 321t54.5 321t152.5 240.5t233.5 148.5t296.5 52z
M829 127q252 0 401.5 163t149.5 447q0 285 -150 448t-401 163t-400.5 -163t-149.5 -448t149.5 -447.5t400.5 -162.5z" />
    <glyph glyph-name="Otilde" unicode="&#xd5;" horiz-adv-x="1658" 
d="M674 1712q-96 0 -96 -108h-123v30q5 89 58 148t149 59q49 0 97 -19.5t79.5 -43t70 -43t72.5 -19.5q94 0 94 107h125v-31q-7 -89 -59.5 -147t-149.5 -58q-49 0 -96.5 19.5t-78.5 43t-69.5 43t-72.5 19.5zM825 1716v-4h2v4h-2zM829 1499q161 0 297 -52t234.5 -148.5
t153.5 -241t55 -320.5t-55 -320.5t-153.5 -241t-234.5 -148.5t-297 -52t-296.5 52t-233.5 148.5t-152.5 240.5t-54.5 321t54.5 321t152.5 240.5t233.5 148.5t296.5 52zM829 127q252 0 401.5 163t149.5 447q0 285 -150 448t-401 163t-400.5 -163t-149.5 -448t149.5 -447.5
t400.5 -162.5z" />
    <glyph glyph-name="Odieresis" unicode="&#xd6;" horiz-adv-x="1658" 
d="M487 1800h246v-201h-246v201zM928 1800h246v-201h-246v201zM92 737q0 177 54.5 321t152.5 240.5t233.5 148.5t296.5 52t297 -52t234.5 -148.5t153.5 -241t55 -320.5t-55 -320.5t-153.5 -241t-234.5 -148.5t-297 -52t-296.5 52t-233.5 148.5t-152.5 240.5t-54.5 321z
M279 737q0 -285 149.5 -447.5t400.5 -162.5q252 0 401.5 163t149.5 447q0 285 -150 448t-401 163t-400.5 -163t-149.5 -448z" />
    <glyph glyph-name="multiply" unicode="&#xd7;" horiz-adv-x="1392" 
d="M1176 1122l-377 -374l377 -377l-103 -103l-377 377l-377 -377l-102 103l377 377l-377 374l102 103l377 -377l377 377z" />
    <glyph glyph-name="Oslash" unicode="&#xd8;" horiz-adv-x="1658" 
d="M1378 1280q191 -207 191 -543q0 -176 -55 -320.5t-153.5 -241t-234.5 -148.5t-297 -52q-287 0 -481 158l-121 -133h-94v31l148 164q-189 208 -189 542q0 177 54.5 321t152.5 240.5t233.5 148.5t296.5 52q287 0 484 -158l119 134h94v-31zM279 737q0 -254 120 -411l801 891
q-143 131 -371 131q-251 0 -400.5 -163t-149.5 -448zM829 127q252 0 401.5 163t149.5 447q0 255 -120 412l-801 -891q143 -131 370 -131z" />
    <glyph glyph-name="Ugrave" unicode="&#xd9;" horiz-adv-x="1480" 
d="M711 1585l-217 227v31h217l157 -227v-31h-157zM158 1475h188v-938q0 -206 101.5 -308t293.5 -102q191 0 292.5 102t101.5 308v938h188v-930q0 -272 -149.5 -421t-432.5 -149t-433 149t-150 421v930z" />
    <glyph glyph-name="Uacute" unicode="&#xda;" horiz-adv-x="1480" 
d="M762 1585h-158v31l158 227h217v-31zM158 1475h188v-938q0 -206 101.5 -308t293.5 -102q191 0 292.5 102t101.5 308v938h188v-930q0 -272 -149.5 -421t-432.5 -149t-433 149t-150 421v930z" />
    <glyph glyph-name="Ucircumflex" unicode="&#xdb;" horiz-adv-x="1480" 
d="M741 1741l-200 -156h-179v37l267 221h225l264 -221v-37h-178zM1135 1475h188v-930q0 -272 -149.5 -421t-432.5 -149t-433 149t-150 421v930h188v-938q0 -206 101.5 -308t293.5 -102q191 0 292.5 102t101.5 308v938z" />
    <glyph glyph-name="Udieresis" unicode="&#xdc;" horiz-adv-x="1480" 
d="M397 1800h246v-201h-246v201zM838 1800h245v-201h-245v201zM158 1475h188v-938q0 -206 101.5 -308t293.5 -102q191 0 292.5 102t101.5 308v938h188v-930q0 -272 -149.5 -421t-432.5 -149t-433 149t-150 421v930z" />
    <glyph glyph-name="Yacute" unicode="&#xdd;" horiz-adv-x="1402" 
d="M723 1585h-158v31l158 227h217v-31zM29 1475h204l459 -723h21l458 723h203v-31l-577 -883v-561h-189v561l-579 883v31z" />
    <glyph glyph-name="Thorn" unicode="&#xde;" horiz-adv-x="1337" 
d="M166 1475h188v-306h457q131 0 235 -48t167 -144.5t63 -226.5t-63 -227t-167.5 -145t-234.5 -48h-457v-330h-188v1475zM354 1014v-529h424q140 0 224.5 70.5t84.5 194.5t-84.5 194t-224.5 70h-424z" />
    <glyph glyph-name="germandbls" unicode="&#xdf;" horiz-adv-x="1314" 
d="M150 0v948q0 174 74.5 300.5t198.5 188.5t282 62q179 0 293 -83t114 -218q0 -59 -15.5 -107t-49 -88t-70 -70t-92.5 -67q-78 -49 -78 -102q0 -34 23.5 -58.5t70.5 -48.5l66 -34q117 -60 153 -85q123 -84 134 -214q1 -14 1 -29q0 -146 -108.5 -233t-286.5 -87
q-173 0 -281 79t-124 200v31h166q14 -80 76 -126t159 -46q101 0 163 47t62 129q0 17 -3.5 32t-7 27t-13 25t-15 21t-21 20t-22 17t-26.5 16.5t-26 14.5t-29.5 15t-28.5 15l-92 51q-87 46 -127.5 95.5t-40.5 117.5t33 111t102 91q49 33 72 51t51.5 47t39.5 59.5t11 68.5
q0 85 -66 129.5t-170 44.5q-166 0 -269 -104t-103 -300v-954h-180z" />
    <glyph glyph-name="agrave" unicode="&#xe0;" horiz-adv-x="1165" 
d="M545 1188l-215 256v31h196l166 -256v-31h-147zM115 709v30q27 149 152 238.5t317 89.5q200 0 320 -100.5t120 -286.5v-680h-174v154h-21q-108 -177 -362 -177q-170 0 -275.5 80.5t-105.5 218.5q0 140 100.5 216t270.5 92l389 37v63q0 125 -69 186.5t-197 61.5
q-127 0 -202.5 -57.5t-88.5 -165.5h-174zM266 285q0 -78 63 -125t169 -47q151 0 249.5 88.5t98.5 257.5v28l-365 -34q-215 -19 -215 -168z" />
    <glyph glyph-name="aacute" unicode="&#xe1;" horiz-adv-x="1165" 
d="M610 1188h-147v31l166 256h196v-31zM115 709v30q27 149 152 238.5t317 89.5q200 0 320 -100.5t120 -286.5v-680h-174v154h-21q-108 -177 -362 -177q-170 0 -275.5 80.5t-105.5 218.5q0 140 100.5 216t270.5 92l389 37v63q0 125 -69 186.5t-197 61.5q-127 0 -202.5 -57.5
t-88.5 -165.5h-174zM266 285q0 -78 63 -125t169 -47q151 0 249.5 88.5t98.5 257.5v28l-365 -34q-215 -19 -215 -168z" />
    <glyph glyph-name="acircumflex" unicode="&#xe2;" horiz-adv-x="1165" 
d="M580 1374l-174 -186h-152v31l219 256h209l221 -256v-31h-151zM584 1067q200 0 320 -100.5t120 -286.5v-680h-174v154h-21q-108 -177 -362 -177q-170 0 -275.5 80.5t-105.5 218.5q0 140 100.5 216t270.5 92l389 37v63q0 125 -69 186.5t-197 61.5q-127 0 -202.5 -57.5
t-88.5 -165.5h-174v30q27 149 152 238.5t317 89.5zM846 459v28l-365 -34q-215 -19 -215 -168q0 -78 63 -125t169 -47q151 0 249.5 88.5t98.5 257.5z" />
    <glyph glyph-name="atilde" unicode="&#xe3;" horiz-adv-x="1165" 
d="M440 1333q-91 0 -94 -116h-119v30q5 92 56 151.5t145 59.5q46 0 90.5 -20t73.5 -44.5t64 -44.5t65 -20q91 0 94 117h119v-31q-5 -92 -56 -151.5t-145 -59.5q-45 0 -89.5 20t-74 44.5t-64.5 44.5t-65 20zM584 1067q200 0 320 -100.5t120 -286.5v-680h-174v154h-21
q-108 -177 -362 -177q-170 0 -275.5 80.5t-105.5 218.5q0 140 100.5 216t270.5 92l389 37v63q0 125 -69 186.5t-197 61.5q-127 0 -202.5 -57.5t-88.5 -165.5h-174v30q27 149 152 238.5t317 89.5zM846 459v28l-365 -34q-215 -19 -215 -168q0 -78 63 -125t169 -47
q151 0 249.5 88.5t98.5 257.5z" />
    <glyph glyph-name="adieresis" unicode="&#xe4;" horiz-adv-x="1165" 
d="M260 1438h229v-201h-229v201zM672 1438h231v-201h-231v201zM115 709v30q27 149 152 238.5t317 89.5q200 0 320 -100.5t120 -286.5v-680h-174v154h-21q-108 -177 -362 -177q-170 0 -275.5 80.5t-105.5 218.5q0 140 100.5 216t270.5 92l389 37v63q0 125 -69 186.5
t-197 61.5q-127 0 -202.5 -57.5t-88.5 -165.5h-174zM266 285q0 -78 63 -125t169 -47q151 0 249.5 88.5t98.5 257.5v28l-365 -34q-215 -19 -215 -168z" />
    <glyph glyph-name="aring" unicode="&#xe5;" horiz-adv-x="1165" 
d="M582 1159q-86 0 -140.5 50.5t-54.5 127.5q0 78 54.5 129.5t140.5 51.5q84 0 138 -51.5t54 -129.5q0 -77 -54 -127.5t-138 -50.5zM582 1257q37 0 59.5 22.5t22.5 57.5q0 37 -22.5 59.5t-59.5 22.5q-38 0 -61 -22.5t-23 -59.5q0 -36 23 -58t61 -22zM115 709v30
q27 149 152 238.5t317 89.5q200 0 320 -100.5t120 -286.5v-680h-174v154h-21q-108 -177 -362 -177q-170 0 -275.5 80.5t-105.5 218.5q0 140 100.5 216t270.5 92l389 37v63q0 125 -69 186.5t-197 61.5q-127 0 -202.5 -57.5t-88.5 -165.5h-174zM266 285q0 -78 63 -125t169 -47
q151 0 249.5 88.5t98.5 257.5v28l-365 -34q-215 -19 -215 -168z" />
    <glyph glyph-name="ae" unicode="&#xe6;" horiz-adv-x="1957" 
d="M1872 557v-78h-825q3 -164 93.5 -266t241.5 -102q70 0 127 21t92 56t56 73.5t29 80.5h172v-31q-9 -43 -30 -86t-60 -89t-90.5 -81t-128.5 -57.5t-167 -22.5q-146 0 -256 62t-172 176h-20q-17 -32 -38.5 -61t-60 -63t-84.5 -58t-115 -40t-149 -16q-183 0 -292 84t-109 224
t100.5 217.5t266.5 91.5l401 37v55q0 125 -71.5 186.5t-202.5 61.5q-127 0 -202 -56.5t-89 -162.5h-174v30q25 144 151 234t320 90q81 0 147.5 -17.5t110.5 -46.5t72 -60t45 -66h22q135 190 395 190q231 0 362.5 -141.5t131.5 -368.5zM1047 614h647q-5 141 -87 229.5
t-229 88.5q-144 0 -231.5 -89t-99.5 -229zM854 459v37l-375 -35q-213 -19 -213 -172q0 -82 63.5 -130t172.5 -48q68 0 130 21.5t112.5 63.5t80 110t29.5 153z" />
    <glyph glyph-name="ccedilla" unicode="&#xe7;" horiz-adv-x="1144" 
d="M907 358h168v-30q-10 -61 -39 -117.5t-78 -107.5t-126 -85t-173 -41l-20 -90l49 4q80 5 135.5 -29t55.5 -112q0 -82 -70.5 -133t-183.5 -51q-153 0 -265 80v118h31q58 -43 112 -67.5t122 -24.5q62 0 94.5 22t32.5 56q0 62 -93 62h-139v30l29 135q-212 20 -337.5 167
t-125.5 378q0 248 143.5 396.5t378.5 148.5q106 0 191.5 -30t138.5 -80.5t84 -106.5t43 -117v-31h-166q-7 40 -25.5 77t-51.5 72t-87.5 56t-124.5 21q-155 0 -249.5 -108t-94.5 -298q0 -192 94 -299.5t250 -107.5q136 0 206.5 68.5t90.5 174.5z" />
    <glyph glyph-name="egrave" unicode="&#xe8;" horiz-adv-x="1181" 
d="M569 1188l-215 256v31h197l166 -256v-31h-148zM86 522q0 248 140.5 396.5t375.5 148.5q231 0 362.5 -141.5t131.5 -368.5v-78h-826q3 -164 93.5 -266t242.5 -102q70 0 127 21t92 56t55.5 73.5t28.5 80.5h172v-31q-9 -43 -29.5 -85.5t-59.5 -89t-90.5 -81.5t-128.5 -57.5
t-167 -22.5q-238 0 -379 149t-141 398zM270 614h648q-5 141 -87 229.5t-229 88.5q-145 0 -232.5 -89t-99.5 -229z" />
    <glyph glyph-name="eacute" unicode="&#xe9;" horiz-adv-x="1181" 
d="M635 1188h-148v31l166 256h197v-31zM86 522q0 248 140.5 396.5t375.5 148.5q231 0 362.5 -141.5t131.5 -368.5v-78h-826q3 -164 93.5 -266t242.5 -102q70 0 127 21t92 56t55.5 73.5t28.5 80.5h172v-31q-9 -43 -29.5 -85.5t-59.5 -89t-90.5 -81.5t-128.5 -57.5t-167 -22.5
q-238 0 -379 149t-141 398zM270 614h648q-5 141 -87 229.5t-229 88.5q-145 0 -232.5 -89t-99.5 -229z" />
    <glyph glyph-name="ecircumflex" unicode="&#xea;" horiz-adv-x="1181" 
d="M604 1374l-174 -186h-151v31l219 256h209l221 -256v-31h-152zM1096 557v-78h-826q3 -164 93.5 -266t242.5 -102q70 0 127 21t92 56t55.5 73.5t28.5 80.5h172v-31q-9 -43 -29.5 -85.5t-59.5 -89t-90.5 -81.5t-128.5 -57.5t-167 -22.5q-238 0 -379 149t-141 398
q0 248 140.5 396.5t375.5 148.5q231 0 362.5 -141.5t131.5 -368.5zM270 614h648q-5 141 -87 229.5t-229 88.5q-145 0 -232.5 -89t-99.5 -229z" />
    <glyph glyph-name="edieresis" unicode="&#xeb;" horiz-adv-x="1181" 
d="M285 1438h229v-201h-229v201zM696 1438h232v-201h-232v201zM86 522q0 248 140.5 396.5t375.5 148.5q231 0 362.5 -141.5t131.5 -368.5v-78h-826q3 -164 93.5 -266t242.5 -102q70 0 127 21t92 56t55.5 73.5t28.5 80.5h172v-31q-9 -43 -29.5 -85.5t-59.5 -89t-90.5 -81.5
t-128.5 -57.5t-167 -22.5q-238 0 -379 149t-141 398zM270 614h648q-5 141 -87 229.5t-229 88.5q-145 0 -232.5 -89t-99.5 -229z" />
    <glyph glyph-name="igrave" unicode="&#xec;" horiz-adv-x="477" 
d="M186 1475l166 -256v-31h-147l-215 256v31h196zM150 1042h180v-1042h-180v1042z" />
    <glyph glyph-name="iacute" unicode="&#xed;" horiz-adv-x="477" 
d="M287 1475h196v-31l-215 -256h-147v31zM150 1042h180v-1042h-180v1042z" />
    <glyph glyph-name="icircumflex" unicode="&#xee;" horiz-adv-x="477" 
d="M342 1475l221 -256v-31h-151l-172 186l-174 -186h-152v31l219 256h209zM150 1042h180v-1042h-180v1042z" />
    <glyph glyph-name="idieresis" unicode="&#xef;" horiz-adv-x="477" 
d="M-82 1239v201h229v-201h-229zM330 1440h231v-201h-231v201zM150 1042h180v-1042h-180v1042z" />
    <glyph glyph-name="eth" unicode="&#xf0;" horiz-adv-x="1214" 
d="M588 1425q262 -91 402 -315t140 -571q0 -262 -141.5 -413t-380.5 -151q-235 0 -378.5 144t-143.5 375q0 229 138 371.5t354 142.5q207 0 319 -125h21q-67 304 -371 417l-58 -174h-79v31l53 168q-92 25 -199 31v127h31q94 -5 209 -33l53 166h82v-31zM608 115
q154 0 248 101.5t94 277.5q0 177 -93.5 278.5t-248.5 101.5t-248.5 -101.5t-93.5 -278.5q0 -176 94 -277.5t248 -101.5z" />
    <glyph glyph-name="ntilde" unicode="&#xf1;" horiz-adv-x="1226" 
d="M471 1333q-91 0 -94 -116h-119v30q5 92 56 151.5t145 59.5q46 0 90.5 -20t73.5 -44.5t64 -44.5t65 -20q91 0 94 117h119v-31q-5 -92 -56 -151.5t-145 -59.5q-45 0 -89.5 20t-74 44.5t-64.5 44.5t-65 20zM694 1067q178 0 284.5 -98t106.5 -277v-692h-180v674
q0 127 -68 189.5t-186 62.5q-138 0 -229.5 -87t-91.5 -255v-584h-180v1042h174v-153h20q102 178 350 178z" />
    <glyph glyph-name="ograve" unicode="&#xf2;" horiz-adv-x="1212" 
d="M571 1188l-215 256v31h197l166 -256v-31h-148zM86 522q0 247 142.5 396t377.5 149t377.5 -149t142.5 -396q0 -249 -142.5 -398t-377.5 -149t-377.5 149t-142.5 398zM266 522q0 -192 92.5 -299.5t247.5 -107.5t246.5 107.5t91.5 299.5q0 191 -92 298.5t-246 107.5
q-155 0 -247.5 -107.5t-92.5 -298.5z" />
    <glyph glyph-name="oacute" unicode="&#xf3;" horiz-adv-x="1212" 
d="M637 1188h-148v31l166 256h197v-31zM86 522q0 247 142.5 396t377.5 149t377.5 -149t142.5 -396q0 -249 -142.5 -398t-377.5 -149t-377.5 149t-142.5 398zM266 522q0 -192 92.5 -299.5t247.5 -107.5t246.5 107.5t91.5 299.5q0 191 -92 298.5t-246 107.5
q-155 0 -247.5 -107.5t-92.5 -298.5z" />
    <glyph glyph-name="ocircumflex" unicode="&#xf4;" horiz-adv-x="1212" 
d="M606 1374l-174 -186h-151v31l219 256h209l221 -256v-31h-152zM606 1067q235 0 377.5 -149t142.5 -396q0 -249 -142.5 -398t-377.5 -149t-377.5 149t-142.5 398q0 247 142.5 396t377.5 149zM606 115q155 0 246.5 107.5t91.5 299.5q0 191 -92 298.5t-246 107.5
q-155 0 -247.5 -107.5t-92.5 -298.5q0 -192 92.5 -299.5t247.5 -107.5z" />
    <glyph glyph-name="otilde" unicode="&#xf5;" horiz-adv-x="1212" 
d="M467 1333q-91 0 -94 -116h-119v30q5 92 56 151.5t145 59.5q46 0 90.5 -20t73.5 -44.5t64 -44.5t65 -20q91 0 94 117h119v-31q-5 -92 -56 -151.5t-145 -59.5q-45 0 -89.5 20t-74 44.5t-64.5 44.5t-65 20zM606 1067q235 0 377.5 -149t142.5 -396q0 -249 -142.5 -398
t-377.5 -149t-377.5 149t-142.5 398q0 247 142.5 396t377.5 149zM606 115q155 0 246.5 107.5t91.5 299.5q0 191 -92 298.5t-246 107.5q-155 0 -247.5 -107.5t-92.5 -298.5q0 -192 92.5 -299.5t247.5 -107.5z" />
    <glyph glyph-name="odieresis" unicode="&#xf6;" horiz-adv-x="1212" 
d="M287 1440h229v-201h-229v201zM698 1440h232v-201h-232v201zM86 522q0 247 142.5 396t377.5 149t377.5 -149t142.5 -396q0 -249 -142.5 -398t-377.5 -149t-377.5 149t-142.5 398zM266 522q0 -192 92.5 -299.5t247.5 -107.5t246.5 107.5t91.5 299.5q0 191 -92 298.5
t-246 107.5q-155 0 -247.5 -107.5t-92.5 -298.5z" />
    <glyph glyph-name="divide" unicode="&#xf7;" horiz-adv-x="1392" 
d="M578 1229h237v-207h-237v207zM193 817h1007v-143h-1007v143zM578 469h237v-207h-237v207z" />
    <glyph glyph-name="oslash" unicode="&#xf8;" horiz-adv-x="1212" 
d="M999 901q127 -146 127 -379q0 -249 -142.5 -399t-377.5 -150q-198 0 -332 109l-73 -82h-88v31l98 110q-125 150 -125 381q0 247 142.5 397t377.5 150q199 0 332 -108l72 81h88v-30zM264 522q0 -152 60 -254l510 576q-92 86 -228 86q-156 0 -249 -108.5t-93 -299.5z
M606 115q155 0 248.5 107.5t93.5 299.5q0 149 -61 252l-508 -573q86 -86 227 -86z" />
    <glyph glyph-name="ugrave" unicode="&#xf9;" horiz-adv-x="1226" 
d="M575 1188l-215 256v31h197l166 -256v-31h-148zM1077 0h-174v154h-20q-105 -177 -351 -177q-178 0 -284.5 97t-106.5 276v692h181v-673q0 -126 67.5 -188t185.5 -62q66 0 123 20.5t102 61.5t71 107.5t26 152.5v581h180v-1042z" />
    <glyph glyph-name="uacute" unicode="&#xfa;" horiz-adv-x="1226" 
d="M639 1188h-147v31l165 256h197v-31zM1077 0h-174v154h-20q-105 -177 -351 -177q-178 0 -284.5 97t-106.5 276v692h181v-673q0 -126 67.5 -188t185.5 -62q66 0 123 20.5t102 61.5t71 107.5t26 152.5v581h180v-1042z" />
    <glyph glyph-name="ucircumflex" unicode="&#xfb;" horiz-adv-x="1226" 
d="M610 1374l-174 -186h-151v31l219 256h209l221 -256v-31h-152zM897 1042h180v-1042h-174v154h-20q-105 -177 -351 -177q-178 0 -284.5 97t-106.5 276v692h181v-673q0 -126 67.5 -188t185.5 -62q66 0 123 20.5t102 61.5t71 107.5t26 152.5v581z" />
    <glyph glyph-name="udieresis" unicode="&#xfc;" horiz-adv-x="1226" 
d="M289 1440h229v-201h-229v201zM700 1440h232v-201h-232v201zM1077 0h-174v154h-20q-105 -177 -351 -177q-178 0 -284.5 97t-106.5 276v692h181v-673q0 -126 67.5 -188t185.5 -62q66 0 123 20.5t102 61.5t71 107.5t26 152.5v581h180v-1042z" />
    <glyph glyph-name="yacute" unicode="&#xfd;" horiz-adv-x="1107" 
d="M584 1188h-148v31l166 256h197v-31zM35 1042h186l324 -856h20l322 856h186v-30l-579 -1422h-185v31l150 350l-424 1041v30z" />
    <glyph glyph-name="thorn" unicode="&#xfe;" horiz-adv-x="1257" 
d="M150 1475h180v-576h20q43 67 128 117.5t216 50.5q207 0 342 -147t135 -398t-135 -398t-342 -147q-91 0 -165.5 29t-113 63t-65.5 74h-20v-553h-180v1885zM319 522q0 -191 93 -298t243 -107q149 0 241.5 107.5t92.5 297.5q0 189 -93 297.5t-241 108.5q-150 0 -243 -108
t-93 -298z" />
    <glyph glyph-name="ydieresis" unicode="&#xff;" horiz-adv-x="1107" 
d="M233 1440h230v-201h-230v201zM645 1440h232v-201h-232v201zM35 1042h186l324 -856h20l322 856h186v-30l-579 -1422h-185v31l150 350l-424 1041v30z" />
    <glyph glyph-name="Amacron" unicode="&#x100;" horiz-adv-x="1419" 
d="M381 1739h661v-131h-661v131zM51 0v31l539 1444h241l537 -1444v-31h-184l-154 416h-641l-151 -416h-187zM440 565h539l-258 711h-21z" />
    <glyph glyph-name="amacron" unicode="&#x101;" horiz-adv-x="1165" 
d="M258 1348h645v-131h-645v131zM115 709v30q27 149 152 238.5t317 89.5q200 0 320 -100.5t120 -286.5v-680h-174v154h-21q-108 -177 -362 -177q-170 0 -275.5 80.5t-105.5 218.5q0 140 100.5 216t270.5 92l389 37v63q0 125 -69 186.5t-197 61.5q-127 0 -202.5 -57.5
t-88.5 -165.5h-174zM266 285q0 -78 63 -125t169 -47q151 0 249.5 88.5t98.5 257.5v28l-365 -34q-215 -19 -215 -168z" />
    <glyph glyph-name="Abreve" unicode="&#x102;" horiz-adv-x="1419" 
d="M711 1573q-154 0 -238.5 69.5t-97.5 172.5v28h147q5 -63 51.5 -104t137.5 -41t137 41t51 104h148v-28q-13 -103 -97.5 -172.5t-238.5 -69.5zM831 1475l537 -1444v-31h-184l-154 416h-641l-151 -416h-187v31l539 1444h241zM440 565h539l-258 711h-21z" />
    <glyph glyph-name="abreve" unicode="&#x103;" horiz-adv-x="1165" 
d="M580 1176q-152 0 -237.5 78t-92.5 190v31h139q0 -76 51.5 -126.5t139.5 -50.5q87 0 138.5 50.5t51.5 126.5h137v-31q-7 -112 -91.5 -190t-235.5 -78zM584 1067q200 0 320 -100.5t120 -286.5v-680h-174v154h-21q-108 -177 -362 -177q-170 0 -275.5 80.5t-105.5 218.5
q0 140 100.5 216t270.5 92l389 37v63q0 125 -69 186.5t-197 61.5q-127 0 -202.5 -57.5t-88.5 -165.5h-174v30q27 149 152 238.5t317 89.5zM846 459v28l-365 -34q-215 -19 -215 -168q0 -78 63 -125t169 -47q151 0 249.5 88.5t98.5 257.5z" />
    <glyph glyph-name="Aogonek" unicode="&#x104;" horiz-adv-x="1419" 
d="M1356 -268h30v-127q-89 -39 -161 -39q-95 0 -157 54.5t-62 143.5q0 44 16 82t44.5 66.5t54.5 46.5t61 37l-125 348l-27 72h-641l-151 -416h-187v31l539 1444h241l537 -1444v-31q-227 -66 -227 -199q0 -50 29.5 -79t76.5 -29q53 0 109 39zM440 565h539l-258 711h-21z" />
    <glyph glyph-name="aogonek" unicode="&#x105;" horiz-adv-x="1165" 
d="M1024 0q-246 -59 -246 -199q0 -50 31 -79t78 -29q57 0 106 39h31v-127q-84 -39 -160 -39q-95 0 -157 54.5t-62 143.5q0 85 56.5 144.5t148.5 95.5v150h-21q-108 -177 -362 -177q-170 0 -275.5 80.5t-105.5 218.5q0 140 100.5 216t270.5 92l389 37v63q0 125 -69 186.5
t-197 61.5q-127 0 -202.5 -57.5t-88.5 -165.5h-174v30q27 149 152 238.5t317 89.5q200 0 320 -100.5t120 -286.5v-680zM846 459v28l-365 -34q-215 -19 -215 -168q0 -78 63 -125t169 -47q151 0 249.5 88.5t98.5 257.5z" />
    <glyph glyph-name="Cacute" unicode="&#x106;" horiz-adv-x="1554" 
d="M852 1585h-158v31l158 227h217v-31zM92 737q0 176 54.5 320.5t152 241t233 148.5t295.5 52q123 0 226.5 -29.5t173.5 -76.5t122 -110t78.5 -127t34.5 -130v-31h-178q-5 48 -22 94.5t-52.5 94.5t-85 83.5t-126.5 58t-171 22.5q-248 0 -398 -163.5t-150 -447.5t150 -447
t398 -163q94 0 171.5 23t127.5 59t87.5 84t56 93.5t26.5 92.5h179v-30q-11 -62 -38.5 -124.5t-80.5 -126.5t-124 -112.5t-176 -79.5t-229 -31q-160 0 -295.5 52t-233 148.5t-152 241t-54.5 320.5z" />
    <glyph glyph-name="cacute" unicode="&#x107;" horiz-adv-x="1144" 
d="M637 1188h-148v31l166 256h197v-31zM86 522q0 248 143.5 396.5t378.5 148.5q106 0 191.5 -30t138.5 -80.5t84 -106.5t43 -117v-31h-166q-7 40 -25.5 77t-51.5 72t-87.5 56t-124.5 21q-155 0 -249.5 -108t-94.5 -298q0 -192 94 -299.5t250 -107.5q136 0 206.5 68.5
t90.5 174.5h168v-30q-8 -51 -29.5 -99.5t-60 -95t-90.5 -81.5t-126 -56t-161 -21q-235 0 -378.5 149.5t-143.5 397.5z" />
    <glyph glyph-name="Cdotaccent" unicode="&#x10a;" horiz-adv-x="1554" 
d="M700 1800h261v-201h-261v201zM92 737q0 176 54.5 320.5t152 241t233 148.5t295.5 52q123 0 226.5 -29.5t173.5 -76.5t122 -110t78.5 -127t34.5 -130v-31h-178q-5 48 -22 94.5t-52.5 94.5t-85 83.5t-126.5 58t-171 22.5q-248 0 -398 -163.5t-150 -447.5t150 -447t398 -163
q94 0 171.5 23t127.5 59t87.5 84t56 93.5t26.5 92.5h179v-30q-11 -62 -38.5 -124.5t-80.5 -126.5t-124 -112.5t-176 -79.5t-229 -31q-160 0 -295.5 52t-233 148.5t-152 241t-54.5 320.5z" />
    <glyph glyph-name="cdotaccent" unicode="&#x10b;" horiz-adv-x="1144" 
d="M483 1440h250v-201h-250v201zM86 522q0 248 143.5 396.5t378.5 148.5q106 0 191.5 -30t138.5 -80.5t84 -106.5t43 -117v-31h-166q-7 40 -25.5 77t-51.5 72t-87.5 56t-124.5 21q-155 0 -249.5 -108t-94.5 -298q0 -192 94 -299.5t250 -107.5q136 0 206.5 68.5t90.5 174.5
h168v-30q-8 -51 -29.5 -99.5t-60 -95t-90.5 -81.5t-126 -56t-161 -21q-235 0 -378.5 149.5t-143.5 397.5z" />
    <glyph glyph-name="Ccaron" unicode="&#x10c;" horiz-adv-x="1554" 
d="M719 1585l-266 221v37h178l200 -157l199 157h178v-37l-264 -221h-225zM1296 479h179v-30q-11 -62 -38.5 -124.5t-80.5 -126.5t-124 -112.5t-176 -79.5t-229 -31q-160 0 -295.5 52t-233 148.5t-152 241t-54.5 320.5t54.5 320.5t152 241t233 148.5t295.5 52
q123 0 226.5 -29.5t173.5 -76.5t122 -110t78.5 -127t34.5 -130v-31h-178q-5 48 -22 94.5t-52.5 94.5t-85 83.5t-126.5 58t-171 22.5q-248 0 -398 -163.5t-150 -447.5t150 -447t398 -163q94 0 171.5 23t127.5 59t87.5 84t56 93.5t26.5 92.5z" />
    <glyph glyph-name="ccaron" unicode="&#x10d;" horiz-adv-x="1144" 
d="M502 1188l-219 256v31h151l174 -185l172 185h152v-31l-221 -256h-209zM907 358h168v-30q-8 -51 -29.5 -99.5t-60 -95t-90.5 -81.5t-126 -56t-161 -21q-235 0 -378.5 149.5t-143.5 397.5t143.5 396.5t378.5 148.5q106 0 191.5 -30t138.5 -80.5t84 -106.5t43 -117v-31h-166
q-7 40 -25.5 77t-51.5 72t-87.5 56t-124.5 21q-155 0 -249.5 -108t-94.5 -298q0 -192 94 -299.5t250 -107.5q136 0 206.5 68.5t90.5 174.5z" />
    <glyph glyph-name="Dcaron" unicode="&#x10e;" horiz-adv-x="1505" 
d="M584 1585l-267 221v37h179l200 -157l199 157h178v-37l-264 -221h-225zM690 1475q329 0 527 -199t198 -539t-198 -538.5t-527 -198.5h-524v1475h524zM688 156q248 0 393.5 154.5t145.5 426.5t-145.5 427t-393.5 155h-334v-1163h334z" />
    <glyph glyph-name="dcaron" unicode="&#x10f;" horiz-adv-x="1447" 
d="M1108 0h-176v147h-21q-45 -69 -130.5 -119.5t-217.5 -50.5q-208 0 -342.5 146.5t-134.5 398.5t134.5 398.5t342.5 146.5q131 0 216 -50.5t128 -117.5h21v576h180v-1475zM1374 1094h-114v30l26 351h168v-31zM936 522q0 190 -92.5 298t-241.5 108q-150 0 -243 -108
t-93 -298q0 -191 93 -298t243 -107t242 107t92 298z" />
    <glyph glyph-name="Dcroat" unicode="&#x110;" horiz-adv-x="1619" 
d="M805 1475q329 0 527 -199t198 -539t-198 -538.5t-527 -198.5h-524v702h-211v91h211v682h524zM803 156q248 0 393 154.5t145 426.5t-145 427t-393 155h-334v-526h256v-91h-256v-546h334z" />
    <glyph glyph-name="dcroat" unicode="&#x111;" horiz-adv-x="1363" 
d="M1313 1307v-88h-205v-1219h-176v147h-21q-45 -69 -130.5 -119.5t-217.5 -50.5q-208 0 -342.5 146.5t-134.5 398.5t134.5 398.5t342.5 146.5q131 0 216 -50.5t128 -117.5h21v320h-248v88h248v168h180v-168h205zM602 117q150 0 242 107t92 298q0 190 -92.5 298t-241.5 108
q-150 0 -243 -108t-93 -298q0 -191 93 -298t243 -107z" />
    <glyph glyph-name="Emacron" unicode="&#x112;" horiz-adv-x="1300" 
d="M354 1739h662v-131h-662v131zM166 1475h1034v-156h-846v-485h744v-156h-744v-522h867v-156h-1055v1475z" />
    <glyph glyph-name="emacron" unicode="&#x113;" horiz-adv-x="1181" 
d="M283 1348h645v-131h-645v131zM86 522q0 248 140.5 396.5t375.5 148.5q231 0 362.5 -141.5t131.5 -368.5v-78h-826q3 -164 93.5 -266t242.5 -102q70 0 127 21t92 56t55.5 73.5t28.5 80.5h172v-31q-9 -43 -29.5 -85.5t-59.5 -89t-90.5 -81.5t-128.5 -57.5t-167 -22.5
q-238 0 -379 149t-141 398zM270 614h648q-5 141 -87 229.5t-229 88.5q-145 0 -232.5 -89t-99.5 -229z" />
    <glyph glyph-name="Edotaccent" unicode="&#x116;" horiz-adv-x="1300" 
d="M553 1800h260v-201h-260v201zM166 1475h1034v-156h-846v-485h744v-156h-744v-522h867v-156h-1055v1475z" />
    <glyph glyph-name="edotaccent" unicode="&#x117;" horiz-adv-x="1181" 
d="M479 1438h250v-201h-250v201zM86 522q0 248 140.5 396.5t375.5 148.5q231 0 362.5 -141.5t131.5 -368.5v-78h-826q3 -164 93.5 -266t242.5 -102q70 0 127 21t92 56t55.5 73.5t28.5 80.5h172v-31q-9 -43 -29.5 -85.5t-59.5 -89t-90.5 -81.5t-128.5 -57.5t-167 -22.5
q-238 0 -379 149t-141 398zM270 614h648q-5 141 -87 229.5t-229 88.5q-145 0 -232.5 -89t-99.5 -229z" />
    <glyph glyph-name="Eogonek" unicode="&#x118;" horiz-adv-x="1300" 
d="M1221 0q-246 -64 -246 -199q0 -50 30.5 -79t77.5 -29q51 0 107 39h31v-127q-85 -39 -162 -39q-94 0 -156.5 54.5t-62.5 143.5q0 43 14 78.5t41.5 63t46.5 42t49 32.5v20h-825v1475h1034v-156h-846v-485h744v-156h-744v-522h867v-156z" />
    <glyph glyph-name="eogonek" unicode="&#x119;" horiz-adv-x="1181" 
d="M1096 557v-78h-826q3 -164 93.5 -266t242.5 -102q70 0 127 21t92 56t55.5 73.5t28.5 80.5h172v-31q-18 -81 -77 -161t-162 -127q-120 -65 -167.5 -113.5t-47.5 -108.5q0 -50 29.5 -79t76.5 -29q53 0 109 39h30v-127q-84 -39 -161 -39q-95 0 -157 54.5t-62 143.5
q0 118 114 189v22q-238 0 -379 149t-141 398q0 248 140.5 396.5t375.5 148.5q231 0 362.5 -141.5t131.5 -368.5zM270 614h648q-5 141 -87 229.5t-229 88.5q-145 0 -232.5 -89t-99.5 -229z" />
    <glyph glyph-name="Ecaron" unicode="&#x11a;" horiz-adv-x="1300" 
d="M571 1585l-266 221v37h178l201 -157l199 157h178v-37l-264 -221h-226zM354 156h867v-156h-1055v1475h1034v-156h-846v-485h744v-156h-744v-522z" />
    <glyph glyph-name="ecaron" unicode="&#x11b;" horiz-adv-x="1181" 
d="M498 1188l-219 256v31h151l174 -185l172 185h152v-31l-221 -256h-209zM1096 557v-78h-826q3 -164 93.5 -266t242.5 -102q70 0 127 21t92 56t55.5 73.5t28.5 80.5h172v-31q-9 -43 -29.5 -85.5t-59.5 -89t-90.5 -81.5t-128.5 -57.5t-167 -22.5q-238 0 -379 149t-141 398
q0 248 140.5 396.5t375.5 148.5q231 0 362.5 -141.5t131.5 -368.5zM270 614h648q-5 141 -87 229.5t-229 88.5q-145 0 -232.5 -89t-99.5 -229z" />
    <glyph glyph-name="Gbreve" unicode="&#x11e;" horiz-adv-x="1595" 
d="M836 1573q-154 0 -238.5 69.5t-97.5 172.5v28h147q5 -63 51.5 -104t137.5 -41t137 41t51 104h147v-28q-13 -103 -97 -172.5t-238 -69.5zM836 1348q-255 0 -406 -165t-151 -448t149.5 -445.5t400.5 -162.5q115 0 205 36.5t144 98.5t82 138.5t30 162.5h-506v146h678v-709
h-131l-41 190h-20q-153 -213 -461 -213q-152 0 -283 52t-227.5 147.5t-151.5 239.5t-55 319q0 177 55.5 321.5t154 241t235.5 149t299 52.5q122 0 225 -29t175 -77t125 -112t81 -132t37 -139v-31h-179q-4 51 -21.5 100t-53.5 98.5t-87 86.5t-129 60.5t-173 23.5z" />
    <glyph glyph-name="gbreve" unicode="&#x11f;" horiz-adv-x="1241" 
d="M616 1176q-152 0 -237 78t-92 190v31h139q0 -76 51 -126.5t139 -50.5q87 0 139 50.5t52 126.5h137v-31q-7 -111 -92 -189.5t-236 -78.5zM967 1042h127v-983q0 -229 -129 -360t-373 -131q-113 0 -203.5 28t-148 76.5t-92 104t-50.5 119.5v30h166q54 -223 324 -223
q164 0 244.5 91.5t80.5 256.5v119h-20q-114 -158 -336 -158q-202 0 -336.5 143.5t-134.5 383.5q0 121 37.5 221.5t102 167t151 103t184.5 36.5q230 0 344 -170h21zM594 152q145 0 236.5 103t91.5 284q0 182 -91.5 285.5t-236.5 103.5t-236.5 -103.5t-91.5 -285.5
q0 -181 91.5 -284t236.5 -103z" />
    <glyph glyph-name="Gdotaccent" unicode="&#x120;" horiz-adv-x="1595" 
d="M707 1800h260v-201h-260v201zM92 735q0 177 55.5 321.5t154 241t235.5 149t299 52.5q122 0 225 -29t175 -77t125 -112t81 -132t37 -139v-31h-179q-4 51 -21.5 100t-53.5 98.5t-87 86.5t-129 60.5t-173 23.5q-255 0 -406 -165t-151 -448t149.5 -445.5t400.5 -162.5
q115 0 205 36.5t144 98.5t82 138.5t30 162.5h-506v146h678v-709h-131l-41 190h-20q-153 -213 -461 -213q-152 0 -283 52t-227.5 147.5t-151.5 239.5t-55 319z" />
    <glyph glyph-name="gdotaccent" unicode="&#x121;" horiz-adv-x="1241" 
d="M489 1440h250v-201h-250v201zM86 539q0 121 37.5 221.5t102 167t151 103t184.5 36.5q230 0 344 -170h21l41 145h127v-983q0 -229 -129 -360t-373 -131q-113 0 -203.5 28t-148 76.5t-92 104t-50.5 119.5v30h166q54 -223 324 -223q164 0 244.5 91.5t80.5 256.5v119h-20
q-114 -158 -336 -158q-202 0 -336.5 143.5t-134.5 383.5zM266 539q0 -181 91.5 -284t236.5 -103t236.5 103t91.5 284q0 182 -91.5 285.5t-236.5 103.5t-236.5 -103.5t-91.5 -285.5z" />
    <glyph glyph-name="uni0122" unicode="&#x122;" horiz-adv-x="1595" 
d="M836 1348q-255 0 -406 -165t-151 -448t149.5 -445.5t400.5 -162.5q115 0 205 36.5t144 98.5t82 138.5t30 162.5h-506v146h678v-709h-131l-41 190h-20q-153 -213 -461 -213q-152 0 -283 52t-227.5 147.5t-151.5 239.5t-55 319q0 177 55.5 321.5t154 241t235.5 149
t299 52.5q122 0 225 -29t175 -77t125 -112t81 -132t37 -139v-31h-179q-4 51 -21.5 100t-53.5 98.5t-87 86.5t-129 60.5t-173 23.5zM705 -299v190h256v-206q0 -109 -60.5 -165.5t-165.5 -56.5h-55v109h51q56 0 82.5 27t26.5 86v16h-135z" />
    <glyph glyph-name="uni0123" unicode="&#x123;" horiz-adv-x="1241" 
d="M743 1407v-190h-256v208q0 109 60.5 164.5t165.5 55.5h55v-107h-51q-56 0 -82.5 -27t-26.5 -86v-18h135zM967 1042h127v-983q0 -229 -129 -360t-373 -131q-113 0 -203.5 28t-148 76.5t-92 104t-50.5 119.5v30h166q54 -223 324 -223q164 0 244.5 91.5t80.5 256.5v119h-20
q-114 -158 -336 -158q-202 0 -336.5 143.5t-134.5 383.5q0 121 37.5 221.5t102 167t151 103t184.5 36.5q230 0 344 -170h21zM594 152q145 0 236.5 103t91.5 284q0 182 -91.5 285.5t-236.5 103.5t-236.5 -103.5t-91.5 -285.5q0 -181 91.5 -284t236.5 -103z" />
    <glyph glyph-name="Hbar" unicode="&#x126;" horiz-adv-x="1699" 
d="M1630 1198v-92h-211v-1106h-188v668h-762v-668h-188v1106h-211v92h211v277h188v-277h762v277h188v-277h211zM1231 823v283h-762v-283h762z" />
    <glyph glyph-name="hbar" unicode="&#x127;" horiz-adv-x="1333" 
d="M801 1067q177 0 285 -97.5t108 -275.5v-694h-180v676q0 126 -68.5 189t-187.5 63q-138 0 -230 -88t-92 -256v-584h-180v1219h-205v88h205v168h180v-168h248v-88h-248v-322h21q108 170 344 170z" />
    <glyph glyph-name="Itilde" unicode="&#x128;" horiz-adv-x="522" 
d="M506 1823h125v-31q-7 -89 -59.5 -147t-149.5 -58q-49 0 -96.5 19.5t-79 43t-70 43t-72.5 19.5q-96 0 -96 -108h-123v30q5 89 58 148t149 59q49 0 97.5 -19.5t79.5 -43t70 -43t73 -19.5q94 0 94 107zM258 1712v4h-2v-4h2zM166 1475h188v-1475h-188v1475z" />
    <glyph glyph-name="itilde" unicode="&#x129;" horiz-adv-x="477" 
d="M473 1446h119v-31q-5 -92 -56 -151.5t-145 -59.5q-45 0 -89.5 20t-74 44.5t-64.5 44.5t-65 20q-91 0 -94 -116h-119v30q5 92 56 151.5t145 59.5q46 0 90.5 -20t73.5 -44.5t64 -44.5t65 -20q91 0 94 117zM150 1042h180v-1042h-180v1042z" />
    <glyph glyph-name="Imacron" unicode="&#x12a;" horiz-adv-x="522" 
d="M-70 1739h662v-131h-662v131zM166 1475h188v-1475h-188v1475z" />
    <glyph glyph-name="imacron" unicode="&#x12b;" horiz-adv-x="477" 
d="M-84 1348h645v-131h-645v131zM150 1042h180v-1042h-180v1042z" />
    <glyph glyph-name="Iogonek" unicode="&#x12e;" horiz-adv-x="509" 
d="M387 -268h31v-127q-85 -39 -162 -39q-94 0 -156.5 54.5t-62.5 143.5q0 30 9.5 59t19 46.5t32 41.5t30 30.5t31.5 25.5l3.5 3.5t3.5 2.5v1502h188v-1475q-182 -75 -182 -199q0 -50 31 -79t78 -29q50 0 106 39z" />
    <glyph glyph-name="iogonek" unicode="&#x12f;" horiz-adv-x="477" 
d="M365 1440v-201h-250v201h250zM365 -268h30v-127q-89 -39 -162 -39q-95 0 -157 54.5t-62 143.5q0 118 136 211v1067h180v-1042q-180 -78 -180 -199q0 -50 29.5 -79t76.5 -29q53 0 109 39z" />
    <glyph glyph-name="Idotaccent" unicode="&#x130;" horiz-adv-x="522" 
d="M129 1800h260v-201h-260v201zM166 1475h188v-1475h-188v1475z" />
    <glyph glyph-name="dotlessi" unicode="&#x131;" horiz-adv-x="477" 
d="M150 1042h180v-1042h-180v1042z" />
    <glyph glyph-name="IJ" unicode="&#x132;" horiz-adv-x="1267" 
d="M158 1475h188v-779h-188v779zM922 1475h188v-1039q0 -222 -118.5 -341.5t-356.5 -119.5q-234 0 -355.5 118t-121.5 325h188q0 -136 72.5 -213.5t216.5 -77.5q287 0 287 307v1041z" />
    <glyph glyph-name="ij" unicode="&#x133;" horiz-adv-x="958" 
d="M365 1440v-201h-250v201h250zM582 1440h249v-201h-249v201zM150 1042h180v-1042h-180v1042zM631 1042h180v-1198q0 -125 -69.5 -189.5t-198.5 -64.5h-178v140h249l17 16v1296z" />
    <glyph glyph-name="uni0136" unicode="&#x136;" horiz-adv-x="1464" 
d="M805 909l610 -878v-31h-203l-540 788l-318 -284v-504h-188v1475h188v-725h21l799 725h227v-31zM633 -299v190h256v-206q0 -109 -60.5 -165.5t-164.5 -56.5h-56v109h51q56 0 82.5 27t26.5 86v16h-135z" />
    <glyph glyph-name="uni0137" unicode="&#x137;" horiz-adv-x="1189" 
d="M678 643l465 -612v-31h-191l-401 539l-221 -183v-356h-180v1475h180v-897h20l555 464h221v-30zM483 -299v190h256v-206q0 -109 -60.5 -165.5t-164.5 -56.5h-55v109h51q56 0 82 26.5t26 86.5v16h-135z" />
    <glyph glyph-name="Lacute" unicode="&#x139;" horiz-adv-x="1200" 
d="M283 1585h-158v31l158 227h217v-31zM166 1475h188v-1319h799v-156h-987v1475z" />
    <glyph glyph-name="lacute" unicode="&#x13a;" horiz-adv-x="477" 
d="M260 1843h217v-31l-217 -227h-158v31zM150 1475h180v-1475h-180v1475z" />
    <glyph glyph-name="uni013B" unicode="&#x13b;" horiz-adv-x="1200" 
d="M354 156h799v-156h-987v1475h188v-1319zM532 -299v190h256v-206q0 -109 -60.5 -165.5t-164.5 -56.5h-55v109h51q56 0 82.5 27t26.5 86v16h-136z" />
    <glyph glyph-name="uni013C" unicode="&#x13c;" horiz-adv-x="477" 
d="M330 0h-180v1475h180v-1475zM111 -109h256v-206q0 -109 -60.5 -165.5t-165.5 -56.5h-55v109h51q56 0 82.5 27t26.5 86v16h-135v190z" />
    <glyph glyph-name="Lcaron" unicode="&#x13d;" horiz-adv-x="1200" 
d="M166 1475h188v-1319h799v-156h-987v1475zM631 1094h-125v30l29 351h172v-31z" />
    <glyph glyph-name="lcaron" unicode="&#x13e;" horiz-adv-x="675" 
d="M150 1475h180v-1475h-180v1475zM508 1475h174v-31l-78 -350h-125v30z" />
    <glyph glyph-name="Ldot" unicode="&#x13f;" horiz-adv-x="1200" 
d="M166 1475h188v-1319h799v-156h-987v1475zM725 899h244v-219h-244v219z" />
    <glyph glyph-name="ldot" unicode="&#x140;" horiz-adv-x="788" 
d="M150 1475h180v-1475h-180v1475zM518 649h230v-215h-230v215z" />
    <glyph glyph-name="Lslash" unicode="&#x141;" horiz-adv-x="1314" 
d="M469 156h799v-156h-987v633l-181 -78h-30v117l211 90v713h188v-631l231 98h31v-117l-262 -112v-557z" />
    <glyph glyph-name="lslash" unicode="&#x142;" horiz-adv-x="770" 
d="M709 926v-115l-248 -113v-698h-180v616l-181 -81h-30v114l211 96v730h180v-648l217 99h31z" />
    <glyph glyph-name="Nacute" unicode="&#x143;" horiz-adv-x="1503" 
d="M774 1585h-158v31l158 227h217v-31zM166 1475h229l738 -1207h20v1207h182v-1475h-229l-735 1206h-21v-1206h-184v1475z" />
    <glyph glyph-name="nacute" unicode="&#x144;" horiz-adv-x="1226" 
d="M641 1188h-147v31l165 256h197v-31zM150 1042h174v-153h20q102 178 350 178q178 0 284.5 -98t106.5 -277v-692h-180v674q0 127 -68 189.5t-186 62.5q-138 0 -229.5 -87t-91.5 -255v-584h-180v1042z" />
    <glyph glyph-name="uni0145" unicode="&#x145;" horiz-adv-x="1503" 
d="M1153 1475h182v-1475h-229l-735 1206h-21v-1206h-184v1475h229l738 -1207h20v1207zM643 -299v190h256v-206q0 -109 -60.5 -165.5t-164.5 -56.5h-56v109h52q56 0 82 26.5t26 86.5v16h-135z" />
    <glyph glyph-name="uni0146" unicode="&#x146;" horiz-adv-x="1226" 
d="M694 1067q178 0 284.5 -98t106.5 -277v-692h-180v674q0 127 -68 189.5t-186 62.5q-138 0 -229.5 -87t-91.5 -255v-584h-180v1042h174v-153h20q102 178 350 178zM489 -299v190h256v-206q0 -109 -60.5 -165.5t-164.5 -56.5h-55v109h51q56 0 82.5 27t26.5 86v16h-136z" />
    <glyph glyph-name="Ncaron" unicode="&#x147;" horiz-adv-x="1503" 
d="M639 1585l-266 221v37h178l201 -157l198 157h178v-37l-264 -221h-225zM1153 1475h182v-1475h-229l-735 1206h-21v-1206h-184v1475h229l738 -1207h20v1207z" />
    <glyph glyph-name="ncaron" unicode="&#x148;" horiz-adv-x="1226" 
d="M506 1188l-219 256v31h151l174 -185l172 185h152v-31l-221 -256h-209zM694 1067q178 0 284.5 -98t106.5 -277v-692h-180v674q0 127 -68 189.5t-186 62.5q-138 0 -229.5 -87t-91.5 -255v-584h-180v1042h174v-153h20q102 178 350 178z" />
    <glyph glyph-name="Eng" unicode="&#x14a;" horiz-adv-x="1503" 
d="M1153 1475h182v-1631q0 -125 -69 -189.5t-199 -64.5h-172v136h244l16 16v258h-49l-735 1206h-21v-1206h-184v1475h229l738 -1207h20v1207z" />
    <glyph glyph-name="eng" unicode="&#x14b;" horiz-adv-x="1226" 
d="M150 0v1042h174v-153h20q102 178 350 178q178 0 284.5 -98t106.5 -277v-848q0 -125 -69 -189.5t-199 -64.5h-172v136h244l16 16v932q0 127 -68 189.5t-186 62.5q-138 0 -229.5 -87t-91.5 -255v-584h-180z" />
    <glyph glyph-name="Omacron" unicode="&#x14c;" horiz-adv-x="1658" 
d="M500 1739h661v-131h-661v131zM92 737q0 177 54.5 321t152.5 240.5t233.5 148.5t296.5 52t297 -52t234.5 -148.5t153.5 -241t55 -320.5t-55 -320.5t-153.5 -241t-234.5 -148.5t-297 -52t-296.5 52t-233.5 148.5t-152.5 240.5t-54.5 321zM279 737q0 -285 149.5 -447.5
t400.5 -162.5q252 0 401.5 163t149.5 447q0 285 -150 448t-401 163t-400.5 -163t-149.5 -448z" />
    <glyph glyph-name="omacron" unicode="&#x14d;" horiz-adv-x="1212" 
d="M283 1348h645v-131h-645v131zM86 522q0 247 142.5 396t377.5 149t377.5 -149t142.5 -396q0 -249 -142.5 -398t-377.5 -149t-377.5 149t-142.5 398zM266 522q0 -192 92.5 -299.5t247.5 -107.5t246.5 107.5t91.5 299.5q0 191 -92 298.5t-246 107.5q-155 0 -247.5 -107.5
t-92.5 -298.5z" />
    <glyph glyph-name="Ohungarumlaut" unicode="&#x150;" horiz-adv-x="1658" 
d="M666 1585h-131v31l112 227h187v-31zM1024 1585h-143v31l141 227h201v-31zM92 737q0 177 54.5 321t152.5 240.5t233.5 148.5t296.5 52t297 -52t234.5 -148.5t153.5 -241t55 -320.5t-55 -320.5t-153.5 -241t-234.5 -148.5t-297 -52t-296.5 52t-233.5 148.5t-152.5 240.5
t-54.5 321zM279 737q0 -285 149.5 -447.5t400.5 -162.5q252 0 401.5 163t149.5 447q0 285 -150 448t-401 163t-400.5 -163t-149.5 -448z" />
    <glyph glyph-name="ohungarumlaut" unicode="&#x151;" horiz-adv-x="1212" 
d="M465 1188h-129v31l113 256h186v-31zM801 1188h-137v31l153 256h191v-31zM86 522q0 247 142.5 396t377.5 149t377.5 -149t142.5 -396q0 -249 -142.5 -398t-377.5 -149t-377.5 149t-142.5 398zM266 522q0 -192 92.5 -299.5t247.5 -107.5t246.5 107.5t91.5 299.5
q0 191 -92 298.5t-246 107.5q-155 0 -247.5 -107.5t-92.5 -298.5z" />
    <glyph glyph-name="OE" unicode="&#x152;" horiz-adv-x="1992" 
d="M92 737q0 233 107.5 401t296 252.5t438.5 84.5h958v-156h-749v-485h647v-156h-647v-522h770v-156h-979q-186 0 -340.5 49t-266 141t-173.5 232t-62 315zM279 737q0 -269 178.5 -425t498.5 -156v1163q-320 0 -498.5 -156t-178.5 -426z" />
    <glyph glyph-name="oe" unicode="&#x153;" horiz-adv-x="2054" 
d="M1968 557v-78h-825q3 -164 93.5 -266t242.5 -102q70 0 127 21t92 56t55.5 73.5t28.5 80.5h172v-31q-9 -43 -29.5 -85.5t-59.5 -89t-90.5 -81.5t-128.5 -57.5t-167 -22.5q-143 0 -254 59.5t-176 168.5h-21q-66 -109 -174.5 -168.5t-251.5 -59.5q-234 0 -375 149t-141 398
q0 247 141 396t375 149q143 0 252 -59t174 -168h21q65 108 175 167.5t251 59.5q231 0 362 -141.5t131 -368.5zM1143 614h647q-5 141 -86.5 229.5t-228.5 88.5q-145 0 -232.5 -89t-99.5 -229zM604 115q155 0 246.5 107.5t91.5 299.5q0 191 -92 298.5t-246 107.5t-246 -107.5
t-92 -298.5q0 -192 91.5 -299.5t246.5 -107.5z" />
    <glyph glyph-name="Racute" unicode="&#x154;" horiz-adv-x="1396" 
d="M920 1812l-218 -227h-157v31l157 227h218v-31zM1317 1049q0 -179 -111 -291t-286 -131l378 -596v-31h-198l-389 623h-357v-623h-188v1475h690q197 0 329 -115.5t132 -310.5zM354 1319v-541h469q138 0 221.5 71.5t83.5 199.5t-83.5 199t-221.5 71h-469z" />
    <glyph glyph-name="racute" unicode="&#x155;" horiz-adv-x="755" 
d="M449 1188h-148v31l166 256h197v-31zM150 1042h174v-141h20q32 68 90.5 107t165.5 39h107v-144h-105q-144 0 -208 -80.5t-64 -244.5v-578h-180v1042z" />
    <glyph glyph-name="uni0156" unicode="&#x156;" horiz-adv-x="1396" 
d="M1317 1049q0 -179 -111 -291t-286 -131l378 -596v-31h-198l-389 623h-357v-623h-188v1475h690q197 0 329 -115.5t132 -310.5zM354 1319v-541h469q138 0 221.5 71.5t83.5 199.5t-83.5 199t-221.5 71h-469zM575 -299v190h256v-206q0 -109 -60.5 -165.5t-164.5 -56.5h-55
v109h51q56 0 82.5 27t26.5 86v16h-136z" />
    <glyph glyph-name="uni0157" unicode="&#x157;" horiz-adv-x="755" 
d="M600 1047h107v-144h-105q-144 0 -208 -80.5t-64 -244.5v-578h-180v1042h174v-141h20q32 68 90.5 107t165.5 39zM111 -299v190h256v-206q0 -109 -60.5 -165.5t-165.5 -56.5h-55v109h51q56 0 82.5 27t26.5 86v16h-135z" />
    <glyph glyph-name="Rcaron" unicode="&#x158;" horiz-adv-x="1396" 
d="M567 1585l-266 221v37h178l201 -157l199 157h178v-37l-264 -221h-226zM1317 1049q0 -179 -111 -291t-286 -131l378 -596v-31h-198l-389 623h-357v-623h-188v1475h690q197 0 329 -115.5t132 -310.5zM354 1319v-541h469q138 0 221.5 71.5t83.5 199.5t-83.5 199t-221.5 71
h-469z" />
    <glyph glyph-name="rcaron" unicode="&#x159;" horiz-adv-x="755" 
d="M590 1475h151v-31l-221 -256h-209l-219 256v31h152l174 -185zM344 901q32 68 90.5 107t165.5 39h107v-144h-105q-144 0 -208 -80.5t-64 -244.5v-578h-180v1042h174v-141h20z" />
    <glyph glyph-name="Sacute" unicode="&#x15a;" horiz-adv-x="1366" 
d="M711 1585h-158v31l158 227h217v-31zM125 1096q0 180 153 290.5t410 110.5q259 0 415 -116.5t175 -321.5v-31h-180q-9 164 -120.5 243t-287.5 79q-169 0 -273 -66t-104 -184q0 -56 22 -97t69 -69.5t101 -46.5t138 -37l154 -35q117 -27 197 -57.5t146.5 -77.5t99 -116.5
t32.5 -162.5q0 -194 -153 -309t-419 -115q-268 0 -435.5 121t-196.5 338v31h180q21 -178 142.5 -260t307.5 -82q175 0 280 68.5t105 195.5q0 51 -17.5 90t-44.5 65t-75.5 47t-92.5 33.5t-114 28.5l-153 35q-227 51 -344 145t-117 263z" />
    <glyph glyph-name="sacute" unicode="&#x15b;" horiz-adv-x="1075" 
d="M569 1188h-147v31l166 256h196v-31zM106 764q0 140 117 221.5t318 81.5q198 0 314.5 -81t137.5 -224v-31h-168q-7 101 -82 151t-202 50q-122 0 -191 -42.5t-69 -117.5q0 -70 50.5 -104.5t145.5 -51.5l170 -30q83 -15 144 -36t110.5 -55t74.5 -85t25 -119
q0 -142 -116 -229t-326 -87q-212 0 -338.5 89.5t-150.5 244.5v31h170q13 -116 97 -172.5t220 -56.5q129 0 199.5 46t70.5 124q0 69 -54 102.5t-167 54.5l-170 31q-158 28 -244 97.5t-86 197.5z" />
    <glyph glyph-name="Scedilla" unicode="&#x15e;" horiz-adv-x="1366" 
d="M690 1350q-169 0 -273 -66t-104 -184q0 -56 22 -97t69 -69.5t101 -46.5t138 -37l154 -35q117 -27 197 -57.5t146.5 -77.5t99 -116.5t32.5 -162.5q0 -184 -138 -297.5t-382 -123.5l-21 -93l49 4q80 5 135.5 -29t55.5 -112q0 -82 -70.5 -133t-183.5 -51q-152 0 -264 80v118
h30q58 -43 112 -67.5t122 -24.5q62 0 94.5 22t32.5 56q0 62 -92 62h-140v30l29 138q-244 14 -394.5 132.5t-178.5 323.5v31h180q21 -178 142.5 -260t307.5 -82q175 0 280 68.5t105 195.5q0 51 -17.5 90t-44.5 65t-75.5 47t-92.5 33.5t-114 28.5l-153 35q-227 51 -344 145
t-117 263q0 180 153 290.5t410 110.5q259 0 415 -116.5t175 -321.5v-31h-180q-9 164 -120.5 243t-287.5 79z" />
    <glyph glyph-name="scedilla" unicode="&#x15f;" horiz-adv-x="1075" 
d="M1001 291q0 -133 -102 -218.5t-289 -95.5l-20 -90l49 4q80 5 135 -29t55 -112q0 -82 -70.5 -133t-183.5 -51q-152 0 -264 80v118h31q59 -44 112 -68t121 -24q62 0 94.5 22t32.5 56q0 62 -92 62h-139v30l29 135q-186 12 -297 100t-133 232v31h170q13 -116 97 -172.5
t220 -56.5q129 0 199.5 46t70.5 124q0 69 -54 102.5t-167 54.5l-170 31q-158 28 -244 97.5t-86 197.5q0 140 117 221.5t318 81.5q198 0 314.5 -81t137.5 -224v-31h-168q-7 101 -82 151t-202 50q-122 0 -191 -42.5t-69 -117.5q0 -70 50.5 -104.5t145.5 -51.5l170 -30
q83 -15 144 -36t110.5 -55t74.5 -85t25 -119z" />
    <glyph glyph-name="Scaron" unicode="&#x160;" horiz-adv-x="1366" 
d="M575 1585l-266 221v37h178l201 -157l199 157h178v-37l-264 -221h-226zM690 1350q-169 0 -273 -66t-104 -184q0 -56 22 -97t69 -69.5t101 -46.5t138 -37l154 -35q117 -27 197 -57.5t146.5 -77.5t99 -116.5t32.5 -162.5q0 -194 -153 -309t-419 -115q-268 0 -435.5 121
t-196.5 338v31h180q21 -178 142.5 -260t307.5 -82q175 0 280 68.5t105 195.5q0 51 -17.5 90t-44.5 65t-75.5 47t-92.5 33.5t-114 28.5l-153 35q-227 51 -344 145t-117 263q0 180 153 290.5t410 110.5q259 0 415 -116.5t175 -321.5v-31h-180q-9 164 -120.5 243t-287.5 79z
" />
    <glyph glyph-name="scaron" unicode="&#x161;" horiz-adv-x="1075" 
d="M432 1188l-219 256v31h152l174 -185l172 185h151v-31l-221 -256h-209zM647 586q83 -15 144 -36t110.5 -55t74.5 -85t25 -119q0 -142 -116 -229t-326 -87q-212 0 -338.5 89.5t-150.5 244.5v31h170q13 -116 97 -172.5t220 -56.5q129 0 199.5 46t70.5 124q0 69 -54 102.5
t-167 54.5l-170 31q-158 28 -244 97.5t-86 197.5q0 140 117 221.5t318 81.5q198 0 314.5 -81t137.5 -224v-31h-168q-7 101 -82 151t-202 50q-122 0 -191 -42.5t-69 -117.5q0 -70 50.5 -104.5t145.5 -51.5z" />
    <glyph glyph-name="uni0162" unicode="&#x162;" horiz-adv-x="1325" 
d="M756 0h-39l-25 -113l49 4q80 5 135.5 -29t55.5 -112q0 -82 -70.5 -133t-183.5 -51q-152 0 -264 80v118h30q58 -43 112 -67.5t122 -24.5q62 0 94.5 22t32.5 56q0 62 -92 62h-140v30l33 158h-37v1319h-534v156h1255v-156h-534v-1319z" />
    <glyph glyph-name="uni0163" unicode="&#x163;" horiz-adv-x="802" 
d="M569 -109q80 5 135.5 -29t55.5 -112q0 -81 -70.5 -132.5t-181.5 -51.5q-144 0 -266 76v122h30q58 -43 112 -67.5t122 -24.5q62 0 94.5 22t32.5 56q0 62 -92 62h-140v30l37 170q-164 48 -164 244v651h-243v135h243v209l150 113h31v-322h276v-135h-276v-751l16 -17h279
v-139h-203l-25 -113z" />
    <glyph glyph-name="Tcaron" unicode="&#x164;" horiz-adv-x="1325" 
d="M549 1585l-266 221v37h178l201 -157l198 157h178v-37l-264 -221h-225zM35 1475h1255v-156h-534v-1319h-187v1319h-534v156z" />
    <glyph glyph-name="tcaron" unicode="&#x165;" horiz-adv-x="802" 
d="M729 1223h-125v30l29 328h174v-31zM31 1042h243v209l150 113h31v-322h276v-135h-276v-751l16 -17h279v-139h-207q-130 0 -199.5 65t-69.5 191v651h-243v135z" />
    <glyph glyph-name="Tbar" unicode="&#x166;" horiz-adv-x="1302" 
d="M1268 1319h-523v-547h269v-90h-269v-682h-188v682h-262v90h262v547h-522v156h1233v-156z" />
    <glyph glyph-name="tbar" unicode="&#x167;" horiz-adv-x="802" 
d="M471 139h279v-139h-207q-130 0 -199.5 65t-69.5 191v236h-243v86h243v329h-243v135h243v209l150 113h31v-322h276v-135h-276v-329h276v-86h-276v-336z" />
    <glyph glyph-name="Utilde" unicode="&#x168;" horiz-adv-x="1480" 
d="M586 1712q-97 0 -97 -108h-122v30q5 89 57.5 148t148.5 59q49 0 97.5 -19.5t80 -43t70 -43t72.5 -19.5q94 0 94 107h125v-31q-7 -89 -59.5 -147t-149.5 -58q-49 0 -96.5 19.5t-78.5 43t-69.5 43t-72.5 19.5zM737 1716v-4h2v4h-2zM1135 1475h188v-930q0 -272 -149.5 -421
t-432.5 -149t-433 149t-150 421v930h188v-938q0 -206 101.5 -308t293.5 -102q191 0 292.5 102t101.5 308v938z" />
    <glyph glyph-name="utilde" unicode="&#x169;" horiz-adv-x="1226" 
d="M469 1333q-91 0 -94 -116h-119v30q5 92 56 151.5t145 59.5q46 0 90.5 -20t73.5 -44.5t64 -44.5t65 -20q91 0 94 117h119v-31q-5 -92 -56 -151.5t-145 -59.5q-45 0 -89.5 20t-74 44.5t-64.5 44.5t-65 20zM897 1042h180v-1042h-174v154h-20q-105 -177 -351 -177
q-178 0 -284.5 97t-106.5 276v692h181v-673q0 -126 67.5 -188t185.5 -62q66 0 123 20.5t102 61.5t71 107.5t26 152.5v581z" />
    <glyph glyph-name="Umacron" unicode="&#x16a;" horiz-adv-x="1480" 
d="M410 1739h661v-131h-661v131zM158 1475h188v-938q0 -206 101.5 -308t293.5 -102q191 0 292.5 102t101.5 308v938h188v-930q0 -272 -149.5 -421t-432.5 -149t-433 149t-150 421v930z" />
    <glyph glyph-name="umacron" unicode="&#x16b;" horiz-adv-x="1226" 
d="M287 1348h645v-131h-645v131zM1077 0h-174v154h-20q-105 -177 -351 -177q-178 0 -284.5 97t-106.5 276v692h181v-673q0 -126 67.5 -188t185.5 -62q66 0 123 20.5t102 61.5t71 107.5t26 152.5v581h180v-1042z" />
    <glyph glyph-name="Uring" unicode="&#x16e;" horiz-adv-x="1480" 
d="M741 1536q-89 0 -145.5 52t-56.5 134t56.5 134.5t145.5 52.5t147 -52.5t58 -134.5t-58 -134t-147 -52zM741 1636q39 0 63.5 24.5t24.5 61.5t-24.5 61.5t-63.5 24.5t-63.5 -24.5t-24.5 -61.5t24.5 -61.5t63.5 -24.5zM158 1475h188v-938q0 -206 101.5 -308t293.5 -102
q191 0 292.5 102t101.5 308v938h188v-930q0 -272 -149.5 -421t-432.5 -149t-433 149t-150 421v930z" />
    <glyph glyph-name="uring" unicode="&#x16f;" horiz-adv-x="1226" 
d="M610 1159q-86 0 -140 50.5t-54 127.5q0 79 54 130t140 51q84 0 138.5 -51.5t54.5 -129.5q0 -77 -54.5 -127.5t-138.5 -50.5zM610 1257q37 0 59.5 22.5t22.5 57.5q0 37 -22.5 59.5t-59.5 22.5q-38 0 -61 -22.5t-23 -59.5q0 -36 23 -58t61 -22zM1077 0h-174v154h-20
q-105 -177 -351 -177q-178 0 -284.5 97t-106.5 276v692h181v-673q0 -126 67.5 -188t185.5 -62q66 0 123 20.5t102 61.5t71 107.5t26 152.5v581h180v-1042z" />
    <glyph glyph-name="Uhungarumlaut" unicode="&#x170;" horiz-adv-x="1480" 
d="M578 1585h-132v31l113 227h186v-31zM936 1585h-143v31l141 227h201v-31zM158 1475h188v-938q0 -206 101.5 -308t293.5 -102q191 0 292.5 102t101.5 308v938h188v-930q0 -272 -149.5 -421t-432.5 -149t-433 149t-150 421v930z" />
    <glyph glyph-name="uhungarumlaut" unicode="&#x171;" horiz-adv-x="1226" 
d="M467 1188h-129v31l113 256h186v-31zM803 1188h-137v31l153 256h191v-31zM1077 0h-174v154h-20q-105 -177 -351 -177q-178 0 -284.5 97t-106.5 276v692h181v-673q0 -126 67.5 -188t185.5 -62q66 0 123 20.5t102 61.5t71 107.5t26 152.5v581h180v-1042z" />
    <glyph glyph-name="Uogonek" unicode="&#x172;" horiz-adv-x="1480" 
d="M1135 1475h188v-930q0 -192 -75.5 -324.5t-221.5 -193.5q-120 -66 -166.5 -116.5t-46.5 -109.5q0 -50 30 -79t77 -29q57 0 106 39h31v-127q-85 -39 -160 -39q-95 0 -157 54t-62 142q0 39 11.5 72t33.5 57.5t36 36.5t36 27v22q-16 -2 -54 -2q-283 0 -433 149t-150 421v930
h188v-938q0 -206 101.5 -308t293.5 -102q191 0 292.5 102t101.5 308v938z" />
    <glyph glyph-name="uogonek" unicode="&#x173;" horiz-adv-x="1226" 
d="M1077 0q-246 -59 -246 -199q0 -50 31 -79t78 -29q58 0 107 39h30v-127q-85 -39 -159 -39q-95 0 -157.5 54.5t-62.5 143.5q0 85 56.5 144.5t148.5 95.5v150h-20q-105 -177 -351 -177q-178 0 -284.5 97t-106.5 276v692h181v-673q0 -126 67.5 -188t185.5 -62q66 0 123 20.5
t102 61.5t71 107.5t26 152.5v581h180v-1042z" />
    <glyph glyph-name="Wcircumflex" unicode="&#x174;" horiz-adv-x="2062" 
d="M1032 1741l-201 -156h-178v37l267 221h225l264 -221v-37h-178zM1821 1475h184v-31l-377 -1444h-242l-344 1225h-20l-346 -1225h-242l-377 1444v31h185l311 -1254h20l355 1254h207l354 -1254h20z" />
    <glyph glyph-name="wcircumflex" unicode="&#x175;" horiz-adv-x="1566" 
d="M784 1374l-174 -186h-151v31l219 256h209l221 -256v-31h-152zM1360 1042h176v-30l-272 -1012h-226l-243 854h-21l-246 -854h-225l-270 1012v30h174l207 -843h20l244 843h211l244 -843h20z" />
    <glyph glyph-name="Ycircumflex" unicode="&#x176;" horiz-adv-x="1402" 
d="M702 1741l-200 -156h-178v37l266 221h225l264 -221v-37h-178zM1171 1475h203v-31l-577 -883v-561h-189v561l-579 883v31h204l459 -723h21z" />
    <glyph glyph-name="ycircumflex" unicode="&#x177;" horiz-adv-x="1107" 
d="M555 1374l-174 -186h-152v31l220 256h208l222 -256v-31h-152zM887 1042h186v-30l-579 -1422h-185v31l150 350l-424 1041v30h186l324 -856h20z" />
    <glyph glyph-name="Ydieresis" unicode="&#x178;" horiz-adv-x="1402" 
d="M358 1800h246v-201h-246v201zM799 1800h245v-201h-245v201zM29 1475h204l459 -723h21l458 723h203v-31l-577 -883v-561h-189v561l-579 883v31z" />
    <glyph glyph-name="Zacute" unicode="&#x179;" horiz-adv-x="1316" 
d="M690 1585h-158v31l158 227h217v-31zM121 1475h1089v-127l-874 -1192h899v-156h-1143v129l873 1190h-844v156z" />
    <glyph glyph-name="zacute" unicode="&#x17a;" horiz-adv-x="1048" 
d="M565 1188h-147v31l166 256h196v-31zM113 1042h843v-114l-632 -793h649v-135h-881v115l633 792h-612v135z" />
    <glyph glyph-name="Zdotaccent" unicode="&#x17b;" horiz-adv-x="1316" 
d="M537 1800h260v-201h-260v201zM121 1475h1089v-127l-874 -1192h899v-156h-1143v129l873 1190h-844v156z" />
    <glyph glyph-name="zdotaccent" unicode="&#x17c;" horiz-adv-x="1048" 
d="M410 1438h249v-201h-249v201zM113 1042h843v-114l-632 -793h649v-135h-881v115l633 792h-612v135z" />
    <glyph glyph-name="Zcaron" unicode="&#x17d;" horiz-adv-x="1316" 
d="M555 1585l-266 221v37h178l201 -157l198 157h178v-37l-264 -221h-225zM336 156h899v-156h-1143v129l873 1190h-844v156h1089v-127z" />
    <glyph glyph-name="zcaron" unicode="&#x17e;" horiz-adv-x="1048" 
d="M428 1188l-219 256v31h151l175 -185l172 185h151v-31l-221 -256h-209zM324 135h649v-135h-881v115l633 792h-612v135h843v-114z" />
    <glyph glyph-name="florin" unicode="&#x192;" horiz-adv-x="987" 
d="M618 1339l-16 -16l-35 -469h320v-135h-330l-63 -875q-18 -254 -269 -254h-256v136h324l16 16l74 977h-324v135h334l27 367q18 254 268 254h252v-136h-322z" />
    <glyph glyph-name="Ohorn" unicode="&#x1a0;" horiz-adv-x="1673" 
d="M1352 1307q217 -211 217 -570q0 -176 -55 -320.5t-153.5 -241t-234.5 -148.5t-297 -52t-296.5 52t-233.5 148.5t-152.5 240.5t-54.5 321t54.5 321t152.5 240.5t233.5 148.5t296.5 52q223 0 392 -96q231 20 231 215q0 86 -55 194v31h159q54 -120 54 -229
q0 -124 -66.5 -201.5t-191.5 -105.5zM829 127q252 0 401.5 163t149.5 447q0 285 -150 448t-401 163t-400.5 -163t-149.5 -448t149.5 -447.5t400.5 -162.5z" />
    <glyph glyph-name="ohorn" unicode="&#x1a1;" horiz-adv-x="1275" 
d="M1257 1219q0 -258 -264 -310q133 -152 133 -387q0 -249 -142.5 -398t-377.5 -149t-377.5 149t-142.5 398q0 247 142.5 396t377.5 149q149 0 266 -63q234 18 234 219q0 72 -35 166v30h146q40 -102 40 -200zM606 115q155 0 246.5 107.5t91.5 299.5q0 191 -92 298.5
t-246 107.5q-155 0 -247.5 -107.5t-92.5 -298.5q0 -192 92.5 -299.5t247.5 -107.5z" />
    <glyph glyph-name="Uhorn" unicode="&#x1af;" horiz-adv-x="1632" 
d="M1610 1843q55 -112 55 -229q0 -128 -79.5 -195t-215.5 -67h-47v-807q0 -272 -149.5 -421t-432.5 -149t-433 149t-150 421v930h188v-938q0 -206 101.5 -308t293.5 -102q191 0 292.5 102t101.5 308v938h215q84 0 120.5 36.5t36.5 106.5q0 86 -55 194v31h158z" />
    <glyph glyph-name="uhorn" unicode="&#x1b0;" horiz-adv-x="1447" 
d="M1356 1419q59 -125 59 -235q0 -126 -77 -190t-212 -64h-49v-930h-174v154h-20q-105 -177 -351 -177q-178 0 -284.5 97t-106.5 276v692h181v-673q0 -126 67.5 -188t185.5 -62q66 0 123 20.5t102 61.5t71 107.5t26 152.5v581h209q85 0 122.5 37t37.5 107q0 90 -60 203v30
h150z" />
    <glyph glyph-name="uni0218" unicode="&#x218;" horiz-adv-x="1366" 
d="M690 1350q-169 0 -273 -66t-104 -184q0 -56 22 -97t69 -69.5t101 -46.5t138 -37l154 -35q117 -27 197 -57.5t146.5 -77.5t99 -116.5t32.5 -162.5q0 -194 -153 -309t-419 -115q-268 0 -435.5 121t-196.5 338v31h180q21 -178 142.5 -260t307.5 -82q175 0 280 68.5
t105 195.5q0 51 -17.5 90t-44.5 65t-75.5 47t-92.5 33.5t-114 28.5l-153 35q-227 51 -344 145t-117 263q0 180 153 290.5t410 110.5q259 0 415 -116.5t175 -321.5v-31h-180q-9 164 -120.5 243t-287.5 79zM571 -299v190h256v-206q0 -109 -60.5 -165.5t-164.5 -56.5h-55v109
h51q56 0 82.5 27t26.5 86v16h-136z" />
    <glyph glyph-name="uni0219" unicode="&#x219;" horiz-adv-x="1075" 
d="M647 586q83 -15 144 -36t110.5 -55t74.5 -85t25 -119q0 -142 -116 -229t-326 -87q-212 0 -338.5 89.5t-150.5 244.5v31h170q13 -116 97 -172.5t220 -56.5q129 0 199.5 46t70.5 124q0 69 -54 102.5t-167 54.5l-170 31q-158 28 -244 97.5t-86 197.5q0 140 117 221.5
t318 81.5q198 0 314.5 -81t137.5 -224v-31h-168q-7 101 -82 151t-202 50q-122 0 -191 -42.5t-69 -117.5q0 -70 50.5 -104.5t145.5 -51.5zM430 -299v190h256v-206q0 -109 -60.5 -165.5t-164.5 -56.5h-55v109h51q56 0 82 26.5t26 86.5v16h-135z" />
    <glyph glyph-name="uni021A" unicode="&#x21a;" horiz-adv-x="1325" 
d="M35 1475h1255v-156h-534v-1319h-187v1319h-534v156zM532 -299v190h256v-206q0 -109 -60.5 -165.5t-164.5 -56.5h-55v109h51q56 0 82.5 27t26.5 86v16h-136z" />
    <glyph glyph-name="uni021B" unicode="&#x21b;" horiz-adv-x="802" 
d="M471 139h279v-139h-207q-130 0 -199.5 65t-69.5 191v651h-243v135h243v209l150 113h31v-322h276v-135h-276v-751zM377 -299v190h256v-206q0 -109 -60.5 -165.5t-164.5 -56.5h-56v109h51q56 0 82.5 27t26.5 86v16h-135z" />
    <glyph glyph-name="uni0237" unicode="&#x237;" horiz-adv-x="481" 
d="M154 1042h180v-1198q0 -125 -69.5 -189.5t-198.5 -64.5h-179v140h250l17 16v1296z" />
    <glyph glyph-name="circumflex" unicode="&#x2c6;" horiz-adv-x="870" 
d="M539 1475l221 -256v-31h-152l-172 186l-174 -186h-151v31l219 256h209z" />
    <glyph glyph-name="caron" unicode="&#x2c7;" horiz-adv-x="870" 
d="M608 1475h152v-31l-221 -256h-209l-219 256v31h151l174 -185z" />
    <glyph glyph-name="breve" unicode="&#x2d8;" horiz-adv-x="878" 
d="M631 1475h137v-31q-7 -111 -92 -189.5t-236 -78.5q-152 0 -237 78t-92 190v31h139q0 -76 51 -126.5t139 -50.5q87 0 139 50.5t52 126.5z" />
    <glyph glyph-name="dotaccent" unicode="&#x2d9;" horiz-adv-x="471" 
d="M96 1440h250v-201h-250v201z" />
    <glyph glyph-name="ring" unicode="&#x2da;" horiz-adv-x="608" 
d="M305 1159q-86 0 -140 50.5t-54 127.5q0 79 54 130t140 51q84 0 138.5 -51.5t54.5 -129.5q0 -77 -54.5 -127.5t-138.5 -50.5zM305 1257q37 0 59.5 22.5t22.5 57.5q0 37 -22.5 59.5t-59.5 22.5q-38 0 -61 -22.5t-23 -59.5q0 -36 23 -58t61 -22z" />
    <glyph glyph-name="ogonek" unicode="&#x2db;" horiz-adv-x="600" 
d="M489 -395q-84 -39 -159 -39q-95 0 -157 54.5t-62 143.5q0 127 135 216v20h188q-188 -77 -188 -199q0 -50 29.5 -79t76.5 -29q58 0 107 39h30v-127z" />
    <glyph glyph-name="tilde" unicode="&#x2dc;" horiz-adv-x="927" 
d="M698 1446h119v-31q-5 -92 -56 -151.5t-145 -59.5q-45 0 -89.5 20t-73.5 44.5t-64 44.5t-65 20q-92 0 -95 -116h-118v30q5 92 56 151.5t144 59.5q46 0 90.5 -20t73.5 -44.5t64 -44.5t65 -20q91 0 94 117z" />
    <glyph glyph-name="hungarumlaut" unicode="&#x2dd;" horiz-adv-x="892" 
d="M240 1188h-129v31l112 256h187v-31zM575 1188h-137v31l154 256h190v-31z" />
    <glyph glyph-name="gravecomb" unicode="&#x300;" 
d="M-258 1188l-215 256v31h197l165 -256v-31h-147z" />
    <glyph glyph-name="acutecomb" unicode="&#x301;" 
d="M-326 1188h-147v31l166 256h196v-31z" />
    <glyph glyph-name="uni0302" unicode="&#x302;" 
d="M-332 1475l221 -256v-31h-151l-172 186l-174 -186h-152v31l219 256h209z" />
    <glyph glyph-name="tildecomb" unicode="&#x303;" 
d="M-229 1446h118v-31q-5 -92 -56 -151.5t-144 -59.5q-45 0 -89.5 20t-74 44.5t-64.5 44.5t-65 20q-91 0 -94 -116h-119v30q5 92 56 151.5t145 59.5q46 0 90.5 -20t73.5 -44.5t63.5 -44.5t64.5 -20q92 0 95 117z" />
    <glyph glyph-name="uni0304" unicode="&#x304;" 
d="M-756 1348h645v-131h-645v131z" />
    <glyph glyph-name="uni0306" unicode="&#x306;" 
d="M-248 1475h137v-31q-7 -112 -91.5 -190t-235.5 -78q-152 0 -237.5 78t-92.5 190v31h139q0 -76 51.5 -126.5t139.5 -50.5q87 0 138.5 50.5t51.5 126.5z" />
    <glyph glyph-name="uni0307" unicode="&#x307;" 
d="M-346 1440h250v-201h-250v201z" />
    <glyph glyph-name="uni0308" unicode="&#x308;" 
d="M-741 1440h229v-201h-229v201zM-330 1440h232v-201h-232v201z" />
    <glyph glyph-name="hookabovecomb" unicode="&#x309;" 
d="M-561 1452q105 64 246 64q90 0 147 -38t57 -100q0 -15 -3.5 -29t-7.5 -24t-13.5 -22t-15 -18.5t-20.5 -17.5t-20 -14.5t-23 -15t-22 -14.5l-57 -35h-139v31l113 71q23 16 34 24.5t19 21t8 26.5q0 43 -76 43q-92 0 -196 -66h-31v113z" />
    <glyph glyph-name="uni030A" unicode="&#x30a;" 
d="M-303 1159q-86 0 -140.5 50.5t-54.5 127.5q0 78 54.5 129.5t140.5 51.5q84 0 138 -51.5t54 -129.5q0 -77 -54 -127.5t-138 -50.5zM-303 1257q37 0 59.5 22.5t22.5 57.5q0 37 -22.5 59.5t-59.5 22.5q-38 0 -61 -22.5t-23 -59.5q0 -36 23 -58t61 -22z" />
    <glyph glyph-name="uni030B" unicode="&#x30b;" 
d="M-653 1188h-129v31l112 256h187v-31zM-317 1188h-138v31l154 256h190v-31z" />
    <glyph glyph-name="uni030C" unicode="&#x30c;" 
d="M-262 1475h151v-31l-221 -256h-209l-219 256v31h152l174 -185z" />
    <glyph glyph-name="uni0312" unicode="&#x312;" 
d="M-162 1538q-56 0 -82 -26.5t-26 -86.5v-18h135v-190h-256v208q0 109 60 164.5t165 55.5h55v-107h-51z" />
    <glyph glyph-name="uni031B" unicode="&#x31b;" 
d="M-451 1042h33q158 0 158 144q0 95 -57 203v30h149q57 -121 57 -235q0 -126 -77 -190t-211 -64h-52v112z" />
    <glyph glyph-name="dotbelowcomb" unicode="&#x323;" 
d="M-360 -174h249v-201h-249v201z" />
    <glyph glyph-name="uni0326" unicode="&#x326;" 
d="M-373 -109h256v-206q0 -109 -60.5 -165.5t-164.5 -56.5h-55v109h51q56 0 82 26.5t26 86.5v16h-135v190z" />
    <glyph glyph-name="uni0327" unicode="&#x327;" 
d="M-436 0h110l-24 -113l49 4q80 5 135 -29t55 -112q0 -82 -70.5 -133t-183.5 -51q-152 0 -264 80v118h31q59 -44 112 -68t121 -24q62 0 94.5 22t32.5 56q0 62 -92 62h-139v30z" />
    <glyph glyph-name="uni0328" unicode="&#x328;" 
d="M-111 -395q-84 -39 -159 -39q-95 0 -157 54.5t-62 143.5q0 127 135 216v20h188q-188 -77 -188 -199q0 -50 29.5 -79t76.5 -29q58 0 107 39h30v-127z" />
    <glyph glyph-name="Wgrave" unicode="&#x1e80;" horiz-adv-x="2062" 
d="M1001 1585l-217 227v31h217l158 -227v-31h-158zM57 1475h185l311 -1254h20l355 1254h207l354 -1254h20l312 1254h184v-31l-377 -1444h-242l-344 1225h-20l-346 -1225h-242l-377 1444v31z" />
    <glyph glyph-name="wgrave" unicode="&#x1e81;" horiz-adv-x="1566" 
d="M750 1188l-215 256v31h196l166 -256v-31h-147zM33 1042h174l207 -843h20l244 843h211l244 -843h20l207 843h176v-30l-272 -1012h-226l-243 854h-21l-246 -854h-225l-270 1012v30z" />
    <glyph glyph-name="Wacute" unicode="&#x1e82;" horiz-adv-x="2062" 
d="M1053 1585h-158v31l158 227h217v-31zM57 1475h185l311 -1254h20l355 1254h207l354 -1254h20l312 1254h184v-31l-377 -1444h-242l-344 1225h-20l-346 -1225h-242l-377 1444v31z" />
    <glyph glyph-name="wacute" unicode="&#x1e83;" horiz-adv-x="1566" 
d="M813 1188h-147v31l165 256h197v-31zM33 1042h174l207 -843h20l244 843h211l244 -843h20l207 843h176v-30l-272 -1012h-226l-243 854h-21l-246 -854h-225l-270 1012v30z" />
    <glyph glyph-name="Wdieresis" unicode="&#x1e84;" horiz-adv-x="2062" 
d="M688 1800h246v-201h-246v201zM1128 1800h246v-201h-246v201zM57 1475h185l311 -1254h20l355 1254h207l354 -1254h20l312 1254h184v-31l-377 -1444h-242l-344 1225h-20l-346 -1225h-242l-377 1444v31z" />
    <glyph glyph-name="wdieresis" unicode="&#x1e85;" horiz-adv-x="1566" 
d="M463 1440h229v-201h-229v201zM874 1440h232v-201h-232v201zM33 1042h174l207 -843h20l244 843h211l244 -843h20l207 843h176v-30l-272 -1012h-226l-243 854h-21l-246 -854h-225l-270 1012v30z" />
    <glyph glyph-name="uni1E9E" unicode="&#x1e9e;" horiz-adv-x="1390" 
d="M166 0v956q0 252 136.5 385.5t373.5 133.5h624v-121l-374 -402q-40 -42 -57 -69.5t-17 -59.5q0 -65 84 -108l80 -43q35 -19 48.5 -26.5t46.5 -27t48 -31t41.5 -32.5t39.5 -37.5t31.5 -41.5t26.5 -48.5t14.5 -54t6.5 -62.5q0 -152 -111.5 -244t-296.5 -92
q-177 0 -288 85.5t-131 218.5v30h178q12 -87 78.5 -137.5t162.5 -50.5q98 0 162 51t64 139q0 28 -7 51.5t-22.5 44t-30 36t-41.5 32.5t-43.5 26.5t-47.5 26.5q-9 5 -13 7l-103 55q-79 45 -118 96.5t-39 124.5q0 67 29 117.5t94 118.5l258 278h-365q-156 0 -245 -86t-89 -276
v-963h-188z" />
    <glyph glyph-name="uni1EA0" unicode="&#x1ea0;" horiz-adv-x="1419" 
d="M51 0v31l539 1444h241l537 -1444v-31h-184l-154 416h-641l-151 -416h-187zM440 565h539l-258 711h-21zM586 -174h250v-201h-250v201z" />
    <glyph glyph-name="uni1EA1" unicode="&#x1ea1;" horiz-adv-x="1165" 
d="M115 709v30q27 149 152 238.5t317 89.5q200 0 320 -100.5t120 -286.5v-680h-174v154h-21q-108 -177 -362 -177q-170 0 -275.5 80.5t-105.5 218.5q0 140 100.5 216t270.5 92l389 37v63q0 125 -69 186.5t-197 61.5q-127 0 -202.5 -57.5t-88.5 -165.5h-174zM266 285
q0 -78 63 -125t169 -47q151 0 249.5 88.5t98.5 257.5v28l-365 -34q-215 -19 -215 -168zM455 -174h250v-201h-250v201z" />
    <glyph glyph-name="uni1EA2" unicode="&#x1ea2;" horiz-adv-x="1419" 
d="M504 1849q102 62 246 62q91 0 147.5 -36.5t56.5 -98.5q0 -36 -19 -66t-41 -47t-56 -38q-6 -3 -9 -5l-57 -35h-139v31l112 72q25 18 34.5 25t18.5 19t9 25q0 45 -76 45q-93 0 -196 -65h-31v112zM51 0v31l539 1444h241l537 -1444v-31h-184l-154 416h-641l-151 -416h-187z
M440 565h539l-258 711h-21z" />
    <glyph glyph-name="uni1EA3" unicode="&#x1ea3;" horiz-adv-x="1165" 
d="M373 1452q105 64 245 64q90 0 147.5 -38t57.5 -100q0 -15 -3.5 -29t-7.5 -24t-13.5 -22t-15 -18.5t-20.5 -17.5t-20 -14.5t-23 -15t-22 -14.5l-57 -35h-139v31l112 71q24 17 34.5 25t19 20.5t8.5 26.5q0 43 -76 43q-93 0 -197 -66h-30v113zM115 709v30q27 149 152 238.5
t317 89.5q200 0 320 -100.5t120 -286.5v-680h-174v154h-21q-108 -177 -362 -177q-170 0 -275.5 80.5t-105.5 218.5q0 140 100.5 216t270.5 92l389 37v63q0 125 -69 186.5t-197 61.5q-127 0 -202.5 -57.5t-88.5 -165.5h-174zM266 285q0 -78 63 -125t169 -47q151 0 249.5 88.5
t98.5 257.5v28l-365 -34q-215 -19 -215 -168z" />
    <glyph glyph-name="uni1EA4" unicode="&#x1ea4;" horiz-adv-x="1419" 
d="M1311 2023l-183 -227h-143v31l117 227h209v-31zM711 1741l-201 -156h-178v37l266 221h225l264 -221v-37h-178zM831 1475l537 -1444v-31h-184l-154 416h-641l-151 -416h-187v31l539 1444h241zM440 565h539l-258 711h-21z" />
    <glyph glyph-name="uni1EA5" unicode="&#x1ea5;" horiz-adv-x="1165" 
d="M954 1720h172v-30l-147 -254h-135v30zM580 1374l-174 -186h-152v31l219 256h209l221 -256v-31h-151zM584 1067q200 0 320 -100.5t120 -286.5v-680h-174v154h-21q-108 -177 -362 -177q-170 0 -275.5 80.5t-105.5 218.5q0 140 100.5 216t270.5 92l389 37v63
q0 125 -69 186.5t-197 61.5q-127 0 -202.5 -57.5t-88.5 -165.5h-174v30q27 149 152 238.5t317 89.5zM846 459v28l-365 -34q-215 -19 -215 -168q0 -78 63 -125t169 -47q151 0 249.5 88.5t98.5 257.5z" />
    <glyph glyph-name="uni1EA6" unicode="&#x1ea6;" horiz-adv-x="1419" 
d="M1159 1796h-143l-182 227v31h208l117 -227v-31zM711 1741l-201 -156h-178v37l266 221h225l264 -221v-37h-178zM831 1475l537 -1444v-31h-184l-154 416h-641l-151 -416h-187v31l539 1444h241zM440 565h539l-258 711h-21z" />
    <glyph glyph-name="uni1EA7" unicode="&#x1ea7;" horiz-adv-x="1165" 
d="M915 1720l111 -254v-30h-137l-146 254v30h172zM580 1374l-174 -186h-152v31l219 256h209l221 -256v-31h-151zM584 1067q200 0 320 -100.5t120 -286.5v-680h-174v154h-21q-108 -177 -362 -177q-170 0 -275.5 80.5t-105.5 218.5q0 140 100.5 216t270.5 92l389 37v63
q0 125 -69 186.5t-197 61.5q-127 0 -202.5 -57.5t-88.5 -165.5h-174v30q27 149 152 238.5t317 89.5zM846 459v28l-365 -34q-215 -19 -215 -168q0 -78 63 -125t169 -47q151 0 249.5 88.5t98.5 257.5z" />
    <glyph glyph-name="uni1EA8" unicode="&#x1ea8;" horiz-adv-x="1419" 
d="M1065 2013q-94 0 -197 -65h-30v112q102 62 245 62q91 0 148 -36.5t57 -98.5q0 -36 -19 -66t-41 -47t-56 -38q-3 -1 -5 -2.5t-4 -2.5l-57 -35h-139v31l112 71q24 17 34.5 25t19 20t8.5 25q0 45 -76 45zM711 1741l-201 -156h-178v37l266 221h225l264 -221v-37h-178z
M831 1475l537 -1444v-31h-184l-154 416h-641l-151 -416h-187v31l539 1444h241zM440 565h539l-258 711h-21z" />
    <glyph glyph-name="uni1EA9" unicode="&#x1ea9;" horiz-adv-x="1165" 
d="M932 1761q90 0 147.5 -37.5t57.5 -99.5q0 -13 -2 -25t-7.5 -23.5t-9.5 -19.5t-14 -18t-15 -15.5t-18.5 -15t-18.5 -13t-20.5 -13.5t-19.5 -13l-58 -34h-139v30l113 72q23 16 34 24.5t19 21t8 26.5q0 43 -76 43q-92 0 -196 -66h-31v113q103 63 246 63zM580 1374l-174 -186
h-152v31l219 256h209l221 -256v-31h-151zM584 1067q200 0 320 -100.5t120 -286.5v-680h-174v154h-21q-108 -177 -362 -177q-170 0 -275.5 80.5t-105.5 218.5q0 140 100.5 216t270.5 92l389 37v63q0 125 -69 186.5t-197 61.5q-127 0 -202.5 -57.5t-88.5 -165.5h-174v30
q27 149 152 238.5t317 89.5zM846 459v28l-365 -34q-215 -19 -215 -168q0 -78 63 -125t169 -47q151 0 249.5 88.5t98.5 257.5z" />
    <glyph glyph-name="uni1EAA" unicode="&#x1eaa;" horiz-adv-x="1419" 
d="M555 2081q-96 0 -96 -109h-123v31q5 89 58 148t149 59q49 0 97 -19.5t79.5 -43t70 -43t72.5 -19.5q94 0 94 106h125v-30q-7 -89 -59.5 -147t-149.5 -58q-49 0 -96.5 19.5t-78.5 43t-69.5 43t-72.5 19.5zM707 2085v-4h2v4h-2zM711 1741l-201 -156h-178v37l266 221h225
l264 -221v-37h-178zM831 1475l537 -1444v-31h-184l-154 416h-641l-151 -416h-187v31l539 1444h241zM440 565h539l-258 711h-21z" />
    <glyph glyph-name="uni1EAB" unicode="&#x1eab;" horiz-adv-x="1165" 
d="M434 1671q-45 0 -66.5 -27t-23.5 -83h-113v30q5 90 55.5 145.5t141.5 55.5q46 0 92.5 -19t77.5 -42.5t67 -42.5t64 -19q88 0 88 111h115v-31q-6 -90 -57.5 -145.5t-141.5 -55.5q-46 0 -91.5 19t-76.5 42.5t-67 42.5t-64 19zM580 1339l-193 -151h-164v31l252 217h209
l254 -217v-31h-166zM584 1067q200 0 320 -100.5t120 -286.5v-680h-174v154h-21q-108 -177 -362 -177q-170 0 -275.5 80.5t-105.5 218.5q0 140 100.5 216t270.5 92l389 37v63q0 125 -69 186.5t-197 61.5q-127 0 -202.5 -57.5t-88.5 -165.5h-174v30q27 149 152 238.5t317 89.5
zM846 459v28l-365 -34q-215 -19 -215 -168q0 -78 63 -125t169 -47q151 0 249.5 88.5t98.5 257.5z" />
    <glyph glyph-name="uni1EAC" unicode="&#x1eac;" horiz-adv-x="1419" 
d="M711 1741l-201 -156h-178v37l266 221h225l264 -221v-37h-178zM831 1475l537 -1444v-31h-184l-154 416h-641l-151 -416h-187v31l539 1444h241zM440 565h539l-258 711h-21zM586 -375v201h250v-201h-250z" />
    <glyph glyph-name="uni1EAD" unicode="&#x1ead;" horiz-adv-x="1165" 
d="M580 1374l-174 -186h-152v31l219 256h209l221 -256v-31h-151zM584 1067q200 0 320 -100.5t120 -286.5v-680h-174v154h-21q-108 -177 -362 -177q-170 0 -275.5 80.5t-105.5 218.5q0 140 100.5 216t270.5 92l389 37v63q0 125 -69 186.5t-197 61.5q-127 0 -202.5 -57.5
t-88.5 -165.5h-174v30q27 149 152 238.5t317 89.5zM846 459v28l-365 -34q-215 -19 -215 -168q0 -78 63 -125t169 -47q151 0 249.5 88.5t98.5 257.5zM455 -375v201h250v-201h-250z" />
    <glyph glyph-name="uni1EAE" unicode="&#x1eae;" horiz-adv-x="1419" 
d="M948 2181l-217 -227h-158v31l158 227h217v-31zM711 1573q-154 0 -238.5 69.5t-97.5 172.5v28h147q5 -63 51.5 -104t137.5 -41t137 41t51 104h148v-28q-13 -103 -97.5 -172.5t-238.5 -69.5zM831 1475l537 -1444v-31h-184l-154 416h-641l-151 -416h-187v31l539 1444h241z
M440 565h539l-258 711h-21z" />
    <glyph glyph-name="uni1EAF" unicode="&#x1eaf;" horiz-adv-x="1165" 
d="M838 1749l-224 -217h-151v31l174 217h201v-31zM580 1178q-145 0 -231 66.5t-101 160.5v31h139q8 -62 57.5 -102t135.5 -40q88 0 137 39.5t57 102.5h139v-31q-15 -94 -100.5 -160.5t-232.5 -66.5zM584 1067q200 0 320 -100.5t120 -286.5v-680h-174v154h-21
q-108 -177 -362 -177q-170 0 -275.5 80.5t-105.5 218.5q0 140 100.5 216t270.5 92l389 37v63q0 125 -69 186.5t-197 61.5q-127 0 -202.5 -57.5t-88.5 -165.5h-174v30q27 149 152 238.5t317 89.5zM846 459v28l-365 -34q-215 -19 -215 -168q0 -78 63 -125t169 -47
q151 0 249.5 88.5t98.5 257.5z" />
    <glyph glyph-name="uni1EB0" unicode="&#x1eb0;" horiz-adv-x="1419" 
d="M838 1954h-158l-217 227v31h217l158 -227v-31zM711 1573q-154 0 -238.5 69.5t-97.5 172.5v28h147q5 -63 51.5 -104t137.5 -41t137 41t51 104h148v-28q-13 -103 -97.5 -172.5t-238.5 -69.5zM831 1475l537 -1444v-31h-184l-154 416h-641l-151 -416h-187v31l539 1444h241z
M440 565h539l-258 711h-21z" />
    <glyph glyph-name="uni1EB1" unicode="&#x1eb1;" horiz-adv-x="1165" 
d="M698 1532h-151l-223 217v31h200l174 -217v-31zM580 1178q-145 0 -231 66.5t-101 160.5v31h139q8 -62 57.5 -102t135.5 -40q88 0 137 39.5t57 102.5h139v-31q-15 -94 -100.5 -160.5t-232.5 -66.5zM584 1067q200 0 320 -100.5t120 -286.5v-680h-174v154h-21
q-108 -177 -362 -177q-170 0 -275.5 80.5t-105.5 218.5q0 140 100.5 216t270.5 92l389 37v63q0 125 -69 186.5t-197 61.5q-127 0 -202.5 -57.5t-88.5 -165.5h-174v30q27 149 152 238.5t317 89.5zM846 459v28l-365 -34q-215 -19 -215 -168q0 -78 63 -125t169 -47
q151 0 249.5 88.5t98.5 257.5z" />
    <glyph glyph-name="uni1EB2" unicode="&#x1eb2;" horiz-adv-x="1419" 
d="M731 2171q-92 0 -196 -66h-31v113q100 61 246 61q91 0 147.5 -36.5t56.5 -98.5q0 -36 -19 -66t-39 -45t-57 -38q-1 -1 -2 -1.5t-2.5 -1.5t-3 -1.5t-2.5 -1.5l-57 -35h-139v31l112 71q24 17 34.5 25t19 20t8.5 25q0 45 -76 45zM711 1573q-154 0 -238.5 69.5t-97.5 172.5
v28h147q5 -63 51.5 -104t137.5 -41t137 41t51 104h148v-28q-13 -103 -97.5 -172.5t-238.5 -69.5zM831 1475l537 -1444v-31h-184l-154 416h-641l-151 -416h-187v31l539 1444h241zM440 565h539l-258 711h-21z" />
    <glyph glyph-name="uni1EB3" unicode="&#x1eb3;" horiz-adv-x="1165" 
d="M604 1708q-92 0 -196 -66h-31v113q105 64 246 64q90 0 147 -38t57 -100q0 -15 -3.5 -29t-7.5 -24t-13.5 -22t-15 -18.5t-20.5 -17.5t-20 -14.5t-23 -15t-22 -14.5l-57 -35h-139v31l112 71q24 17 34.5 25t19 20.5t8.5 26.5q0 43 -76 43zM580 1178q-145 0 -231 66.5
t-101 160.5v31h139q8 -62 57.5 -102t135.5 -40q88 0 137 39.5t57 102.5h139v-31q-15 -94 -100.5 -160.5t-232.5 -66.5zM584 1067q200 0 320 -100.5t120 -286.5v-680h-174v154h-21q-108 -177 -362 -177q-170 0 -275.5 80.5t-105.5 218.5q0 140 100.5 216t270.5 92l389 37v63
q0 125 -69 186.5t-197 61.5q-127 0 -202.5 -57.5t-88.5 -165.5h-174v30q27 149 152 238.5t317 89.5zM846 459v28l-365 -34q-215 -19 -215 -168q0 -78 63 -125t169 -47q151 0 249.5 88.5t98.5 257.5z" />
    <glyph glyph-name="uni1EB4" unicode="&#x1eb4;" horiz-adv-x="1419" 
d="M555 2081q-96 0 -96 -109h-123v31q5 89 58 148t149 59q49 0 97 -19.5t79.5 -43t70 -43t72.5 -19.5q94 0 94 106h125v-30q-7 -89 -59.5 -147t-149.5 -58q-49 0 -96.5 19.5t-78.5 43t-69.5 43t-72.5 19.5zM707 2085v-4h2v4h-2zM711 1698q91 0 137 41t51 104h148v-28
q-13 -103 -97.5 -172.5t-238.5 -69.5t-238.5 69.5t-97.5 172.5v28h147q5 -63 51.5 -104t137.5 -41zM831 1475l537 -1444v-31h-184l-154 416h-641l-151 -416h-187v31l539 1444h241zM440 565h539l-258 711h-21z" />
    <glyph glyph-name="uni1EB5" unicode="&#x1eb5;" horiz-adv-x="1165" 
d="M434 1671q-45 0 -66.5 -27t-23.5 -83h-113v30q5 90 55.5 145.5t141.5 55.5q46 0 92.5 -19t77.5 -42.5t67 -42.5t64 -19q88 0 88 111h115v-31q-6 -90 -57.5 -145.5t-141.5 -55.5q-46 0 -91.5 19t-76.5 42.5t-67 42.5t-64 19zM580 1294q88 0 137 39.5t57 102.5h139v-31
q-15 -94 -100.5 -160.5t-232.5 -66.5q-145 0 -231 66.5t-101 160.5v31h139q8 -62 57.5 -102t135.5 -40zM584 1067q200 0 320 -100.5t120 -286.5v-680h-174v154h-21q-108 -177 -362 -177q-170 0 -275.5 80.5t-105.5 218.5q0 140 100.5 216t270.5 92l389 37v63
q0 125 -69 186.5t-197 61.5q-127 0 -202.5 -57.5t-88.5 -165.5h-174v30q27 149 152 238.5t317 89.5zM846 459v28l-365 -34q-215 -19 -215 -168q0 -78 63 -125t169 -47q151 0 249.5 88.5t98.5 257.5z" />
    <glyph glyph-name="uni1EB6" unicode="&#x1eb6;" horiz-adv-x="1419" 
d="M711 1573q-154 0 -238.5 69.5t-97.5 172.5v28h147q5 -63 51.5 -104t137.5 -41t137 41t51 104h148v-28q-13 -103 -97.5 -172.5t-238.5 -69.5zM831 1475l537 -1444v-31h-184l-154 416h-641l-151 -416h-187v31l539 1444h241zM440 565h539l-258 711h-21zM586 -375v201h250
v-201h-250z" />
    <glyph glyph-name="uni1EB7" unicode="&#x1eb7;" horiz-adv-x="1165" 
d="M580 1176q-152 0 -237.5 78t-92.5 190v31h139q0 -76 51.5 -126.5t139.5 -50.5q87 0 138.5 50.5t51.5 126.5h137v-31q-7 -112 -91.5 -190t-235.5 -78zM584 1067q200 0 320 -100.5t120 -286.5v-680h-174v154h-21q-108 -177 -362 -177q-170 0 -275.5 80.5t-105.5 218.5
q0 140 100.5 216t270.5 92l389 37v63q0 125 -69 186.5t-197 61.5q-127 0 -202.5 -57.5t-88.5 -165.5h-174v30q27 149 152 238.5t317 89.5zM846 459v28l-365 -34q-215 -19 -215 -168q0 -78 63 -125t169 -47q151 0 249.5 88.5t98.5 257.5zM455 -375v201h250v-201h-250z" />
    <glyph glyph-name="uni1EB8" unicode="&#x1eb8;" horiz-adv-x="1300" 
d="M166 1475h1034v-156h-846v-485h744v-156h-744v-522h867v-156h-1055v1475zM567 -174h250v-201h-250v201z" />
    <glyph glyph-name="uni1EB9" unicode="&#x1eb9;" horiz-adv-x="1181" 
d="M86 522q0 248 140.5 396.5t375.5 148.5q231 0 362.5 -141.5t131.5 -368.5v-78h-826q3 -164 93.5 -266t242.5 -102q70 0 127 21t92 56t55.5 73.5t28.5 80.5h172v-31q-9 -43 -29.5 -85.5t-59.5 -89t-90.5 -81.5t-128.5 -57.5t-167 -22.5q-238 0 -379 149t-141 398zM270 614
h648q-5 141 -87 229.5t-229 88.5q-145 0 -232.5 -89t-99.5 -229zM479 -174h250v-201h-250v201z" />
    <glyph glyph-name="uni1EBA" unicode="&#x1eba;" horiz-adv-x="1300" 
d="M477 1849q102 62 246 62q91 0 148 -36.5t57 -98.5q0 -36 -19 -66t-41 -47t-56 -38q-6 -3 -9 -5l-58 -35h-139v31l113 72q24 17 34 25t18.5 19.5t8.5 24.5q0 45 -75 45q-94 0 -197 -65h-31v112zM166 1475h1034v-156h-846v-485h744v-156h-744v-522h867v-156h-1055v1475z
" />
    <glyph glyph-name="uni1EBB" unicode="&#x1ebb;" horiz-adv-x="1181" 
d="M397 1452q105 64 246 64q90 0 147.5 -38t57.5 -100q0 -15 -3.5 -29t-7.5 -24t-13.5 -22t-15 -18.5t-20.5 -17.5t-20 -14.5t-23 -15t-22 -14.5l-57 -35h-140v31l113 71q23 16 34 24.5t19 21t8 26.5q0 43 -75 43q-93 0 -197 -66h-31v113zM86 522q0 248 140.5 396.5
t375.5 148.5q231 0 362.5 -141.5t131.5 -368.5v-78h-826q3 -164 93.5 -266t242.5 -102q70 0 127 21t92 56t55.5 73.5t28.5 80.5h172v-31q-9 -43 -29.5 -85.5t-59.5 -89t-90.5 -81.5t-128.5 -57.5t-167 -22.5q-238 0 -379 149t-141 398zM270 614h648q-5 141 -87 229.5
t-229 88.5q-145 0 -232.5 -89t-99.5 -229z" />
    <glyph glyph-name="uni1EBC" unicode="&#x1ebc;" horiz-adv-x="1300" 
d="M528 1712q-96 0 -96 -108h-123v30q5 89 58 148t149 59q49 0 97.5 -19.5t79.5 -43t70 -43t73 -19.5q94 0 94 107h125v-31q-7 -89 -59.5 -147t-149.5 -58q-49 0 -96.5 19.5t-79 43t-70 43t-72.5 19.5zM680 1716v-4h2v4h-2zM354 156h867v-156h-1055v1475h1034v-156h-846
v-485h744v-156h-744v-522z" />
    <glyph glyph-name="uni1EBD" unicode="&#x1ebd;" horiz-adv-x="1181" 
d="M465 1333q-91 0 -94 -116h-119v30q5 92 56 151.5t145 59.5q46 0 90.5 -20t73.5 -44.5t63.5 -44.5t64.5 -20q92 0 95 117h118v-31q-5 -92 -56 -151.5t-144 -59.5q-45 0 -89.5 20t-74 44.5t-64.5 44.5t-65 20zM1096 557v-78h-826q3 -164 93.5 -266t242.5 -102q70 0 127 21
t92 56t55.5 73.5t28.5 80.5h172v-31q-9 -43 -29.5 -85.5t-59.5 -89t-90.5 -81.5t-128.5 -57.5t-167 -22.5q-238 0 -379 149t-141 398q0 248 140.5 396.5t375.5 148.5q231 0 362.5 -141.5t131.5 -368.5zM270 614h648q-5 141 -87 229.5t-229 88.5q-145 0 -232.5 -89
t-99.5 -229z" />
    <glyph glyph-name="uni1EBE" unicode="&#x1ebe;" horiz-adv-x="1300" 
d="M1075 2054h209v-31l-182 -227h-144v31zM684 1741l-201 -156h-178v37l266 221h226l264 -221v-37h-178zM354 678v-522h867v-156h-1055v1475h1034v-156h-846v-485h744v-156h-744z" />
    <glyph glyph-name="uni1EBF" unicode="&#x1ebf;" horiz-adv-x="1181" 
d="M979 1720h172v-30l-147 -254h-136v30zM604 1374l-174 -186h-151v31l219 256h209l221 -256v-31h-152zM602 1067q231 0 362.5 -141.5t131.5 -368.5v-78h-826q3 -164 93.5 -266t242.5 -102q70 0 127 21t92 56t55.5 73.5t28.5 80.5h172v-31q-9 -43 -29.5 -85.5t-59.5 -89
t-90.5 -81.5t-128.5 -57.5t-167 -22.5q-238 0 -379 149t-141 398q0 248 140.5 396.5t375.5 148.5zM270 614h648q-5 141 -87 229.5t-229 88.5q-145 0 -232.5 -89t-99.5 -229z" />
    <glyph glyph-name="uni1EC0" unicode="&#x1ec0;" horiz-adv-x="1300" 
d="M1133 1796h-144l-182 227v31h209l117 -227v-31zM684 1741l-201 -156h-178v37l266 221h226l264 -221v-37h-178zM354 156h867v-156h-1055v1475h1034v-156h-846v-485h744v-156h-744v-522z" />
    <glyph glyph-name="uni1EC1" unicode="&#x1ec1;" horiz-adv-x="1181" 
d="M1051 1436h-138l-145 254v30h172l111 -254v-30zM604 1374l-174 -186h-151v31l219 256h209l221 -256v-31h-152zM1096 557v-78h-826q3 -164 93.5 -266t242.5 -102q70 0 127 21t92 56t55.5 73.5t28.5 80.5h172v-31q-9 -43 -29.5 -85.5t-59.5 -89t-90.5 -81.5t-128.5 -57.5
t-167 -22.5q-238 0 -379 149t-141 398q0 248 140.5 396.5t375.5 148.5q231 0 362.5 -141.5t131.5 -368.5zM270 614h648q-5 141 -87 229.5t-229 88.5q-145 0 -232.5 -89t-99.5 -229z" />
    <glyph glyph-name="uni1EC2" unicode="&#x1ec2;" horiz-adv-x="1300" 
d="M1057 2122q91 0 148 -36.5t57 -98.5q0 -36 -19 -66t-41 -47t-56 -38q-3 -1 -5 -2.5t-4 -2.5l-58 -35h-139v31l113 71q34 24 47.5 37.5t13.5 32.5q0 45 -76 45q-93 0 -196 -65h-31v112q102 62 246 62zM684 1741l-201 -156h-178v37l266 221h226l264 -221v-37h-178zM354 678
v-522h867v-156h-1055v1475h1034v-156h-846v-485h744v-156h-744z" />
    <glyph glyph-name="uni1EC3" unicode="&#x1ec3;" horiz-adv-x="1181" 
d="M956 1761q90 0 147.5 -37.5t57.5 -99.5q0 -13 -2 -25t-7.5 -23.5t-9.5 -19.5t-14 -18t-15 -15.5t-18.5 -15t-18.5 -13t-20.5 -13.5t-19.5 -13l-57 -34h-139v30l112 72q24 17 34.5 25t19 20.5t8.5 26.5q0 43 -76 43q-93 0 -197 -66h-30v113q103 63 245 63zM604 1374
l-174 -186h-151v31l219 256h209l221 -256v-31h-152zM602 1067q231 0 362.5 -141.5t131.5 -368.5v-78h-826q3 -164 93.5 -266t242.5 -102q70 0 127 21t92 56t55.5 73.5t28.5 80.5h172v-31q-9 -43 -29.5 -85.5t-59.5 -89t-90.5 -81.5t-128.5 -57.5t-167 -22.5q-238 0 -379 149
t-141 398q0 248 140.5 396.5t375.5 148.5zM270 614h648q-5 141 -87 229.5t-229 88.5q-145 0 -232.5 -89t-99.5 -229z" />
    <glyph glyph-name="uni1EC4" unicode="&#x1ec4;" horiz-adv-x="1300" 
d="M528 2081q-96 0 -96 -109h-123v31q5 89 58 148t149 59q49 0 97.5 -19.5t79.5 -43t70 -43t73 -19.5q94 0 94 106h125v-30q-7 -89 -59.5 -147t-149.5 -58q-49 0 -96.5 19.5t-79 43t-70 43t-72.5 19.5zM680 2085v-4h2v4h-2zM684 1741l-201 -156h-178v37l266 221h226
l264 -221v-37h-178zM354 156h867v-156h-1055v1475h1034v-156h-846v-485h744v-156h-744v-522z" />
    <glyph glyph-name="uni1EC5" unicode="&#x1ec5;" horiz-adv-x="1181" 
d="M459 1671q-45 0 -66.5 -27t-23.5 -83h-113v30q5 90 55.5 145.5t141.5 55.5q46 0 92.5 -19t77.5 -42.5t67 -42.5t64 -19q88 0 88 111h114v-31q-6 -90 -57 -145.5t-141 -55.5q-46 0 -91.5 19t-76.5 42.5t-67 42.5t-64 19zM604 1339l-192 -151h-164v31l252 217h209l254 -217
v-31h-166zM1096 557v-78h-826q3 -164 93.5 -266t242.5 -102q70 0 127 21t92 56t55.5 73.5t28.5 80.5h172v-31q-9 -43 -29.5 -85.5t-59.5 -89t-90.5 -81.5t-128.5 -57.5t-167 -22.5q-238 0 -379 149t-141 398q0 248 140.5 396.5t375.5 148.5q231 0 362.5 -141.5t131.5 -368.5
zM270 614h648q-5 141 -87 229.5t-229 88.5q-145 0 -232.5 -89t-99.5 -229z" />
    <glyph glyph-name="uni1EC6" unicode="&#x1ec6;" horiz-adv-x="1300" 
d="M684 1741l-201 -156h-178v37l266 221h226l264 -221v-37h-178zM354 156h867v-156h-1055v1475h1034v-156h-846v-485h744v-156h-744v-522zM567 -375v201h250v-201h-250z" />
    <glyph glyph-name="uni1EC7" unicode="&#x1ec7;" horiz-adv-x="1181" 
d="M604 1374l-174 -186h-151v31l219 256h209l221 -256v-31h-152zM1096 557v-78h-826q3 -164 93.5 -266t242.5 -102q70 0 127 21t92 56t55.5 73.5t28.5 80.5h172v-31q-9 -43 -29.5 -85.5t-59.5 -89t-90.5 -81.5t-128.5 -57.5t-167 -22.5q-238 0 -379 149t-141 398
q0 248 140.5 396.5t375.5 148.5q231 0 362.5 -141.5t131.5 -368.5zM270 614h648q-5 141 -87 229.5t-229 88.5q-145 0 -232.5 -89t-99.5 -229zM479 -375v201h250v-201h-250z" />
    <glyph glyph-name="uni1EC8" unicode="&#x1ec8;" horiz-adv-x="522" 
d="M299 1911q91 0 148 -36.5t57 -98.5q0 -36 -19 -66t-41 -47t-56 -38q-6 -3 -9 -5l-57 -35h-140v31l113 72q24 17 34 25t18.5 19.5t8.5 24.5q0 45 -75 45q-94 0 -197 -65h-31v112q102 62 246 62zM166 1475h188v-1475h-188v1475z" />
    <glyph glyph-name="uni1EC9" unicode="&#x1ec9;" horiz-adv-x="477" 
d="M279 1516q90 0 147 -38t57 -100q0 -15 -3.5 -29t-7.5 -24t-13.5 -22t-15 -18.5t-20.5 -17.5t-20 -14.5t-23 -15t-22 -14.5l-57 -35h-139v31l112 71q24 17 34.5 25t19 20.5t8.5 26.5q0 43 -76 43q-93 0 -197 -66h-30v113q105 64 246 64zM150 1042h180v-1042h-180v1042z
" />
    <glyph glyph-name="uni1ECA" unicode="&#x1eca;" horiz-adv-x="522" 
d="M354 0h-188v1475h188v-1475zM135 -174h250v-201h-250v201z" />
    <glyph glyph-name="uni1ECB" unicode="&#x1ecb;" horiz-adv-x="477" 
d="M115 1440h250v-201h-250v201zM330 0h-180v1042h180v-1042zM115 -375v201h250v-201h-250z" />
    <glyph glyph-name="uni1ECC" unicode="&#x1ecc;" horiz-adv-x="1658" 
d="M92 737q0 177 54.5 321t152.5 240.5t233.5 148.5t296.5 52t297 -52t234.5 -148.5t153.5 -241t55 -320.5t-55 -320.5t-153.5 -241t-234.5 -148.5t-297 -52t-296.5 52t-233.5 148.5t-152.5 240.5t-54.5 321zM279 737q0 -285 149.5 -447.5t400.5 -162.5q252 0 401.5 163
t149.5 447q0 285 -150 448t-401 163t-400.5 -163t-149.5 -448zM705 -174h249v-201h-249v201z" />
    <glyph glyph-name="uni1ECD" unicode="&#x1ecd;" horiz-adv-x="1212" 
d="M86 522q0 247 142.5 396t377.5 149t377.5 -149t142.5 -396q0 -249 -142.5 -398t-377.5 -149t-377.5 149t-142.5 398zM266 522q0 -192 92.5 -299.5t247.5 -107.5t246.5 107.5t91.5 299.5q0 191 -92 298.5t-246 107.5q-155 0 -247.5 -107.5t-92.5 -298.5zM481 -174h250
v-201h-250v201z" />
    <glyph glyph-name="uni1ECE" unicode="&#x1ece;" horiz-adv-x="1658" 
d="M623 1849q102 62 245 62q91 0 148 -36.5t57 -98.5q0 -36 -19 -66t-41 -47t-56 -38q-6 -3 -9 -5l-57 -35h-139v31l112 72q25 18 34.5 25t18.5 19t9 25q0 45 -76 45q-94 0 -197 -65h-30v112zM92 737q0 177 54.5 321t152.5 240.5t233.5 148.5t296.5 52t297 -52t234.5 -148.5
t153.5 -241t55 -320.5t-55 -320.5t-153.5 -241t-234.5 -148.5t-297 -52t-296.5 52t-233.5 148.5t-152.5 240.5t-54.5 321zM279 737q0 -285 149.5 -447.5t400.5 -162.5q252 0 401.5 163t149.5 447q0 285 -150 448t-401 163t-400.5 -163t-149.5 -448z" />
    <glyph glyph-name="uni1ECF" unicode="&#x1ecf;" horiz-adv-x="1212" 
d="M399 1452q105 64 246 64q90 0 147.5 -38t57.5 -100q0 -15 -3.5 -29t-7.5 -24t-13.5 -22t-15 -18.5t-20.5 -17.5t-20 -14.5t-23 -15t-22 -14.5l-57 -35h-140v31l113 71q23 16 34 24.5t19 21t8 26.5q0 43 -75 43q-93 0 -197 -66h-31v113zM86 522q0 247 142.5 396t377.5 149
t377.5 -149t142.5 -396q0 -249 -142.5 -398t-377.5 -149t-377.5 149t-142.5 398zM266 522q0 -192 92.5 -299.5t247.5 -107.5t246.5 107.5t91.5 299.5q0 191 -92 298.5t-246 107.5q-155 0 -247.5 -107.5t-92.5 -298.5z" />
    <glyph glyph-name="uni1ED0" unicode="&#x1ed0;" horiz-adv-x="1658" 
d="M1430 2023l-183 -227h-143v31l117 227h209v-31zM829 1741l-200 -156h-178v37l266 221h225l264 -221v-37h-178zM829 1499q161 0 297 -52t234.5 -148.5t153.5 -241t55 -320.5t-55 -320.5t-153.5 -241t-234.5 -148.5t-297 -52t-296.5 52t-233.5 148.5t-152.5 240.5
t-54.5 321t54.5 321t152.5 240.5t233.5 148.5t296.5 52zM829 127q252 0 401.5 163t149.5 447q0 285 -150 448t-401 163t-400.5 -163t-149.5 -448t149.5 -447.5t400.5 -162.5z" />
    <glyph glyph-name="uni1ED1" unicode="&#x1ed1;" horiz-adv-x="1212" 
d="M981 1720h172v-30l-147 -254h-136v30zM606 1374l-174 -186h-151v31l219 256h209l221 -256v-31h-152zM606 1067q235 0 377.5 -149t142.5 -396q0 -249 -142.5 -398t-377.5 -149t-377.5 149t-142.5 398q0 247 142.5 396t377.5 149zM606 115q155 0 246.5 107.5t91.5 299.5
q0 191 -92 298.5t-246 107.5q-155 0 -247.5 -107.5t-92.5 -298.5q0 -192 92.5 -299.5t247.5 -107.5z" />
    <glyph glyph-name="uni1ED2" unicode="&#x1ed2;" horiz-adv-x="1658" 
d="M1278 1796h-143l-183 227v31h209l117 -227v-31zM829 1741l-200 -156h-178v37l266 221h225l264 -221v-37h-178zM829 1499q161 0 297 -52t234.5 -148.5t153.5 -241t55 -320.5t-55 -320.5t-153.5 -241t-234.5 -148.5t-297 -52t-296.5 52t-233.5 148.5t-152.5 240.5
t-54.5 321t54.5 321t152.5 240.5t233.5 148.5t296.5 52zM829 127q252 0 401.5 163t149.5 447q0 285 -150 448t-401 163t-400.5 -163t-149.5 -448t149.5 -447.5t400.5 -162.5z" />
    <glyph glyph-name="uni1ED3" unicode="&#x1ed3;" horiz-adv-x="1212" 
d="M1051 1436h-138l-145 254v30h172l111 -254v-30zM606 1374l-174 -186h-151v31l219 256h209l221 -256v-31h-152zM606 1067q235 0 377.5 -149t142.5 -396q0 -249 -142.5 -398t-377.5 -149t-377.5 149t-142.5 398q0 247 142.5 396t377.5 149zM606 115q155 0 246.5 107.5
t91.5 299.5q0 191 -92 298.5t-246 107.5q-155 0 -247.5 -107.5t-92.5 -298.5q0 -192 92.5 -299.5t247.5 -107.5z" />
    <glyph glyph-name="uni1ED4" unicode="&#x1ed4;" horiz-adv-x="1658" 
d="M1184 2013q-94 0 -197 -65h-31v112q102 62 246 62q91 0 148 -36.5t57 -98.5q0 -36 -19 -66t-41 -47t-56 -38q-3 -1 -5 -2.5t-4 -2.5l-57 -35h-140v31l113 71q24 17 34.5 25t19 20t8.5 25q0 45 -76 45zM829 1741l-200 -156h-178v37l266 221h225l264 -221v-37h-178z
M829 1499q161 0 297 -52t234.5 -148.5t153.5 -241t55 -320.5t-55 -320.5t-153.5 -241t-234.5 -148.5t-297 -52t-296.5 52t-233.5 148.5t-152.5 240.5t-54.5 321t54.5 321t152.5 240.5t233.5 148.5t296.5 52zM829 127q252 0 401.5 163t149.5 447q0 285 -150 448t-401 163
t-400.5 -163t-149.5 -448t149.5 -447.5t400.5 -162.5z" />
    <glyph glyph-name="uni1ED5" unicode="&#x1ed5;" horiz-adv-x="1212" 
d="M940 1651q-93 0 -197 -66h-30v113q103 63 245 63q90 0 147.5 -37.5t57.5 -99.5q0 -13 -2 -25t-7.5 -23.5t-9.5 -19.5t-14 -18t-15 -15.5t-18.5 -15t-18.5 -13t-20.5 -13.5t-19.5 -13l-57 -34h-139v30l112 72q24 17 34.5 25t19 20.5t8.5 26.5q0 43 -76 43zM606 1374
l-174 -186h-151v31l219 256h209l221 -256v-31h-152zM606 1067q235 0 377.5 -149t142.5 -396q0 -249 -142.5 -398t-377.5 -149t-377.5 149t-142.5 398q0 247 142.5 396t377.5 149zM606 115q155 0 246.5 107.5t91.5 299.5q0 191 -92 298.5t-246 107.5q-155 0 -247.5 -107.5
t-92.5 -298.5q0 -192 92.5 -299.5t247.5 -107.5z" />
    <glyph glyph-name="uni1ED6" unicode="&#x1ed6;" horiz-adv-x="1658" 
d="M674 2081q-96 0 -96 -109h-123v31q5 89 58 148t149 59q49 0 97 -19.5t79.5 -43t70 -43t72.5 -19.5q94 0 94 106h125v-30q-7 -89 -59.5 -147t-149.5 -58q-49 0 -96.5 19.5t-78.5 43t-69.5 43t-72.5 19.5zM825 2085v-4h2v4h-2zM829 1741l-200 -156h-178v37l266 221h225
l264 -221v-37h-178zM829 1499q161 0 297 -52t234.5 -148.5t153.5 -241t55 -320.5t-55 -320.5t-153.5 -241t-234.5 -148.5t-297 -52t-296.5 52t-233.5 148.5t-152.5 240.5t-54.5 321t54.5 321t152.5 240.5t233.5 148.5t296.5 52zM829 127q252 0 401.5 163t149.5 447
q0 285 -150 448t-401 163t-400.5 -163t-149.5 -448t149.5 -447.5t400.5 -162.5z" />
    <glyph glyph-name="uni1ED7" unicode="&#x1ed7;" horiz-adv-x="1212" 
d="M459 1673q-45 0 -66.5 -27t-23.5 -83h-113v30q5 90 55.5 145.5t141.5 55.5q46 0 92.5 -19t77.5 -42.5t67 -42.5t64 -19q88 0 88 111h114v-31q-6 -90 -57 -145.5t-141 -55.5q-46 0 -91.5 19t-76.5 42.5t-67 42.5t-64 19zM606 1339l-192 -151h-164v31l252 217h209l254 -217
v-31h-166zM606 1067q235 0 377.5 -149t142.5 -396q0 -249 -142.5 -398t-377.5 -149t-377.5 149t-142.5 398q0 247 142.5 396t377.5 149zM606 115q155 0 246.5 107.5t91.5 299.5q0 191 -92 298.5t-246 107.5q-155 0 -247.5 -107.5t-92.5 -298.5q0 -192 92.5 -299.5
t247.5 -107.5z" />
    <glyph glyph-name="uni1ED8" unicode="&#x1ed8;" horiz-adv-x="1658" 
d="M829 1741l-200 -156h-178v37l266 221h225l264 -221v-37h-178zM829 1499q161 0 297 -52t234.5 -148.5t153.5 -241t55 -320.5t-55 -320.5t-153.5 -241t-234.5 -148.5t-297 -52t-296.5 52t-233.5 148.5t-152.5 240.5t-54.5 321t54.5 321t152.5 240.5t233.5 148.5t296.5 52z
M829 127q252 0 401.5 163t149.5 447q0 285 -150 448t-401 163t-400.5 -163t-149.5 -448t149.5 -447.5t400.5 -162.5zM705 -375v201h249v-201h-249z" />
    <glyph glyph-name="uni1ED9" unicode="&#x1ed9;" horiz-adv-x="1212" 
d="M606 1374l-174 -186h-151v31l219 256h209l221 -256v-31h-152zM606 1067q235 0 377.5 -149t142.5 -396q0 -249 -142.5 -398t-377.5 -149t-377.5 149t-142.5 398q0 247 142.5 396t377.5 149zM606 115q155 0 246.5 107.5t91.5 299.5q0 191 -92 298.5t-246 107.5
q-155 0 -247.5 -107.5t-92.5 -298.5q0 -192 92.5 -299.5t247.5 -107.5zM481 -375v201h250v-201h-250z" />
    <glyph glyph-name="uni1EDA" unicode="&#x1eda;" horiz-adv-x="1673" 
d="M1352 1307q217 -211 217 -570q0 -176 -55 -320.5t-153.5 -241t-234.5 -148.5t-297 -52t-296.5 52t-233.5 148.5t-152.5 240.5t-54.5 321t54.5 321t152.5 240.5t233.5 148.5t296.5 52q223 0 392 -96q231 20 231 215q0 86 -55 194v31h159q54 -120 54 -229
q0 -124 -66.5 -201.5t-191.5 -105.5zM1069 1812l-217 -227h-158v31l158 227h217v-31zM829 127q252 0 401.5 163t149.5 447q0 285 -150 448t-401 163t-400.5 -163t-149.5 -448t149.5 -447.5t400.5 -162.5z" />
    <glyph glyph-name="uni1EDB" unicode="&#x1edb;" horiz-adv-x="1275" 
d="M852 1444l-215 -256h-148v31l166 256h197v-31zM1257 1219q0 -258 -264 -310q133 -152 133 -387q0 -249 -142.5 -398t-377.5 -149t-377.5 149t-142.5 398q0 247 142.5 396t377.5 149q149 0 266 -63q234 18 234 219q0 72 -35 166v30h146q40 -102 40 -200zM606 115
q155 0 246.5 107.5t91.5 299.5q0 191 -92 298.5t-246 107.5q-155 0 -247.5 -107.5t-92.5 -298.5q0 -192 92.5 -299.5t247.5 -107.5z" />
    <glyph glyph-name="uni1EDC" unicode="&#x1edc;" horiz-adv-x="1673" 
d="M1352 1307q217 -211 217 -570q0 -176 -55 -320.5t-153.5 -241t-234.5 -148.5t-297 -52t-296.5 52t-233.5 148.5t-152.5 240.5t-54.5 321t54.5 321t152.5 240.5t233.5 148.5t296.5 52q223 0 392 -96q231 20 231 215q0 86 -55 194v31h159q54 -120 54 -229
q0 -124 -66.5 -201.5t-191.5 -105.5zM958 1585h-157l-217 227v31h217l157 -227v-31zM829 127q252 0 401.5 163t149.5 447q0 285 -150 448t-401 163t-400.5 -163t-149.5 -448t149.5 -447.5t400.5 -162.5z" />
    <glyph glyph-name="uni1EDD" unicode="&#x1edd;" horiz-adv-x="1275" 
d="M719 1188h-148l-215 256v31h197l166 -256v-31zM1257 1219q0 -258 -264 -310q133 -152 133 -387q0 -249 -142.5 -398t-377.5 -149t-377.5 149t-142.5 398q0 247 142.5 396t377.5 149q149 0 266 -63q234 18 234 219q0 72 -35 166v30h146q40 -102 40 -200zM606 115
q155 0 246.5 107.5t91.5 299.5q0 191 -92 298.5t-246 107.5q-155 0 -247.5 -107.5t-92.5 -298.5q0 -192 92.5 -299.5t247.5 -107.5z" />
    <glyph glyph-name="uni1EDE" unicode="&#x1ede;" horiz-adv-x="1673" 
d="M850 1802q-94 0 -197 -65h-30v112q102 62 245 62q91 0 148 -36.5t57 -98.5q0 -36 -19 -66t-41 -47t-56 -38q-6 -3 -9 -5l-57 -35h-139v31l112 72q25 18 34.5 25t18.5 19t9 25q0 45 -76 45zM1352 1307q217 -211 217 -570q0 -176 -55 -320.5t-153.5 -241t-234.5 -148.5
t-297 -52t-296.5 52t-233.5 148.5t-152.5 240.5t-54.5 321t54.5 321t152.5 240.5t233.5 148.5t296.5 52q223 0 392 -96q231 20 231 215q0 86 -55 194v31h159q54 -120 54 -229q0 -124 -66.5 -201.5t-191.5 -105.5zM829 127q252 0 401.5 163t149.5 447q0 285 -150 448
t-401 163t-400.5 -163t-149.5 -448t149.5 -447.5t400.5 -162.5z" />
    <glyph glyph-name="uni1EDF" unicode="&#x1edf;" horiz-adv-x="1275" 
d="M627 1405q-93 0 -197 -66h-31v113q105 64 246 64q90 0 147.5 -38t57.5 -100q0 -15 -3.5 -29t-7.5 -24t-13.5 -22t-15 -18.5t-20.5 -17.5t-20 -14.5t-23 -15t-22 -14.5l-57 -35h-140v31l113 71q23 16 34 24.5t19 21t8 26.5q0 43 -75 43zM1257 1219q0 -258 -264 -310
q133 -152 133 -387q0 -249 -142.5 -398t-377.5 -149t-377.5 149t-142.5 398q0 247 142.5 396t377.5 149q149 0 266 -63q234 18 234 219q0 72 -35 166v30h146q40 -102 40 -200zM606 115q155 0 246.5 107.5t91.5 299.5q0 191 -92 298.5t-246 107.5q-155 0 -247.5 -107.5
t-92.5 -298.5q0 -192 92.5 -299.5t247.5 -107.5z" />
    <glyph glyph-name="uni1EE0" unicode="&#x1ee0;" horiz-adv-x="1673" 
d="M1352 1307q217 -211 217 -570q0 -176 -55 -320.5t-153.5 -241t-234.5 -148.5t-297 -52t-296.5 52t-233.5 148.5t-152.5 240.5t-54.5 321t54.5 321t152.5 240.5t233.5 148.5t296.5 52q223 0 392 -96q231 20 231 215q0 86 -55 194v31h159q54 -120 54 -229
q0 -124 -66.5 -201.5t-191.5 -105.5zM674 1712q-96 0 -96 -108h-123v30q5 89 58 148t149 59q49 0 97 -19.5t79.5 -43t70 -43t72.5 -19.5q94 0 94 107h125v-31q-7 -89 -59.5 -147t-149.5 -58q-49 0 -96.5 19.5t-78.5 43t-69.5 43t-72.5 19.5zM825 1716v-4h2v4h-2zM829 127
q252 0 401.5 163t149.5 447q0 285 -150 448t-401 163t-400.5 -163t-149.5 -448t149.5 -447.5t400.5 -162.5z" />
    <glyph glyph-name="uni1EE1" unicode="&#x1ee1;" horiz-adv-x="1275" 
d="M451 1333q-92 0 -95 -116h-118v30q5 92 56 151.5t144 59.5q45 0 89.5 -20t74 -44.5t64.5 -44.5t65 -20q92 0 92 117h121v-31q-6 -93 -57 -152t-144 -59q-38 0 -74 13.5t-63.5 32t-52.5 37.5t-51.5 32.5t-50.5 13.5zM1257 1219q0 -258 -264 -310q133 -152 133 -387
q0 -249 -142.5 -398t-377.5 -149t-377.5 149t-142.5 398q0 247 142.5 396t377.5 149q149 0 266 -63q234 18 234 219q0 72 -35 166v30h146q40 -102 40 -200zM606 115q155 0 246.5 107.5t91.5 299.5q0 191 -92 298.5t-246 107.5q-155 0 -247.5 -107.5t-92.5 -298.5
q0 -192 92.5 -299.5t247.5 -107.5z" />
    <glyph glyph-name="uni1EE2" unicode="&#x1ee2;" horiz-adv-x="1673" 
d="M1352 1307q217 -211 217 -570q0 -176 -55 -320.5t-153.5 -241t-234.5 -148.5t-297 -52t-296.5 52t-233.5 148.5t-152.5 240.5t-54.5 321t54.5 321t152.5 240.5t233.5 148.5t296.5 52q223 0 392 -96q231 20 231 215q0 86 -55 194v31h159q54 -120 54 -229
q0 -124 -66.5 -201.5t-191.5 -105.5zM829 127q252 0 401.5 163t149.5 447q0 285 -150 448t-401 163t-400.5 -163t-149.5 -448t149.5 -447.5t400.5 -162.5zM705 -375v201h249v-201h-249z" />
    <glyph glyph-name="uni1EE3" unicode="&#x1ee3;" horiz-adv-x="1275" 
d="M1257 1219q0 -258 -264 -310q133 -152 133 -387q0 -249 -142.5 -398t-377.5 -149t-377.5 149t-142.5 398q0 247 142.5 396t377.5 149q149 0 266 -63q234 18 234 219q0 72 -35 166v30h146q40 -102 40 -200zM606 115q155 0 246.5 107.5t91.5 299.5q0 191 -92 298.5
t-246 107.5q-155 0 -247.5 -107.5t-92.5 -298.5q0 -192 92.5 -299.5t247.5 -107.5zM481 -375v201h250v-201h-250z" />
    <glyph glyph-name="uni1EE4" unicode="&#x1ee4;" horiz-adv-x="1480" 
d="M158 1475h188v-938q0 -206 101.5 -308t293.5 -102q191 0 292.5 102t101.5 308v938h188v-930q0 -272 -149.5 -421t-432.5 -149t-433 149t-150 421v930zM612 -174h250v-201h-250v201z" />
    <glyph glyph-name="uni1EE5" unicode="&#x1ee5;" horiz-adv-x="1226" 
d="M1077 0h-174v154h-20q-105 -177 -351 -177q-178 0 -284.5 97t-106.5 276v692h181v-673q0 -126 67.5 -188t185.5 -62q66 0 123 20.5t102 61.5t71 107.5t26 152.5v581h180v-1042zM485 -174h250v-201h-250v201z" />
    <glyph glyph-name="uni1EE6" unicode="&#x1ee6;" horiz-adv-x="1480" 
d="M535 1849q102 62 245 62q91 0 148 -36.5t57 -98.5q0 -36 -19 -66t-41 -47t-56 -38q-6 -3 -9 -5l-57 -35h-139v31l112 72q25 18 34.5 25t18.5 19t9 25q0 45 -76 45q-94 0 -197 -65h-30v112zM158 1475h188v-938q0 -206 101.5 -308t293.5 -102q191 0 292.5 102t101.5 308
v938h188v-930q0 -272 -149.5 -421t-432.5 -149t-433 149t-150 421v930z" />
    <glyph glyph-name="uni1EE7" unicode="&#x1ee7;" horiz-adv-x="1226" 
d="M403 1452q105 64 246 64q90 0 147.5 -38t57.5 -100q0 -15 -3.5 -29t-7.5 -24t-13.5 -22t-15 -18.5t-20.5 -17.5t-20 -14.5t-23 -15t-22 -14.5l-57 -35h-140v31l113 71q24 17 34.5 25t19 20.5t8.5 26.5q0 43 -76 43q-93 0 -197 -66h-31v113zM1077 0h-174v154h-20
q-105 -177 -351 -177q-178 0 -284.5 97t-106.5 276v692h181v-673q0 -126 67.5 -188t185.5 -62q66 0 123 20.5t102 61.5t71 107.5t26 152.5v581h180v-1042z" />
    <glyph glyph-name="uni1EE8" unicode="&#x1ee8;" horiz-adv-x="1632" 
d="M1610 1843q55 -112 55 -229q0 -128 -79.5 -195t-215.5 -67h-47v-807q0 -272 -149.5 -421t-432.5 -149t-433 149t-150 421v930h188v-938q0 -206 101.5 -308t293.5 -102q191 0 292.5 102t101.5 308v938h215q84 0 120.5 36.5t36.5 106.5q0 86 -55 194v31h158zM979 1812
l-217 -227h-158v31l158 227h217v-31z" />
    <glyph glyph-name="uni1EE9" unicode="&#x1ee9;" horiz-adv-x="1447" 
d="M856 1444l-217 -256h-147v31l165 256h199v-31zM1356 1419q59 -125 59 -235q0 -126 -77 -190t-212 -64h-49v-930h-174v154h-20q-105 -177 -351 -177q-178 0 -284.5 97t-106.5 276v692h181v-673q0 -126 67.5 -188t185.5 -62q66 0 123 20.5t102 61.5t71 107.5t26 152.5v581
h209q85 0 122.5 37t37.5 107q0 90 -60 203v30h150z" />
    <glyph glyph-name="uni1EEA" unicode="&#x1eea;" horiz-adv-x="1632" 
d="M1610 1843q55 -112 55 -229q0 -128 -79.5 -195t-215.5 -67h-47v-807q0 -272 -149.5 -421t-432.5 -149t-433 149t-150 421v930h188v-938q0 -206 101.5 -308t293.5 -102q191 0 292.5 102t101.5 308v938h215q84 0 120.5 36.5t36.5 106.5q0 86 -55 194v31h158zM868 1585h-157
l-217 227v31h217l157 -227v-31z" />
    <glyph glyph-name="uni1EEB" unicode="&#x1eeb;" horiz-adv-x="1447" 
d="M723 1188h-148l-217 256v31h199l166 -256v-31zM1356 1419q59 -125 59 -235q0 -126 -77 -190t-212 -64h-49v-930h-174v154h-20q-105 -177 -351 -177q-178 0 -284.5 97t-106.5 276v692h181v-673q0 -126 67.5 -188t185.5 -62q66 0 123 20.5t102 61.5t71 107.5t26 152.5v581
h209q85 0 122.5 37t37.5 107q0 90 -60 203v30h150z" />
    <glyph glyph-name="uni1EEC" unicode="&#x1eec;" horiz-adv-x="1632" 
d="M762 1802q-96 0 -199 -65h-31v112q102 62 246 62q92 0 149.5 -36.5t57.5 -98.5q0 -29 -9.5 -52.5t-33 -44t-37 -30t-47.5 -29.5l-55 -35h-139v31l112 72q25 18 34.5 25t18.5 19t9 25q0 45 -76 45zM1610 1843q55 -112 55 -229q0 -128 -79.5 -195t-215.5 -67h-47v-807
q0 -272 -149.5 -421t-432.5 -149t-433 149t-150 421v930h188v-938q0 -206 101.5 -308t293.5 -102q191 0 292.5 102t101.5 308v938h215q84 0 120.5 36.5t36.5 106.5q0 86 -55 194v31h158z" />
    <glyph glyph-name="uni1EED" unicode="&#x1eed;" horiz-adv-x="1447" 
d="M629 1405q-93 0 -197 -66h-31v113q105 64 246 64q91 0 149 -38t58 -100q0 -13 -2 -25t-7.5 -23.5t-9.5 -19.5t-14.5 -18t-15 -15t-18.5 -15t-18.5 -13t-21.5 -13.5t-20 -12.5l-55 -35h-140v31l113 71q24 17 34.5 25t19 20.5t8.5 26.5q0 43 -78 43zM1356 1419
q59 -125 59 -235q0 -126 -77 -190t-212 -64h-49v-930h-174v154h-20q-105 -177 -351 -177q-178 0 -284.5 97t-106.5 276v692h181v-673q0 -126 67.5 -188t185.5 -62q66 0 123 20.5t102 61.5t71 107.5t26 152.5v581h209q85 0 122.5 37t37.5 107q0 90 -60 203v30h150z" />
    <glyph glyph-name="uni1EEE" unicode="&#x1eee;" horiz-adv-x="1632" 
d="M1610 1843q55 -112 55 -229q0 -128 -79.5 -195t-215.5 -67h-47v-807q0 -272 -149.5 -421t-432.5 -149t-433 149t-150 421v930h188v-938q0 -206 101.5 -308t293.5 -102q191 0 292.5 102t101.5 308v938h215q84 0 120.5 36.5t36.5 106.5q0 86 -55 194v31h158zM586 1712
q-97 0 -97 -108h-122v30q5 89 57.5 148t148.5 59q49 0 97.5 -19.5t80 -43t70 -43t72.5 -19.5q94 0 94 107h125v-31q-7 -89 -59.5 -147t-149.5 -58q-49 0 -96.5 19.5t-78.5 43t-69.5 43t-72.5 19.5zM737 1716v-4h2v4h-2z" />
    <glyph glyph-name="uni1EEF" unicode="&#x1eef;" horiz-adv-x="1447" 
d="M469 1333q-92 0 -92 -116h-121v30q6 93 57 152t144 59q46 0 91 -20t74 -44.5t64 -44.5t64 -20q91 0 94 117h119v-31q-5 -92 -56 -151.5t-145 -59.5q-45 0 -89.5 20t-74 44.5t-64.5 44.5t-65 20zM1356 1419q59 -125 59 -235q0 -126 -77 -190t-212 -64h-49v-930h-174v154
h-20q-105 -177 -351 -177q-178 0 -284.5 97t-106.5 276v692h181v-673q0 -126 67.5 -188t185.5 -62q66 0 123 20.5t102 61.5t71 107.5t26 152.5v581h209q85 0 122.5 37t37.5 107q0 90 -60 203v30h150z" />
    <glyph glyph-name="uni1EF0" unicode="&#x1ef0;" horiz-adv-x="1632" 
d="M1610 1843q55 -112 55 -229q0 -128 -79.5 -195t-215.5 -67h-47v-807q0 -272 -149.5 -421t-432.5 -149t-433 149t-150 421v930h188v-938q0 -206 101.5 -308t293.5 -102q191 0 292.5 102t101.5 308v938h215q84 0 120.5 36.5t36.5 106.5q0 86 -55 194v31h158zM612 -375v201
h250v-201h-250z" />
    <glyph glyph-name="uni1EF1" unicode="&#x1ef1;" horiz-adv-x="1447" 
d="M1356 1419q59 -125 59 -235q0 -126 -77 -190t-212 -64h-49v-930h-174v154h-20q-105 -177 -351 -177q-178 0 -284.5 97t-106.5 276v692h181v-673q0 -126 67.5 -188t185.5 -62q66 0 123 20.5t102 61.5t71 107.5t26 152.5v581h209q85 0 122.5 37t37.5 107q0 90 -60 203v30
h150zM483 -375v201h252v-201h-252z" />
    <glyph glyph-name="Ygrave" unicode="&#x1ef2;" horiz-adv-x="1402" 
d="M672 1585l-217 227v31h217l157 -227v-31h-157zM29 1475h204l459 -723h21l458 723h203v-31l-577 -883v-561h-189v561l-579 883v31z" />
    <glyph glyph-name="ygrave" unicode="&#x1ef3;" horiz-adv-x="1107" 
d="M520 1188l-215 256v31h197l166 -256v-31h-148zM35 1042h186l324 -856h20l322 856h186v-30l-579 -1422h-185v31l150 350l-424 1041v30z" />
    <glyph glyph-name="uni1EF4" unicode="&#x1ef4;" horiz-adv-x="1402" 
d="M29 1475h204l459 -723h21l458 723h203v-31l-577 -883v-561h-189v561l-579 883v31zM578 -174h249v-201h-249v201z" />
    <glyph glyph-name="uni1EF5" unicode="&#x1ef5;" horiz-adv-x="1107" 
d="M35 1042h186l324 -856h20l322 856h186v-30l-579 -1422h-185v31l150 350l-424 1041v30zM762 -174h250v-201h-250v201z" />
    <glyph glyph-name="uni1EF6" unicode="&#x1ef6;" horiz-adv-x="1402" 
d="M496 1849q102 62 245 62q91 0 148 -36.5t57 -98.5q0 -36 -19 -66t-41 -47t-56 -38q-6 -3 -9 -5l-57 -35h-139v31l112 72q25 18 34.5 25t18.5 19t9 25q0 45 -76 45q-94 0 -197 -65h-30v112zM29 1475h204l459 -723h21l458 723h203v-31l-577 -883v-561h-189v561l-579 883v31
z" />
    <glyph glyph-name="uni1EF7" unicode="&#x1ef7;" horiz-adv-x="1107" 
d="M348 1452q105 64 246 64q90 0 147.5 -38t57.5 -100q0 -15 -3.5 -29t-7.5 -24t-13.5 -22t-15 -18.5t-20.5 -17.5t-20 -14.5t-23 -15t-22 -14.5l-58 -35h-139v31l113 71q23 16 34 24.5t19 21t8 26.5q0 43 -76 43q-92 0 -196 -66h-31v113zM35 1042h186l324 -856h20l322 856
h186v-30l-579 -1422h-185v31l150 350l-424 1041v30z" />
    <glyph glyph-name="uni1EF8" unicode="&#x1ef8;" horiz-adv-x="1402" 
d="M547 1712q-96 0 -96 -108h-123v30q5 89 58 148t149 59q49 0 97 -19.5t79.5 -43t70 -43t72.5 -19.5q94 0 94 107h125v-31q-7 -89 -59.5 -147t-149.5 -58q-49 0 -96.5 19.5t-78.5 43t-69.5 43t-72.5 19.5zM698 1716v-4h2v4h-2zM1171 1475h203v-31l-577 -883v-561h-189v561
l-579 883v31h204l459 -723h21z" />
    <glyph glyph-name="uni1EF9" unicode="&#x1ef9;" horiz-adv-x="1107" 
d="M414 1333q-92 0 -95 -116h-118v30q5 92 56 151.5t144 59.5q46 0 90.5 -20t73.5 -44.5t64 -44.5t65 -20q91 0 94 117h119v-31q-5 -92 -56 -151.5t-144 -59.5q-45 0 -89.5 20t-74 44.5t-64.5 44.5t-65 20zM887 1042h186v-30l-579 -1422h-185v31l150 350l-424 1041v30h186
l324 -856h20z" />
    <glyph glyph-name="endash" unicode="&#x2013;" horiz-adv-x="1302" 
d="M123 602h1057v-143h-1057v143z" />
    <glyph glyph-name="emdash" unicode="&#x2014;" horiz-adv-x="1830" 
d="M123 602h1585v-143h-1585v143z" />
    <glyph glyph-name="quoteleft" unicode="&#x2018;" horiz-adv-x="462" 
d="M342 1395q-58 0 -84.5 -28t-26.5 -87v-45h123v-219h-243v266q0 107 58 162t167 55h47v-104h-41z" />
    <glyph glyph-name="quoteright" unicode="&#x2019;" horiz-adv-x="462" 
d="M111 1475h243v-267q0 -107 -59 -162t-168 -55h-45v105h41q56 0 82 27t26 85v47h-120v220z" />
    <glyph glyph-name="quotesinglbase" unicode="&#x201a;" horiz-adv-x="462" 
d="M111 219h243v-268q0 -106 -59.5 -161.5t-167.5 -55.5h-45v106h41q56 0 82 27.5t26 85.5v47h-120v219z" />
    <glyph glyph-name="quotedblleft" unicode="&#x201c;" horiz-adv-x="817" 
d="M111 1282q0 107 58 162t167 55h47v-104h-41q-58 0 -84.5 -28t-26.5 -87v-45h123v-219h-243v266zM694 1395q-56 0 -82 -28t-26 -87v-45h123v-219h-246v266q0 107 59 162t168 55h47v-104h-43z" />
    <glyph glyph-name="quotedblright" unicode="&#x201d;" horiz-adv-x="817" 
d="M111 1255v220h243v-267q0 -107 -59 -162t-168 -55h-45v105h41q56 0 82 27t26 85v47h-120zM463 1475h244v-267q0 -107 -58.5 -162t-167.5 -55h-47v105h41q58 0 84.5 27t26.5 85v47h-123v220z" />
    <glyph glyph-name="quotedblbase" unicode="&#x201e;" horiz-adv-x="817" 
d="M111 0v219h243v-268q0 -106 -59.5 -161.5t-167.5 -55.5h-45v106h41q56 0 82 27.5t26 85.5v47h-120zM463 219h244v-268q0 -106 -59 -161.5t-167 -55.5h-47v106h41q58 0 84.5 27.5t26.5 85.5v47h-123v219z" />
    <glyph glyph-name="dagger" unicode="&#x2020;" horiz-adv-x="1122" 
d="M1047 1036v-145h-396v-891h-180v891h-393v145h393v439h180v-439h396z" />
    <glyph glyph-name="daggerdbl" unicode="&#x2021;" horiz-adv-x="1122" 
d="M1047 891h-396v-717h396v-145h-396v-439h-180v439h-393v145h393v717h-393v145h393v439h180v-439h396v-145z" />
    <glyph glyph-name="bullet" unicode="&#x2022;" horiz-adv-x="1267" 
d="M635 -25q-235 0 -390 155t-155 392t155 391t390 154q234 0 388.5 -154t154.5 -391t-154.5 -392t-388.5 -155z" />
    <glyph glyph-name="ellipsis" unicode="&#x2026;" horiz-adv-x="1249" 
d="M111 219h243v-219h-243v219zM502 219h243v-219h-243v219zM895 219h244v-219h-244v219z" />
    <glyph glyph-name="perthousand" unicode="&#x2030;" horiz-adv-x="2439" 
d="M457 829q-148 0 -247 97t-99 239q0 141 99 237.5t247 96.5q150 0 249 -96.5t99 -237.5q0 -142 -99 -239t-249 -97zM1524 1475h192v-31l-1370 -1444h-192v31zM457 963q89 0 141.5 57t52.5 145q0 86 -53 142.5t-141 56.5q-87 0 -141 -56.5t-54 -142.5q0 -88 53.5 -145
t141.5 -57zM1094 311q0 141 96 237.5t240 96.5q171 0 272 -131h20q97 131 271 131q144 0 240 -96.5t96 -237.5q0 -142 -96 -239t-240 -97q-174 0 -271 131h-20q-101 -131 -272 -131q-144 0 -240 97t-96 239zM1245 311q0 -88 53.5 -145t141.5 -57q89 0 141.5 57t52.5 145
q0 86 -53 142.5t-141 56.5q-87 0 -141 -56.5t-54 -142.5zM1788 311q0 -88 52.5 -145t141.5 -57q88 0 141.5 57t53.5 145q0 86 -54 142.5t-141 56.5q-88 0 -141 -56.5t-53 -142.5z" />
    <glyph glyph-name="prime" unicode="&#x2032;" horiz-adv-x="436" 
d="M256 967h-129v30l10 478h195v-31z" />
    <glyph glyph-name="primedbl" unicode="&#x2033;" horiz-adv-x="755" 
d="M250 967h-123v30l10 478h189v-31zM567 967h-123v30l17 478h190v-31z" />
    <glyph glyph-name="guilsinglleft" unicode="&#x2039;" horiz-adv-x="634" 
d="M342 143l-252 373v29l252 373h172v-31l-244 -357l244 -356v-31h-172z" />
    <glyph glyph-name="guilsinglright" unicode="&#x203a;" horiz-adv-x="634" 
d="M293 143h-170v31l242 356l-242 357v31h170l252 -373v-29z" />
    <glyph glyph-name="fraction" unicode="&#x2044;" horiz-adv-x="1708" 
d="M1442 1475h192v-31l-1368 -1444h-192v31z" />
    <glyph glyph-name="Euro" unicode="&#x20ac;" horiz-adv-x="1679" 
d="M1421 479h178v-30q-11 -64 -37.5 -127t-76.5 -126.5t-116.5 -111.5t-164.5 -78.5t-213 -30.5q-267 0 -451 154.5t-231 429.5h-235v31l10 59h215q-4 58 -4 88q0 32 4 90h-207v31l10 60h207q49 274 232 427.5t450 153.5q115 0 211.5 -29t161.5 -76t113 -110t73 -127
t35 -131v-31h-178q-8 64 -31.5 121t-69 112t-126 87.5t-187.5 32.5q-192 0 -322 -113t-171 -317h506v-31l-13 -60h-506q-4 -58 -4 -90q0 -30 4 -88h498v-31l-10 -59h-475q40 -205 170 -318.5t323 -113.5q86 0 157 23t116.5 58t79 84t50 93.5t25.5 93.5z" />
    <glyph glyph-name="uni20BF" unicode="&#x20bf;" horiz-adv-x="1380" 
d="M1298 393q0 -179 -121.5 -281.5t-314.5 -111.5v-246h-98v246h-184v-246h-99v246h-315v1475h315v245h99v-245h184v245h98v-245q185 -9 300.5 -106.5t115.5 -264.5q0 -81 -27.5 -145t-71.5 -101.5t-84.5 -58.5t-82.5 -31v-20q36 -8 70 -21t75 -40.5t70.5 -64.5t50 -96.5
t20.5 -132.5zM354 1319v-488h434q134 0 219 61.5t85 182.5t-85 182.5t-219 61.5h-434zM793 156q143 0 231 65.5t88 192.5t-88 194.5t-231 67.5h-439v-520h439z" />
    <glyph glyph-name="uni2116" unicode="&#x2116;" horiz-adv-x="2637" 
d="M1516 969q0 233 142 376.5t376 143.5t377 -144t143 -376q0 -231 -143 -374.5t-377 -143.5t-376 143.5t-142 374.5zM166 1475h233l725 -1201h21v1201h184v-1475h-233l-723 1200h-21v-1200h-186v1475zM1696 969q0 -178 92 -280.5t246 -102.5t246 102.5t92 280.5t-92 280.5
t-246 102.5t-246 -102.5t-92 -280.5zM1565 145h938v-145h-938v145z" />
    <glyph glyph-name="trademark" unicode="&#x2122;" horiz-adv-x="1810" 
d="M68 1384v91h671v-91h-286v-647h-99v647h-286zM825 737v738h162l252 -613h21l251 613h162v-738h-98v604h-21l-249 -604h-111l-250 604h-20v-604h-99z" />
    <glyph glyph-name="arrowleft" unicode="&#x2190;" horiz-adv-x="1734" 
d="M676 1141l98 -99l-436 -436h1261v-149h-1261l436 -437l-98 -98l-576 578v63z" />
    <glyph glyph-name="arrowup" unicode="&#x2191;" horiz-adv-x="1411" 
d="M96 922l578 577h63l578 -577l-98 -97l-435 435v-1260h-153v1260l-434 -435z" />
    <glyph glyph-name="arrowright" unicode="&#x2192;" horiz-adv-x="1734" 
d="M1059 1141l577 -578v-63l-577 -578l-98 98l438 437h-1262v149h1262l-438 436z" />
    <glyph glyph-name="arrowdown" unicode="&#x2193;" horiz-adv-x="1411" 
d="M96 553l99 96l434 -434v1260h153v-1260l435 434l98 -96l-578 -578h-63z" />
    <glyph glyph-name="arrowboth" unicode="&#x2194;" horiz-adv-x="1722" 
d="M1094 1094l530 -531v-63l-530 -531l-99 99l391 389h-1048l389 -389l-98 -99l-529 531v63l529 531l98 -99l-389 -389h1048l-391 389z" />
    <glyph glyph-name="arrowupdn" unicode="&#x2195;" horiz-adv-x="1316" 
d="M735 215l387 387l99 -98l-531 -529h-63l-531 529l99 98l387 -387v1045l-387 -388l-99 99l531 528h63l531 -528l-99 -99l-387 388v-1045z" />
    <glyph glyph-name="uni2196" unicode="&#x2196;" horiz-adv-x="1327" 
d="M1012 1042v-137h-615l834 -833l-109 -109l-835 832v-615h-137v815l47 47h815z" />
    <glyph glyph-name="uni2197" unicode="&#x2197;" horiz-adv-x="1327" 
d="M315 1042h818l47 -47v-815h-140v615l-833 -832l-111 109l834 833h-615v137z" />
    <glyph glyph-name="uni2198" unicode="&#x2198;" horiz-adv-x="1327" 
d="M315 0v139h615l-834 832l111 110l833 -833v614h140v-815l-47 -47h-818z" />
    <glyph glyph-name="uni2199" unicode="&#x2199;" horiz-adv-x="1327" 
d="M1012 0h-815l-47 47v815h137v-614l835 833l109 -110l-834 -832h615v-139z" />
    <glyph glyph-name="emptyset" unicode="&#x2205;" horiz-adv-x="1392" 
d="M1339 1290l-204 -205q112 -143 112 -340q0 -234 -157 -390t-394 -156q-194 0 -340 108l-204 -205l-99 99l205 205q-113 144 -113 339q0 234 157 390.5t394 156.5q194 0 340 -108l205 205zM307 745q0 -129 62 -229l563 563q-102 76 -236 76q-171 0 -280 -116t-109 -294z
M1085 745q0 131 -61 230l-563 -563q102 -76 235 -76q171 0 280 115.5t109 293.5z" />
    <glyph glyph-name="minus" unicode="&#x2212;" horiz-adv-x="1392" 
d="M193 817h1007v-143h-1007v143z" />
    <glyph glyph-name="approxequal" unicode="&#x2248;" horiz-adv-x="1392" 
d="M1067 1104h139v-31q-5 -131 -77 -212t-197 -81q-58 0 -113.5 20t-98.5 48t-82.5 56.5t-82 48.5t-82.5 20q-140 0 -147 -178h-140v30q6 133 78.5 213t198.5 80q58 0 113 -19.5t97.5 -47.5t82 -56t82 -47.5t82.5 -19.5q141 0 147 176zM920 522q140 0 147 178h139v-30
q-5 -132 -77 -212.5t-197 -80.5q-58 0 -113.5 19.5t-98.5 47.5t-82.5 56t-82 47.5t-82.5 19.5q-141 0 -147 -176h-140v31q6 131 78.5 212t198.5 81q58 0 113 -20t97.5 -48.5t82 -56.5t82 -48t82.5 -20z" />
    <glyph glyph-name="notequal" unicode="&#x2260;" horiz-adv-x="1392" 
d="M1180 868h-361l-141 -245h502v-146h-586l-156 -270h-86v31l137 239h-276v146h360l142 245h-502v146h586l155 270h86v-31l-137 -239h277v-146z" />
    <glyph glyph-name="lessequal" unicode="&#x2264;" horiz-adv-x="1392" 
d="M1180 354h-31l-956 336v144l956 333h31v-147l-736 -246v-20l736 -250v-150zM193 145h987v-145h-987v145z" />
    <glyph glyph-name="greaterequal" unicode="&#x2265;" horiz-adv-x="1392" 
d="M213 354v150l735 250v20l-735 246v147h31l956 -333v-144l-956 -336h-31zM1200 145v-145h-987v145h987z" />
    <glyph glyph-name="block" unicode="&#x2588;" horiz-adv-x="1310" 
d="M164 1468l6 7h971l6 -7v-1462l-6 -6h-971l-6 6v1462z" />
    <glyph glyph-name="shade" unicode="&#x2592;" horiz-adv-x="1310" 
d="M164 1468l6 7h70l6 -7v-69l-6 -6h-70l-6 6v69zM328 1468l6 7h69l7 -7v-69l-7 -6h-69l-6 6v69zM492 1468l6 7h69l6 -7v-69l-6 -6h-69l-6 6v69zM655 1468l7 7h69l6 -7v-69l-6 -6h-69l-7 6v69zM819 1468l6 7h70l6 -7v-69l-6 -6h-70l-6 6v69zM983 1468l6 7h70l6 -7v-69l-6 -6
h-70l-6 6v69zM246 1386l6 7h70l6 -7v-69l-6 -6h-70l-6 6v69zM410 1386l6 7h69l7 -7v-69l-7 -6h-69l-6 6v69zM573 1386l7 7h69l6 -7v-69l-6 -6h-69l-7 6v69zM737 1386l6 7h70l6 -7v-69l-6 -6h-70l-6 6v69zM901 1386l6 7h70l6 -7v-69l-6 -6h-70l-6 6v69zM1065 1386l6 7h70
l6 -7v-69l-6 -6h-70l-6 6v69zM164 1305l6 6h70l6 -6v-70l-6 -6h-70l-6 6v70zM328 1305l6 6h69l7 -6v-70l-7 -6h-69l-6 6v70zM492 1305l6 6h69l6 -6v-70l-6 -6h-69l-6 6v70zM655 1305l7 6h69l6 -6v-70l-6 -6h-69l-7 6v70zM819 1305l6 6h70l6 -6v-70l-6 -6h-70l-6 6v70z
M983 1305l6 6h70l6 -6v-70l-6 -6h-70l-6 6v70zM246 1223l6 6h70l6 -6v-70l-6 -6h-70l-6 6v70zM410 1223l6 6h69l7 -6v-70l-7 -6h-69l-6 6v70zM573 1223l7 6h69l6 -6v-70l-6 -6h-69l-7 6v70zM737 1223l6 6h70l6 -6v-70l-6 -6h-70l-6 6v70zM901 1223l6 6h70l6 -6v-70l-6 -6
h-70l-6 6v70zM1065 1223l6 6h70l6 -6v-70l-6 -6h-70l-6 6v70zM164 1141l6 6h70l6 -6v-70l-6 -6h-70l-6 6v70zM328 1141l6 6h69l7 -6v-70l-7 -6h-69l-6 6v70zM492 1141l6 6h69l6 -6v-70l-6 -6h-69l-6 6v70zM655 1141l7 6h69l6 -6v-70l-6 -6h-69l-7 6v70zM819 1141l6 6h70
l6 -6v-70l-6 -6h-70l-6 6v70zM983 1141l6 6h70l6 -6v-70l-6 -6h-70l-6 6v70zM246 1059l6 6h70l6 -6v-70l-6 -6h-70l-6 6v70zM410 1059l6 6h69l7 -6v-70l-7 -6h-69l-6 6v70zM573 1059l7 6h69l6 -6v-70l-6 -6h-69l-7 6v70zM737 1059l6 6h70l6 -6v-70l-6 -6h-70l-6 6v70z
M901 1059l6 6h70l6 -6v-70l-6 -6h-70l-6 6v70zM1065 1059l6 6h70l6 -6v-70l-6 -6h-70l-6 6v70zM164 977l6 6h70l6 -6v-70l-6 -6h-70l-6 6v70zM328 977l6 6h69l7 -6v-70l-7 -6h-69l-6 6v70zM492 977l6 6h69l6 -6v-70l-6 -6h-69l-6 6v70zM655 977l7 6h69l6 -6v-70l-6 -6h-69
l-7 6v70zM819 977l6 6h70l6 -6v-70l-6 -6h-70l-6 6v70zM983 977l6 6h70l6 -6v-70l-6 -6h-70l-6 6v70zM246 895l6 6h70l6 -6v-70l-6 -6h-70l-6 6v70zM410 895l6 6h69l7 -6v-70l-7 -6h-69l-6 6v70zM573 895l7 6h69l6 -6v-70l-6 -6h-69l-7 6v70zM737 895l6 6h70l6 -6v-70l-6 -6
h-70l-6 6v70zM901 895l6 6h70l6 -6v-70l-6 -6h-70l-6 6v70zM1065 895l6 6h70l6 -6v-70l-6 -6h-70l-6 6v70zM164 813l6 6h70l6 -6v-70l-6 -6h-70l-6 6v70zM328 813l6 6h69l7 -6v-70l-7 -6h-69l-6 6v70zM492 813l6 6h69l6 -6v-70l-6 -6h-69l-6 6v70zM655 813l7 6h69l6 -6v-70
l-6 -6h-69l-7 6v70zM819 813l6 6h70l6 -6v-70l-6 -6h-70l-6 6v70zM983 813l6 6h70l6 -6v-70l-6 -6h-70l-6 6v70zM246 731l6 6h70l6 -6v-69l-6 -7h-70l-6 7v69zM410 731l6 6h69l7 -6v-69l-7 -7h-69l-6 7v69zM573 731l7 6h69l6 -6v-69l-6 -7h-69l-7 7v69zM737 731l6 6h70l6 -6
v-69l-6 -7h-70l-6 7v69zM901 731l6 6h70l6 -6v-69l-6 -7h-70l-6 7v69zM1065 731l6 6h70l6 -6v-69l-6 -7h-70l-6 7v69zM164 649l6 6h70l6 -6v-69l-6 -7h-70l-6 7v69zM328 649l6 6h69l7 -6v-69l-7 -7h-69l-6 7v69zM492 649l6 6h69l6 -6v-69l-6 -7h-69l-6 7v69zM655 649l7 6h69
l6 -6v-69l-6 -7h-69l-7 7v69zM819 649l6 6h70l6 -6v-69l-6 -7h-70l-6 7v69zM983 649l6 6h70l6 -6v-69l-6 -7h-70l-6 7v69zM246 567l6 6h70l6 -6v-69l-6 -6h-70l-6 6v69zM410 567l6 6h69l7 -6v-69l-7 -6h-69l-6 6v69zM573 567l7 6h69l6 -6v-69l-6 -6h-69l-7 6v69zM737 567
l6 6h70l6 -6v-69l-6 -6h-70l-6 6v69zM901 567l6 6h70l6 -6v-69l-6 -6h-70l-6 6v69zM1065 567l6 6h70l6 -6v-69l-6 -6h-70l-6 6v69zM164 485l6 7h70l6 -7v-69l-6 -6h-70l-6 6v69zM328 485l6 7h69l7 -7v-69l-7 -6h-69l-6 6v69zM492 485l6 7h69l6 -7v-69l-6 -6h-69l-6 6v69z
M655 485l7 7h69l6 -7v-69l-6 -6h-69l-7 6v69zM819 485l6 7h70l6 -7v-69l-6 -6h-70l-6 6v69zM983 485l6 7h70l6 -7v-69l-6 -6h-70l-6 6v69zM246 403l6 7h70l6 -7v-69l-6 -6h-70l-6 6v69zM410 403l6 7h69l7 -7v-69l-7 -6h-69l-6 6v69zM573 403l7 7h69l6 -7v-69l-6 -6h-69l-7 6
v69zM737 403l6 7h70l6 -7v-69l-6 -6h-70l-6 6v69zM901 403l6 7h70l6 -7v-69l-6 -6h-70l-6 6v69zM1065 403l6 7h70l6 -7v-69l-6 -6h-70l-6 6v69zM164 322l6 6h70l6 -6v-70l-6 -6h-70l-6 6v70zM328 322l6 6h69l7 -6v-70l-7 -6h-69l-6 6v70zM492 322l6 6h69l6 -6v-70l-6 -6h-69
l-6 6v70zM655 322l7 6h69l6 -6v-70l-6 -6h-69l-7 6v70zM819 322l6 6h70l6 -6v-70l-6 -6h-70l-6 6v70zM983 322l6 6h70l6 -6v-70l-6 -6h-70l-6 6v70zM246 240l6 6h70l6 -6v-70l-6 -6h-70l-6 6v70zM410 240l6 6h69l7 -6v-70l-7 -6h-69l-6 6v70zM573 240l7 6h69l6 -6v-70l-6 -6
h-69l-7 6v70zM737 240l6 6h70l6 -6v-70l-6 -6h-70l-6 6v70zM901 240l6 6h70l6 -6v-70l-6 -6h-70l-6 6v70zM1065 240l6 6h70l6 -6v-70l-6 -6h-70l-6 6v70zM164 158l6 6h70l6 -6v-70l-6 -6h-70l-6 6v70zM328 158l6 6h69l7 -6v-70l-7 -6h-69l-6 6v70zM492 158l6 6h69l6 -6v-70
l-6 -6h-69l-6 6v70zM655 158l7 6h69l6 -6v-70l-6 -6h-69l-7 6v70zM819 158l6 6h70l6 -6v-70l-6 -6h-70l-6 6v70zM983 158l6 6h70l6 -6v-70l-6 -6h-70l-6 6v70zM246 76l6 6h70l6 -6v-70l-6 -6h-70l-6 6v70zM410 76l6 6h69l7 -6v-70l-7 -6h-69l-6 6v70zM573 76l7 6h69l6 -6
v-70l-6 -6h-69l-7 6v70zM737 76l6 6h70l6 -6v-70l-6 -6h-70l-6 6v70zM901 76l6 6h70l6 -6v-70l-6 -6h-70l-6 6v70zM1065 76l6 6h70l6 -6v-70l-6 -6h-70l-6 6v70z" />
    <glyph glyph-name="lozenge" unicode="&#x25ca;" horiz-adv-x="1378" 
d="M94 721v33l508 721h174l508 -721v-33l-508 -721h-174zM297 737l383 -551h20l381 551l-381 551h-20z" />
    <glyph glyph-name="G.ss07" horiz-adv-x="1579" 
d="M92 737q0 177 55.5 321t155 240.5t238.5 148.5t305 52q125 0 230.5 -31t176 -80t122 -114.5t77.5 -130.5t33 -131v-31h-178q-4 50 -21 98.5t-52 98t-85.5 86.5t-128 60.5t-172.5 23.5q-263 0 -416 -162.5t-153 -448.5q0 -284 152.5 -447t408.5 -163q95 0 173.5 25.5
t130 67t88 96t53.5 110t20 111.5h-566v145h754v-51q0 -141 -43 -260t-124 -207.5t-206 -138.5t-280 -50q-219 0 -387.5 89.5t-264.5 263.5t-96 409z" />
    <glyph glyph-name="Gbreve.ss07" horiz-adv-x="1579" 
d="M827 1573q-154 0 -238 69.5t-97 172.5v28h147q5 -63 51 -104t137 -41t137.5 41t51.5 104h147v-28q-13 -103 -97.5 -172.5t-238.5 -69.5zM739 682h754v-51q0 -141 -43 -260t-124 -207.5t-206 -138.5t-280 -50q-219 0 -387.5 89.5t-264.5 263.5t-96 409q0 177 55.5 321
t155 240.5t238.5 148.5t305 52q125 0 230.5 -31t176 -80t122 -114.5t77.5 -130.5t33 -131v-31h-178q-4 50 -21 98.5t-52 98t-85.5 86.5t-128 60.5t-172.5 23.5q-263 0 -416 -162.5t-153 -448.5q0 -284 152.5 -447t408.5 -163q95 0 173.5 25.5t130 67t88 96t53.5 110
t20 111.5h-566v145z" />
    <glyph glyph-name="uni0122.ss07" horiz-adv-x="1579" 
d="M739 682h754v-51q0 -141 -43 -260t-124 -207.5t-206 -138.5t-280 -50q-219 0 -387.5 89.5t-264.5 263.5t-96 409q0 177 55.5 321t155 240.5t238.5 148.5t305 52q125 0 230.5 -31t176 -80t122 -114.5t77.5 -130.5t33 -131v-31h-178q-4 50 -21 98.5t-52 98t-85.5 86.5
t-128 60.5t-172.5 23.5q-263 0 -416 -162.5t-153 -448.5q0 -284 152.5 -447t408.5 -163q95 0 173.5 25.5t130 67t88 96t53.5 110t20 111.5h-566v145zM711 -299v190h256v-206q0 -109 -60.5 -165.5t-165.5 -56.5h-55v109h51q56 0 82.5 27t26.5 86v16h-135z" />
    <glyph glyph-name="Gdotaccent.ss07" horiz-adv-x="1579" 
d="M698 1800h260v-201h-260v201zM92 737q0 177 55.5 321t155 240.5t238.5 148.5t305 52q125 0 230.5 -31t176 -80t122 -114.5t77.5 -130.5t33 -131v-31h-178q-4 50 -21 98.5t-52 98t-85.5 86.5t-128 60.5t-172.5 23.5q-263 0 -416 -162.5t-153 -448.5q0 -284 152.5 -447
t408.5 -163q95 0 173.5 25.5t130 67t88 96t53.5 110t20 111.5h-566v145h754v-51q0 -141 -43 -260t-124 -207.5t-206 -138.5t-280 -50q-219 0 -387.5 89.5t-264.5 263.5t-96 409z" />
    <glyph glyph-name="I.ss08" horiz-adv-x="831" 
d="M510 147h242v-147h-672v147h242v1180h-240v148h668v-148h-240v-1180z" />
    <glyph glyph-name="Iacute.ss08" horiz-adv-x="831" 
d="M655 1812l-217 -227h-157v31l157 227h217v-31zM510 147h242v-147h-672v147h242v1180h-240v148h668v-148h-240v-1180z" />
    <glyph glyph-name="Icircumflex.ss08" horiz-adv-x="831" 
d="M528 1843l265 -221v-37h-179l-198 156l-201 -156h-178v37l266 221h225zM510 1327v-1180h242v-147h-672v147h242v1180h-240v148h668v-148h-240z" />
    <glyph glyph-name="Idieresis.ss08" horiz-adv-x="831" 
d="M317 1800v-201h-245v201h245zM512 1800h246v-201h-246v201zM510 1327v-1180h242v-147h-672v147h242v1180h-240v148h668v-148h-240z" />
    <glyph glyph-name="Idotaccent.ss08" horiz-adv-x="831" 
d="M545 1800v-201h-260v201h260zM510 147h242v-147h-672v147h242v1180h-240v148h668v-148h-240v-1180z" />
    <glyph glyph-name="uni1ECA.ss08" horiz-adv-x="831" 
d="M510 147h242v-147h-672v147h242v1180h-240v148h668v-148h-240v-1180zM291 -375v201h250v-201h-250z" />
    <glyph glyph-name="Igrave.ss08" horiz-adv-x="831" 
d="M545 1585h-158l-217 227v31h217l158 -227v-31zM510 147h242v-147h-672v147h242v1180h-240v148h668v-148h-240v-1180z" />
    <glyph glyph-name="uni1EC8.ss08" horiz-adv-x="831" 
d="M436 1802q-93 0 -196 -65h-31v112q102 62 246 62q91 0 147.5 -36.5t56.5 -98.5q0 -24 -8.5 -45t-17 -34t-30.5 -30.5t-31 -23t-37 -23.5l-58 -35h-139v31l113 72q24 17 34 25t18.5 19.5t8.5 24.5q0 45 -76 45zM510 147h242v-147h-672v147h242v1180h-240v148h668v-148
h-240v-1180z" />
    <glyph glyph-name="Imacron.ss08" horiz-adv-x="831" 
d="M748 1739v-131h-662v131h662zM510 147h242v-147h-672v147h242v1180h-240v148h668v-148h-240v-1180z" />
    <glyph glyph-name="Iogonek.ss08" horiz-adv-x="831" 
d="M510 147h242v-147h-164q-119 -13 -186.5 -68.5t-67.5 -130.5q0 -50 29.5 -79t76.5 -29q53 0 109 39h31v-127q-89 -39 -162 -39q-95 0 -157 54.5t-62 143.5q0 77 44.5 131.5t102.5 84.5v20h-266v147h242v1180h-240v148h668v-148h-240v-1180z" />
    <glyph glyph-name="Itilde.ss08" horiz-adv-x="831" 
d="M662 1823h124v-31q-7 -89 -59 -147t-149 -58q-49 0 -96.5 19.5t-79 43t-70 43t-72.5 19.5q-96 0 -96 -108h-123v30q5 89 58 148t149 59q49 0 97 -19.5t79.5 -43t70 -43t72.5 -19.5q95 0 95 107zM414 1712v4h-2v-4h2zM510 1327v-1180h242v-147h-672v147h242v1180h-240v148
h668v-148h-240z" />
    <glyph glyph-name="K.ss09" horiz-adv-x="1413" 
d="M535 750l839 -719v-31h-233l-766 662h-21v-662h-188v1475h188v-639h21l741 639h234v-31z" />
    <glyph glyph-name="uni0136.ss09" horiz-adv-x="1413" 
d="M535 750l839 -719v-31h-233l-766 662h-21v-662h-188v1475h188v-639h21l741 639h234v-31zM586 -299v190h256v-206q0 -109 -60.5 -165.5t-165.5 -56.5h-55v109h51q56 0 82.5 27t26.5 86v16h-135z" />
    <glyph glyph-name="R.ss10" horiz-adv-x="1388" 
d="M850 625h-221l647 -594v-31h-234l-663 625h-25v-625h-188v1475h684q128 0 232 -49.5t166.5 -147.5t62.5 -227t-62.5 -227.5t-166.5 -148.5t-232 -50zM354 780h463q138 0 221.5 71t83.5 200q0 128 -83.5 198t-221.5 70h-463v-539z" />
    <glyph glyph-name="Racute.ss10" horiz-adv-x="1388" 
d="M909 1812l-217 -227h-157v31l157 227h217v-31zM850 625h-221l647 -594v-31h-234l-663 625h-25v-625h-188v1475h684q128 0 232 -49.5t166.5 -147.5t62.5 -227t-62.5 -227.5t-166.5 -148.5t-232 -50zM354 780h463q138 0 221.5 71t83.5 200q0 128 -83.5 198t-221.5 70h-463
v-539z" />
    <glyph glyph-name="Rcaron.ss10" horiz-adv-x="1388" 
d="M557 1585l-266 221v37h178l201 -157l198 157h179v-37l-265 -221h-225zM850 625h-221l647 -594v-31h-234l-663 625h-25v-625h-188v1475h684q128 0 232 -49.5t166.5 -147.5t62.5 -227t-62.5 -227.5t-166.5 -148.5t-232 -50zM354 780h463q138 0 221.5 71t83.5 200
q0 128 -83.5 198t-221.5 70h-463v-539z" />
    <glyph glyph-name="uni0156.ss10" horiz-adv-x="1388" 
d="M850 625h-221l647 -594v-31h-234l-663 625h-25v-625h-188v1475h684q128 0 232 -49.5t166.5 -147.5t62.5 -227t-62.5 -227.5t-166.5 -148.5t-232 -50zM354 780h463q138 0 221.5 71t83.5 200q0 128 -83.5 198t-221.5 70h-463v-539zM557 -299v190h256v-206
q0 -109 -60.5 -165.5t-164.5 -56.5h-56v109h52q56 0 82 26.5t26 86.5v16h-135z" />
    <glyph glyph-name="Y.ss11" horiz-adv-x="1355" 
d="M33 1475h198l445 -805h20l445 805h200v-31l-825 -1444h-199v31l267 448l-551 965v31z" />
    <glyph glyph-name="Yacute.ss11" horiz-adv-x="1355" 
d="M709 1585h-158v31l158 227h217v-31zM33 1475h198l445 -805h20l445 805h200v-31l-825 -1444h-199v31l267 448l-551 965v31z" />
    <glyph glyph-name="Ycircumflex.ss11" horiz-adv-x="1355" 
d="M686 1741l-201 -156h-178v37l266 221h226l264 -221v-37h-178zM1141 1475h200v-31l-825 -1444h-199v31l267 448l-551 965v31h198l445 -805h20z" />
    <glyph glyph-name="Ydieresis.ss11" horiz-adv-x="1355" 
d="M344 1800h246v-201h-246v201zM784 1800h246v-201h-246v201zM33 1475h198l445 -805h20l445 805h200v-31l-825 -1444h-199v31l267 448l-551 965v31z" />
    <glyph glyph-name="uni1EF4.ss11" horiz-adv-x="1355" 
d="M33 1475h198l445 -805h20l445 805h200v-31l-825 -1444h-199v31l267 448l-551 965v31zM287 -174h250v-201h-250v201z" />
    <glyph glyph-name="Ygrave.ss11" horiz-adv-x="1355" 
d="M657 1585l-217 227v31h217l158 -227v-31h-158zM33 1475h198l445 -805h20l445 805h200v-31l-825 -1444h-199v31l267 448l-551 965v31z" />
    <glyph glyph-name="uni1EF6.ss11" horiz-adv-x="1355" 
d="M479 1849q102 62 246 62q91 0 148 -36.5t57 -98.5q0 -36 -19 -66t-41 -47t-56 -38q-6 -3 -9 -5l-57 -35h-140v31l113 72q24 17 34 25t18.5 19.5t8.5 24.5q0 45 -75 45q-94 0 -197 -65h-31v112zM33 1475h198l445 -805h20l445 805h200v-31l-825 -1444h-199v31l267 448
l-551 965v31z" />
    <glyph glyph-name="uni1EF8.ss11" horiz-adv-x="1355" 
d="M530 1712q-96 0 -96 -108h-123v30q5 89 58 148t149 59q49 0 97.5 -19.5t79.5 -43t70 -43t73 -19.5q94 0 94 107h125v-31q-7 -89 -59.5 -147t-149.5 -58q-49 0 -96.5 19.5t-79 43t-70 43t-72.5 19.5zM682 1716v-4h2v4h-2zM1141 1475h200v-31l-825 -1444h-199v31l267 448
l-551 965v31h198l445 -805h20z" />
    <glyph glyph-name="i.loclTRK" horiz-adv-x="477" 
d="M115 1440h250v-201h-250v201zM150 1042h180v-1042h-180v1042z" />
    <glyph glyph-name="a.ss01" horiz-adv-x="1216" 
d="M115 709v30q27 149 152 238.5t317 89.5q200 0 320 -100.5t120 -286.5v-528l16 -17h142v-135h-99q-196 0 -217 150h-20q-118 -173 -381 -173q-170 0 -274.5 80.5t-104.5 218.5q0 140 100.5 216t270.5 92l389 37v63q0 125 -69 186.5t-197 61.5q-127 0 -202.5 -57.5
t-88.5 -165.5h-174zM266 285q0 -78 63 -125t169 -47q151 0 249.5 88.5t98.5 257.5v28l-365 -34q-215 -19 -215 -168z" />
    <glyph glyph-name="aacute.ss01" horiz-adv-x="1216" 
d="M610 1188h-147v31l166 256h196v-31zM115 709v30q27 149 152 238.5t317 89.5q200 0 320 -100.5t120 -286.5v-528l16 -17h142v-135h-99q-196 0 -217 150h-20q-118 -173 -381 -173q-170 0 -274.5 80.5t-104.5 218.5q0 140 100.5 216t270.5 92l389 37v63q0 125 -69 186.5
t-197 61.5q-127 0 -202.5 -57.5t-88.5 -165.5h-174zM266 285q0 -78 63 -125t169 -47q151 0 249.5 88.5t98.5 257.5v28l-365 -34q-215 -19 -215 -168z" />
    <glyph glyph-name="abreve.ss01" horiz-adv-x="1216" 
d="M580 1176q-152 0 -237.5 78t-92.5 190v31h139q0 -76 51.5 -126.5t139.5 -50.5q87 0 138.5 50.5t51.5 126.5h137v-31q-7 -112 -91.5 -190t-235.5 -78zM1040 135h142v-135h-99q-196 0 -217 150h-20q-118 -173 -381 -173q-170 0 -274.5 80.5t-104.5 218.5q0 140 100.5 216
t270.5 92l389 37v63q0 125 -69 186.5t-197 61.5q-127 0 -202.5 -57.5t-88.5 -165.5h-174v30q27 149 152 238.5t317 89.5q200 0 320 -100.5t120 -286.5v-528zM846 459v28l-365 -34q-215 -19 -215 -168q0 -78 63 -125t169 -47q151 0 249.5 88.5t98.5 257.5z" />
    <glyph glyph-name="uni1EAF.ss01" horiz-adv-x="1216" 
d="M838 1749l-224 -217h-151v31l174 217h201v-31zM580 1178q-145 0 -231 66.5t-101 160.5v31h139q8 -62 57.5 -102t135.5 -40q88 0 137 39.5t57 102.5h139v-31q-15 -94 -100.5 -160.5t-232.5 -66.5zM1040 135h142v-135h-99q-196 0 -217 150h-20q-118 -173 -381 -173
q-170 0 -274.5 80.5t-104.5 218.5q0 140 100.5 216t270.5 92l389 37v63q0 125 -69 186.5t-197 61.5q-127 0 -202.5 -57.5t-88.5 -165.5h-174v30q27 149 152 238.5t317 89.5q200 0 320 -100.5t120 -286.5v-528zM846 459v28l-365 -34q-215 -19 -215 -168q0 -78 63 -125
t169 -47q151 0 249.5 88.5t98.5 257.5z" />
    <glyph glyph-name="uni1EB7.ss01" horiz-adv-x="1216" 
d="M580 1176q-152 0 -237.5 78t-92.5 190v31h139q0 -76 51.5 -126.5t139.5 -50.5q87 0 138.5 50.5t51.5 126.5h137v-31q-7 -112 -91.5 -190t-235.5 -78zM1040 135h142v-135h-99q-196 0 -217 150h-20q-118 -173 -381 -173q-170 0 -274.5 80.5t-104.5 218.5q0 140 100.5 216
t270.5 92l389 37v63q0 125 -69 186.5t-197 61.5q-127 0 -202.5 -57.5t-88.5 -165.5h-174v30q27 149 152 238.5t317 89.5q200 0 320 -100.5t120 -286.5v-528zM846 459v28l-365 -34q-215 -19 -215 -168q0 -78 63 -125t169 -47q151 0 249.5 88.5t98.5 257.5zM455 -375v201h250
v-201h-250z" />
    <glyph glyph-name="uni1EB1.ss01" horiz-adv-x="1216" 
d="M698 1532h-151l-223 217v31h200l174 -217v-31zM580 1178q-145 0 -231 66.5t-101 160.5v31h139q8 -62 57.5 -102t135.5 -40q88 0 137 39.5t57 102.5h139v-31q-15 -94 -100.5 -160.5t-232.5 -66.5zM1040 135h142v-135h-99q-196 0 -217 150h-20q-118 -173 -381 -173
q-170 0 -274.5 80.5t-104.5 218.5q0 140 100.5 216t270.5 92l389 37v63q0 125 -69 186.5t-197 61.5q-127 0 -202.5 -57.5t-88.5 -165.5h-174v30q27 149 152 238.5t317 89.5q200 0 320 -100.5t120 -286.5v-528zM846 459v28l-365 -34q-215 -19 -215 -168q0 -78 63 -125
t169 -47q151 0 249.5 88.5t98.5 257.5z" />
    <glyph glyph-name="uni1EB3.ss01" horiz-adv-x="1216" 
d="M604 1708q-92 0 -196 -66h-31v113q105 64 246 64q90 0 147 -38t57 -100q0 -15 -3.5 -29t-7.5 -24t-13.5 -22t-15 -18.5t-20.5 -17.5t-20 -14.5t-23 -15t-22 -14.5l-57 -35h-139v31l112 71q24 17 34.5 25t19 20.5t8.5 26.5q0 43 -76 43zM580 1178q-145 0 -231 66.5
t-101 160.5v31h139q8 -62 57.5 -102t135.5 -40q88 0 137 39.5t57 102.5h139v-31q-15 -94 -100.5 -160.5t-232.5 -66.5zM1040 135h142v-135h-99q-196 0 -217 150h-20q-118 -173 -381 -173q-170 0 -274.5 80.5t-104.5 218.5q0 140 100.5 216t270.5 92l389 37v63
q0 125 -69 186.5t-197 61.5q-127 0 -202.5 -57.5t-88.5 -165.5h-174v30q27 149 152 238.5t317 89.5q200 0 320 -100.5t120 -286.5v-528zM846 459v28l-365 -34q-215 -19 -215 -168q0 -78 63 -125t169 -47q151 0 249.5 88.5t98.5 257.5z" />
    <glyph glyph-name="uni1EB5.ss01" horiz-adv-x="1216" 
d="M434 1671q-45 0 -66.5 -27t-23.5 -83h-113v30q5 90 55.5 145.5t141.5 55.5q46 0 92.5 -19t77.5 -42.5t67 -42.5t64 -19q88 0 88 111h115v-31q-6 -90 -57.5 -145.5t-141.5 -55.5q-46 0 -91.5 19t-76.5 42.5t-67 42.5t-64 19zM580 1294q88 0 137 39.5t57 102.5h139v-31
q-15 -94 -100.5 -160.5t-232.5 -66.5q-145 0 -231 66.5t-101 160.5v31h139q8 -62 57.5 -102t135.5 -40zM1040 135h142v-135h-99q-196 0 -217 150h-20q-118 -173 -381 -173q-170 0 -274.5 80.5t-104.5 218.5q0 140 100.5 216t270.5 92l389 37v63q0 125 -69 186.5t-197 61.5
q-127 0 -202.5 -57.5t-88.5 -165.5h-174v30q27 149 152 238.5t317 89.5q200 0 320 -100.5t120 -286.5v-528zM846 459v28l-365 -34q-215 -19 -215 -168q0 -78 63 -125t169 -47q151 0 249.5 88.5t98.5 257.5z" />
    <glyph glyph-name="acircumflex.ss01" horiz-adv-x="1216" 
d="M580 1374l-174 -186h-152v31l219 256h209l221 -256v-31h-151zM1040 135h142v-135h-99q-196 0 -217 150h-20q-118 -173 -381 -173q-170 0 -274.5 80.5t-104.5 218.5q0 140 100.5 216t270.5 92l389 37v63q0 125 -69 186.5t-197 61.5q-127 0 -202.5 -57.5t-88.5 -165.5h-174
v30q27 149 152 238.5t317 89.5q200 0 320 -100.5t120 -286.5v-528zM846 459v28l-365 -34q-215 -19 -215 -168q0 -78 63 -125t169 -47q151 0 249.5 88.5t98.5 257.5z" />
    <glyph glyph-name="uni1EA5.ss01" horiz-adv-x="1216" 
d="M1126 1690l-147 -254h-135v30l110 254h172v-30zM580 1374l-174 -186h-152v31l219 256h209l221 -256v-31h-151zM1040 135h142v-135h-99q-196 0 -217 150h-20q-118 -173 -381 -173q-170 0 -274.5 80.5t-104.5 218.5q0 140 100.5 216t270.5 92l389 37v63q0 125 -69 186.5
t-197 61.5q-127 0 -202.5 -57.5t-88.5 -165.5h-174v30q27 149 152 238.5t317 89.5q200 0 320 -100.5t120 -286.5v-528zM846 459v28l-365 -34q-215 -19 -215 -168q0 -78 63 -125t169 -47q151 0 249.5 88.5t98.5 257.5z" />
    <glyph glyph-name="uni1EAD.ss01" horiz-adv-x="1216" 
d="M580 1374l-174 -186h-152v31l219 256h209l221 -256v-31h-151zM1040 135h142v-135h-99q-196 0 -217 150h-20q-118 -173 -381 -173q-170 0 -274.5 80.5t-104.5 218.5q0 140 100.5 216t270.5 92l389 37v63q0 125 -69 186.5t-197 61.5q-127 0 -202.5 -57.5t-88.5 -165.5h-174
v30q27 149 152 238.5t317 89.5q200 0 320 -100.5t120 -286.5v-528zM846 459v28l-365 -34q-215 -19 -215 -168q0 -78 63 -125t169 -47q151 0 249.5 88.5t98.5 257.5zM455 -375v201h250v-201h-250z" />
    <glyph glyph-name="uni1EA7.ss01" horiz-adv-x="1216" 
d="M1026 1436h-137l-146 254v30h172l111 -254v-30zM580 1374l-174 -186h-152v31l219 256h209l221 -256v-31h-151zM1040 135h142v-135h-99q-196 0 -217 150h-20q-118 -173 -381 -173q-170 0 -274.5 80.5t-104.5 218.5q0 140 100.5 216t270.5 92l389 37v63q0 125 -69 186.5
t-197 61.5q-127 0 -202.5 -57.5t-88.5 -165.5h-174v30q27 149 152 238.5t317 89.5q200 0 320 -100.5t120 -286.5v-528zM846 459v28l-365 -34q-215 -19 -215 -168q0 -78 63 -125t169 -47q151 0 249.5 88.5t98.5 257.5z" />
    <glyph glyph-name="uni1EA9.ss01" horiz-adv-x="1216" 
d="M913 1651q-92 0 -196 -66h-31v113q103 63 246 63q90 0 147.5 -37.5t57.5 -99.5q0 -13 -2 -25t-7.5 -23.5t-9.5 -19.5t-14 -18t-15 -15.5t-18.5 -15t-18.5 -13t-20.5 -13.5t-19.5 -13l-58 -34h-139v30l113 72q23 16 34 24.5t19 21t8 26.5q0 43 -76 43zM580 1374l-174 -186
h-152v31l219 256h209l221 -256v-31h-151zM1040 135h142v-135h-99q-196 0 -217 150h-20q-118 -173 -381 -173q-170 0 -274.5 80.5t-104.5 218.5q0 140 100.5 216t270.5 92l389 37v63q0 125 -69 186.5t-197 61.5q-127 0 -202.5 -57.5t-88.5 -165.5h-174v30q27 149 152 238.5
t317 89.5q200 0 320 -100.5t120 -286.5v-528zM846 459v28l-365 -34q-215 -19 -215 -168q0 -78 63 -125t169 -47q151 0 249.5 88.5t98.5 257.5z" />
    <glyph glyph-name="uni1EAB.ss01" horiz-adv-x="1216" 
d="M434 1671q-45 0 -66.5 -27t-23.5 -83h-113v30q5 90 55.5 145.5t141.5 55.5q46 0 92.5 -19t77.5 -42.5t67 -42.5t64 -19q88 0 88 111h115v-31q-6 -90 -57.5 -145.5t-141.5 -55.5q-46 0 -91.5 19t-76.5 42.5t-67 42.5t-64 19zM580 1339l-193 -151h-164v31l252 217h209
l254 -217v-31h-166zM1040 135h142v-135h-99q-196 0 -217 150h-20q-118 -173 -381 -173q-170 0 -274.5 80.5t-104.5 218.5q0 140 100.5 216t270.5 92l389 37v63q0 125 -69 186.5t-197 61.5q-127 0 -202.5 -57.5t-88.5 -165.5h-174v30q27 149 152 238.5t317 89.5
q200 0 320 -100.5t120 -286.5v-528zM846 459v28l-365 -34q-215 -19 -215 -168q0 -78 63 -125t169 -47q151 0 249.5 88.5t98.5 257.5z" />
    <glyph glyph-name="adieresis.ss01" horiz-adv-x="1216" 
d="M260 1438h229v-201h-229v201zM672 1438h231v-201h-231v201zM115 709v30q27 149 152 238.5t317 89.5q200 0 320 -100.5t120 -286.5v-528l16 -17h142v-135h-99q-196 0 -217 150h-20q-118 -173 -381 -173q-170 0 -274.5 80.5t-104.5 218.5q0 140 100.5 216t270.5 92l389 37
v63q0 125 -69 186.5t-197 61.5q-127 0 -202.5 -57.5t-88.5 -165.5h-174zM266 285q0 -78 63 -125t169 -47q151 0 249.5 88.5t98.5 257.5v28l-365 -34q-215 -19 -215 -168z" />
    <glyph glyph-name="uni1EA1.ss01" horiz-adv-x="1216" 
d="M115 709v30q27 149 152 238.5t317 89.5q200 0 320 -100.5t120 -286.5v-528l16 -17h142v-135h-99q-196 0 -217 150h-20q-118 -173 -381 -173q-170 0 -274.5 80.5t-104.5 218.5q0 140 100.5 216t270.5 92l389 37v63q0 125 -69 186.5t-197 61.5q-127 0 -202.5 -57.5
t-88.5 -165.5h-174zM266 285q0 -78 63 -125t169 -47q151 0 249.5 88.5t98.5 257.5v28l-365 -34q-215 -19 -215 -168zM455 -174h250v-201h-250v201z" />
    <glyph glyph-name="agrave.ss01" horiz-adv-x="1216" 
d="M545 1188l-215 256v31h196l166 -256v-31h-147zM115 709v30q27 149 152 238.5t317 89.5q200 0 320 -100.5t120 -286.5v-528l16 -17h142v-135h-99q-196 0 -217 150h-20q-118 -173 -381 -173q-170 0 -274.5 80.5t-104.5 218.5q0 140 100.5 216t270.5 92l389 37v63
q0 125 -69 186.5t-197 61.5q-127 0 -202.5 -57.5t-88.5 -165.5h-174zM266 285q0 -78 63 -125t169 -47q151 0 249.5 88.5t98.5 257.5v28l-365 -34q-215 -19 -215 -168z" />
    <glyph glyph-name="uni1EA3.ss01" horiz-adv-x="1216" 
d="M373 1452q105 64 245 64q90 0 147.5 -38t57.5 -100q0 -15 -3.5 -29t-7.5 -24t-13.5 -22t-15 -18.5t-20.5 -17.5t-20 -14.5t-23 -15t-22 -14.5l-57 -35h-139v31l112 71q24 17 34.5 25t19 20.5t8.5 26.5q0 43 -76 43q-93 0 -197 -66h-30v113zM115 709v30q27 149 152 238.5
t317 89.5q200 0 320 -100.5t120 -286.5v-528l16 -17h142v-135h-99q-196 0 -217 150h-20q-118 -173 -381 -173q-170 0 -274.5 80.5t-104.5 218.5q0 140 100.5 216t270.5 92l389 37v63q0 125 -69 186.5t-197 61.5q-127 0 -202.5 -57.5t-88.5 -165.5h-174zM266 285
q0 -78 63 -125t169 -47q151 0 249.5 88.5t98.5 257.5v28l-365 -34q-215 -19 -215 -168z" />
    <glyph glyph-name="amacron.ss01" horiz-adv-x="1216" 
d="M258 1348h645v-131h-645v131zM115 709v30q27 149 152 238.5t317 89.5q200 0 320 -100.5t120 -286.5v-528l16 -17h142v-135h-99q-196 0 -217 150h-20q-118 -173 -381 -173q-170 0 -274.5 80.5t-104.5 218.5q0 140 100.5 216t270.5 92l389 37v63q0 125 -69 186.5t-197 61.5
q-127 0 -202.5 -57.5t-88.5 -165.5h-174zM266 285q0 -78 63 -125t169 -47q151 0 249.5 88.5t98.5 257.5v28l-365 -34q-215 -19 -215 -168z" />
    <glyph glyph-name="aogonek.ss01" horiz-adv-x="1216" 
d="M1040 135h142v-135h-6q-244 -58 -244 -199q0 -50 29.5 -79t76.5 -29q58 0 107 39h31v-127q-84 -39 -160 -39q-95 0 -157 54.5t-62 143.5q0 145 178 232v20q-96 35 -109 134h-20q-118 -173 -381 -173q-170 0 -274.5 80.5t-104.5 218.5q0 140 100.5 216t270.5 92l389 37v63
q0 125 -69 186.5t-197 61.5q-127 0 -202.5 -57.5t-88.5 -165.5h-174v30q27 149 152 238.5t317 89.5q200 0 320 -100.5t120 -286.5v-528zM846 459v28l-365 -34q-215 -19 -215 -168q0 -78 63 -125t169 -47q151 0 249.5 88.5t98.5 257.5z" />
    <glyph glyph-name="aring.ss01" horiz-adv-x="1216" 
d="M582 1159q-86 0 -140.5 50.5t-54.5 127.5q0 78 54.5 129.5t140.5 51.5q84 0 138 -51.5t54 -129.5q0 -77 -54 -127.5t-138 -50.5zM582 1257q37 0 59.5 22.5t22.5 57.5q0 37 -22.5 59.5t-59.5 22.5q-38 0 -61 -22.5t-23 -59.5q0 -36 23 -58t61 -22zM115 709v30
q27 149 152 238.5t317 89.5q200 0 320 -100.5t120 -286.5v-528l16 -17h142v-135h-99q-196 0 -217 150h-20q-118 -173 -381 -173q-170 0 -274.5 80.5t-104.5 218.5q0 140 100.5 216t270.5 92l389 37v63q0 125 -69 186.5t-197 61.5q-127 0 -202.5 -57.5t-88.5 -165.5h-174z
M266 285q0 -78 63 -125t169 -47q151 0 249.5 88.5t98.5 257.5v28l-365 -34q-215 -19 -215 -168z" />
    <glyph glyph-name="atilde.ss01" horiz-adv-x="1216" 
d="M440 1333q-91 0 -94 -116h-119v30q5 92 56 151.5t145 59.5q46 0 90.5 -20t73.5 -44.5t64 -44.5t65 -20q91 0 94 117h119v-31q-5 -92 -56 -151.5t-145 -59.5q-45 0 -89.5 20t-74 44.5t-64.5 44.5t-65 20zM1040 135h142v-135h-99q-196 0 -217 150h-20q-118 -173 -381 -173
q-170 0 -274.5 80.5t-104.5 218.5q0 140 100.5 216t270.5 92l389 37v63q0 125 -69 186.5t-197 61.5q-127 0 -202.5 -57.5t-88.5 -165.5h-174v30q27 149 152 238.5t317 89.5q200 0 320 -100.5t120 -286.5v-528zM846 459v28l-365 -34q-215 -19 -215 -168q0 -78 63 -125
t169 -47q151 0 249.5 88.5t98.5 257.5z" />
    <glyph glyph-name="a.ss02" horiz-adv-x="1257" 
d="M1108 0h-176v147h-21q-45 -69 -130.5 -119.5t-217.5 -50.5q-208 0 -342.5 146.5t-134.5 398.5t134.5 398.5t342.5 146.5q239 0 357 -180h20l43 155h125v-1042zM936 522q0 190 -92.5 298t-241.5 108q-150 0 -243 -108t-93 -298q0 -191 93 -298t243 -107t242 107t92 298z
" />
    <glyph glyph-name="aacute.ss02" horiz-adv-x="1257" 
d="M674 1188h-148v31l166 256h197v-31zM1108 0h-176v147h-21q-45 -69 -130.5 -119.5t-217.5 -50.5q-208 0 -342.5 146.5t-134.5 398.5t134.5 398.5t342.5 146.5q239 0 357 -180h20l43 155h125v-1042zM936 522q0 190 -92.5 298t-241.5 108q-150 0 -243 -108t-93 -298
q0 -191 93 -298t243 -107t242 107t92 298z" />
    <glyph glyph-name="abreve.ss02" horiz-adv-x="1257" 
d="M643 1176q-152 0 -237.5 78t-92.5 190v31h140q0 -76 51 -126.5t139 -50.5q87 0 139 50.5t52 126.5h137v-31q-7 -111 -92 -189.5t-236 -78.5zM983 1042h125v-1042h-176v147h-21q-45 -69 -130.5 -119.5t-217.5 -50.5q-208 0 -342.5 146.5t-134.5 398.5t134.5 398.5
t342.5 146.5q239 0 357 -180h20zM602 117q150 0 242 107t92 298q0 190 -92.5 298t-241.5 108q-150 0 -243 -108t-93 -298q0 -191 93 -298t243 -107z" />
    <glyph glyph-name="uni1EAF.ss02" horiz-adv-x="1257" 
d="M901 1751l-223 -217h-152v31l174 217h201v-31zM643 1178q-145 0 -231 66.5t-101 160.5v31h140q8 -63 57 -102.5t135 -39.5q88 0 137.5 40t57.5 102h139v-31q-15 -94 -101 -160.5t-233 -66.5zM983 1042h125v-1042h-176v147h-21q-45 -69 -130.5 -119.5t-217.5 -50.5
q-208 0 -342.5 146.5t-134.5 398.5t134.5 398.5t342.5 146.5q239 0 357 -180h20zM602 117q150 0 242 107t92 298q0 190 -92.5 298t-241.5 108q-150 0 -243 -108t-93 -298q0 -191 93 -298t243 -107z" />
    <glyph glyph-name="uni1EB7.ss02" horiz-adv-x="1257" 
d="M643 1176q-152 0 -237.5 78t-92.5 190v31h140q0 -76 51 -126.5t139 -50.5q87 0 139 50.5t52 126.5h137v-31q-7 -111 -92 -189.5t-236 -78.5zM983 1042h125v-1042h-176v147h-21q-45 -69 -130.5 -119.5t-217.5 -50.5q-208 0 -342.5 146.5t-134.5 398.5t134.5 398.5
t342.5 146.5q239 0 357 -180h20zM602 117q150 0 242 107t92 298q0 190 -92.5 298t-241.5 108q-150 0 -243 -108t-93 -298q0 -191 93 -298t243 -107zM518 -375v201h250v-201h-250z" />
    <glyph glyph-name="uni1EB1.ss02" horiz-adv-x="1257" 
d="M762 1534h-152l-223 217v31h201l174 -217v-31zM643 1178q-145 0 -231 66.5t-101 160.5v31h140q8 -63 57 -102.5t135 -39.5q88 0 137.5 40t57.5 102h139v-31q-15 -94 -101 -160.5t-233 -66.5zM983 1042h125v-1042h-176v147h-21q-45 -69 -130.5 -119.5t-217.5 -50.5
q-208 0 -342.5 146.5t-134.5 398.5t134.5 398.5t342.5 146.5q239 0 357 -180h20zM602 117q150 0 242 107t92 298q0 190 -92.5 298t-241.5 108q-150 0 -243 -108t-93 -298q0 -191 93 -298t243 -107z" />
    <glyph glyph-name="uni1EB3.ss02" horiz-adv-x="1257" 
d="M668 1710q-94 0 -197 -65h-31v112q105 64 246 64q90 0 147.5 -38t57.5 -100q0 -15 -3.5 -29t-7.5 -24t-13.5 -22t-15 -18.5t-20.5 -17.5t-20 -14.5t-23 -15t-22 -14.5l-57 -35h-140v31l113 71q23 16 34 24.5t19 21t8 26.5q0 43 -75 43zM643 1178q-145 0 -231 66.5
t-101 160.5v31h140q8 -63 57 -102.5t135 -39.5q88 0 137.5 40t57.5 102h139v-31q-15 -94 -101 -160.5t-233 -66.5zM983 1042h125v-1042h-176v147h-21q-45 -69 -130.5 -119.5t-217.5 -50.5q-208 0 -342.5 146.5t-134.5 398.5t134.5 398.5t342.5 146.5q239 0 357 -180h20z
M602 117q150 0 242 107t92 298q0 190 -92.5 298t-241.5 108q-150 0 -243 -108t-93 -298q0 -191 93 -298t243 -107z" />
    <glyph glyph-name="uni1EB5.ss02" horiz-adv-x="1257" 
d="M498 1673q-45 0 -66.5 -27t-23.5 -83h-113v30q5 90 55.5 145.5t141.5 55.5q46 0 92.5 -19t77.5 -42.5t67 -42.5t64 -19q88 0 88 111h114v-31q-6 -90 -57 -145.5t-141 -55.5q-46 0 -91.5 19t-76.5 42.5t-67 42.5t-64 19zM643 1294q88 0 137.5 40t57.5 102h139v-31
q-15 -94 -101 -160.5t-233 -66.5q-145 0 -231 66.5t-101 160.5v31h140q8 -63 57 -102.5t135 -39.5zM983 1042h125v-1042h-176v147h-21q-45 -69 -130.5 -119.5t-217.5 -50.5q-208 0 -342.5 146.5t-134.5 398.5t134.5 398.5t342.5 146.5q239 0 357 -180h20zM602 117
q150 0 242 107t92 298q0 190 -92.5 298t-241.5 108q-150 0 -243 -108t-93 -298q0 -191 93 -298t243 -107z" />
    <glyph glyph-name="acircumflex.ss02" horiz-adv-x="1257" 
d="M643 1374l-174 -186h-152v31l220 256h208l222 -256v-31h-152zM983 1042h125v-1042h-176v147h-21q-45 -69 -130.5 -119.5t-217.5 -50.5q-208 0 -342.5 146.5t-134.5 398.5t134.5 398.5t342.5 146.5q239 0 357 -180h20zM602 117q150 0 242 107t92 298q0 190 -92.5 298
t-241.5 108q-150 0 -243 -108t-93 -298q0 -191 93 -298t243 -107z" />
    <glyph glyph-name="uni1EA5.ss02" horiz-adv-x="1257" 
d="M1018 1720h172v-30l-148 -254h-135v30zM643 1374l-174 -186h-152v31l220 256h208l222 -256v-31h-152zM940 887l43 155h125v-1042h-176v147h-21q-45 -69 -130.5 -119.5t-217.5 -50.5q-208 0 -342.5 146.5t-134.5 398.5t134.5 398.5t342.5 146.5q239 0 357 -180h20z
M602 117q150 0 242 107t92 298q0 190 -92.5 298t-241.5 108q-150 0 -243 -108t-93 -298q0 -191 93 -298t243 -107z" />
    <glyph glyph-name="uni1EAD.ss02" horiz-adv-x="1257" 
d="M643 1374l-174 -186h-152v31l220 256h208l222 -256v-31h-152zM983 1042h125v-1042h-176v147h-21q-45 -69 -130.5 -119.5t-217.5 -50.5q-208 0 -342.5 146.5t-134.5 398.5t134.5 398.5t342.5 146.5q239 0 357 -180h20zM602 117q150 0 242 107t92 298q0 190 -92.5 298
t-241.5 108q-150 0 -243 -108t-93 -298q0 -191 93 -298t243 -107zM518 -375v201h250v-201h-250z" />
    <glyph glyph-name="uni1EA7.ss02" horiz-adv-x="1257" 
d="M1090 1436h-138l-145 254v30h172l111 -254v-30zM643 1374l-174 -186h-152v31l220 256h208l222 -256v-31h-152zM983 1042h125v-1042h-176v147h-21q-45 -69 -130.5 -119.5t-217.5 -50.5q-208 0 -342.5 146.5t-134.5 398.5t134.5 398.5t342.5 146.5q239 0 357 -180h20z
M602 117q150 0 242 107t92 298q0 190 -92.5 298t-241.5 108q-150 0 -243 -108t-93 -298q0 -191 93 -298t243 -107z" />
    <glyph glyph-name="uni1EA9.ss02" horiz-adv-x="1257" 
d="M995 1761q90 0 147.5 -37.5t57.5 -99.5q0 -13 -2 -25t-7.5 -23.5t-9.5 -19.5t-14 -18t-15 -15.5t-18.5 -15t-18.5 -13t-20.5 -13.5t-19.5 -13l-57 -34h-139v30l112 72q24 17 34.5 25t19 20.5t8.5 26.5q0 43 -76 43q-93 0 -197 -66h-30v113q103 63 245 63zM643 1374
l-174 -186h-152v31l220 256h208l222 -256v-31h-152zM940 887l43 155h125v-1042h-176v147h-21q-45 -69 -130.5 -119.5t-217.5 -50.5q-208 0 -342.5 146.5t-134.5 398.5t134.5 398.5t342.5 146.5q239 0 357 -180h20zM602 117q150 0 242 107t92 298q0 190 -92.5 298t-241.5 108
q-150 0 -243 -108t-93 -298q0 -191 93 -298t243 -107z" />
    <glyph glyph-name="uni1EAB.ss02" horiz-adv-x="1257" 
d="M498 1673q-45 0 -66.5 -27t-23.5 -83h-113v30q5 90 55.5 145.5t141.5 55.5q46 0 92.5 -19t77.5 -42.5t67 -42.5t64 -19q88 0 88 111h114v-31q-6 -90 -57 -145.5t-141 -55.5q-46 0 -91.5 19t-76.5 42.5t-67 42.5t-64 19zM643 1339l-192 -151h-164v31l252 217h209l253 -217
v-31h-165zM983 1042h125v-1042h-176v147h-21q-45 -69 -130.5 -119.5t-217.5 -50.5q-208 0 -342.5 146.5t-134.5 398.5t134.5 398.5t342.5 146.5q239 0 357 -180h20zM602 117q150 0 242 107t92 298q0 190 -92.5 298t-241.5 108q-150 0 -243 -108t-93 -298q0 -191 93 -298
t243 -107z" />
    <glyph glyph-name="adieresis.ss02" horiz-adv-x="1257" 
d="M324 1440h229v-201h-229v201zM735 1440h232v-201h-232v201zM1108 0h-176v147h-21q-45 -69 -130.5 -119.5t-217.5 -50.5q-208 0 -342.5 146.5t-134.5 398.5t134.5 398.5t342.5 146.5q239 0 357 -180h20l43 155h125v-1042zM936 522q0 190 -92.5 298t-241.5 108
q-150 0 -243 -108t-93 -298q0 -191 93 -298t243 -107t242 107t92 298z" />
    <glyph glyph-name="uni1EA1.ss02" horiz-adv-x="1257" 
d="M1108 0h-176v147h-21q-45 -69 -130.5 -119.5t-217.5 -50.5q-208 0 -342.5 146.5t-134.5 398.5t134.5 398.5t342.5 146.5q239 0 357 -180h20l43 155h125v-1042zM936 522q0 190 -92.5 298t-241.5 108q-150 0 -243 -108t-93 -298q0 -191 93 -298t243 -107t242 107t92 298z
M518 -174h250v-201h-250v201z" />
    <glyph glyph-name="agrave.ss02" horiz-adv-x="1257" 
d="M608 1188l-215 256v31h197l166 -256v-31h-148zM1108 0h-176v147h-21q-45 -69 -130.5 -119.5t-217.5 -50.5q-208 0 -342.5 146.5t-134.5 398.5t134.5 398.5t342.5 146.5q239 0 357 -180h20l43 155h125v-1042zM936 522q0 190 -92.5 298t-241.5 108q-150 0 -243 -108
t-93 -298q0 -191 93 -298t243 -107t242 107t92 298z" />
    <glyph glyph-name="uni1EA3.ss02" horiz-adv-x="1257" 
d="M436 1452q105 64 246 64q90 0 147.5 -38t57.5 -100q0 -15 -3.5 -29t-7.5 -24t-13.5 -22t-15 -18.5t-20.5 -17.5t-20 -14.5t-23 -15t-22 -14.5l-57 -35h-140v31l113 71q23 16 34 24.5t19 21t8 26.5q0 43 -75 43q-93 0 -197 -66h-31v113zM1108 0h-176v147h-21
q-45 -69 -130.5 -119.5t-217.5 -50.5q-208 0 -342.5 146.5t-134.5 398.5t134.5 398.5t342.5 146.5q239 0 357 -180h20l43 155h125v-1042zM936 522q0 190 -92.5 298t-241.5 108q-150 0 -243 -108t-93 -298q0 -191 93 -298t243 -107t242 107t92 298z" />
    <glyph glyph-name="amacron.ss02" horiz-adv-x="1257" 
d="M322 1348h645v-131h-645v131zM1108 0h-176v147h-21q-45 -69 -130.5 -119.5t-217.5 -50.5q-208 0 -342.5 146.5t-134.5 398.5t134.5 398.5t342.5 146.5q239 0 357 -180h20l43 155h125v-1042zM936 522q0 190 -92.5 298t-241.5 108q-150 0 -243 -108t-93 -298
q0 -191 93 -298t243 -107t242 107t92 298z" />
    <glyph glyph-name="aogonek.ss02" horiz-adv-x="1257" 
d="M983 1042h125v-1042h-2q-246 -59 -246 -199q0 -50 30 -79t77 -29q52 0 108 39h31v-127q-84 -39 -162 -39q-95 0 -157 54.5t-62 143.5q0 85 56.5 144.5t148.5 95.5v143h-19q-45 -69 -130.5 -119.5t-217.5 -50.5q-208 0 -342.5 146.5t-134.5 398.5t134.5 398.5t342.5 146.5
q239 0 357 -180h20zM602 117q150 0 242 107t92 298q0 190 -92.5 298t-241.5 108q-150 0 -243 -108t-93 -298q0 -191 93 -298t243 -107z" />
    <glyph glyph-name="aring.ss02" horiz-adv-x="1257" 
d="M645 1159q-86 0 -140 50.5t-54 127.5q0 79 54 130t140 51q84 0 138.5 -51.5t54.5 -129.5q0 -77 -54.5 -127.5t-138.5 -50.5zM645 1257q37 0 59.5 22.5t22.5 57.5q0 37 -22.5 59.5t-59.5 22.5q-38 0 -61 -22.5t-23 -59.5q0 -36 23 -58t61 -22zM1108 0h-176v147h-21
q-45 -69 -130.5 -119.5t-217.5 -50.5q-208 0 -342.5 146.5t-134.5 398.5t134.5 398.5t342.5 146.5q239 0 357 -180h20l43 155h125v-1042zM936 522q0 190 -92.5 298t-241.5 108q-150 0 -243 -108t-93 -298q0 -191 93 -298t243 -107t242 107t92 298z" />
    <glyph glyph-name="atilde.ss02" horiz-adv-x="1257" 
d="M504 1333q-91 0 -94 -116h-119v30q5 92 56 151.5t145 59.5q46 0 90.5 -20t73.5 -44.5t63.5 -44.5t64.5 -20q92 0 95 117h118v-31q-5 -92 -56 -151.5t-144 -59.5q-45 0 -89.5 20t-74 44.5t-64.5 44.5t-65 20zM983 1042h125v-1042h-176v147h-21q-45 -69 -130.5 -119.5
t-217.5 -50.5q-208 0 -342.5 146.5t-134.5 398.5t134.5 398.5t342.5 146.5q239 0 357 -180h20zM602 117q150 0 242 107t92 298q0 190 -92.5 298t-241.5 108q-150 0 -243 -108t-93 -298q0 -191 93 -298t243 -107z" />
    <glyph glyph-name="k.ss03" horiz-adv-x="1128" 
d="M496 549l614 -518v-31h-217l-543 463h-20v-463h-180v1475h180v-859h20l533 426h213v-30z" />
    <glyph glyph-name="uni0137.ss03" horiz-adv-x="1128" 
d="M496 549l614 -518v-31h-217l-543 463h-20v-463h-180v1475h180v-859h20l533 426h213v-30zM465 -299v190h256v-206q0 -109 -60.5 -165.5t-164.5 -56.5h-56v109h52q56 0 82 26.5t26 86.5v16h-135z" />
    <glyph glyph-name="l.ss04" horiz-adv-x="536" 
d="M346 133h141v-133h-77q-127 0 -193.5 63t-66.5 181v1231h180v-1325z" />
    <glyph glyph-name="lacute.ss04" horiz-adv-x="536" 
d="M477 1812l-217 -227h-158v31l158 227h217v-31zM346 133h141v-133h-77q-127 0 -193.5 63t-66.5 181v1231h180v-1325z" />
    <glyph glyph-name="lcaron.ss04" horiz-adv-x="675" 
d="M330 152l16 -17h129v-135h-67q-122 0 -190 65.5t-68 178.5v1231h180v-1323zM508 1475h174v-31l-78 -350h-125v30z" />
    <glyph glyph-name="uni013C.ss04" horiz-adv-x="536" 
d="M346 133h141v-133h-77q-127 0 -193.5 63t-66.5 181v1231h180v-1325zM172 -299v190h256v-206q0 -109 -60.5 -165.5t-164.5 -56.5h-56v109h52q56 0 82 26.5t26 86.5v16h-135z" />
    <glyph glyph-name="ldot.ss04" horiz-adv-x="788" 
d="M330 150l16 -17h129v-133h-67q-122 0 -190 65.5t-68 178.5v1231h180v-1325zM518 649h230v-215h-230v215z" />
    <glyph glyph-name="lslash.ss04" horiz-adv-x="770" 
d="M709 811l-248 -113v-548l16 -17h129v-133h-67q-122 0 -190 65.5t-68 178.5v372l-181 -81h-30v114l211 96v730h180v-648l217 99h31v-115z" />
    <glyph glyph-name="u.ss05" horiz-adv-x="1218" 
d="M141 1042h181v-653q0 -134 76 -203t210 -69t211.5 69.5t77.5 202.5v653h180v-653q0 -203 -128 -308.5t-341 -105.5q-215 0 -341 105t-126 309v653z" />
    <glyph glyph-name="uacute.ss05" horiz-adv-x="1218" 
d="M637 1188h-148v31l166 256h197v-31zM141 1042h181v-653q0 -134 76 -203t210 -69t211.5 69.5t77.5 202.5v653h180v-653q0 -203 -128 -308.5t-341 -105.5q-215 0 -341 105t-126 309v653z" />
    <glyph glyph-name="ucircumflex.ss05" horiz-adv-x="1218" 
d="M608 1374l-174 -186h-151v31l219 256h209l221 -256v-31h-152zM897 1042h180v-653q0 -203 -128 -308.5t-341 -105.5q-215 0 -341 105t-126 309v653h181v-653q0 -134 76 -203t210 -69t211.5 69.5t77.5 202.5v653z" />
    <glyph glyph-name="udieresis.ss05" horiz-adv-x="1218" 
d="M287 1440h229v-201h-229v201zM698 1440h232v-201h-232v201zM141 1042h181v-653q0 -134 76 -203t210 -69t211.5 69.5t77.5 202.5v653h180v-653q0 -203 -128 -308.5t-341 -105.5q-215 0 -341 105t-126 309v653z" />
    <glyph glyph-name="uni1EE5.ss05" horiz-adv-x="1218" 
d="M141 1042h181v-653q0 -134 76 -203t210 -69t211.5 69.5t77.5 202.5v653h180v-653q0 -203 -128 -308.5t-341 -105.5q-215 0 -341 105t-126 309v653zM485 -174h250v-201h-250v201z" />
    <glyph glyph-name="ugrave.ss05" horiz-adv-x="1218" 
d="M571 1188l-215 256v31h197l166 -256v-31h-148zM141 1042h181v-653q0 -134 76 -203t210 -69t211.5 69.5t77.5 202.5v653h180v-653q0 -203 -128 -308.5t-341 -105.5q-215 0 -341 105t-126 309v653z" />
    <glyph glyph-name="uni1EE7.ss05" horiz-adv-x="1218" 
d="M399 1452q105 64 246 64q90 0 147.5 -38t57.5 -100q0 -15 -3.5 -29t-7.5 -24t-13.5 -22t-15 -18.5t-20.5 -17.5t-20 -14.5t-23 -15t-22 -14.5l-57 -35h-140v31l113 71q23 16 34 24.5t19 21t8 26.5q0 43 -75 43q-93 0 -197 -66h-31v113zM141 1042h181v-653q0 -134 76 -203
t210 -69t211.5 69.5t77.5 202.5v653h180v-653q0 -203 -128 -308.5t-341 -105.5q-215 0 -341 105t-126 309v653z" />
    <glyph glyph-name="uhorn.ss05" horiz-adv-x="1218" 
d="M1358 1419q57 -121 57 -235q0 -126 -77 -190t-212 -64h-49v-541q0 -203 -128 -308.5t-341 -105.5q-215 0 -341 105t-126 309v653h181v-653q0 -134 76 -203t210 -69t211.5 69.5t77.5 202.5v653h211q158 0 158 144q0 93 -58 203v30h150z" />
    <glyph glyph-name="uni1EE9.ss05" horiz-adv-x="1218" 
d="M852 1444l-215 -256h-148v31l166 256h197v-31zM1358 1419q57 -121 57 -235q0 -126 -77 -190t-212 -64h-49v-541q0 -203 -128 -308.5t-341 -105.5q-215 0 -341 105t-126 309v653h181v-653q0 -134 76 -203t210 -69t211.5 69.5t77.5 202.5v653h211q158 0 158 144
q0 93 -58 203v30h150z" />
    <glyph glyph-name="uni1EF1.ss05" horiz-adv-x="1218" 
d="M1358 1419q57 -121 57 -235q0 -126 -77 -190t-212 -64h-49v-541q0 -203 -128 -308.5t-341 -105.5q-215 0 -341 105t-126 309v653h181v-653q0 -134 76 -203t210 -69t211.5 69.5t77.5 202.5v653h211q158 0 158 144q0 93 -58 203v30h150zM485 -375v201h250v-201h-250z" />
    <glyph glyph-name="uni1EEB.ss05" horiz-adv-x="1218" 
d="M719 1188h-148l-215 256v31h197l166 -256v-31zM1358 1419q57 -121 57 -235q0 -126 -77 -190t-212 -64h-49v-541q0 -203 -128 -308.5t-341 -105.5q-215 0 -341 105t-126 309v653h181v-653q0 -134 76 -203t210 -69t211.5 69.5t77.5 202.5v653h211q158 0 158 144
q0 93 -58 203v30h150z" />
    <glyph glyph-name="uni1EED.ss05" horiz-adv-x="1218" 
d="M627 1405q-93 0 -197 -66h-31v113q105 64 246 64q90 0 147.5 -38t57.5 -100q0 -15 -3.5 -29t-7.5 -24t-13.5 -22t-15 -18.5t-20.5 -17.5t-20 -14.5t-23 -15t-22 -14.5l-57 -35h-140v31l113 71q23 16 34 24.5t19 21t8 26.5q0 43 -75 43zM1358 1419q57 -121 57 -235
q0 -126 -77 -190t-212 -64h-49v-541q0 -203 -128 -308.5t-341 -105.5q-215 0 -341 105t-126 309v653h181v-653q0 -134 76 -203t210 -69t211.5 69.5t77.5 202.5v653h211q158 0 158 144q0 93 -58 203v30h150z" />
    <glyph glyph-name="uni1EEF.ss05" horiz-adv-x="1218" 
d="M467 1333q-91 0 -94 -116h-119v30q5 92 56 151.5t145 59.5q46 0 90.5 -20t73.5 -44.5t64 -44.5t65 -20q91 0 94 117h119v-31q-5 -92 -56 -151.5t-145 -59.5q-45 0 -89.5 20t-74 44.5t-64.5 44.5t-65 20zM1358 1419q57 -121 57 -235q0 -126 -77 -190t-212 -64h-49v-541
q0 -203 -128 -308.5t-341 -105.5q-215 0 -341 105t-126 309v653h181v-653q0 -134 76 -203t210 -69t211.5 69.5t77.5 202.5v653h211q158 0 158 144q0 93 -58 203v30h150z" />
    <glyph glyph-name="uhungarumlaut.ss05" horiz-adv-x="1218" 
d="M465 1188h-129v31l113 256h186v-31zM801 1188h-137v31l153 256h191v-31zM141 1042h181v-653q0 -134 76 -203t210 -69t211.5 69.5t77.5 202.5v653h180v-653q0 -203 -128 -308.5t-341 -105.5q-215 0 -341 105t-126 309v653z" />
    <glyph glyph-name="umacron.ss05" horiz-adv-x="1218" 
d="M285 1348h645v-131h-645v131zM141 1042h181v-653q0 -134 76 -203t210 -69t211.5 69.5t77.5 202.5v653h180v-653q0 -203 -128 -308.5t-341 -105.5q-215 0 -341 105t-126 309v653z" />
    <glyph glyph-name="uogonek.ss05" horiz-adv-x="1218" 
d="M897 1042h180v-653q0 -255 -200 -356q-130 -69 -181 -120t-51 -112q0 -50 30 -79t77 -29q57 0 106 39h31v-127q-84 -39 -160 -39q-95 0 -157 54.5t-62 143.5q0 118 115 189v22h-17q-215 0 -341 105t-126 309v653h181v-653q0 -134 76 -203t210 -69t211.5 69.5t77.5 202.5
v653z" />
    <glyph glyph-name="uring.ss05" horiz-adv-x="1218" 
d="M608 1159q-86 0 -140 50.5t-54 127.5q0 79 54 130t140 51q84 0 138.5 -51.5t54.5 -129.5q0 -77 -54.5 -127.5t-138.5 -50.5zM608 1257q37 0 59.5 22.5t22.5 57.5q0 37 -22.5 59.5t-59.5 22.5q-38 0 -61 -22.5t-23 -59.5q0 -36 23 -58t61 -22zM141 1042h181v-653
q0 -134 76 -203t210 -69t211.5 69.5t77.5 202.5v653h180v-653q0 -203 -128 -308.5t-341 -105.5q-215 0 -341 105t-126 309v653z" />
    <glyph glyph-name="utilde.ss05" horiz-adv-x="1218" 
d="M467 1333q-91 0 -94 -116h-119v30q5 92 56 151.5t145 59.5q46 0 90.5 -20t73.5 -44.5t64 -44.5t65 -20q91 0 94 117h119v-31q-5 -92 -56 -151.5t-145 -59.5q-45 0 -89.5 20t-74 44.5t-64.5 44.5t-65 20zM897 1042h180v-653q0 -203 -128 -308.5t-341 -105.5
q-215 0 -341 105t-126 309v653h181v-653q0 -134 76 -203t210 -69t211.5 69.5t77.5 202.5v653z" />
    <glyph glyph-name="y.ss06" horiz-adv-x="1124" 
d="M35 1042h186l332 -870h20l330 870h187v-30l-502 -1219q-47 -115 -117.5 -159t-204.5 -44h-215v140h307l21 16l88 213l-432 1053v30z" />
    <glyph glyph-name="yacute.ss06" horiz-adv-x="1124" 
d="M592 1188h-148v31l166 256h197v-31zM35 1042h186l332 -870h20l330 870h187v-30l-502 -1219q-47 -115 -117.5 -159t-204.5 -44h-215v140h307l21 16l88 213l-432 1053v30z" />
    <glyph glyph-name="ycircumflex.ss06" horiz-adv-x="1124" 
d="M563 1374l-174 -186h-151v31l219 256h209l221 -256v-31h-152zM903 1042h187v-30l-502 -1219q-47 -115 -117.5 -159t-204.5 -44h-215v140h307l21 16l88 213l-432 1053v30h186l332 -870h20z" />
    <glyph glyph-name="ydieresis.ss06" horiz-adv-x="1124" 
d="M242 1440h229v-201h-229v201zM653 1440h232v-201h-232v201zM35 1042h186l332 -870h20l330 870h187v-30l-502 -1219q-47 -115 -117.5 -159t-204.5 -44h-215v140h307l21 16l88 213l-432 1053v30z" />
    <glyph glyph-name="uni1EF5.ss06" horiz-adv-x="1124" 
d="M35 1042h186l332 -870h20l330 870h187v-30l-502 -1219q-47 -115 -117.5 -159t-204.5 -44h-215v140h307l21 16l88 213l-432 1053v30zM762 -174h250v-201h-250v201z" />
    <glyph glyph-name="ygrave.ss06" horiz-adv-x="1124" 
d="M528 1188l-215 256v31h197l166 -256v-31h-148zM35 1042h186l332 -870h20l330 870h187v-30l-502 -1219q-47 -115 -117.5 -159t-204.5 -44h-215v140h307l21 16l88 213l-432 1053v30z" />
    <glyph glyph-name="uni1EF7.ss06" horiz-adv-x="1124" 
d="M356 1452q105 64 246 64q90 0 147.5 -38t57.5 -100q0 -15 -3.5 -29t-7.5 -24t-13.5 -22t-15 -18.5t-20.5 -17.5t-20 -14.5t-23 -15t-22 -14.5l-57 -35h-140v31l113 71q23 16 34 24.5t19 21t8 26.5q0 43 -75 43q-93 0 -197 -66h-31v113zM35 1042h186l332 -870h20l330 870
h187v-30l-502 -1219q-47 -115 -117.5 -159t-204.5 -44h-215v140h307l21 16l88 213l-432 1053v30z" />
    <glyph glyph-name="uni1EF9.ss06" horiz-adv-x="1124" 
d="M422 1333q-91 0 -94 -116h-119v30q5 92 56 151.5t145 59.5q46 0 90.5 -20t73.5 -44.5t63.5 -44.5t64.5 -20q92 0 95 117h118v-31q-5 -92 -56 -151.5t-144 -59.5q-45 0 -89.5 20t-74 44.5t-64.5 44.5t-65 20zM903 1042h187v-30l-502 -1219q-47 -115 -117.5 -159
t-204.5 -44h-215v140h307l21 16l88 213l-432 1053v30h186l332 -870h20z" />
    <glyph glyph-name="fl.ss04" horiz-adv-x="1277" 
d="M1102 133h127v-133h-64q-127 0 -193.5 63t-66.5 181v1095h-434l-16 -16v-281h266v-135h-266v-907h-181v907h-243v135h243v179q0 125 69.5 189.5t199.5 64.5h542v-1325z" />
    <glyph glyph-name="f_f_l.liga.ss04" horiz-adv-x="1908" 
d="M1733 133h127v-133h-64q-127 0 -193.5 63t-66.5 181v1095h-434l-17 -16v-281h267v-135h-267v-907h-180v907h-450v-907h-181v907h-243v135h243v179q0 125 69.5 189.5t199.5 64.5h209v-136h-281l-16 -16v-281h450v179q0 125 69.5 189.5t199.5 64.5h542v-1325z" />
    <glyph glyph-name="f_lcaron.liga.ss04" horiz-adv-x="1431" 
d="M1085 152l17 -17h129v-135h-68q-122 0 -190 65.5t-68 178.5v1095h-434l-16 -16v-281h266v-135h-266v-907h-181v907h-243v135h243v179q0 125 69.5 189.5t199.5 64.5h542v-1323zM1264 1475h174v-31l-78 -350h-125v30z" />
    <glyph glyph-name="zero.zero" horiz-adv-x="1398" 
d="M700 1499q278 0 436 -204t158 -558q0 -353 -158.5 -557.5t-435.5 -204.5q-279 0 -437.5 204.5t-158.5 557.5q0 354 158.5 558t437.5 204zM700 1350q-192 0 -299.5 -165t-107.5 -448q0 -192 51 -331l668 757q-110 187 -312 187zM700 127q191 0 298.5 164t107.5 446
q0 196 -53 338l-668 -760q109 -188 315 -188z" />
    <glyph glyph-name="zero.lf" horiz-adv-x="1398" 
d="M104 737q0 354 158.5 558t437.5 204q278 0 436 -204t158 -558q0 -353 -158.5 -557.5t-435.5 -204.5q-279 0 -437.5 204.5t-158.5 557.5zM293 737q0 -282 107.5 -446t299.5 -164q191 0 298.5 164t107.5 446t-108 447.5t-298 165.5q-192 0 -299.5 -165t-107.5 -448z" />
    <glyph glyph-name="one.lf" horiz-adv-x="811" 
d="M53 1073v137h176q121 0 175.5 49.5t54.5 149.5v66h184v-1475h-186v1073h-404z" />
    <glyph glyph-name="two.lf" horiz-adv-x="1290" 
d="M106 1032v31q17 195 164.5 314.5t382.5 119.5q236 0 380.5 -120t144.5 -310q0 -53 -10 -101.5t-24 -86.5t-44.5 -81.5t-54.5 -72t-72 -73t-79 -70l-93 -76.5l-420 -356h813v-150h-1081v127l604 520q75 65 118 107.5t82.5 94.5t55.5 104.5t16 115.5q0 130 -90.5 206.5
t-247.5 76.5q-161 0 -257.5 -82.5t-106.5 -237.5h-181z" />
    <glyph glyph-name="three.lf" horiz-adv-x="1282" 
d="M92 406v30h178q7 -150 107.5 -232.5t263.5 -82.5q160 0 257 78.5t97 208.5q0 129 -96.5 202.5t-259.5 73.5h-160v147h160q147 0 238.5 72t91.5 191q0 122 -91 191t-239 69q-146 0 -239 -71t-103 -202h-178v31q21 176 160.5 281.5t363.5 105.5q230 0 371 -107.5
t141 -285.5q0 -64 -17.5 -118t-45.5 -90t-65.5 -63t-74 -41t-73.5 -20v-20q40 -6 79 -20t81 -42t73.5 -66t51.5 -97t20 -130q0 -194 -149.5 -309t-391.5 -115q-239 0 -386.5 115t-164.5 316z" />
    <glyph glyph-name="four.lf" horiz-adv-x="1284" 
d="M47 420v129l842 926h227v-1475h-188v420h-881zM256 565h672v717h-21z" />
    <glyph glyph-name="five.lf" horiz-adv-x="1280" 
d="M201 1475h956v-150h-780l-37 -508h20q24 26 45.5 44.5t63.5 46t102 42.5t131 15q208 0 345 -132t137 -348q0 -110 -38 -204t-108 -161.5t-174 -106t-231 -38.5q-124 0 -225.5 36.5t-166 98.5t-102.5 137.5t-47 158.5v30h180q11 -135 103.5 -225t255.5 -90q168 0 266 98
t98 256q0 152 -96.5 247t-257.5 95q-228 0 -315 -203h-187z" />
    <glyph glyph-name="six.lf" horiz-adv-x="1333" 
d="M1233 465q0 -218 -150 -354t-393 -136q-100 0 -186.5 25t-160.5 79.5t-126.5 135t-82.5 196.5t-30 259q0 212 45.5 372.5t130 259.5t197.5 148t254 49q102 0 185.5 -24.5t138.5 -63.5t94.5 -92.5t59.5 -106t28 -108.5v-31h-178q-6 52 -24 97.5t-54 89t-100.5 69
t-151.5 25.5q-206 0 -321 -161.5t-115 -477.5h20q32 60 83 107.5t139.5 81.5t197.5 34q141 0 254 -57t179.5 -165.5t66.5 -250.5zM1044 455q0 150 -97 243t-259 93q-160 0 -256 -93t-96 -243q0 -149 96.5 -241.5t257.5 -92.5q160 0 257 92.5t97 241.5z" />
    <glyph glyph-name="seven.lf" horiz-adv-x="1193" 
d="M39 1475h1110v-132l-645 -1343h-195v31l631 1294h-901v150z" />
    <glyph glyph-name="eight.lf" horiz-adv-x="1318" 
d="M125 1104q0 178 146 286.5t388 108.5q241 0 387 -109t146 -286q0 -78 -26 -139.5t-69.5 -99t-86 -60t-90.5 -35.5v-20q38 -9 75.5 -24.5t79 -45t72.5 -67.5t51.5 -95t20.5 -125q0 -190 -153 -304t-407 -114t-406.5 114t-152.5 304q0 68 20 125t51 95t72 67.5t77.5 45
t74.5 24.5v20q-37 10 -71 25t-71.5 43t-64.5 62.5t-45 87.5t-18 116zM313 1092q0 -123 91.5 -193t254.5 -70t255 70t92 193t-92 192.5t-255 69.5t-254.5 -69.5t-91.5 -192.5zM289 401q0 -130 99.5 -205t270.5 -75t271 75t100 205q0 131 -100 207t-271 76t-270.5 -75.5
t-99.5 -207.5z" />
    <glyph glyph-name="nine.lf" horiz-adv-x="1329" 
d="M98 1014q0 216 149 350.5t390 134.5q126 0 231 -41t185.5 -122.5t126 -217t45.5 -313.5q0 -419 -155.5 -624.5t-436.5 -205.5q-100 0 -183.5 25.5t-138 65t-96 91.5t-62.5 99.5t-32 95.5v31h180q7 -34 20 -67t39.5 -69t62 -63.5t90 -45t120.5 -17.5q198 0 301.5 158.5
t103.5 478.5h-20q-53 -95 -154.5 -157t-257.5 -62q-220 0 -364 132.5t-144 342.5zM287 1020q0 -151 96.5 -243.5t257.5 -92.5q160 0 257 93t97 243q0 149 -97 241.5t-259 92.5q-160 0 -256 -92.5t-96 -241.5z" />
    <glyph glyph-name="one.lf.ss12" horiz-adv-x="1300" 
d="M829 150h418v-150h-1177v150h571v923h-444v137h217q121 0 175 49.5t54 149.5v66h186v-1325z" />
    <glyph glyph-name="three.lf.ss13" horiz-adv-x="1239" 
d="M98 1473h1059v-134l-518 -442v-20q60 6 78 6q121 0 221.5 -51t162.5 -151t62 -230q0 -208 -146.5 -342t-395.5 -134q-124 0 -225.5 35t-167.5 95t-105.5 133.5t-50.5 156.5v31h178q15 -133 108 -219t260 -86q169 0 263 91t94 234q0 140 -98 228t-265 88q-116 0 -213 -47
h-30v149l536 459h-807v150z" />
    <glyph glyph-name="four.lf.ss14" horiz-adv-x="1337" 
d="M47 428v129l770 918h238v-902h231v-145h-231v-428h-189v428h-819zM248 573h618v711h-20z" />
    <glyph glyph-name="zero.lf.zero" horiz-adv-x="1398" 
d="M700 1499q278 0 436 -204t158 -558q0 -353 -158.5 -557.5t-435.5 -204.5q-279 0 -437.5 204.5t-158.5 557.5q0 354 158.5 558t437.5 204zM700 1350q-192 0 -299.5 -165t-107.5 -448q0 -192 51 -331l668 757q-110 187 -312 187zM700 127q191 0 298.5 164t107.5 446
q0 196 -53 338l-668 -760q109 -188 315 -188z" />
    <glyph glyph-name="zero.osf" horiz-adv-x="1280" 
d="M82 522q0 245 153 395t406 150q251 0 404 -150t153 -395t-153 -396t-404 -151q-253 0 -406 151t-153 396zM270 522q0 -185 102 -290t269 -105q166 0 268.5 105.5t102.5 289.5t-103.5 291t-267.5 105q-167 -2 -269 -107t-102 -289z" />
    <glyph glyph-name="one.osf" horiz-adv-x="763" 
d="M43 649v135h150q120 0 174.5 50t54.5 149v59h186v-1042h-188v649h-377z" />
    <glyph glyph-name="two.osf" horiz-adv-x="1140" 
d="M94 674v31q19 167 152.5 264.5t337.5 97.5q206 0 333 -96.5t127 -261.5q0 -55 -11.5 -101.5t-36.5 -85t-55 -70t-77 -62.5t-91.5 -55.5t-108.5 -55.5l-271 -134h670v-145h-973v127l483 264q77 43 122.5 72.5t87 67.5t59.5 79t18 92q0 100 -76.5 160t-203.5 60
q-130 0 -212 -64t-89 -184h-185z" />
    <glyph glyph-name="three.osf" horiz-adv-x="1218" 
d="M53 -18v30h180q9 -141 109 -221t258 -80q157 0 252.5 76.5t95.5 202.5q0 127 -94.5 198.5t-253.5 71.5h-156v148h154q142 0 233 70.5t91 185.5q0 119 -90 188.5t-232 69.5q-143 0 -234 -71t-100 -194h-180v31q18 169 156.5 274t359.5 105q225 0 365.5 -108.5
t140.5 -282.5q0 -77 -26 -138.5t-68.5 -99t-88 -59t-94.5 -29.5v-20q40 -6 79 -19t81.5 -40.5t73.5 -64.5t51.5 -94.5t20.5 -127.5q0 -191 -148 -304.5t-387 -113.5q-234 0 -381.5 112.5t-167.5 303.5z" />
    <glyph glyph-name="four.osf" horiz-adv-x="1284" 
d="M47 0v129l844 913h225v-1452h-188v410h-881zM258 145h670v707h-21z" />
    <glyph glyph-name="five.osf" horiz-adv-x="1236" 
d="M182 1042h961v-147h-785l-32 -494h20q25 27 47.5 46t64 44t101 38.5t131.5 13.5q207 0 343 -129.5t136 -343.5q0 -223 -148 -363.5t-403 -140.5q-100 0 -185.5 24t-146 64t-105.5 94t-69.5 113t-31.5 121v30h178q6 -60 30.5 -113t67 -95.5t109.5 -67.5t151 -25
q168 0 266.5 96.5t98.5 251.5q0 151 -96.5 244.5t-257.5 93.5q-72 0 -130 -20t-94.5 -53.5t-56.5 -62t-35 -60.5h-186z" />
    <glyph glyph-name="six.osf" horiz-adv-x="1312" 
d="M1235 465q0 -219 -149 -354.5t-392 -135.5q-124 0 -228.5 41t-185 123t-126 218t-45.5 313q0 212 45 372.5t129 259.5t196.5 148t253.5 49q102 0 186 -24.5t139 -63.5t95 -92t60 -106t28 -109v-31h-180q-5 52 -23 97.5t-53.5 89t-100.5 69t-153 25.5q-206 0 -321 -161.5
t-115 -477.5h20q53 96 157.5 159.5t262.5 63.5q141 0 254 -57t179.5 -165.5t66.5 -250.5zM1047 455q0 151 -97 243.5t-260 92.5q-160 0 -256 -93t-96 -243q0 -149 96.5 -241.5t259.5 -92.5q160 0 256.5 92.5t96.5 241.5z" />
    <glyph glyph-name="seven.osf" horiz-adv-x="1153" 
d="M33 1042h1081v-129l-645 -1323h-195v31l629 1274h-870v147z" />
    </font>
</defs>
</svg>
