<svg width="1001" height="276" viewBox="0 0 1001 276" fill="none" xmlns="http://www.w3.org/2000/svg">
<path d="M95.5 121.8C91.9 121.8 89 118.9 89 115.3V64.2C89 60.6 91.9 57.7 95.5 57.7C99.1 57.7 102 60.6 102 64.2V115.3C101.9 118.9 99 121.8 95.5 121.8Z" fill="white"/>
<path d="M105.9 121.8H85.8C82.2 121.7 79.4 118.8 79.4 115.2C79.5 111.7 82.3 108.9 85.8 108.8H105.9C109.5 108.9 112.3 111.8 112.3 115.4C112.2 119 109.3 121.8 105.9 121.8Z" fill="white"/>
<path d="M99 275.9C44.4 275.9 0 231.5 0 176.9C0 122.3 44.4 77.9 99 77.9C125.4 77.9 150.3 88.2 169 106.9L175.4 113.3L147.4 139.6L135.3 126.7L149.6 113.2C135.3 101.7 117.6 95.5 98.9 95.5C54.1 95.5 17.6 132 17.6 176.8C17.6 221.6 54.1 258.1 98.9 258.1" fill="white"/>
<path d="M148.7 225L136 212.7C145.4 203 150.5 190.3 150.5 176.9C150.5 162.9 145 149.7 134.9 140L128.3 133.5L135.4 126.8L141.5 133.2L147.3 127.2C160.8 140.3 168.3 158 168.3 176.8C168.2 194.9 161.3 212 148.7 225Z" fill="white"/>
<path d="M99 165.4C92.7 165.4 87.5 170.6 87.5 176.9C87.5 183.2 92.7 188.4 99 188.4C105.3 188.4 110.5 183.2 110.5 176.9C110.5 170.5 105.4 165.4 99 165.4ZM99 206.1C82.9 206.1 69.8 193 69.8 176.9C69.8 160.8 82.9 147.7 99 147.7C115.1 147.7 128.2 160.8 128.2 176.9C128.2 193 115.1 206.1 99 206.1ZM162.8 113.1L111.3 160.7Z" fill="white"/>
<path d="M156.8 106.6L168.8 119.6L117.3 167.2L105.3 154.2L156.8 106.6Z" fill="white"/>
<path d="M174.4 275.9H97.4V258.2H156.7V242.1L103.3 201.9L113.9 187.8L174.4 233.3V275.9Z" fill="white"/>
<path d="M180.7 69.1L187.8 62L194.9 69.1L187.8 76.2L180.7 69.1ZM150.2 34.9L153.6 31.5L157 34.9L153.6 38.3L150.2 34.9Z" fill="white"/>
<path d="M192.2 5.1C192.2 2.3 189.9 0 187.1 0C184.3 0 182 2.3 182 5.1C182 7.9 184.3 10.2 187.1 10.2C189.9 10.2 192.2 8 192.2 5.1Z" fill="white"/>
<path d="M64.7 139.7C61.1 139.7 58.2 136.8 58.2 133.2V64.2C58.3 60.6 61.2 57.8 64.8 57.8C68.3 57.9 71.1 60.7 71.2 64.2V133.2C71.2 136.8 68.3 139.7 64.7 139.7Z" fill="white"/>
<path d="M254.6 214.3H298.3V217.8C298.3 225.8 297.4 232.8 295.5 238.9C293.7 244.6 290.6 249.9 286.2 254.8C276.4 265.9 263.9 271.4 248.7 271.4C233.9 271.4 221.2 266.1 210.7 255.4C200.1 244.7 194.9 231.8 194.9 216.7C194.9 201.3 200.3 188.3 211 177.6C221.7 166.9 234.8 161.5 250.2 161.5C258.5 161.5 266.2 163.2 273.4 166.6C280.3 170 287 175.4 293.6 183L282.2 193.9C273.5 182.3 262.9 176.6 250.5 176.6C239.3 176.6 229.9 180.5 222.3 188.2C214.7 195.8 210.9 205.3 210.9 216.7C210.9 228.5 215.1 238.2 223.6 245.8C231.5 252.9 240.1 256.4 249.3 256.4C257.2 256.4 264.2 253.8 270.5 248.5C276.8 243.2 280.3 236.8 281 229.4H254.6V214.3V214.3Z" fill="white"/>
<path d="M354.9 163.6H370.9V269.5H354.9V163.6Z" fill="white"/>
<path d="M462.1 178.6V269.4H446.1V178.6H421.8V163.6H486.4V178.6H462.1ZM611.6 169.3V188.2C602.4 180.5 592.8 176.6 582.9 176.6C572 176.6 562.9 180.5 555.4 188.3C547.9 196.1 544.2 205.6 544.2 216.8C544.2 227.9 547.9 237.3 555.4 244.9C562.9 252.5 572.1 256.3 583 256.3C588.6 256.3 593.4 255.4 597.3 253.6C599.5 252.7 601.8 251.5 604.1 249.9C606.5 248.3 608.9 246.5 611.5 244.3V263.6C602.4 268.8 592.8 271.4 582.7 271.4C567.6 271.4 554.7 266.1 544 255.6C533.4 245 528 232.1 528 217.1C528 203.6 532.5 191.6 541.4 181C552.4 168.1 566.6 161.6 584 161.6C593.5 161.6 602.7 164.1 611.6 169.3Z" fill="white"/>
<path d="M687.9 199.4C687.9 211.1 691.8 220.7 699.7 228.2C707.5 235.7 716.5 239.5 726.8 239.5C737.9 239.5 747.3 235.7 754.9 228C762.5 220.2 766.4 210.8 766.4 199.6C766.4 188.3 762.6 178.9 755.1 171.2C747.6 163.5 738.3 159.7 727.3 159.7C716.3 159.7 707 163.5 699.4 171.2C691.7 178.9 687.9 188.2 687.9 199.4ZM671.8 199.2C671.8 184.3 677.3 171.5 688.2 160.8C699.1 150.1 712.1 144.8 727.4 144.8C742.5 144.8 755.4 150.2 766.2 161C777 171.8 782.4 184.7 782.4 199.9C782.4 215.1 777 228 766.1 238.6C755.2 249.3 742 254.6 726.5 254.6C712.8 254.6 700.6 249.9 689.7 240.4C677.8 229.9 671.8 216.2 671.8 199.2Z" fill="white"/>
<path d="M829.5 163.6H845.5V269.5H829.5V163.6Z" fill="white"/>
<path d="M907.4 269.5V156.4L984.6 237.2V163.6H1000.6V275.9L923.4 195.4V269.5H907.4Z" fill="white"/>
</svg>
