<svg width="138" height="23" viewBox="0 0 138 23" fill="none" xmlns="http://www.w3.org/2000/svg">
<path d="M20.5449 1.19075L21.4249 1.30075L21.3699 8.91827L21.2874 16.5358L20.4624 16.6733C20.0224 16.7558 20.8199 16.8383 22.2499 16.8108C23.6799 16.8108 24.5324 16.7833 24.1199 16.7283L23.3499 16.6458V8.80828V0.998252L21.5074 1.05325C20.4624 1.05325 20.0499 1.13575 20.5449 1.19075Z" fill="black"/>
<path d="M63.7205 1.19086L64.6005 1.30086L64.5455 8.91838L64.463 16.5359L63.638 16.7009C63.1705 16.8109 63.9955 16.8934 65.4255 16.8934C66.8555 16.8934 67.6805 16.8109 67.213 16.7009L66.388 16.5359L66.3055 13.9234C66.1955 10.8159 66.5255 9.57838 67.708 8.39588C68.368 7.73588 68.423 7.59837 67.9555 7.84587C67.6255 8.01088 67.1855 8.42338 66.993 8.69838C66.828 9.00088 66.5805 9.24838 66.4705 9.24838C66.333 9.24838 66.2505 7.37837 66.2505 5.12337V0.998355L64.5455 1.05336C63.583 1.05336 63.198 1.13586 63.7205 1.19086Z" fill="black"/>
<path d="M91.6877 1.24602L92.5127 1.41102V8.97354V16.5361L91.6877 16.6736C91.2477 16.7561 92.0452 16.8386 93.4752 16.8386C94.9052 16.8386 95.7302 16.7561 95.2627 16.6736L94.4377 16.5361L94.3552 8.75354L94.3002 0.998516L92.5677 1.02602C91.3302 1.05352 91.0827 1.10852 91.6877 1.24602Z" fill="black"/>
<path d="M105.796 1.19094L106.676 1.30094V5.17846V9.05597L106.126 8.34096C103.898 5.50846 98.9756 8.17596 98.9756 12.2185C98.9756 13.841 100.323 15.7935 102.001 16.6735C102.881 17.141 104.558 17.2235 104.943 16.866C105.026 16.756 104.668 16.7285 104.173 16.7835C101.918 17.0035 101.176 15.8485 101.176 12.081C101.176 9.13847 101.671 7.87346 103.018 7.51596C104.366 7.13096 105.878 7.98346 106.346 9.38597C106.923 11.091 106.648 14.8035 105.878 15.931L105.273 16.811L105.961 16.0685L106.648 15.2985L106.731 16.0135C106.813 16.6735 106.923 16.7285 108.463 16.7835C109.371 16.8385 109.783 16.811 109.371 16.756L108.601 16.646V8.80847V0.998444L106.758 1.05344C105.713 1.05344 105.301 1.13594 105.796 1.19094Z" fill="black"/>
<path d="M0.25 12.1358V22.9983H1.6525C2.50501 22.9983 2.97251 22.8883 2.86251 22.7233C2.78001 22.5583 2.20251 22.4483 1.5975 22.4483H0.525001L0.580001 12.0533L0.662501 1.68573L1.9 1.52073L3.13751 1.35573L1.7075 1.32823L0.25 1.27323V12.1358Z" fill="black"/>
<path d="M136.045 1.46573L137.2 1.57573V12.0258V22.4483H136.265C135.743 22.4483 135.22 22.5583 135.138 22.7233C135.028 22.8883 135.495 22.9983 136.348 22.9983H137.75V12.1358V1.27323L136.32 1.32823C134.918 1.35573 134.918 1.38323 136.045 1.46573Z" fill="black"/>
<path d="M10.9753 7.3506C10.5903 7.4881 10.0128 7.9556 9.68277 8.36811L9.05027 9.11061V8.20311V7.3231L7.34526 7.3506C6.16276 7.3781 5.86026 7.4331 6.38276 7.5706L7.15276 7.7356V15.1606V22.5856L6.24526 22.7506C5.75026 22.8606 6.57526 22.9156 8.08777 22.9156C9.60027 22.9156 10.4253 22.8606 9.95777 22.8056L9.05027 22.6956V18.9556V15.2431L9.84777 16.0956C10.2878 16.5631 10.7553 16.9756 10.8928 16.9756C12.6803 17.2506 14.1378 16.7556 15.4303 15.3806C16.8328 13.8956 17.1628 11.6681 16.2278 9.85311C15.5953 8.58811 14.9628 8.0106 13.6428 7.4606C12.5153 6.9931 11.9653 6.9656 10.9753 7.3506ZM13.8628 8.17561C14.3578 8.64311 14.4128 9.08311 14.4128 12.1356C14.4128 15.2981 14.3578 15.6006 13.8078 16.1506C12.5153 17.4706 10.2328 16.8656 9.49027 15.0231C8.94027 13.5931 8.91277 10.6781 9.49027 9.27561C10.2328 7.4056 12.5153 6.8281 13.8628 8.17561Z" fill="black"/>
<path d="M30.0325 7.46079C28.2725 8.23079 27.695 10.2108 29.2625 10.2108C30.0325 10.2108 30.0875 10.1558 30.005 9.19329C29.95 8.42329 30.06 8.09329 30.555 7.76329C31.985 6.74579 33.525 7.65329 33.525 9.46829C33.525 10.9808 32.9475 11.5858 30.8575 12.2733C28.465 13.0708 27.75 13.7033 27.75 15.0783C27.75 16.5633 28.795 17.1408 31.3525 17.0033C31.765 16.9758 32.37 16.6458 32.7275 16.2883L33.3325 15.6558L33.9375 16.3158C34.35 16.8383 34.79 17.0033 35.56 17.0033C36.1375 17.0033 36.715 16.8933 36.88 16.7283C37.045 16.5633 36.88 16.5083 36.4125 16.6183C35.945 16.7008 35.5875 16.6183 35.4225 16.3708C35.285 16.1508 35.175 14.4458 35.175 12.5483C35.175 8.67079 34.955 8.09329 33.36 7.43329C32.205 6.96579 31.16 6.96579 30.0325 7.46079ZM33.4425 13.5658C33.2225 15.8483 32.535 16.7283 31.0775 16.6183C29.3725 16.4808 28.85 14.3633 30.225 13.1808C30.72 12.7408 32.7825 11.8333 33.36 11.7508C33.4975 11.7233 33.525 12.5208 33.4425 13.5658Z" fill="black"/>
<path d="M43.0674 7.3232C40.7024 8.06571 39.4648 10.0182 39.6298 12.7132C39.7124 14.1982 39.8499 14.5832 40.5374 15.3257C41.0049 15.7932 41.7199 16.3432 42.1324 16.5632C43.0949 17.0857 44.9649 17.2232 45.9549 16.8932C46.7524 16.6182 48.0999 15.2157 48.0999 14.6657C48.0999 14.4732 47.8524 14.7207 47.5499 15.2157C47.2749 15.6832 46.7524 16.2332 46.4224 16.3982C45.6249 16.8382 43.9749 16.9482 43.2599 16.6182C41.7474 15.9307 41.0874 12.4932 41.8849 9.68821C42.2974 8.31321 42.4624 8.06571 43.3424 7.68071C44.0574 7.3782 44.5799 7.3507 45.1849 7.5157C45.9824 7.7632 46.0374 7.84571 45.9824 9.05571C45.9549 10.2107 46.0099 10.3757 46.6424 10.5132C48.2649 10.9257 48.5399 8.97321 46.9999 7.84571C46.1749 7.2407 44.1674 6.9657 43.0674 7.3232Z" fill="black"/>
<path d="M54.5902 7.43354C52.3627 8.25854 50.8777 10.6511 51.2352 12.8511C51.5652 14.9961 52.5827 16.2061 54.6452 16.8936C55.6352 17.2236 55.8552 16.9486 54.9202 16.5361C54.0127 16.1511 53.3252 14.5561 53.3252 12.9061V11.4761L56.7077 11.3936L60.0627 11.3111L59.9802 10.4861C59.7602 8.14855 56.9827 6.58104 54.5902 7.43354ZM57.3402 8.01104C57.8902 8.56105 58.0277 8.91855 57.9452 9.88105L57.8627 11.0361L55.5527 11.1186L53.2702 11.2011L53.4627 10.1561C53.9027 7.62604 55.8827 6.55354 57.3402 8.01104Z" fill="black"/>
<path d="M69.8252 7.18603C69.8252 7.26853 70.1277 7.46103 70.5127 7.59853C71.5577 7.98354 71.7777 8.97354 71.6952 12.9336L71.6127 16.5361L70.7877 16.7011C70.3477 16.7836 71.1452 16.8386 72.5752 16.8386C74.0052 16.8386 74.8302 16.7561 74.3627 16.6736L73.5377 16.5361L73.4002 12.631C73.2902 9.33104 73.1802 8.67104 72.7402 8.17604C72.1352 7.51603 69.8252 6.74603 69.8252 7.18603Z" fill="black"/>
<path d="M80.8525 7.76304C78.9275 8.72555 77.9375 10.2106 77.9375 12.1356C77.9375 15.4631 81.6225 18.0206 84.675 16.7556C89.1575 14.9131 89.02 9.08305 84.4275 7.46054C82.8325 6.91054 82.5575 6.93804 80.8525 7.76304ZM84.235 7.70804C85.4175 8.20305 85.885 9.49555 85.885 12.2731C85.8575 15.6281 84.9225 16.9481 82.6675 16.8106C80.7425 16.6731 80 15.3531 80 12.0806C80 8.20304 81.5675 6.58054 84.235 7.70804Z" fill="black"/>
<path d="M116.163 7.57087C111.818 9.57838 112.038 15.3809 116.52 16.8934C116.988 17.0584 117.4 17.0859 117.4 16.9759C117.4 16.8384 117.153 16.6734 116.878 16.5909C115.943 16.3434 115.2 14.7759 115.2 13.0159V11.4484H118.528H121.883L121.718 10.3209C121.525 8.94588 120.453 7.70837 119.078 7.32337C117.73 6.96587 117.428 6.99337 116.163 7.57087ZM119.078 7.84587C119.573 8.23088 119.71 8.64338 119.71 9.68838L119.738 11.0359L117.483 11.1184C115.338 11.2009 115.2 11.1734 115.2 10.6234C115.2 9.71588 115.915 8.25838 116.603 7.76337C117.455 7.18587 118.28 7.21337 119.078 7.84587Z" fill="black"/>
<path d="M130.16 7.43337C129.693 7.65337 129.06 8.17588 128.73 8.58838L128.153 9.38588L128.125 8.34088V7.32337L126.42 7.35087C125.155 7.37837 124.908 7.43337 125.513 7.57087L126.338 7.73588V12.1359V16.5359L125.513 16.7009C125.073 16.8109 125.925 16.8934 127.438 16.8934C129.005 16.8659 129.775 16.8109 129.225 16.7009L128.263 16.5359L128.29 13.2084C128.29 10.2659 128.373 9.77088 128.923 8.89088C129.528 7.90088 130.545 7.37837 131.15 7.73588C131.315 7.84587 131.398 8.36838 131.37 8.91838C131.288 9.88088 131.343 9.93588 132.113 9.93588C132.828 9.93588 132.938 9.82588 133.02 9.08338C133.158 7.65337 131.673 6.80087 130.16 7.43337Z" fill="black"/>
<path d="M68.9451 7.51598C69.1376 7.59848 69.3851 7.57098 69.4676 7.48848C69.5776 7.40598 69.4126 7.32348 69.1101 7.35098C68.8076 7.35098 68.7251 7.43348 68.9451 7.51598Z" fill="black"/>
<path d="M59.2653 15.2436C58.7978 16.1511 57.4503 16.8936 56.4603 16.7836C56.1028 16.7561 55.8003 16.8386 55.8003 16.9486C55.8003 17.3061 57.7528 17.0036 58.4678 16.5361C59.0453 16.1511 60.1178 14.4736 59.8153 14.4736C59.7328 14.4736 59.4853 14.8311 59.2653 15.2436Z" fill="black"/>
<path d="M120.7 15.6009C119.903 16.5359 119.545 16.7284 118.72 16.7559C118.143 16.7834 117.675 16.8934 117.675 17.0309C117.675 17.3884 119.518 17.0034 120.315 16.5084C120.865 16.1509 122.048 14.4459 121.745 14.4734C121.69 14.5009 121.223 14.9959 120.7 15.6009Z" fill="black"/>
</svg>
