<svg width="84" height="24" viewBox="0 0 84 24" fill="none" xmlns="http://www.w3.org/2000/svg">
<path d="M51.7284 21.7306L43.6553 2.15045C43.5915 1.97181 43.5579 1.78382 43.5559 1.59416C43.54 1.19262 43.6824 0.800878 43.9523 0.503194C44.0908 0.361568 44.2579 0.25119 44.4425 0.179465C44.6272 0.107739 44.825 0.0763254 45.0227 0.0873301C45.3225 0.0907769 45.6137 0.187837 45.8556 0.364933C46.1096 0.553498 46.3085 0.806782 46.4313 1.09837L54.108 20.2627L61.7858 1.09837C61.9079 0.806638 62.1064 0.553255 62.3605 0.364933C62.6024 0.187837 62.8935 0.0907769 63.1933 0.0873301C63.3912 0.0761689 63.5893 0.107506 63.7741 0.179236C63.9589 0.250966 64.1262 0.361426 64.2648 0.503194C64.5348 0.800878 64.6771 1.19262 64.6612 1.59416C64.6592 1.78347 64.6256 1.97111 64.5619 2.14937L56.4887 21.7306C56.034 22.7427 55.3578 23.2428 54.4656 23.2428H53.7516C52.8594 23.2385 52.1842 22.7427 51.7284 21.7306Z" fill="url(#paint0_linear)"/>
<path d="M68.0928 22.6434C67.9557 22.5053 67.8481 22.3409 67.7764 22.1601C67.7048 21.9792 67.6705 21.7857 67.6758 21.5913V1.75296C67.6686 1.35519 67.8184 0.970594 68.0928 0.682514C68.2271 0.539813 68.3903 0.427446 68.5716 0.352933C68.7528 0.278419 68.9479 0.243478 69.1438 0.250448H82.2559C82.4413 0.245267 82.6256 0.279681 82.7966 0.351394C82.9676 0.423107 83.1213 0.530468 83.2475 0.666312C83.382 0.793804 83.4886 0.947896 83.5604 1.11879C83.6322 1.28969 83.6676 1.47365 83.6644 1.65898C83.6693 1.84153 83.6346 2.02296 83.5626 2.19078C83.4906 2.3586 83.3831 2.50884 83.2475 2.63113C82.9817 2.88744 82.6251 3.02803 82.2559 3.02215H70.6517V10.2452H81.085C81.2704 10.2402 81.4548 10.2749 81.6258 10.3468C81.7968 10.4187 81.9504 10.5262 82.0766 10.6622C82.2098 10.7904 82.3155 10.9445 82.3872 11.115C82.4589 11.2855 82.4951 11.4688 82.4935 11.6538C82.4984 11.8363 82.4637 12.0177 82.3917 12.1856C82.3197 12.3534 82.2122 12.5036 82.0766 12.6259C81.9457 12.7542 81.7907 12.8553 81.6205 12.9234C81.4503 12.9914 81.2683 13.0251 81.085 13.0223H70.6517V20.2832H82.2559C82.4414 20.2777 82.6259 20.312 82.797 20.384C82.9681 20.4559 83.1217 20.5637 83.2475 20.7001C83.3821 20.8274 83.4887 20.9812 83.5605 21.152C83.6323 21.3227 83.6677 21.5065 83.6644 21.6917C83.6693 21.8743 83.6346 22.0557 83.5626 22.2235C83.4906 22.3914 83.3831 22.5416 83.2475 22.6639C82.9825 22.9222 82.6259 23.0647 82.2559 23.0603H69.1438C68.9485 23.0747 68.7524 23.0447 68.5704 22.9725C68.3884 22.9003 68.2251 22.7877 68.0928 22.6434Z" fill="url(#paint1_linear)"/>
<path d="M45.4795 21.1754L37.4074 1.59417C36.9526 0.583138 36.2732 0.0873423 35.3842 0.0873423H34.6692C33.7759 0.0873423 33.1018 0.583138 32.646 1.59957L29.1344 10.1329H26.4772C26.0937 10.1352 25.7266 10.2885 25.4554 10.5596C25.1843 10.8308 25.0309 11.1979 25.0287 11.5814V11.6008C25.0307 11.9844 25.1839 12.3517 25.4551 12.6229C25.7263 12.8941 26.0936 13.0473 26.4772 13.0493H27.9052L24.5566 21.183C24.493 21.3613 24.4594 21.5489 24.4573 21.7382C24.4413 22.1397 24.5836 22.5315 24.8537 22.8292C24.9922 22.9711 25.1595 23.0817 25.3443 23.1536C25.5291 23.2255 25.7272 23.257 25.9252 23.2461C26.2248 23.2417 26.5157 23.1447 26.758 22.9685C27.0119 22.7793 27.2107 22.5257 27.3338 22.234L31.0225 13.0526H33.5598C33.9433 13.0503 34.3104 12.897 34.5816 12.6258C34.8527 12.3547 35.0061 11.9875 35.0083 11.6041V11.5555C35.0063 11.1719 34.8531 10.8046 34.5819 10.5334C34.3107 10.2622 33.9434 10.1089 33.5598 10.107H32.188L35.0256 3.06428L42.7023 22.2286C42.8244 22.5203 43.0229 22.7737 43.277 22.962C43.5192 23.1393 43.8108 23.2364 44.1109 23.2396C44.3086 23.2506 44.5065 23.2192 44.6911 23.1475C44.8757 23.0758 45.0429 22.9654 45.1813 22.8238C45.4514 22.5257 45.5938 22.1336 45.5778 21.7317C45.5863 21.5413 45.5527 21.3514 45.4795 21.1754Z" fill="url(#paint2_linear)"/>
<path d="M21.3595 21.1754L13.2874 1.59417C12.8337 0.583138 12.1554 0.0873423 11.2621 0.0873423H10.5481C9.65588 0.0873423 8.98186 0.583138 8.52495 1.59957L5.01441 10.1329H2.35612C1.97274 10.1354 1.60579 10.2889 1.33469 10.56C1.06359 10.8311 0.910165 11.198 0.907618 11.5814V11.6008C0.912138 11.9829 1.06644 12.3479 1.33732 12.6174C1.60821 12.8869 1.97404 13.0392 2.35612 13.0418H3.7841L0.435585 21.1754C0.371916 21.3537 0.338333 21.5413 0.33621 21.7306C0.319983 22.1322 0.462374 22.5241 0.732631 22.8216C0.871163 22.9635 1.03845 23.0741 1.22327 23.146C1.40808 23.2179 1.60614 23.2495 1.80416 23.2385C2.10374 23.2341 2.39463 23.1371 2.63696 22.9609C2.89085 22.7717 3.08961 22.5182 3.21269 22.2264L6.90146 13.045H9.45713C9.8406 13.0427 10.2077 12.8894 10.4789 12.6182C10.75 12.3471 10.9034 11.98 10.9056 11.5965V11.5555C10.9036 11.1719 10.7504 10.8046 10.4792 10.5334C10.208 10.2622 9.84068 10.1089 9.45713 10.107H8.08856L10.9056 3.0632L18.5824 22.2264C18.7047 22.5186 18.9036 22.7723 19.1581 22.9609C19.4004 23.1371 19.6913 23.2341 19.9909 23.2385C20.1889 23.2492 20.3869 23.2175 20.5716 23.1456C20.7564 23.0737 20.9237 22.9633 21.0624 22.8216C21.3324 22.5239 21.4747 22.1322 21.4589 21.7306C21.4662 21.5406 21.4322 21.3512 21.3595 21.1754Z" fill="url(#paint3_linear)"/>
<defs>
<linearGradient id="paint0_linear" x1="1.51988" y1="23.7513" x2="85.8694" y2="5.8139" gradientUnits="userSpaceOnUse">
<stop stop-color="#31BAC6"/>
<stop offset="1" stop-color="#B6509E"/>
</linearGradient>
<linearGradient id="paint1_linear" x1="270023" y1="-830335" x2="282699" y2="-831448" gradientUnits="userSpaceOnUse">
<stop stop-color="#31BAC6"/>
<stop offset="1" stop-color="#B6509E"/>
</linearGradient>
<linearGradient id="paint2_linear" x1="474058" y1="-857367" x2="490663" y2="-860585" gradientUnits="userSpaceOnUse">
<stop stop-color="#31BAC6"/>
<stop offset="1" stop-color="#B6509E"/>
</linearGradient>
<linearGradient id="paint3_linear" x1="473801" y1="-858318" x2="490420" y2="-861547" gradientUnits="userSpaceOnUse">
<stop stop-color="#31BAC6"/>
<stop offset="1" stop-color="#B6509E"/>
</linearGradient>
</defs>
</svg>
