<svg width="836" height="262" viewBox="0 0 836 262" fill="none" xmlns="http://www.w3.org/2000/svg">
<path d="M435.074 228.453C399.4 228.453 397.186 207.471 403.777 183.625H432.591C429.788 196.788 428.001 207.849 443.837 207.849C453.574 207.849 459.679 201.561 461.669 192.203C466.938 167.407 409.268 165.884 417.994 124.862C422.574 103.308 436.53 86.1387 471.632 86.1387C499.679 86.1387 510.929 98.7252 502.894 127.541H474.847C477.039 117.233 477.554 106.741 465.919 106.741C456.571 106.741 449.944 111.897 447.917 121.427C442.353 147.56 500.836 145.271 491.624 188.584C484.035 224.261 457.01 228.453 435.074 228.453ZM603.496 226.165L632.795 88.4299H707.963L703.458 109.607H657.099L649.877 143.563H692.608L688.104 164.739H645.364L636.813 204.995H684.698L680.197 226.165H603.496ZM575.469 143.562L587.2 88.4273H616.008L586.706 226.175H557.913L570.978 164.739H537.968L524.903 226.175H496.09L525.381 88.4273H554.196L542.471 143.562H575.469ZM360.581 127.542L312.286 226.175H283.241L350.689 88.4297H388.657L396.759 226.175H366.402L360.581 127.542ZM767.442 88.4185C805.213 88.4185 806.925 113.604 797.793 156.531C793.287 177.718 786.225 226.166 736.998 226.166H690.074C699.837 180.25 709.6 134.33 719.366 88.4185H767.442ZM768.443 157.297C773.829 131.924 778.588 109.606 758.553 109.606H743.668C736.912 141.399 730.147 173.192 723.382 204.996H737.309C754.864 204.996 761.093 191.826 768.443 157.297ZM276.381 226.175H247.581L260.642 164.743H227.634L214.571 226.175H185.755L215.058 88.4313H243.86L232.136 143.563H265.146L276.867 88.4313H305.669L276.381 226.175ZM128.438 143.562L135.655 109.606H102.661L95.4295 143.562H128.438ZM193.266 109.606H164.467L157.248 143.562H186.047L181.542 164.743H152.747L139.671 226.175H110.871L123.932 164.743H90.9294L77.8645 226.175H49.0605L62.1237 164.743H33.33L37.8318 143.562H66.6255L73.8428 109.606H45.0491L49.5527 88.4308H78.3481L90.0724 33.3301H118.873L107.161 88.4308H140.169L151.884 33.3301H180.69L168.974 88.4308H197.772L193.266 109.606Z" fill="white"/>
</svg>
