<svg width="167" height="67" viewBox="0 0 167 67" fill="none" xmlns="http://www.w3.org/2000/svg">
<g filter="url(#filter0_d)">
<g clip-path="url(#clip0)">
<path d="M36.13 26.8377C37.3302 28.897 39.5775 32.5353 39.6456 32.5272C39.7052 32.5272 43.4252 26.4551 43.4252 26.3574C43.4252 26.3493 41.7142 26.333 39.6286 26.333H35.832L36.13 26.8377Z" fill="white"/>
<path d="M41.3328 33.3092C39.0429 37.0941 37.1616 40.2278 37.1446 40.2685C37.1276 40.3011 40.9156 40.3336 45.555 40.3336C50.3646 40.3336 53.9824 40.3011 53.9654 40.2604C53.8717 40.0243 45.6061 26.415 45.555 26.415C45.5209 26.415 43.6226 29.5162 41.3328 33.3092ZM48.0492 34.3022C49.3941 36.5325 50.4923 38.3802 50.4923 38.4127C50.4923 38.4371 48.2705 38.4616 45.5465 38.4616C42.3458 38.4616 40.6177 38.4371 40.6347 38.3802C40.6858 38.2174 45.5124 30.2406 45.555 30.2406C45.5805 30.2406 46.6957 32.072 48.0492 34.3022Z" fill="white"/>
<path d="M59.9406 29.109C59.498 29.1497 58.8425 29.2473 58.4935 29.3287L57.8551 29.4671L57.8295 34.9043L57.8125 40.3334H58.4084H59.0043V38.6322V36.931L59.6001 37.1671C62.0432 38.1113 64.7332 37.3543 65.7036 35.4415C66.0441 34.7659 66.1548 34.245 66.1548 33.2601C66.1548 31.209 64.9801 29.7438 62.9115 29.231C62.2646 29.0764 60.9196 29.0194 59.9406 29.109ZM62.8349 30.2241C63.7543 30.5659 64.3246 31.1194 64.6736 31.9904C64.9034 32.5683 64.9034 34.0822 64.6736 34.7171C64.2054 36.0031 63.269 36.6055 61.6942 36.6055C60.86 36.6136 60.2556 36.4915 59.532 36.1659L59.0043 35.9217L59.0213 33.0648L59.0468 30.1997L59.6001 30.102C59.9066 30.045 60.6472 30.0124 61.2601 30.0287C62.1454 30.045 62.4603 30.0857 62.8349 30.2241Z" fill="white"/>
<path d="M69.773 29.0998C69.5006 29.1486 69.143 29.2219 68.9813 29.2707L68.6919 29.3603L68.7515 29.7754C68.777 30.0114 68.8196 30.2068 68.8366 30.223C68.8451 30.2393 69.1005 30.1824 69.3984 30.1091C69.7559 30.0196 70.3008 29.9707 70.9647 29.9626C71.9352 29.9544 72.0118 29.9626 72.497 30.1986C73.0418 30.4591 73.3227 30.7765 73.4759 31.2893C73.527 31.4521 73.5611 32.6405 73.5611 34.0405V36.4986L73.1184 36.5393C71.3223 36.7103 70.3093 36.6451 69.6538 36.3033C69.109 36.0184 68.8792 35.6277 68.8792 34.9847C68.8792 34.3498 69.1005 34.0242 69.7304 33.7149C70.2497 33.4707 71.4755 33.2835 71.9947 33.3812L72.2842 33.43V32.9742V32.5184H71.4755C70.105 32.5184 68.9898 32.8196 68.3003 33.373C68.1556 33.487 67.9343 33.7882 67.8066 34.0323C67.6023 34.4312 67.5853 34.5451 67.6193 35.1556C67.6448 35.701 67.6959 35.9044 67.8832 36.2056C68.5472 37.2882 69.9688 37.6951 72.3863 37.4917C73.0588 37.4428 73.876 37.3533 74.1995 37.2963L74.7954 37.1986L74.8209 34.5533C74.8379 32.9091 74.8124 31.7126 74.7528 31.387C74.557 30.28 73.9526 29.6044 72.8375 29.23C72.3353 29.0591 70.5646 28.9858 69.773 29.0998Z" fill="white"/>
<path d="M79.0922 29.1007C78.5218 29.1496 77.1258 29.4507 76.947 29.5565C76.913 29.581 76.8789 31.3554 76.8789 33.5042V37.403H77.4748H78.0707L78.0877 33.8054L78.1132 30.1996L78.5814 30.0937C79.0581 29.9879 81.3395 30.0042 81.697 30.1182C81.8502 30.167 81.8843 30.1182 81.9694 29.7437C82.046 29.4182 82.0545 29.3042 81.9779 29.2554C81.7311 29.1089 79.9519 29.0112 79.0922 29.1007Z" fill="white"/>
<path d="M84.6859 29.1084C84.4221 29.1491 84.039 29.2142 83.8517 29.2631C83.5538 29.3445 83.5112 29.377 83.5538 29.5317C83.5793 29.6294 83.6048 29.784 83.6048 29.8735C83.6134 30.2235 83.707 30.2642 84.2944 30.1096C84.6519 30.0201 85.1882 29.9712 85.8607 29.9631C86.8141 29.9549 86.9162 29.9712 87.3589 30.1828C87.9377 30.4515 88.2527 30.8422 88.3719 31.4526C88.4144 31.6968 88.457 32.9259 88.457 34.1956V36.491L87.8867 36.5561C87.5632 36.5887 86.8907 36.6131 86.3714 36.6131C84.7796 36.6131 84.0049 36.2631 83.7751 35.4491C83.5623 34.6759 83.8858 34.0166 84.6689 33.6666C85.035 33.5038 86.4055 33.3166 86.9247 33.3573C87.129 33.3735 87.1375 33.3491 87.1631 32.934L87.1886 32.4945L86.0565 32.5433C84.2092 32.6166 83.1622 33.0724 82.6429 34.0166C82.379 34.5049 82.3876 35.5061 82.6514 36.0352C83.358 37.4189 85.2563 37.834 88.6953 37.3456L89.6487 37.2154V34.3177C89.6487 31.0619 89.6147 30.8015 89.0699 30.1177C88.6783 29.6375 88.0654 29.2956 87.2993 29.141C86.6608 29.0108 85.4776 28.9945 84.6859 29.1084Z" fill="white"/>
<path d="M115.397 29.1006C115.167 29.1331 114.801 29.2064 114.597 29.2552L114.231 29.3529L114.282 29.7761C114.316 30.0041 114.358 30.2075 114.375 30.232C114.401 30.2482 114.656 30.1994 114.946 30.118C115.635 29.9308 117.185 29.9064 117.78 30.0692C118.342 30.232 118.87 30.7285 118.998 31.2331C119.066 31.4854 119.1 32.4622 119.1 34.0494V36.4913L118.657 36.5564C118.41 36.5889 117.712 36.6134 117.099 36.6134C116.172 36.6134 115.916 36.5808 115.508 36.4343C114.682 36.1331 114.341 35.5959 114.435 34.7575C114.529 34.0006 115.21 33.5529 116.495 33.4145C116.912 33.3657 117.38 33.3494 117.534 33.382L117.823 33.4308V32.9668V32.4947L116.742 32.5436C115.014 32.6087 113.984 33.0157 113.439 33.8622C113.235 34.1796 113.184 34.3587 113.158 34.8471C113.116 35.661 113.303 36.182 113.822 36.6703C114.58 37.4029 115.874 37.6634 117.968 37.4924C118.657 37.4354 119.474 37.3459 119.781 37.2971L120.334 37.1994L120.36 34.5134C120.377 32.7389 120.351 31.6645 120.292 31.3389C120.036 30.0936 119.228 29.3447 117.857 29.1087C117.312 29.011 116.052 29.0029 115.397 29.1006Z" fill="white"/>
<path d="M124.636 29.1085C124.193 29.1492 123.52 29.2469 123.146 29.3201L122.465 29.4666V34.8794V40.2922H123.061H123.657L123.682 38.6073L123.699 36.9224L124.159 37.1259C125.504 37.712 127.308 37.7038 128.619 37.1015C129.266 36.8003 130.075 36.0271 130.373 35.4248C131.037 34.0655 130.977 32.2585 130.22 31.0213C129.743 30.2399 128.636 29.491 127.564 29.2306C126.9 29.0678 125.632 29.0108 124.636 29.1085ZM127.019 30.0852C128.79 30.4759 129.709 31.9166 129.471 33.9352C129.343 35.091 128.756 35.962 127.862 36.3364C126.823 36.7759 125.257 36.6864 124.108 36.1329L123.699 35.9376V33.0562V30.1748L124.235 30.0934C124.959 29.9875 126.551 29.9794 127.019 30.0852Z" fill="white"/>
<path d="M91.6937 30.4433C91.6937 31.8758 91.7448 32.063 92.2555 32.5351C92.6641 32.9014 93.1493 33.1375 94.5624 33.6502C96.3075 34.277 96.631 34.4886 96.8012 35.0502C96.997 35.7014 96.6139 36.2468 95.7967 36.4828C94.8604 36.7595 92.9365 36.6293 91.9405 36.2305C91.8384 36.1898 91.7788 36.2793 91.6682 36.613C91.5915 36.8572 91.5234 37.0688 91.5234 37.0933C91.5234 37.1177 91.8384 37.2235 92.23 37.3293C92.8259 37.4921 93.1238 37.5247 94.29 37.5247C95.4647 37.5247 95.7371 37.5002 96.2479 37.3456C97.6695 36.9142 98.2994 36.084 98.0696 34.92C97.8823 33.9595 97.329 33.5689 95.0221 32.7549C93.6686 32.2828 93.1493 31.9735 92.9961 31.5421C92.9365 31.3793 92.894 30.8014 92.894 30.2154L92.8854 29.1816H92.2896H91.6937V30.4433Z" fill="white"/>
<path d="M98.5 29.2471C98.5 29.418 99.2065 31.6157 99.6066 32.6738C100.1 33.9843 100.569 35.0668 101.258 36.4587L101.726 37.4029H102.331H102.935L103.19 36.8494C103.829 35.5064 104.586 33.6994 104.987 32.5517L105.421 31.3064L105.838 32.4948C106.289 33.7808 106.978 35.4494 107.566 36.6459L107.94 37.4029H108.502H109.064L109.651 36.2389C110.656 34.2366 112.009 30.7041 112.256 29.4506L112.307 29.1738L111.737 29.1982C111.201 29.2227 111.15 29.2389 111.09 29.4262C111.056 29.5401 110.869 30.1343 110.673 30.761C110.12 32.5599 108.749 36.0192 108.545 36.1413C108.46 36.1901 107.728 34.5052 107.166 32.9831C106.808 31.9901 106.366 30.5982 106.076 29.5238L105.983 29.1738L105.472 29.1982L104.953 29.2227L104.535 30.5657C103.812 32.861 102.569 36.1006 102.416 36.1006C102.169 36.1006 100.441 31.6645 99.862 29.5238L99.7684 29.182H99.1384C98.7894 29.182 98.5 29.2145 98.5 29.2471Z" fill="white"/>
</g>
</g>
<defs>
<filter id="filter0_d" x="-3.33333" y="-1.66667" width="173.333" height="73.3333" filterUnits="userSpaceOnUse" color-interpolation-filters="sRGB">
<feFlood flood-opacity="0" result="BackgroundImageFix"/>
<feColorMatrix in="SourceAlpha" type="matrix" values="0 0 0 0 0 0 0 0 0 0 0 0 0 0 0 0 0 0 127 0"/>
<feOffset dy="1.66667"/>
<feGaussianBlur stdDeviation="1.66667"/>
<feColorMatrix type="matrix" values="0 0 0 0 0 0 0 0 0 0 0 0 0 0 0 0 0 0 0.1 0"/>
<feBlend mode="normal" in2="BackgroundImageFix" result="effect1_dropShadow"/>
<feBlend mode="normal" in="SourceGraphic" in2="effect1_dropShadow" result="shape"/>
</filter>
<clipPath id="clip0">
<rect width="95" height="14" fill="white" transform="translate(35.832 26.333)"/>
</clipPath>
</defs>
</svg>
