<svg width="1317" height="267" viewBox="0 0 1317 267" fill="none" xmlns="http://www.w3.org/2000/svg">
<path d="M217.851 35.0848L225.851 36.0848L225.351 105.334L224.601 174.584L217.101 175.834C213.101 176.584 220.351 177.334 233.351 177.084C246.35 177.084 254.1 176.834 250.35 176.334L243.35 175.584V104.334V33.3348L226.601 33.8348C217.101 33.8348 213.351 34.5848 217.851 35.0848Z" fill="white"/>
<path d="M610.336 35.0828L618.335 36.0828L617.835 105.332L617.085 174.582L609.586 176.082C605.336 177.082 612.836 177.832 625.835 177.832C638.835 177.832 646.335 177.082 642.085 176.082L634.585 174.582L633.835 150.832C632.835 122.582 635.835 111.332 646.585 100.582C652.585 94.5825 653.085 93.3325 648.835 95.5825C645.835 97.0825 641.835 100.832 640.085 103.332C638.585 106.082 636.335 108.332 635.335 108.332C634.085 108.332 633.335 91.3325 633.335 70.8326V33.3328L617.835 33.8328C609.086 33.8328 605.586 34.5828 610.336 35.0828Z" fill="white"/>
<path d="M864.581 35.5792L872.081 37.0792V105.829V174.578L864.581 175.828C860.581 176.578 867.831 177.328 880.831 177.328C893.831 177.328 901.331 176.578 897.081 175.828L889.581 174.578L888.831 103.829L888.331 33.3292L872.581 33.5792C861.331 33.8292 859.081 34.3292 864.581 35.5792Z" fill="white"/>
<path d="M992.82 35.0795L1000.82 36.0795V71.3293V106.579L995.819 100.079C975.57 74.3293 930.82 98.5791 930.82 135.329C930.82 150.079 943.07 167.829 958.32 175.829C966.32 180.079 981.57 180.829 985.07 177.579C985.82 176.579 982.57 176.329 978.07 176.829C957.57 178.829 950.82 168.329 950.82 134.079C950.82 107.329 955.32 95.8291 967.57 92.5792C979.82 89.0792 993.57 96.8291 997.819 109.579C1003.07 125.079 1000.57 158.829 993.57 169.079L988.07 177.079L994.32 170.329L1000.57 163.329L1001.32 169.829C1002.07 175.829 1003.07 176.329 1017.07 176.829C1025.32 177.329 1029.07 177.079 1025.32 176.579L1018.32 175.579V104.329V33.3295L1001.57 33.8295C992.07 33.8295 988.32 34.5795 992.82 35.0795Z" fill="white"/>
<path d="M33.33 134.581V233.33H46.0799C53.8299 233.33 58.0799 232.33 57.0799 230.83C56.3299 229.33 51.0799 228.33 45.5799 228.33H35.83L36.33 133.831L37.08 39.5812L48.3299 38.0812L59.5799 36.5812L46.5799 36.3312L33.33 35.8312V134.581Z" fill="white"/>
<path d="M1267.82 37.5812L1278.32 38.5812V133.581V228.33H1269.82C1265.07 228.33 1260.32 229.33 1259.57 230.83C1258.57 232.33 1262.82 233.33 1270.57 233.33H1283.32V134.581V35.8312L1270.32 36.3312C1257.57 36.5812 1257.57 36.8312 1267.82 37.5812Z" fill="white"/>
<path d="M130.811 91.0833C127.311 92.3333 122.061 96.5833 119.061 100.333L113.311 107.083V98.8333V90.8333L97.8115 91.0833C87.0616 91.3333 84.3116 91.8333 89.0616 93.0833L96.0615 94.5833V162.083V229.583L87.8116 231.083C83.3116 232.083 90.8116 232.583 104.561 232.583C118.311 232.583 125.811 232.083 121.561 231.583L113.311 230.583V196.583V162.833L120.561 170.583C124.561 174.833 128.811 178.583 130.061 178.583C146.311 181.083 159.561 176.583 171.311 164.083C184.061 150.583 187.061 130.333 178.561 113.833C172.811 102.333 167.061 97.0833 155.061 92.0833C144.811 87.8333 139.811 87.5833 130.811 91.0833ZM157.061 98.5833C161.561 102.833 162.061 106.833 162.061 134.583C162.061 163.333 161.561 166.083 156.561 171.083C144.811 183.083 124.061 177.583 117.311 160.833C112.311 147.833 112.061 121.333 117.311 108.583C124.061 91.5833 144.811 86.3333 157.061 98.5833Z" fill="white"/>
<path d="M304.093 92.0798C288.093 99.0797 282.843 117.08 297.093 117.08C304.093 117.08 304.593 116.58 303.843 107.83C303.343 100.83 304.343 97.8298 308.843 94.8298C321.843 85.5798 335.843 93.8298 335.843 110.33C335.843 124.08 330.593 129.58 311.593 135.83C289.843 143.079 283.343 148.829 283.343 161.329C283.343 174.829 292.843 180.079 316.093 178.829C319.843 178.579 325.343 175.579 328.593 172.329L334.093 166.579L339.593 172.579C343.343 177.329 347.343 178.829 354.343 178.829C359.593 178.829 364.843 177.829 366.343 176.329C367.843 174.829 366.343 174.329 362.093 175.329C357.843 176.079 354.593 175.329 353.093 173.079C351.843 171.079 350.843 155.579 350.843 138.33C350.843 103.08 348.843 97.8298 334.343 91.8298C323.843 87.5798 314.343 87.5798 304.093 92.0798ZM335.093 147.579C333.093 168.329 326.843 176.329 313.593 175.329C298.093 174.079 293.343 154.829 305.843 144.079C310.343 140.08 329.093 131.83 334.343 131.08C335.593 130.83 335.843 138.08 335.093 147.579Z" fill="white"/>
<path d="M422.573 90.8266C401.073 97.5766 389.823 115.326 391.323 139.826C392.073 153.326 393.323 156.826 399.573 163.576C403.823 167.826 410.323 172.826 414.073 174.826C422.823 179.576 439.823 180.826 448.823 177.826C456.073 175.326 468.323 162.576 468.323 157.576C468.323 155.826 466.073 158.076 463.323 162.576C460.823 166.826 456.073 171.826 453.073 173.326C445.823 177.326 430.823 178.326 424.323 175.326C410.573 169.076 404.573 137.826 411.823 112.326C415.573 99.8266 417.073 97.5766 425.073 94.0766C431.573 91.3266 436.323 91.0766 441.823 92.5766C449.073 94.8266 449.573 95.5766 449.073 106.577C448.823 117.076 449.323 118.576 455.073 119.826C469.823 123.576 472.323 105.827 458.323 95.5766C450.823 90.0766 432.573 87.5766 422.573 90.8266Z" fill="white"/>
<path d="M527.329 91.8338C507.079 99.3338 493.579 121.084 496.829 141.084C499.829 160.583 509.079 171.583 527.829 177.833C536.829 180.833 538.829 178.333 530.329 174.583C522.079 171.083 515.829 156.583 515.829 141.584V128.584L546.579 127.834L577.079 127.084L576.329 119.584C574.329 98.3338 549.079 84.0839 527.329 91.8338ZM552.329 97.0838C557.329 102.084 558.579 105.334 557.829 114.084L557.079 124.584L536.079 125.334L515.329 126.084L517.079 116.584C521.079 93.5838 539.079 83.8339 552.329 97.0838Z" fill="white"/>
<path d="M665.844 89.5789C665.844 90.3289 668.594 92.0789 672.094 93.3288C681.594 96.8288 683.594 105.829 682.844 141.829L682.094 174.578L674.594 176.078C670.594 176.828 677.844 177.328 690.844 177.328C703.844 177.328 711.344 176.578 707.094 175.828L699.594 174.578L698.344 139.079C697.344 109.079 696.344 103.079 692.344 98.5788C686.844 92.5789 665.844 85.5789 665.844 89.5789Z" fill="white"/>
<path d="M766.069 94.8305C748.57 103.58 739.57 117.08 739.57 134.58C739.57 164.83 773.069 188.08 800.819 176.58C841.569 159.83 840.319 106.83 798.569 92.0805C784.069 87.0805 781.569 87.3305 766.069 94.8305ZM796.819 94.3305C807.569 98.8305 811.819 110.58 811.819 135.83C811.569 166.33 803.069 178.33 782.569 177.08C765.069 175.83 758.319 163.83 758.319 134.08C758.319 98.8305 772.569 84.0806 796.819 94.3305Z" fill="white"/>
<path d="M1087.08 93.0802C1047.58 111.33 1049.58 164.08 1090.33 177.83C1094.58 179.33 1098.33 179.58 1098.33 178.58C1098.33 177.33 1096.08 175.83 1093.58 175.08C1085.08 172.83 1078.33 158.58 1078.33 142.58V128.33H1108.58H1139.08L1137.58 118.08C1135.83 105.58 1126.08 94.3302 1113.58 90.8302C1101.33 87.5802 1098.58 87.8302 1087.08 93.0802ZM1113.58 95.5802C1118.08 99.0801 1119.33 102.83 1119.33 112.33L1119.58 124.58L1099.08 125.33C1079.58 126.08 1078.33 125.83 1078.33 120.83C1078.33 112.58 1084.83 99.3301 1091.08 94.8302C1098.83 89.5802 1106.33 89.8302 1113.58 95.5802Z" fill="white"/>
<path d="M1214.32 91.8325C1210.07 93.8325 1204.32 98.5825 1201.32 102.332L1196.07 109.582L1195.82 100.082V90.8325L1180.32 91.0825C1168.82 91.3325 1166.57 91.8325 1172.07 93.0825L1179.57 94.5825V134.582V174.582L1172.07 176.082C1168.07 177.082 1175.82 177.832 1189.57 177.832C1203.82 177.582 1210.82 177.082 1205.82 176.082L1197.07 174.582L1197.32 144.332C1197.32 117.582 1198.07 113.082 1203.07 105.082C1208.57 96.0825 1217.82 91.3325 1223.32 94.5825C1224.82 95.5825 1225.57 100.332 1225.32 105.332C1224.57 114.082 1225.07 114.582 1232.07 114.582C1238.57 114.582 1239.57 113.582 1240.32 106.832C1241.57 93.8325 1228.07 86.0826 1214.32 91.8325Z" fill="white"/>
<path d="M657.821 92.5857C659.571 93.3357 661.821 93.0857 662.571 92.3357C663.571 91.5857 662.071 90.8357 659.321 91.0857C656.571 91.0857 655.821 91.8357 657.821 92.5857Z" fill="white"/>
<path d="M569.844 162.833C565.594 171.083 553.344 177.833 544.344 176.833C541.094 176.583 538.344 177.333 538.344 178.333C538.344 181.583 556.094 178.833 562.594 174.583C567.844 171.083 577.594 155.833 574.844 155.833C574.094 155.833 571.844 159.083 569.844 162.833Z" fill="white"/>
<path d="M1128.32 166.078C1121.07 174.578 1117.82 176.328 1110.32 176.578C1105.07 176.828 1100.82 177.828 1100.82 179.078C1100.82 182.328 1117.57 178.828 1124.82 174.328C1129.82 171.078 1140.57 155.578 1137.82 155.828C1137.32 156.078 1133.07 160.578 1128.32 166.078Z" fill="white"/>
</svg>
