<svg width="168" height="69" viewBox="0 0 168 69" fill="none" xmlns="http://www.w3.org/2000/svg">
<g filter="url(#filter0_d)">
<path d="M48.8659 28.1462H48.9185C50.1293 25.9179 52.2351 24.9629 54.7093 24.9629H55.9201V31.1173C55.0252 30.6398 54.1828 30.5337 53.2353 30.5337C49.7082 30.5337 48.8133 32.8681 48.8133 35.9984V43.2668H42.4961V25.1751H48.8659V28.1462Z" fill="white"/>
<path d="M65.6042 25.1748H59.2344V43.2665H65.6042V25.1748Z" fill="white"/>
<path d="M76.7683 27.2445H76.821C77.9791 25.4407 80.1374 24.5918 82.2432 24.5918C87.6127 24.5918 91.2977 29.1015 91.2977 34.3009C91.2977 39.5003 87.6127 43.9038 82.2958 43.9038C80.2428 43.9038 78.0843 43.161 76.7156 41.5693V51.4906L70.3984 54.1433V25.1754H76.7683V27.2445ZM76.5577 34.2478C76.5577 36.5291 78.0843 38.2799 80.6639 38.2799C83.2434 38.2799 84.7701 36.5291 84.7701 34.2478C84.7701 32.0195 83.2434 30.1625 80.6639 30.1625C78.0317 30.1625 76.5577 32.0195 76.5577 34.2478Z" fill="white"/>
<path d="M101.034 25.1748H94.6641V43.2665H101.034V25.1748Z" fill="white"/>
<path d="M125.83 34.2478C125.83 40.4022 120.776 43.8507 115.038 43.8507C109.3 43.8507 104.246 40.4022 104.246 34.2478C104.246 28.0935 109.3 24.5918 115.038 24.5918C120.829 24.5918 125.83 28.0935 125.83 34.2478ZM110.984 34.2478C110.984 36.5291 112.511 38.2799 115.091 38.2799C117.67 38.2799 119.197 36.5291 119.197 34.2478C119.197 32.0194 117.67 30.1625 115.091 30.1625C112.458 30.1625 110.984 32.0194 110.984 34.2478Z" fill="white"/>
<path d="M65.6065 20.1876L59.3945 22.6812V16.739L65.6065 14.1924V20.1876Z" fill="white"/>
<path d="M100.985 20.1876L94.7734 22.6812V16.739L100.985 14.1924V20.1876Z" fill="white"/>
</g>
<defs>
<filter id="filter0_d" x="39.1628" y="12.5257" width="90.0007" height="46.6176" filterUnits="userSpaceOnUse" color-interpolation-filters="sRGB">
<feFlood flood-opacity="0" result="BackgroundImageFix"/>
<feColorMatrix in="SourceAlpha" type="matrix" values="0 0 0 0 0 0 0 0 0 0 0 0 0 0 0 0 0 0 127 0"/>
<feOffset dy="1.66667"/>
<feGaussianBlur stdDeviation="1.66667"/>
<feColorMatrix type="matrix" values="0 0 0 0 0 0 0 0 0 0 0 0 0 0 0 0 0 0 0.1 0"/>
<feBlend mode="normal" in2="BackgroundImageFix" result="effect1_dropShadow"/>
<feBlend mode="normal" in="SourceGraphic" in2="effect1_dropShadow" result="shape"/>
</filter>
</defs>
</svg>
