<svg width="54" height="54" viewBox="0 0 54 54" fill="none" xmlns="http://www.w3.org/2000/svg">
<g id="Vector">
<mask id="path-1-inside-1" fill="white">
<path d="M52.1682 8.20733C51.7725 7.99965 51.3312 7.89449 50.8844 7.90148C50.4376 7.90846 49.9998 8.02738 49.6108 8.24733C47.7868 9.28467 45.9975 9.786 44.1362 9.786C38.7095 9.786 33.5975 5.442 28.8775 0.746C27.8775 -0.248667 26.0428 -0.248667 25.0428 0.746C20.5788 5.194 15.2615 9.738 9.6935 9.738C7.8535 9.738 6.09084 9.24733 4.31217 8.242C3.5175 7.79933 2.5575 7.786 1.75217 8.21C0.946836 8.634 0.416169 9.43933 0.344169 10.346C0.314835 10.69 -2.17316 44.6713 26.1655 53.122C26.4129 53.1964 26.6698 53.2342 26.9282 53.234H27.0002C27.2588 53.234 27.5122 53.1967 27.7602 53.1247C56.1788 44.6713 53.6135 10.682 53.5842 10.3407C53.5461 9.89483 53.3964 9.46574 53.149 9.09293C52.9015 8.72012 52.5642 8.41557 52.1682 8.20733Z"/>
</mask>
<path d="M52.1682 8.20733C51.7725 7.99965 51.3312 7.89449 50.8844 7.90148C50.4376 7.90846 49.9998 8.02738 49.6108 8.24733C47.7868 9.28467 45.9975 9.786 44.1362 9.786C38.7095 9.786 33.5975 5.442 28.8775 0.746C27.8775 -0.248667 26.0428 -0.248667 25.0428 0.746C20.5788 5.194 15.2615 9.738 9.6935 9.738C7.8535 9.738 6.09084 9.24733 4.31217 8.242C3.5175 7.79933 2.5575 7.786 1.75217 8.21C0.946836 8.634 0.416169 9.43933 0.344169 10.346C0.314835 10.69 -2.17316 44.6713 26.1655 53.122C26.4129 53.1964 26.6698 53.2342 26.9282 53.234H27.0002C27.2588 53.234 27.5122 53.1967 27.7602 53.1247C56.1788 44.6713 53.6135 10.682 53.5842 10.3407C53.5461 9.89483 53.3964 9.46574 53.149 9.09293C52.9015 8.72012 52.5642 8.41557 52.1682 8.20733Z" stroke="url(#paint0_linear)" stroke-width="6" mask="url(#path-1-inside-1)"/>
</g>
<defs>
<linearGradient id="paint0_linear" x1="53.6558" y1="53.234" x2="1.89121" y2="0.379758" gradientUnits="userSpaceOnUse">
<stop stop-color="#4E529A"/>
<stop offset="1" stop-color="#7678FD"/>
</linearGradient>
</defs>
</svg>
