<svg width="168" height="68" viewBox="0 0 168 68" fill="none" xmlns="http://www.w3.org/2000/svg">
<path d="M33.2786 33.7188C32.747 33.1994 32.1082 32.9397 31.3619 32.9397H23.9638C23.8264 32.9397 23.7086 32.892 23.61 32.7963C23.5114 32.7008 23.4622 32.5844 23.4622 32.447V31.847C23.4622 31.7159 23.5114 31.6023 23.61 31.5066C23.7086 31.4112 23.8264 31.3632 23.9638 31.3632H33.5025C33.5264 31.3632 33.5457 31.3557 33.5606 31.3408C33.5756 31.3261 33.5831 31.3095 33.5831 31.2916V29.5003C33.5831 29.4764 33.5756 29.4586 33.5606 29.4465C33.5457 29.4347 33.5262 29.4287 33.5025 29.4287H23.9638C23.2115 29.4287 22.571 29.6886 22.0426 30.2081C21.5142 30.7275 21.25 31.3543 21.25 32.0888V32.2052C21.25 32.9458 21.5142 33.5756 22.0426 34.0951C22.571 34.6146 23.2115 34.8742 23.9638 34.8742H31.3619C31.4933 34.8742 31.6083 34.9205 31.7066 35.0131C31.8052 35.1056 31.8544 35.2206 31.8544 35.358V35.958C31.8544 36.0954 31.8052 36.2104 31.7066 36.303C31.6081 36.3955 31.4931 36.4418 31.3619 36.4418H21.8143C21.7965 36.4418 21.7798 36.4493 21.7651 36.4643C21.7502 36.4792 21.7427 36.4987 21.7427 36.5226V38.3139C21.7427 38.3317 21.7502 38.3484 21.7651 38.3631C21.7801 38.378 21.7965 38.3855 21.8143 38.3855H31.3619C32.1082 38.3855 32.747 38.1244 33.2786 37.6018C33.8099 37.0794 34.0758 36.451 34.0758 35.7165V35.5998C34.0755 34.8653 33.8099 34.2383 33.2786 33.7188Z" fill="white"/>
<path d="M49.3408 29.4287H47.2717C47.2539 29.4287 47.2373 29.4347 47.2226 29.4465C47.2076 29.4586 47.2002 29.4764 47.2002 29.5003V31.7752C47.2002 31.9721 47.0985 32.1216 46.8957 32.2231L42.7668 33.9336L38.638 32.2231C38.435 32.1216 38.3335 31.9724 38.3335 31.7752V29.5003C38.3335 29.4764 38.3275 29.4586 38.3157 29.4465C38.3034 29.4347 38.2855 29.4287 38.2617 29.4287H36.1927C36.1749 29.4287 36.1582 29.4347 36.1435 29.4465C36.1286 29.4586 36.1211 29.4764 36.1211 29.5003V32.1066C36.1211 32.495 36.2286 32.8501 36.4437 33.1723C36.6587 33.4949 36.9511 33.7335 37.3213 33.8888L41.6563 35.7069V38.3045C41.6563 38.3284 41.6638 38.3479 41.6787 38.3628C41.6937 38.3778 41.713 38.3852 41.7368 38.3852H43.8058C43.8236 38.3852 43.8401 38.3778 43.855 38.3628C43.87 38.3479 43.8774 38.3286 43.8774 38.3045V35.7071L48.2124 33.8979C48.5824 33.7367 48.8753 33.4963 49.0901 33.1769C49.3051 32.8575 49.4124 32.5039 49.4124 32.1155V29.5003C49.4124 29.4764 49.4049 29.4586 49.3899 29.4465C49.375 29.4347 49.3586 29.4287 49.3408 29.4287Z" fill="white"/>
<path d="M64.7071 29.4287H62.6381C62.6142 29.4287 62.5961 29.4362 62.5843 29.4511C62.5723 29.4661 62.5665 29.4825 62.5665 29.5003V36.4505H61.6977C61.5364 36.4505 61.399 36.3789 61.2857 36.2355L57.2733 30.3691C56.8432 29.7662 56.249 29.4526 55.4909 29.4287H52.0339C52.0101 29.4287 51.9905 29.4362 51.9756 29.4511C51.9606 29.4661 51.9531 29.4825 51.9531 29.5003V38.3134C51.9531 38.3313 51.9606 38.3479 51.9756 38.3626C51.9905 38.3775 52.0098 38.385 52.0339 38.385H54.1029C54.1207 38.385 54.1371 38.3775 54.1521 38.3626C54.1671 38.3479 54.1745 38.3313 54.1745 38.3134V31.3632H55.0433C55.2046 31.3632 55.3417 31.4379 55.4553 31.5872L59.4676 37.4535C59.8977 38.0567 60.4917 38.3672 61.2501 38.385H64.7073C64.7312 38.385 64.749 38.3775 64.7611 38.3626C64.7729 38.3479 64.7789 38.3313 64.7789 38.3134V29.5003C64.7789 29.4825 64.7729 29.4661 64.7611 29.4511C64.7488 29.4362 64.7309 29.4287 64.7071 29.4287Z" fill="white"/>
<path d="M79.663 29.4287H66.9895C66.9657 29.4287 66.9476 29.4362 66.9358 29.4511C66.9238 29.4661 66.918 29.4825 66.918 29.5003V31.2916C66.918 31.3095 66.9238 31.3261 66.9358 31.3408C66.9476 31.3557 66.9657 31.3632 66.9895 31.3632H72.22V38.3134C72.22 38.3313 72.2258 38.3479 72.2379 38.3626C72.2497 38.3775 72.2678 38.385 72.2917 38.385H74.3607C74.3846 38.385 74.4024 38.3775 74.4144 38.3626C74.4262 38.3479 74.4322 38.3313 74.4322 38.3134V31.3632H79.6628C79.6866 31.3632 79.7059 31.3557 79.7209 31.3408C79.7358 31.3258 79.7433 31.3095 79.7433 31.2916V29.5003C79.7433 29.4825 79.7358 29.4661 79.7209 29.4511C79.7064 29.4362 79.6869 29.4287 79.663 29.4287Z" fill="white"/>
<path d="M95.0304 29.4287H92.9611C92.9433 29.4287 92.9268 29.4362 92.9119 29.4511C92.8971 29.4661 92.89 29.4825 92.89 29.5003V32.9395H84.5067V29.5003C84.5067 29.4825 84.499 29.4661 84.4842 29.4511C84.4694 29.4364 84.4498 29.4287 84.4262 29.4287H82.3568C82.3391 29.4287 82.3225 29.4362 82.3077 29.4511C82.2929 29.4661 82.2852 29.4825 82.2852 29.5003V38.3134C82.2852 38.3313 82.2929 38.3479 82.3077 38.3626C82.3225 38.3775 82.3391 38.385 82.3568 38.385H84.4262C84.4498 38.385 84.4694 38.3775 84.4842 38.3626C84.499 38.3477 84.5067 38.3313 84.5067 38.3134V34.8742H92.89V38.3134C92.89 38.3313 92.8971 38.3479 92.9119 38.3626C92.9273 38.3775 92.9433 38.385 92.9611 38.385H95.0304C95.0541 38.385 95.0737 38.3775 95.0885 38.3626C95.1033 38.3477 95.111 38.3313 95.111 38.3134V29.5003C95.111 29.4825 95.1033 29.4661 95.0885 29.4511C95.0737 29.4362 95.0541 29.4287 95.0304 29.4287Z" fill="white"/>
<path d="M110.344 29.4287H100.304C99.5573 29.4287 98.918 29.6883 98.3866 30.2078C97.8552 30.7273 97.5898 31.3543 97.5898 32.0888V35.716C97.5898 36.4566 97.8552 37.0864 98.3866 37.6059C98.918 38.1254 99.5573 38.3852 100.304 38.3852H110.344C110.362 38.3852 110.378 38.3778 110.393 38.3628C110.407 38.3479 110.415 38.3315 110.415 38.3137V36.5224C110.415 36.4985 110.408 36.4807 110.393 36.4686C110.378 36.4568 110.362 36.4507 110.344 36.4507H100.304C100.166 36.4507 100.05 36.403 99.9542 36.3076C99.8588 36.2121 99.8108 36.0986 99.8108 35.9672V34.8742H110.337C110.361 34.8742 110.379 34.8668 110.391 34.8518C110.403 34.8369 110.409 34.8205 110.409 34.8026V33.0113C110.409 32.9875 110.403 32.9696 110.391 32.9576C110.379 32.9458 110.361 32.9397 110.337 32.9397H99.8108V31.847C99.8108 31.7156 99.8588 31.6023 99.9542 31.5066C100.05 31.4112 100.166 31.3632 100.304 31.3632H110.344C110.362 31.3632 110.378 31.3557 110.393 31.3408C110.407 31.3261 110.415 31.3095 110.415 31.2916V29.5003C110.415 29.4825 110.408 29.4661 110.393 29.4511C110.378 29.4364 110.362 29.4287 110.344 29.4287Z" fill="white"/>
<path d="M125.636 29.4287H112.962C112.939 29.4287 112.92 29.4362 112.908 29.4511C112.897 29.4661 112.891 29.4825 112.891 29.5003V31.2916C112.891 31.3095 112.897 31.3261 112.908 31.3408C112.92 31.3557 112.939 31.3632 112.962 31.3632H118.193V38.3134C118.193 38.3313 118.199 38.3479 118.211 38.3626C118.223 38.3775 118.241 38.385 118.264 38.385H120.333C120.357 38.385 120.375 38.3775 120.387 38.3626C120.399 38.3479 120.405 38.3313 120.405 38.3134V31.3632H125.635C125.66 31.3632 125.679 31.3557 125.693 31.3408C125.709 31.3258 125.716 31.3095 125.716 31.2916V29.5003C125.716 29.4825 125.709 29.4661 125.693 29.4511C125.679 29.4362 125.66 29.4287 125.636 29.4287Z" fill="white"/>
<path d="M130.456 29.4465C130.444 29.4347 130.426 29.4287 130.402 29.4287H128.333C128.309 29.4287 128.291 29.4347 128.279 29.4465C128.268 29.4586 128.262 29.4764 128.262 29.5003V38.3134C128.262 38.3313 128.268 38.3479 128.279 38.3626C128.291 38.3775 128.309 38.385 128.333 38.385H130.402C130.426 38.385 130.444 38.3775 130.456 38.3626C130.468 38.3477 130.474 38.3313 130.474 38.3134V29.5003C130.474 29.4767 130.468 29.4586 130.456 29.4465Z" fill="white"/>
<path d="M136.165 31.6054C136.076 31.5039 135.965 31.4531 135.834 31.4531H133.147C133.123 31.4531 133.104 31.4456 133.089 31.4306C133.074 31.4159 133.066 31.3993 133.066 31.3815V29.5901C133.066 29.5723 133.074 29.5559 133.089 29.541C133.104 29.5263 133.123 29.5186 133.147 29.5186H135.986C136.703 29.5186 137.321 29.8083 137.84 30.3873L138.53 31.2202L137.187 32.8413L136.165 31.6054ZM141.127 30.3784C141.646 29.8052 142.267 29.5186 142.99 29.5186H145.82C145.844 29.5186 145.862 29.5246 145.874 29.5364C145.886 29.5484 145.892 29.5663 145.892 29.5901V31.3815C145.892 31.3993 145.886 31.4159 145.874 31.4306C145.862 31.4456 145.844 31.4531 145.82 31.4531H143.133C143.002 31.4531 142.892 31.5039 142.802 31.6054L140.822 33.9878L142.811 36.388C142.901 36.4837 143.008 36.5315 143.133 36.5315H145.82C145.844 36.5315 145.862 36.5389 145.874 36.5539C145.886 36.5688 145.892 36.5883 145.892 36.612V38.4033C145.892 38.4211 145.886 38.4377 145.874 38.4524C145.862 38.4674 145.844 38.4748 145.82 38.4748H142.99C142.268 38.4748 141.65 38.1853 141.136 37.606L139.488 35.6178L137.84 37.606C137.321 38.1853 136.7 38.4748 135.978 38.4748H133.147C133.123 38.4748 133.105 38.4674 133.093 38.4524C133.081 38.4375 133.075 38.4182 133.075 38.3941V36.6028C133.075 36.585 133.081 36.5685 133.093 36.5536C133.105 36.5387 133.123 36.5312 133.147 36.5312H135.834C135.959 36.5312 136.07 36.4806 136.165 36.3789L138.109 34.0324L141.127 30.3784Z" fill="white"/>
</svg>
