<svg width="167" height="67" viewBox="0 0 167 67" fill="none" xmlns="http://www.w3.org/2000/svg">
<path fill-rule="evenodd" clip-rule="evenodd" d="M77.4035 38.741H85.3869C85.615 40.8193 86.5274 42.5361 90.0401 42.5361C92.4579 42.5361 93.8265 41.3614 93.8265 39.6446C93.8265 37.8374 92.7316 37.3855 89.1733 36.8434C80.8706 35.8494 78.0878 33.4096 78.0878 27.5813C78.0878 22.3404 82.4216 18.5 89.447 18.5C96.518 18.5 100.487 21.4367 101.034 27.5813H93.2334C92.9597 25.503 91.7736 24.4639 89.447 24.4639C87.2117 24.4639 86.0256 25.4578 86.0256 26.9488C86.0256 28.5753 86.9379 29.2982 90.5875 29.7952C98.0235 30.6084 101.855 32.506 101.855 38.8313C101.855 44.1627 97.5673 48.5 90.0401 48.5C81.8742 48.4548 77.6772 45.0211 77.4035 38.741ZM51.2656 36.0299V18.7709H59.7052V35.6685C59.7052 39.7799 60.7088 41.7678 64.3128 41.7678C67.7798 41.7678 68.9203 39.9154 68.9203 35.5329V18.7257H77.4055V35.8944C77.4055 44.3431 72.3874 48.2739 64.3128 48.2739C56.01 48.319 51.2656 44.1624 51.2656 36.0299ZM110.934 18.9744H101.856L111.573 48.0255H121.153L130.733 18.9744H122.841L116.865 39.396L110.934 18.9744Z" fill="white"/>
</svg>
