<svg width="64" height="64" viewBox="0 0 64 64" fill="none" xmlns="http://www.w3.org/2000/svg">
<path fill-rule="evenodd" clip-rule="evenodd" d="M51.25 57.5C52.0784 57.5 52.75 56.8284 52.75 56C52.75 55.1716 52.0784 54.5 51.25 54.5L34.5 54.5L34.5 19.1456L49.4373 13.4004L45.5349 31.1784C45.4375 31.6221 45.5464 32.0861 45.8311 32.4401C46.1159 32.7941 46.5457 33 47 33L56 33C56.4543 33 56.8841 32.7941 57.1688 32.4401C57.4536 32.0861 57.5625 31.6221 57.4651 31.1784L52.9708 10.7045C52.9602 10.6521 52.9468 10.5998 52.9303 10.5479C52.7688 10.0361 52.3469 9.6541 51.833 9.53726C51.6105 9.48641 51.3746 9.48579 51.1425 9.54306C51.0738 9.55989 51.0068 9.58149 50.942 9.60749L11.9818 24.5922C11.6912 24.6992 11.4404 24.8942 11.2649 25.1485C11.1504 25.3149 11.0703 25.5032 11.0298 25.7014L6.53487 46.1784C6.43747 46.6221 6.54641 47.0861 6.83114 47.4401C7.11586 47.7941 7.54569 48 7.99999 48L17 48C17.4543 48 17.8841 47.7941 18.1688 47.4401C18.4536 47.0861 18.5625 46.6221 18.4651 46.1784L14.2415 26.9373L31.5 20.2994L31.5 54.5L14.75 54.5C13.9216 54.5 13.25 55.1716 13.25 56C13.25 56.8284 13.9216 57.5 14.75 57.5L51.25 57.5ZM15.135 45L12.5 32.996L9.86497 45L15.135 45ZM54.135 30L48.865 30L51.5 17.996L54.135 30Z" fill="url(#paint0_linear)"/>
<defs>
<linearGradient id="paint0_linear" x1="6.49998" y1="9.49959" x2="53.0412" y2="59.8535" gradientUnits="userSpaceOnUse">
<stop stop-color="#4E529A"/>
<stop offset="1" stop-color="#7678FD"/>
</linearGradient>
</defs>
</svg>
