<svg width="73" height="30" viewBox="0 0 73 30" fill="none" xmlns="http://www.w3.org/2000/svg">
<path d="M24.7691 3.81616H23.9833V26.2702H24.7691V3.81616Z" fill="white"/>
<path d="M36.5244 3.81787L36.1153 4.33526L29.566 12.3331V3.81787H28.7804V13.5041H29.6229L37.0263 4.46313L37.5648 3.81787H36.5244Z" fill="white"/>
<path d="M28.7803 16.7592V26.2718H29.566V17.9089L36.1336 25.7789L36.5243 26.2733H37.5695L37.0235 25.6191L29.6299 16.7592H28.7803Z" fill="white"/>
<path d="M41.7385 3.81782L41.3242 4.34172L41.3248 4.3418L32.541 15.1298L41.4125 25.8611L41.7385 26.2733H42.7836L42.2377 25.6191L42.2326 25.6198L33.5574 15.1261L42.2384 4.46417L42.779 3.81604L41.7385 3.81782Z" fill="white"/>
<path d="M2.93469 7.86115V8.64695H11.5402L3.55365 25.0735L2.97131 26.2731H20.0436V25.4874H4.39087L12.9208 7.86115H2.93469Z" fill="white"/>
<path d="M2.93469 3.81787V4.60376H18.7099L10.3324 22.1997H20.0436V21.4139H11.6982L19.4814 4.98491L20.0795 3.81787H2.93469Z" fill="white"/>
<path d="M63.0983 3.81787L62.7722 4.2304L49.6036 20.3367L44.8615 14.6451L44.4475 14.1215H43.4117L43.9247 14.7364L49.6014 21.5848L63.5892 4.47082L64.1433 3.81787H63.0983Z" fill="white"/>
<path d="M68.7747 3.81787L68.3649 4.34228L50.9028 25.4848L48.0945 25.4634L41.856 17.8985L41.4419 17.3751H40.4071L40.9202 17.99L47.7374 26.2731L51.2774 26.2735L69.2686 4.47125L69.8198 3.81796V3.81787H68.7747Z" fill="white"/>
</svg>
